<svg width="102" height="27" viewBox="0 0 102 27" fill="none" xmlns="http://www.w3.org/2000/svg">
<g clip-path="url(#clip0_1728_36751)">
<path d="M59.23 7.47379L65.0845 5.29394L59.23 3.0518V0L69.2573 4.0483V6.53957L59.23 10.5879V7.47379Z" fill="white"/>
<path d="M3.86146 26.7811C1.74388 26.7811 0 25.7223 0 23.3556V23.231C0 20.3661 2.49126 19.3696 5.54306 19.3696H6.97554V18.809C6.97554 17.6257 6.47729 16.9406 5.23165 16.9406C4.11059 16.9406 3.55005 17.5634 3.48777 18.4353H0.37369C0.622816 15.8195 2.67811 14.5739 5.4185 14.5739C8.22117 14.5739 10.2765 15.7572 10.2765 18.6845V26.5319H7.1001V25.1617C6.47729 26.0337 5.4185 26.7811 3.86146 26.7811ZM6.97554 22.6705V21.5494H5.66763C4.0483 21.5494 3.23864 21.9854 3.23864 23.0442V23.1687C3.23864 23.9784 3.7369 24.5389 4.85796 24.5389C5.97903 24.4766 6.97554 23.8538 6.97554 22.6705ZM17.688 26.7811C14.4493 26.7811 12.0826 24.7881 12.0826 20.802V20.6152C12.0826 16.6292 14.5739 14.5116 17.688 14.5116C20.3661 14.5116 22.5459 15.8818 22.7951 18.9336H19.681C19.4941 17.8125 18.8713 17.0651 17.7503 17.0651C16.3801 17.0651 15.3836 18.1862 15.3836 20.4906V20.8643C15.3836 23.231 16.2555 24.2898 17.7503 24.2898C18.8713 24.2898 19.681 23.4801 19.8678 22.1722H22.8573C22.6705 24.9126 20.8643 26.7811 17.688 26.7811ZM29.8952 26.7811C26.6565 26.7811 24.2898 24.7881 24.2898 20.802V20.6152C24.2898 16.6292 26.7811 14.5116 29.8952 14.5116C32.5733 14.5116 34.7531 15.8818 35.0023 18.9336H31.8882C31.7013 17.8125 31.0785 17.0651 29.9574 17.0651C28.5873 17.0651 27.5907 18.1862 27.5907 20.4906V20.8643C27.5907 23.231 28.4627 24.2898 29.9574 24.2898C31.0785 24.2898 31.8882 23.4801 32.075 22.1722H35.0645C34.8777 24.9126 33.0715 26.7811 29.8952 26.7811ZM42.1646 26.7811C38.8014 26.7811 36.497 24.7881 36.497 20.8643V20.6152C36.497 16.6914 38.926 14.5116 42.1024 14.5116C45.0296 14.5116 47.4586 16.1309 47.4586 20.0547V21.4871H39.7979C39.9225 23.6047 40.8567 24.4144 42.2269 24.4144C43.4726 24.4144 44.1577 23.7293 44.4068 22.9196H47.4586C47.0849 25.0995 45.2164 26.7811 42.1646 26.7811ZM39.8602 19.3073H44.2199C44.1577 17.5634 43.348 16.816 42.0401 16.816C41.0436 16.8783 40.1094 17.4388 39.8602 19.3073ZM49.4516 14.823H52.7525V16.5669C53.313 15.4458 54.4964 14.5739 56.3026 14.5739C58.4201 14.5739 59.8526 15.8818 59.8526 18.6845V26.5319H56.5517V19.1827C56.5517 17.8125 55.9912 17.1897 54.8078 17.1897C53.6867 17.1897 52.7525 17.8748 52.7525 19.3696V26.5319H49.4516V14.823ZM65.8939 11.2729V14.823H68.1361V17.252H65.8939V22.795C65.8939 23.667 66.2676 24.103 67.0773 24.103C67.5755 24.103 67.8869 24.0407 68.1984 23.9161V26.4697C67.8247 26.5942 67.1396 26.7188 66.3299 26.7188C63.7764 26.7188 62.593 25.5354 62.593 23.1687V17.252H61.2228V14.823H62.593V12.6431L65.8939 11.2729ZM80.4678 26.5319H77.2292V24.7881C76.6687 25.9091 75.5476 26.7811 73.8037 26.7811C71.6861 26.7811 70.1291 25.4732 70.1291 22.7328V14.823H73.43V22.2968C73.43 23.667 73.9905 24.2898 75.1116 24.2898C76.2327 24.2898 77.1669 23.5424 77.1669 22.1099V14.823H80.4678V26.5319ZM82.8968 14.823H86.1977V17.0029C86.8828 15.4458 88.0039 14.6984 89.7478 14.6984V17.9371C87.5057 17.9371 86.1977 18.6222 86.1977 20.5529V26.5942H82.8968V14.823ZM96.4119 26.7811C93.0487 26.7811 90.7443 24.7881 90.7443 20.8643V20.6152C90.7443 16.6914 93.1733 14.5116 96.3496 14.5116C99.2769 14.5116 101.706 16.1309 101.706 20.0547V21.4871H94.1075C94.2321 23.6047 95.1663 24.4144 96.5365 24.4144C97.7821 24.4144 98.4672 23.7293 98.7163 22.9196H101.768C101.27 25.0995 99.4637 26.7811 96.4119 26.7811ZM94.0452 19.3073H98.4672C98.4049 17.5634 97.5953 16.816 96.2874 16.816C95.2909 16.8783 94.3566 17.4388 94.0452 19.3073Z" fill="white"/>
</g>
<defs>
<clipPath id="clip0_1728_36751">
<rect width="101.644" height="26.7811" fill="white"/>
</clipPath>
</defs>
</svg>
