<svg width="140" height="27" viewBox="0 0 140 27" fill="none" xmlns="http://www.w3.org/2000/svg">
<path d="M4.28693 25.8279H0.932617V15.6257H4.28693C7.83569 15.6257 9.73768 17.3615 9.73768 20.7198C9.73768 24.0496 8.15775 25.8279 4.28693 25.8279ZM4.04386 17.1777H2.94399V24.2753H4.01956C6.79051 24.3319 7.68378 22.9776 7.68378 20.7338C7.68378 18.2643 6.4016 17.1777 4.04386 17.1777Z" fill="white"/>
<path d="M12.8123 21.524C12.867 20.5925 13.3227 19.7316 14.374 19.7316C15.3948 19.7316 15.8992 20.4933 15.8567 21.524H12.8123ZM14.4347 18.5325C11.7549 18.5325 10.8252 20.4374 10.8252 22.2291C10.8252 24.3603 11.8947 25.9543 14.1795 26.0249C15.9964 26.0395 17.6067 25.4889 17.7161 23.4994H15.8567C15.8567 24.3037 15.2065 24.8257 14.4469 24.8257C13.1647 24.8257 12.7576 23.8803 12.7393 22.7231L17.8741 22.7091C18.026 20.5925 17.1085 18.5325 14.4347 18.5325Z" fill="white"/>
<path d="M26.1204 25.8277H24.2002L24.188 24.6705C23.866 25.5874 22.9727 26.0534 21.8789 26.0534C20.5785 26.0534 19.351 25.2631 19.3389 23.3722V18.7861H21.2834V23.1039C21.2712 24.1199 21.6662 24.6845 22.6203 24.6985C23.4831 24.6985 24.188 24.2045 24.188 22.8362V18.7861H26.1204V25.8277Z" fill="white"/>
<path d="M28.6115 18.8148V17.6996L30.4892 16.7122V18.8148H32.2818V20.1831H30.4892V23.584C30.4892 24.2751 30.7262 24.6706 31.4311 24.6986C31.6984 24.6986 31.9415 24.7266 32.2939 24.628V25.8417C31.3764 25.9689 30.319 26.2086 29.444 25.7426C28.7816 25.3903 28.6115 24.7691 28.6115 23.7817V20.1831H27.1045V18.8148H28.6115Z" fill="white"/>
<path d="M39.58 22.7938C39.8899 23.415 39.8778 24.2333 39.495 24.7979C38.8326 25.8133 37.3924 26.0676 36.2804 26.0396C34.7005 25.9405 33.2968 25.5316 33.3636 23.6407H35.2838C35.2656 24.459 35.7761 24.7553 36.5052 24.7833C37.2101 24.7833 37.915 24.5436 37.915 23.8944C37.915 23.3724 37.4228 23.1467 36.7909 23.0056C36.0677 22.8504 35.5512 22.7798 34.743 22.455C34.0989 22.1447 33.4608 21.6227 33.4608 20.6353C33.4608 19.8164 34.0989 19.1958 34.9314 18.8569C35.4904 18.6172 36.1832 18.5466 36.7787 18.5466C38.1156 18.5466 39.5679 19.0121 39.4828 20.7052H37.678C37.678 20.4515 37.6234 20.1692 37.4107 20.0001C37.0157 19.6472 35.8004 19.6046 35.4236 20.1832C34.9982 21.1713 36.3108 21.2418 37.7631 21.6367C38.6807 21.8484 39.3005 22.2293 39.58 22.7938Z" fill="white"/>
<path d="M44.3868 18.5178C45.9242 18.5178 47.5163 19.2236 47.5163 21.157L45.6265 21.1424C45.6265 20.2396 45.1342 19.689 44.2045 19.7316C43.9615 19.7456 43.7062 19.8301 43.4996 19.9433C42.9163 20.2822 42.734 21.2276 42.734 22.1731C42.734 23.1745 42.977 24.1485 43.4146 24.5008C43.7062 24.7831 44.2288 24.8683 44.6785 24.7831C45.4259 24.6565 45.6508 23.9222 45.669 23.2876L47.5163 23.2737C47.5406 25.2911 45.8938 26.0534 44.1741 26.0248C41.8772 25.9402 40.8198 24.4448 40.8198 22.229C40.8198 19.9859 42.102 18.5178 44.3868 18.5178Z" fill="white"/>
<path d="M49.0049 15.6396H50.9494V19.9008C51.4599 18.998 52.2194 18.6031 53.2464 18.6031C54.5468 18.6031 55.7743 19.5766 55.7743 20.9735V25.8278H53.8541V21.5094C53.8541 20.55 53.4469 19.9154 52.5293 19.9154C51.6725 19.9154 50.9373 20.4794 50.9373 21.7778V25.8278H49.0049V15.6396Z" fill="white"/>
<path d="M59.2683 21.524C59.323 20.5925 59.7727 19.7316 60.83 19.7316C61.8448 19.7316 62.3553 20.4933 62.3127 21.524H59.2683ZM60.8908 18.5325C58.211 18.5325 57.2812 20.4374 57.2812 22.2291C57.2812 24.3603 58.3507 25.9543 60.6356 26.0249C62.4525 26.0395 64.0628 25.4889 64.1722 23.4994H62.3127C62.3127 24.3037 61.6625 24.8257 60.9029 24.8257C59.6208 24.8257 59.2136 23.8803 59.1954 22.7231L64.3302 22.7091C64.4821 20.5925 63.5645 18.5325 60.8908 18.5325Z" fill="white"/>
<path d="M76.3197 25.5315C75.6634 25.7426 74.8127 25.8278 73.9012 25.8278H70.2188V15.6536H74.1382C75.8883 15.6536 77.7173 16.2042 77.7903 18.1656C77.8328 19.4074 76.9881 20.1971 75.9308 20.5499C76.7451 20.7616 77.4074 21.0014 77.8571 21.7637C78.2521 22.4408 78.2825 23.3443 77.9604 24.092C77.6201 24.7978 77.0975 25.2632 76.3197 25.5315ZM74.1382 17.1776H72.1511V19.8162H74.1686C75.2259 19.8162 75.7728 19.3788 75.7728 18.5179C75.7728 17.7136 75.1408 17.1776 74.1382 17.1776ZM74.3387 21.3402L72.1511 21.3262V24.3177H74.2658C75.6756 24.3177 76.1253 23.626 76.1253 22.7657C76.1253 22.1026 75.6452 21.3262 74.3387 21.3402Z" fill="white"/>
<path d="M82.4692 24.8117C81.7521 24.7551 81.3267 24.4022 81.3267 23.7251C81.3389 22.2437 83.2166 22.3988 84.1888 22.3988C84.2314 23.57 84.1342 24.7831 82.4692 24.8117ZM86.0361 20.7196C86.0361 19.2802 84.4866 18.5604 82.694 18.5744C80.9865 18.603 79.7468 19.153 79.7225 20.8042H81.5941C81.5516 20.0419 82.0742 19.647 82.7669 19.633C83.806 19.633 84.2739 20.1124 84.1767 21.2982C83.1437 21.3542 81.7643 21.2836 80.7373 21.7636C79.9899 22.1165 79.4126 22.7797 79.4126 23.8377C79.4126 25.1926 80.3545 26.0108 81.7339 26.0534C82.7244 26.152 83.8486 25.7146 84.2861 24.7977L84.359 25.8277H86.0361C86.0361 24.1199 86.0361 22.4408 86.0361 20.7196Z" fill="white"/>
<path d="M87.9077 18.7862H89.8522V19.9153C90.3627 18.9979 91.2924 18.603 92.3376 18.603C93.5043 18.603 94.7014 19.2802 94.7014 20.9733V25.8277H92.7569V21.5093C92.769 20.5925 92.3194 19.9153 91.4322 19.9153C90.5571 19.9153 89.8401 20.4793 89.8401 21.7776V25.8277H87.9077V18.7862Z" fill="white"/>
<path d="M101.507 25.8278L98.5479 21.7917L101.228 18.7863H103.513L100.736 21.7212L104.005 25.8278H101.507ZM96.5791 15.6396H98.4932V25.8278H96.5791V15.6396Z" fill="white"/>
<path d="M114.317 0.932861H139.067V25.8132H114.317V0.932861ZM129.357 6.82579L119.689 19.8169H124.058L133.762 6.82579H129.357ZM117.762 22.3673H135.622V4.37942H117.762V22.3673Z" fill="white"/>
</svg>
