<svg width="100" height="41" viewBox="0 0 100 41" fill="none" xmlns="http://www.w3.org/2000/svg">
<path d="M86.0256 17.9082C84.3543 18.2842 79.9404 18.4931 79.9404 18.4931L79.3976 20.192C79.3976 20.192 81.5831 20.011 83.183 20.1642C83.183 20.1642 83.6972 20.1224 83.7544 20.7212C83.7829 21.3339 83.7115 21.9745 83.7115 21.9745C83.7115 21.9745 83.6687 22.3505 83.1401 22.448C82.5259 22.5455 78.3834 22.7265 78.3834 22.7265L77.712 24.9267C77.712 24.9267 77.4691 25.428 78.0262 25.2888C78.5405 25.1495 82.883 24.3419 83.4544 24.4533C84.0544 24.5925 84.74 25.4002 84.54 26.1243C84.3115 27.0016 79.9689 29.7032 77.3406 29.5222C77.3406 29.5222 75.955 29.6057 74.7979 27.7815C73.6837 26.0408 75.1836 22.7683 75.1836 22.7683C75.1836 22.7683 74.5122 21.2365 75.0122 20.6794C75.0122 20.6794 75.2979 20.4427 76.155 20.3731L77.2263 18.2285C77.2263 18.2285 76.0121 18.2982 75.2979 17.4348C74.6408 16.5992 74.5836 16.2372 75.0979 16.0144C75.6407 15.7359 80.6689 14.8585 84.1258 14.97C84.1258 14.97 85.34 14.8307 86.4113 16.8778C86.4113 16.8778 86.897 17.7133 86.0399 17.9082M72.9981 26.1522C72.5695 27.1687 71.3839 28.241 69.9554 27.5865C68.4984 26.9181 66.1986 22.3505 66.1986 22.3505C66.1986 22.3505 65.3415 20.6516 65.1701 20.7073C65.1701 20.7073 64.9844 20.3731 64.8844 22.2391C64.7415 24.0912 64.913 27.6979 64.1273 28.2689C63.4131 28.8259 62.556 28.5892 62.0703 27.9347C61.6703 27.2801 61.4989 25.7066 61.7275 22.9632C61.9846 20.2199 62.6274 17.2955 63.4416 16.3904C64.2987 15.4713 64.9844 16.1397 65.2415 16.3904C65.2415 16.3904 66.3414 17.3651 68.1984 20.2477L68.5127 20.7769C68.5127 20.7769 70.1983 23.5202 70.3697 23.5063C70.3697 23.5063 70.5125 23.6456 70.6268 23.5342C70.7982 23.4924 70.7411 22.6012 70.7411 22.6012C70.7411 22.6012 70.4268 19.635 68.8555 14.6218C68.8555 14.6218 68.627 13.9812 68.7841 13.3685C68.9269 12.8115 69.5412 13.09 69.5412 13.09C69.5412 13.09 71.9124 14.204 73.0695 17.9639C74.2122 21.7238 73.4409 25.1356 73.0123 26.1522M61.3704 16.5018C61.1418 16.8917 61.0418 17.4348 60.0562 17.588C60.0562 17.588 50.4855 18.2425 50.0141 18.897C50.0141 18.897 49.6998 19.2869 50.2141 19.3844C50.7569 19.4958 52.9282 19.7743 53.9567 19.83C55.0709 19.83 58.8134 19.8578 60.1847 21.501C60.1847 21.501 60.9704 22.2809 60.9418 24.0494C60.9133 25.8597 60.5847 26.5003 59.8562 27.1548C59.0991 27.7675 52.6139 30.6084 48.4285 26.2636C48.4285 26.2636 46.5144 24.1747 49.0999 22.5872C49.0999 22.5872 50.9569 21.4732 55.7137 22.7683C55.7137 22.7683 57.1421 23.2696 57.085 23.7848C56.9993 24.3419 55.8994 24.8989 54.2995 24.871C52.7567 24.8293 51.614 24.1051 51.8425 24.2304C52.0568 24.3001 50.1712 23.3392 49.5856 23.9937C49.0142 24.6064 49.157 24.9685 49.7284 25.3445C51.1569 26.1522 56.7707 25.8597 58.442 24.0355C58.442 24.0355 59.1134 23.2974 58.0992 22.6986C57.0993 22.1416 54.1852 21.7935 53.0567 21.7517C51.9854 21.696 47.9714 21.7517 47.3714 20.7351C47.3714 20.7351 46.8001 20.011 47.4286 18.0336C48.0857 15.9447 52.7567 15.1371 54.7852 14.97C54.7852 14.97 60.3562 14.7471 61.3989 15.8612C61.3989 15.8612 61.5418 16.1118 61.3704 16.4878M45.5716 28.7423C44.9002 29.2297 43.4717 29.0208 43.0575 28.4638C42.6575 27.9764 42.5147 26.0547 42.5861 23.0329C42.6861 19.9414 42.7289 16.1536 43.4432 15.5409C44.1574 14.9421 44.5859 15.4713 44.8716 15.8751C45.1573 16.2929 45.5287 16.7524 45.5859 17.7133C45.6716 18.6881 45.9144 23.7013 45.9144 23.7013C45.9144 23.7013 46.2287 28.2689 45.5859 28.7423M47 12.4494C45.0288 13.1039 43.686 12.895 42.5432 12.4076C42.0433 13.285 41.7433 13.5495 41.3719 13.6052C40.8005 13.6609 40.3006 12.7697 40.2291 12.4912C40.1149 12.2823 39.8435 11.9063 40.172 11.0569C39.0578 10.0821 38.9721 8.77308 39.1721 7.89577C39.4292 6.86528 41.3148 2.99397 47.0286 2.53443C47.0286 2.53443 49.8284 2.33947 50.3141 3.78773H50.3998C50.3998 3.78773 53.1139 3.78773 53.0567 6.15507C53.0567 8.52242 50.057 11.4746 47 12.4912M49.5427 5.70945C47.7428 5.98797 44.9716 8.32746 43.6432 10.2631C45.6859 10.6252 49.257 10.4859 50.8569 7.33875C50.8569 7.33875 51.614 5.36132 49.5427 5.70945ZM41.6433 7.24127C41.0719 8.14643 41.0434 8.68952 41.3148 9.05159C41.9861 8.0768 43.1718 6.54499 44.9573 5.34739C43.586 5.48665 42.429 6.04367 41.6433 7.24127ZM90.311 28.6449C88.9968 31.792 87.8826 34.981 87.2398 39.7575C87.2398 39.7575 87.097 40.6905 86.3113 40.3841C85.5257 40.1056 84.2401 38.8523 83.9544 37.0837C83.6687 34.7721 84.7257 30.8729 86.8827 26.3889C86.2542 25.4141 85.8114 23.9659 86.1685 21.9327C86.1685 21.9327 86.7399 18.1728 90.5967 14.775C90.5967 14.775 91.0538 14.399 91.3109 14.5243C91.6252 14.6636 91.4966 15.8612 91.2395 16.4739C91.011 17.0588 89.2968 19.9553 89.2968 19.9553C89.2968 19.9553 88.2255 21.9327 88.5254 23.4785C90.5538 20.4427 95.1678 14.2876 98.0247 16.2372C99.8389 17.4905 99.8389 21.5289 98.4818 23.8684C97.4105 25.7205 94.3821 29.55 90.3396 28.6588M96.282 19.1894C95.2249 20.3034 93.3393 22.4201 91.8538 25.2888C93.4251 25.1217 94.9535 24.2722 95.4249 23.8405C96.182 23.186 97.9247 21.4175 97.6533 19.078C97.6533 19.078 97.4819 17.8525 96.282 19.1894ZM32.2869 30.2881C27.2301 31.792 22.4591 31.0958 19.8593 30.4273C19.7878 31.4578 19.6736 31.8895 19.5022 32.0566C19.3022 32.2794 17.6452 33.1985 16.7309 31.8895C16.331 31.2629 16.131 30.1349 16.0167 29.1044C10.16 26.5142 7.44594 22.6986 7.36023 22.5594C7.21739 22.4201 5.88892 21.0693 7.21739 19.3983C8.46015 17.8943 12.5741 16.3764 16.2596 15.7776C16.4024 12.714 16.7452 10.3467 17.188 9.30225C17.7166 8.04895 18.388 9.16299 18.9879 9.99853C19.4736 10.6252 19.7736 13.3128 19.8021 15.4573C22.202 15.3459 23.659 15.513 26.3302 16.0144C29.8442 16.5992 32.1869 18.3539 32.0012 20.3313C31.8298 22.2809 30.0014 23.0886 29.2871 23.1443C28.5729 23.2 27.4301 22.6847 27.4301 22.6847C26.6302 22.3226 27.3587 21.9884 28.2872 21.5985C29.3157 21.1111 29.0871 20.6237 29.0871 20.6237C28.7157 19.5097 24.1589 18.7716 19.6307 18.7716C19.6307 21.2086 19.7307 25.247 19.8021 27.6004C22.9733 28.1853 25.3446 28.06 25.3446 28.06C25.3446 28.06 36.9151 27.7397 37.2437 20.5402C37.6008 13.3267 25.6731 6.41966 16.8881 4.24727C8.11732 2.00525 3.14627 3.59277 2.71773 3.80165C2.24634 4.02446 2.67488 4.10801 2.67488 4.10801C2.67488 4.10801 3.14627 4.17764 4.00335 4.45615C4.86042 4.73466 4.17476 5.15243 4.17476 5.15243C2.67488 5.65375 1.00358 5.36132 0.675031 4.69289C0.346485 4.03839 0.8893 3.43959 1.53211 2.56228C2.13206 1.65712 2.81772 1.68497 2.81772 1.68497C13.674 -2.00531 26.9302 4.60933 26.9302 4.60933C39.3292 10.7087 41.4433 17.8804 41.2148 20.6655C41.0148 23.4088 39.9292 28.0461 32.2869 30.302M8.43158 20.3313C7.2031 20.8883 8.06018 21.7796 8.06018 21.7796C10.3743 24.1887 13.2026 25.7066 15.9167 26.6535C16.231 22.4758 16.2024 20.9858 16.2024 18.883C12.0027 19.1615 9.57435 19.83 8.43158 20.3313Z" fill="white"/>
</svg>
