<svg width="107" height="35" viewBox="0 0 107 35" fill="none" xmlns="http://www.w3.org/2000/svg">
<g clip-path="url(#clip0_1728_36690)">
<path d="M13.3607 11.9437V15.5312H21.8628C21.6026 17.5438 20.9374 19.0167 19.9253 20.0521C18.6817 21.3063 16.7442 22.6771 13.3607 22.6771C8.12634 22.6771 4.03432 18.4188 4.03432 13.1396C4.03432 7.86042 8.12634 3.60208 13.3607 3.60208C16.1803 3.60208 18.248 4.725 19.7662 6.16875L22.2677 3.64583C20.1566 1.575 17.3226 0 13.3607 0C6.18878 0 0.15918 5.89167 0.15918 13.125C0.15918 20.3583 6.18878 26.25 13.3607 26.25C17.2358 26.25 20.1566 24.9667 22.4412 22.575C24.7836 20.2125 25.5211 16.8729 25.5211 14.1896C25.5211 13.3583 25.4632 12.5854 25.3331 11.9437H13.3607Z" fill="white"/>
<path d="M36.1486 9.0271C31.5071 9.0271 27.7188 12.5854 27.7188 17.5C27.7188 22.3708 31.5071 25.9729 36.1486 25.9729C40.7901 25.9729 44.5785 22.3854 44.5785 17.5C44.5785 12.5854 40.7901 9.0271 36.1486 9.0271ZM36.1486 22.6333C33.6038 22.6333 31.4059 20.5188 31.4059 17.5C31.4059 14.4521 33.6038 12.3667 36.1486 12.3667C38.6935 12.3667 40.8913 14.4521 40.8913 17.5C40.8913 20.5188 38.6935 22.6333 36.1486 22.6333Z" fill="white"/>
<path d="M77.4741 10.9229H77.344C76.5198 9.93127 74.9292 9.0271 72.9194 9.0271C68.7261 9.0271 65.0679 12.7167 65.0679 17.5C65.0679 22.2542 68.7261 25.9729 72.9194 25.9729C74.9292 25.9729 76.5198 25.0688 77.344 24.0479H77.4741V25.2292C77.4741 28.4667 75.7534 30.2021 72.9917 30.2021C70.736 30.2021 69.3334 28.5688 68.755 27.1833L65.545 28.525C66.4704 30.7708 68.9141 33.5271 72.9917 33.5271C77.315 33.5271 80.9733 30.9604 80.9733 24.7042V9.4646H77.4741V10.9229ZM73.2375 22.6333C70.6926 22.6333 68.755 20.4458 68.755 17.5C68.755 14.5104 70.6926 12.3667 73.2375 12.3667C75.7534 12.3667 77.7199 14.5542 77.7199 17.5292C77.7344 20.4896 75.7534 22.6333 73.2375 22.6333Z" fill="white"/>
<path d="M54.946 9.0271C50.3045 9.0271 46.5161 12.5854 46.5161 17.5C46.5161 22.3708 50.3045 25.9729 54.946 25.9729C59.5875 25.9729 63.3759 22.3854 63.3759 17.5C63.3759 12.5854 59.5875 9.0271 54.946 9.0271ZM54.946 22.6333C52.4011 22.6333 50.2033 20.5188 50.2033 17.5C50.2033 14.4521 52.4011 12.3667 54.946 12.3667C57.4908 12.3667 59.6887 14.4521 59.6887 17.5C59.6887 20.5188 57.4908 22.6333 54.946 22.6333Z" fill="white"/>
<path d="M83.8647 0.350098H87.4941V25.973H83.8647V0.350098Z" fill="white"/>
<path d="M98.7002 22.6333C96.8205 22.6333 95.4902 21.7729 94.6227 20.0667L105.858 15.3854L105.482 14.4229C104.788 12.5271 102.648 9.0271 98.2954 9.0271C93.972 9.0271 90.3716 12.4542 90.3716 17.5C90.3716 22.2542 93.9286 25.9729 98.7002 25.9729C102.546 25.9729 104.773 23.5958 105.699 22.225L102.836 20.3C101.881 21.7 100.58 22.6333 98.7002 22.6333ZM98.44 12.2063C99.9293 12.2063 101.202 12.9792 101.621 14.0729L94.0298 17.2375C94.0298 13.6792 96.5313 12.2063 98.44 12.2063Z" fill="white"/>
</g>
<defs>
<clipPath id="clip0_1728_36690">
<rect width="107" height="35" fill="white"/>
</clipPath>
</defs>
</svg>
