<svg width="102" height="44" viewBox="0 0 102 44" fill="none" xmlns="http://www.w3.org/2000/svg">
<path d="M1.98065 17.6059C3.17996 12.97 8.17501 11.8667 12.7739 11.7304C16.5545 11.6184 20.7699 12.1469 20.7699 12.1469L18.7892 19.8031C18.7892 19.8031 14.5739 19.2746 10.7933 19.3866C6.1944 19.5229 1.19932 20.6262 0 25.2621L1.98065 17.6059Z" fill="white"/>
<path d="M65.6186 9.45483C59.5642 9.45488 58.0132 15.6499 57.1452 19.0052L50.6779 44H54.4511L60.185 21.8373H64.1039L61.4951 31.9221H65.2682L68.397 19.828H60.7052C61.0993 18.3036 61.5196 16.6797 61.8622 15.3556C62.4948 12.9102 63.5281 11.1343 65.031 11.194C66.692 11.26 65.8467 12.4131 65.6192 13.2923C65.3046 14.5086 66.1541 15.7317 67.6426 15.7317C70.8757 15.7317 71.673 9.45483 65.6186 9.45483ZM44.215 13.8284V13.8286L39.5342 31.9221H43.4677L45.201 25.2218H48.6178C52.388 25.2218 54.89 23.0218 55.5666 19.9638C56.1983 17.1085 54.6209 13.8284 50.3962 13.8284C48.3357 13.8284 46.2756 13.8284 44.215 13.8284ZM47.5978 15.9576H49.1102C50.6936 15.9576 51.9499 17.2977 51.6465 19.6299C51.3653 21.7918 49.1449 23.0876 47.2089 23.0876H45.7531L47.5978 15.9576ZM84.8989 19.4617C81.5915 19.4617 79.2056 22.47 78.6331 25.4764C78.0829 28.3654 79.6499 32.2046 83.964 32.2046C87.0303 32.2046 88.5724 30.7771 88.5724 30.7771L87.8666 28.9353C87.8666 28.9353 86.5775 30.0446 84.7814 30.0446C82.9852 30.0446 81.8584 28.5455 82.1076 26.1567H89.4425C89.9669 24.75 90.254 19.4617 84.8989 19.4617ZM99.5194 19.6244C97.0594 19.6244 95.609 22.3102 95.609 22.3102L96.2511 19.8282H92.4779L89.3492 31.9221H93.1223C93.1223 31.9221 94.0309 28.3886 94.4933 26.6246C95.2072 23.8671 96.663 22.1403 97.363 22.0697C98.1719 21.988 98.0944 24.0487 99.672 24.0487C102.065 24.0487 102.581 19.6244 99.5198 19.6244H99.5194ZM69.8186 19.8282L69.2987 21.8377H74.0813L66.5626 31.9221H77.1801L77.6998 29.9125H72.3047L79.8232 19.8282H69.8186ZM84.8848 21.4587V21.4589C86.9362 21.4589 86.4694 24.3227 86.4694 24.3227L82.3598 24.3126C82.3598 24.3126 83.0413 21.4587 84.8848 21.4587Z" fill="white"/>
<path d="M30.6813 31.9502C17.1505 31.0581 1.42642 23.679 1.98145 17.606L0.114606 24.8224C-0.451675 31.0185 14.1346 38.3751 28.7007 39.6064L30.6813 31.9502Z" fill="white"/>
<path d="M35.5973 22.0002C34.398 26.6361 29.4029 27.7394 24.804 27.8757C21.0234 27.9877 16.8081 27.4592 16.8081 27.4592L18.7888 19.803C18.7888 19.803 23.0041 20.3315 26.7847 20.2195C31.3835 20.0832 36.3786 18.9799 37.5779 14.344L35.5973 22.0002Z" fill="white"/>
<path d="M6.89697 7.6562C20.4279 8.54829 36.1519 15.9274 35.5968 22.0004L37.4637 14.784C38.03 8.58784 23.4437 1.23133 8.87761 0L6.89697 7.6562Z" fill="white"/>
</svg>
