<svg width="80" height="56" viewBox="0 0 80 56" fill="none" xmlns="http://www.w3.org/2000/svg">
<path d="M20.9365 0C25.9747 0 30.4522 2.39572 33.291 6.10742C35.8711 3.41914 39.4639 1.75195 43.4365 1.75195C48.7173 1.75212 53.3247 4.69609 55.7783 9.06738C57.9105 8.11484 60.2709 7.58496 62.7539 7.58496C72.2785 7.58515 80 15.3746 80 24.9824C79.9999 34.5912 72.2784 42.3807 62.7539 42.3809C61.6131 42.3815 60.4747 42.2677 59.3564 42.042C57.1958 45.896 53.0784 48.4999 48.3525 48.5C46.3742 48.5 44.503 48.043 42.8369 47.2305C40.6466 52.3825 35.5433 55.9951 29.5957 55.9951C23.402 55.9951 18.1229 52.0763 16.0967 46.5801C15.2113 46.7681 14.2938 46.8662 13.3525 46.8662C5.97828 46.8662 0 40.8258 0 33.374C9.30255e-05 28.3805 2.68598 24.0202 6.67676 21.6875C5.85519 19.797 5.39844 17.7103 5.39844 15.5166C5.39849 6.947 12.3555 0.000179326 20.9365 0ZM46.5869 19.5508C45.7485 19.5509 45.0877 19.788 44.624 20.2549C44.1624 20.7199 43.8487 21.4283 43.6914 22.3594L43.6348 22.6719H42.582C42.582 22.6719 42.4543 22.6678 42.4268 22.8066L42.2549 23.7725C42.2424 23.8635 42.2824 23.9209 42.4053 23.9209H43.4297L42.3896 29.7246C42.3087 30.1916 42.216 30.5756 42.1123 30.8672C42.0108 31.1544 41.9112 31.3701 41.7881 31.5273C41.6697 31.6776 41.5579 31.7896 41.3643 31.8545C41.2048 31.908 41.02 31.9326 40.8184 31.9326C40.7067 31.9326 40.5578 31.9143 40.4473 31.8916C40.3379 31.8699 40.2795 31.8459 40.1963 31.8105C40.1931 31.8094 40.0756 31.7668 40.0283 31.8848C39.9906 31.9842 39.7178 32.7342 39.6846 32.8271C39.6527 32.9194 39.6988 32.9911 39.7568 33.0127C39.8934 33.0605 39.995 33.0923 40.1807 33.1367C40.4381 33.1971 40.6555 33.2012 40.8594 33.2012C41.2856 33.2012 41.6755 33.1406 41.998 33.0244C42.3215 32.9071 42.6039 32.7032 42.8545 32.4277C43.1246 32.1291 43.2951 31.816 43.457 31.3887C43.6176 30.9671 43.755 30.4426 43.8643 29.832L44.9102 23.9209H46.4365C46.4365 23.9209 46.5653 23.9259 46.5918 23.7861L46.7646 22.8213C46.7759 22.7293 46.7374 22.6729 46.6133 22.6729H45.1309C45.1389 22.6399 45.2061 22.117 45.376 21.626C45.4489 21.4178 45.5852 21.248 45.7002 21.1318C45.8142 21.0179 45.9453 20.9364 46.0889 20.8896C46.2357 20.8418 46.4036 20.8194 46.5869 20.8193C46.7259 20.8193 46.8641 20.8358 46.9678 20.8574C47.1113 20.8882 47.1674 20.9036 47.2051 20.915C47.3564 20.9605 47.3766 20.9164 47.4062 20.8438L47.7607 19.8701C47.7971 19.7651 47.7077 19.7205 47.6758 19.708C47.5277 19.6625 47.3932 19.6316 47.2178 19.5986C47.0399 19.5668 46.8273 19.5508 46.5869 19.5508ZM14.3311 22.5088C12.8291 22.5088 11.7803 23.4165 11.7803 24.7168V24.7441C11.7804 26.1148 12.9368 26.5592 14.0205 26.8691L14.1953 26.9229C14.985 27.1655 15.665 27.3746 15.665 27.9307V27.958C15.6648 28.4661 15.223 28.8437 14.5098 28.8438C14.2328 28.8438 13.3493 28.8383 12.3955 28.2354C12.2805 28.1682 12.2128 28.119 12.124 28.0654C12.077 28.0358 11.9603 27.9855 11.9092 28.1396L11.585 29.0381C11.5349 29.1691 11.6032 29.197 11.6191 29.2197C11.7695 29.3291 11.9224 29.4075 12.0762 29.4951C12.8921 29.9281 13.6631 30.0547 14.4688 30.0547C16.1096 30.0546 17.1279 29.1815 17.1279 27.7764V27.749C17.1279 26.45 15.9786 25.9784 14.8994 25.6377L14.7588 25.5918C13.9452 25.3274 13.2432 25.0991 13.2432 24.5635V24.5352C13.2434 24.0772 13.6543 23.7402 14.29 23.7402C14.9965 23.7403 15.835 23.975 16.375 24.2734C16.3763 24.2743 16.5339 24.3749 16.5918 24.2217C16.6245 24.1374 16.8973 23.404 16.9258 23.3242C16.9565 23.2376 16.9015 23.1739 16.8457 23.1396C16.2292 22.7648 15.377 22.5079 14.4951 22.5078L14.3311 22.5088ZM38.3545 22.5088C36.8525 22.5088 35.8037 23.4165 35.8037 24.7168V24.7441C35.8038 26.1149 36.9612 26.5592 38.0449 26.8691L38.2188 26.9229C39.0085 27.1656 39.6904 27.3745 39.6904 27.9307V27.958C39.6902 28.4661 39.2465 28.8438 38.5332 28.8438C38.2562 28.8437 37.3735 28.838 36.4199 28.2354C36.3048 28.1681 36.236 28.1212 36.1494 28.0654C36.1193 28.0459 35.9804 27.9932 35.9326 28.1396L35.6094 29.0381C35.5592 29.1692 35.6276 29.197 35.6436 29.2197C35.7938 29.329 35.947 29.4075 36.1006 29.4951C36.9164 29.928 37.6867 30.0547 38.4922 30.0547C40.1332 30.0547 41.1523 29.1815 41.1523 27.7764V27.749C41.1523 26.4499 40.0021 25.9784 38.9229 25.6377L38.7832 25.5918C37.9695 25.3274 37.2676 25.0991 37.2676 24.5635V24.5352C37.2678 24.0772 37.6777 23.7402 38.3135 23.7402C39.0199 23.7403 39.8582 23.975 40.3984 24.2734C40.3984 24.2734 40.5572 24.3755 40.6152 24.2217C40.6477 24.1381 40.9205 23.4046 40.9492 23.3242C40.98 23.2376 40.925 23.1738 40.8691 23.1396C40.2526 22.7648 39.4005 22.5078 38.5186 22.5078L38.3545 22.5088ZM31.6982 22.5303C31.1206 22.5303 30.5941 22.6267 30.168 22.8271C29.7407 23.0277 29.3821 23.3019 29.1006 23.6426C28.8191 23.9821 28.6071 24.3865 28.4727 24.8457C28.3382 25.3027 28.2686 25.801 28.2686 26.3262C28.2686 26.8606 28.3393 27.3589 28.4795 27.8066C28.6208 28.2577 28.8462 28.6552 29.1514 28.9844C29.4556 29.316 29.8479 29.5758 30.3174 29.7568C30.7835 29.9369 31.3502 30.0305 32.001 30.0293C33.3398 30.0247 34.0453 29.7261 34.3359 29.5654C34.3872 29.537 34.4354 29.487 34.374 29.3438L34.0723 28.4941C34.0266 28.3713 33.9038 28.4128 33.8975 28.415C33.5659 28.5381 33.0948 28.759 31.9932 28.7568C31.2752 28.7557 30.7412 28.5436 30.4072 28.2119C30.0642 27.8724 29.8969 27.373 29.8672 26.6689L34.5039 26.6738C34.5039 26.6738 34.626 26.6711 34.6387 26.5527C34.6431 26.5028 34.7985 25.5997 34.5 24.5547C34.3838 24.116 34.0964 23.6726 33.9072 23.4697C33.6086 23.1484 33.3167 22.9242 33.0273 22.7988C32.649 22.637 32.1951 22.5303 31.6982 22.5303ZM68.835 22.5303C68.2561 22.5303 67.7299 22.6266 67.3037 22.8271C66.8765 23.0277 66.5178 23.3019 66.2363 23.6426C65.9549 23.9821 65.7429 24.3866 65.6084 24.8457C65.4729 25.3027 65.4043 25.801 65.4043 26.3262C65.4043 26.8606 65.4751 27.3589 65.6152 27.8066C65.7566 28.2578 65.9828 28.6552 66.2881 28.9844C66.5922 29.3159 66.9839 29.5758 67.4531 29.7568C67.9193 29.9369 68.4861 30.0305 69.1367 30.0293C70.4758 30.0247 71.1811 29.7261 71.4717 29.5654C71.5229 29.537 71.5721 29.487 71.5107 29.3438L71.207 28.4941C71.1622 28.3701 71.0373 28.4136 71.0332 28.415C70.7015 28.5381 70.2296 28.7591 69.1299 28.7568C68.4108 28.7557 67.8769 28.5436 67.543 28.2119C67.2001 27.8724 67.0326 27.373 67.0029 26.6689L71.6406 26.6738C71.6477 26.6736 71.762 26.6674 71.7744 26.5527C71.779 26.5028 71.9342 25.5997 71.6367 24.5547C71.5205 24.116 71.2321 23.6725 71.043 23.4697C70.7444 23.1485 70.4525 22.9242 70.1631 22.7988C69.7848 22.6371 69.3315 22.5303 68.835 22.5303ZM21.084 22.5225C20.7363 22.5225 20.1768 22.5705 19.8418 22.6377C19.827 22.6406 18.8263 22.8358 18.4121 23.1592C18.4121 23.1592 18.321 23.2161 18.3711 23.3438L18.6992 24.2256C18.7402 24.3395 18.8506 24.3008 18.8506 24.3008C18.8535 24.2996 18.8876 24.2865 18.9268 24.2637C19.8137 23.7812 20.9338 23.7928 20.9473 23.793C21.4487 23.793 21.834 23.8934 22.0938 24.0928C22.3466 24.2864 22.4755 24.579 22.4756 25.1963V25.3926C22.0793 25.336 21.7157 25.3032 21.7109 25.3027C21.5229 25.289 21.279 25.2813 20.9873 25.2812C20.5898 25.2812 20.2057 25.3309 19.8457 25.4277C19.4835 25.5245 19.1573 25.6766 18.877 25.877C18.597 26.0767 18.3664 26.3384 18.2041 26.6416C18.04 26.947 17.957 27.3075 17.957 27.7109C17.957 28.1211 18.0276 28.4778 18.1689 28.7695C18.3103 29.0624 18.5146 29.306 18.7744 29.4941C19.0319 29.6821 19.3497 29.8201 19.7188 29.9033C20.0823 29.9865 20.495 30.0283 20.9463 30.0283C21.4214 30.0283 21.8953 29.9898 22.3545 29.9111C22.8089 29.8337 23.3671 29.7208 23.5225 29.6855C23.6311 29.6594 23.7398 29.6318 23.8477 29.6025C23.9599 29.5748 23.9535 29.4569 23.9531 29.4512L23.9512 25.2109C23.9512 24.281 23.7027 23.5914 23.2139 23.1641C22.7272 22.7379 22.0104 22.5225 21.084 22.5225ZM50.2363 22.5293C49.6803 22.5293 49.1857 22.6285 48.7676 22.8232C48.3482 23.0193 47.9952 23.289 47.7148 23.624C47.4369 23.9591 47.2264 24.36 47.0908 24.8135C46.9575 25.2658 46.8906 25.7608 46.8906 26.2861C46.8907 26.8112 46.9576 27.3068 47.0908 27.7578C47.2264 28.2114 47.4355 28.6133 47.7158 28.9482C47.9949 29.2832 48.3494 29.551 48.7676 29.7412C49.1868 29.9315 49.6802 30.0283 50.2363 30.0283C50.7911 30.0283 51.2849 29.9315 51.7041 29.7412C52.1222 29.551 52.4766 29.283 52.7559 28.9482C53.035 28.6143 53.2453 28.2125 53.3799 27.7578C53.5143 27.3056 53.581 26.8101 53.5811 26.2861C53.5811 25.762 53.5143 25.2658 53.3799 24.8135C53.2454 24.3587 53.035 23.9579 52.7559 23.624C52.4766 23.289 52.1236 23.0193 51.7041 22.8232C51.2859 22.6285 50.7912 22.5293 50.2363 22.5293ZM62.873 22.5225C62.2975 22.5225 61.7844 22.6204 61.3457 22.8164C60.9083 23.0112 60.5371 23.2803 60.2432 23.6152C59.9492 23.9502 59.7254 24.3513 59.5762 24.8047C59.428 25.2571 59.3525 25.7549 59.3525 26.2803C59.3526 27.4162 59.6596 28.3345 60.2646 29.0068C60.8708 29.6815 61.7814 30.0244 62.9688 30.0244C63.6706 30.0244 64.3908 29.8817 64.9082 29.6777C64.9082 29.6777 65.0077 29.6303 64.9648 29.5156L64.6279 28.5859C64.5835 28.4569 64.461 28.5004 64.4541 28.5029C64.2547 28.5793 64.042 28.6502 63.8164 28.6855C63.5874 28.7207 63.3354 28.7393 63.0654 28.7393C62.4025 28.7392 61.8761 28.5419 61.499 28.1523C61.1207 27.7627 60.909 27.1325 60.9111 26.2803C60.9135 25.5042 61.1003 24.92 61.4365 24.4756C61.7704 24.0338 62.2784 23.8067 62.9561 23.8066C63.5213 23.8066 63.9522 23.8722 64.4033 24.0146C64.4033 24.0146 64.5122 24.0611 64.5635 23.9199C64.6831 23.5872 64.7718 23.349 64.8994 22.9834C64.9358 22.8801 64.8477 22.835 64.8154 22.8223C64.6377 22.7528 64.2181 22.6397 63.9014 22.5918C63.6051 22.5462 63.2582 22.5225 62.873 22.5225ZM58.2637 22.6143C57.6816 22.579 57.3579 22.6768 57.0684 22.8066C56.7813 22.9365 56.462 23.1457 56.2842 23.3838V22.8203C56.2842 22.7418 56.2288 22.6788 56.1514 22.6787H54.9629C54.8855 22.6787 54.8291 22.7416 54.8291 22.8203V29.7363C54.8291 29.8138 54.8933 29.8779 54.9707 29.8779H56.1885C56.2258 29.8777 56.2618 29.8624 56.2881 29.8359C56.3143 29.8094 56.3292 29.7736 56.3291 29.7363V26.2812C56.3291 25.8177 56.38 25.3551 56.4824 25.0645C56.5827 24.7773 56.7201 24.5471 56.8887 24.3818C57.0584 24.2178 57.2511 24.1021 57.4619 24.0371C57.6772 23.971 57.9153 23.9492 58.084 23.9492C58.3267 23.9492 58.5938 24.0117 58.5938 24.0117C58.6823 24.0218 58.7322 23.9675 58.7617 23.8867C58.8415 23.675 59.0666 23.0417 59.1104 22.9141C59.1456 22.8092 59.0718 22.7584 59.041 22.7471C58.9621 22.7163 58.5678 22.6336 58.2637 22.6143ZM25.5977 19.7002C25.5201 19.7002 25.4648 19.7634 25.4648 19.8408V29.7363C25.4648 29.8138 25.5201 29.877 25.5977 29.877H26.8271C26.9047 29.8769 26.9609 29.8138 26.9609 29.7363V19.8408C26.9609 19.7634 26.9047 19.7002 26.8271 19.7002H25.5977ZM21.2188 26.4502C21.8778 26.4593 22.4673 26.5561 22.4766 26.5576V28.666H22.4775C22.4625 28.6692 21.8801 28.7927 21.2256 28.832C20.282 28.889 19.8628 28.5594 19.8662 28.5605C19.685 28.4158 19.6592 28.3796 19.5977 28.2861C19.5066 28.1437 19.46 27.9409 19.46 27.6836C19.46 27.2756 19.5948 26.9823 19.874 26.7852C19.8843 26.7749 20.2889 26.4379 21.2188 26.4502ZM50.2363 23.7861C50.8449 23.7861 51.2818 23.9977 51.5713 24.4307C51.8618 24.8682 52.0098 25.4931 52.0098 26.2861C52.0097 27.0802 51.861 27.7053 51.5693 28.1475C51.281 28.5851 50.8448 28.7988 50.2363 28.7988C49.6268 28.7988 49.193 28.5862 48.9092 28.1475C48.622 27.7065 48.4756 27.0802 48.4756 26.2861C48.4756 25.4931 48.622 24.8683 48.9092 24.4307C49.193 23.9977 49.6268 23.7862 50.2363 23.7861ZM31.5889 23.7588C32.1974 23.7588 32.6002 23.9976 32.8896 24.4307C33.0799 24.7166 33.1632 25.0996 33.1963 25.5244H29.8887C29.9547 25.0836 30.0757 24.7166 30.2637 24.4307C30.5474 23.9966 30.9805 23.7589 31.5889 23.7588ZM68.7256 23.7588C69.334 23.7589 69.7362 23.9977 70.0244 24.4307C70.2158 24.7165 70.2989 25.0996 70.332 25.5244H67.0254C67.0903 25.0837 67.2115 24.7165 67.3994 24.4307C67.6832 23.9965 68.117 23.7588 68.7256 23.7588Z" fill="white"/>
</svg>
