<svg width="64" height="71" viewBox="0 0 64 71" fill="none" xmlns="http://www.w3.org/2000/svg">
<g clip-path="url(#clip0_1728_36755)">
<mask id="mask0_1728_36755" style="mask-type:luminance" maskUnits="userSpaceOnUse" x="0" y="0" width="64" height="71">
<path d="M63.9994 0H0V71H63.9994V0Z" fill="white"/>
</mask>
<g mask="url(#mask0_1728_36755)">
<path d="M8.24289 62.4226C8.13817 62.0879 7.83235 61.3356 7.74906 60.7801C7.56521 59.5498 8.20659 58.7396 8.79562 58.554C9.45664 58.3691 9.71486 58.702 9.9707 59.4758C10.3015 60.6542 10.3384 62.1983 10.2271 64.4088C10.0826 67.4284 8.57608 71.0751 4.83128 70.9993C1.59877 70.9283 0.168443 68.8287 0.0196982 65.6254C-0.0505092 64.1153 0.0571819 62.6058 0.680719 60.471C1.01153 59.3279 1.30664 58.921 2.33297 58.702C3.13976 58.554 3.06718 59.4001 2.88452 60.3976C2.48231 62.6058 2.29549 63.672 2.44423 66.1773C2.58822 68.8287 3.80257 69.8603 5.12461 69.8603C7.10767 69.8985 7.98824 68.2417 8.35712 65.8456C8.64807 63.9315 8.42852 63.0109 8.24289 62.4226ZM50.5244 65.0377C51.2967 65.0377 51.518 65.9535 51.3336 66.5084C51.1491 67.0597 50.4893 67.6886 49.4618 67.8717C49.2404 67.3181 49.1298 65.0377 50.5244 65.0377ZM36.17 66.2859C36.17 65.6624 35.8374 65.1463 35.437 65.1463C35.1026 65.1463 34.3345 65.5132 34.3345 66.6922C34.3345 67.6158 34.6617 68.0537 34.8116 68.2417C35.8737 67.9087 36.17 67.0227 36.17 66.2859ZM24.7476 58.7754C24.6958 58.1847 24.2341 57.7826 23.6094 57.7826C22.9127 57.7826 22.2564 58.5158 22.326 59.4371C22.3706 60.0444 22.7276 60.5438 23.4291 60.5438C24.2341 60.5444 24.8214 59.6238 24.7476 58.7754ZM30.7194 60.9382C30.6557 59.9084 30.407 59.4436 29.8555 59.4818C29.1242 59.526 28.7863 61.8332 28.9356 64.2585C29.0308 65.8408 29.2658 66.0848 29.4848 66.0693C29.8894 66.0448 30.8598 63.218 30.7194 60.9382ZM55.0784 64.8146C54.6232 66.7077 53.2434 69.4928 51.1848 69.4928C50.7082 69.4928 49.8634 69.3073 49.8634 68.8287C49.8634 68.3127 53.0971 68.2417 53.0971 65.7728C53.0971 64.8533 52.2528 63.5628 51.0034 63.5628C49.3511 63.5628 47.7393 65.3688 47.7393 67.8723C47.7393 70.1169 49.1298 70.8537 50.525 70.8537C52.9495 70.8537 54.4185 68.8639 55.189 67.2083C55.5579 68.3132 55.7745 70.8537 56.6961 70.8537C57.062 70.8537 57.3208 70.6694 57.7617 69.6766C58.8606 67.2077 59.9268 64.3725 61.3964 64.3725C61.9456 64.3725 61.6166 65.3688 62.938 65.3688C63.561 65.3688 64.0001 64.8533 64.0001 64.2615C64.0001 63.4137 63.2302 62.7532 62.0563 62.7532C58.6036 62.7532 57.8718 67.9457 57.3202 67.9457C56.4016 67.9457 56.6955 63.7842 56.0333 63.7842C55.4455 63.7836 55.1569 64.4858 55.0784 64.8146ZM25.7031 69.2327C26.2535 69.2327 27.2001 69.0537 27.945 67.8574C27.519 66.9088 27.2149 64.9918 27.1727 64.2937C26.9538 60.724 28.3252 57.3661 29.8263 57.273C30.927 57.2062 31.8076 58.2509 31.9087 59.9436C32.1794 64.3915 30.7021 66.2483 29.9626 67.8503C30.0875 68.4714 31.1382 69.5286 32.1295 69.5286C32.4954 69.5286 32.938 69.3442 33.0493 69.1951C32.9755 68.9391 32.9006 68.608 32.9006 68.1277C32.9006 65.5502 34.5534 63.3767 35.9861 63.3767C37.1243 63.3767 37.7853 64.8862 37.7853 65.8825C37.7853 67.0591 36.7929 68.0185 35.3251 68.9391C35.5833 69.1951 36.0581 69.3812 36.4639 69.3812C38.5588 69.3812 39.6547 66.8396 40.4663 64.5186C40.6127 64.0759 40.8715 63.4512 41.3843 63.4512C42.2655 63.4512 42.6344 69.2697 44.0992 69.2697C44.7257 69.2697 45.2386 67.9797 45.2386 66.9881C45.2386 66.2507 44.9816 66.1767 44.9816 65.1087C44.9816 63.9315 45.6063 62.9381 46.453 62.9381C46.9664 62.9381 47.1521 63.4512 47.1521 64.0759C47.1521 66.4332 45.4605 70.8162 42.967 70.8162C41.091 70.8162 41.2374 67.5752 40.577 67.5752C39.8392 67.5752 38.8111 70.8525 35.1793 70.8525C34.5891 70.8525 33.9662 70.5584 33.4533 69.9677C32.5733 70.5584 31.8367 70.8162 30.9919 70.8162C29.6347 70.8162 29.0457 69.4164 28.4965 69.4164C27.8343 69.4164 27.1019 70.8525 24.8963 70.8525C23.134 70.8525 22.8401 68.4982 22.2171 68.4982C21.665 68.4982 20.8207 70.8525 19.9033 70.8525C18.3587 70.8525 18.0315 66.7662 16.6702 66.7662C15.6057 66.7662 12.2411 70.9164 11.3278 70.8215C10.9607 70.7833 10.8061 70.5083 10.8447 70.1396C10.8965 69.63 11.3338 68.2661 11.5111 67.6211C11.808 66.5013 12.0805 65.274 12.2328 64.8826C12.3839 64.4876 12.7915 64.206 13.1187 64.2364C13.2835 64.2519 13.3329 64.5604 13.3841 64.8152C13.5697 65.7256 13.8285 66.654 14.1207 66.654C14.6365 66.654 16.3399 63.3761 17.3312 63.3761C18.5449 63.3761 18.6901 68.5328 20.3418 68.5328C20.8939 68.5328 21.2991 67.8711 21.665 67.0585C21.7025 65.694 22.0696 63.7466 23.1709 63.7466C23.9426 63.7466 24.3103 65.4756 23.7575 66.9875C23.7563 68.7906 24.9302 69.2327 25.7031 69.2327Z" fill="white"/>
</g>
<path d="M51.2802 11.4877C51.0077 11.4877 50.6174 11.4877 50.4026 11.0587C50.2265 10.7067 50.286 10.1393 49.9546 9.88574C50.286 9.98299 50.6364 9.98299 50.9089 9.98299C51.7871 9.98299 52.626 9.3774 53.2698 9.3774C53.694 9.3774 53.8309 9.65126 53.8309 9.92392C53.8315 10.7849 52.1001 11.4877 51.2802 11.4877ZM51.7086 13.6959C53.7333 13.6959 55.5872 12.0742 55.5872 10.6482C55.5872 9.98299 55.2743 9.43647 54.4752 9.33862C54.6115 9.51463 54.6698 9.65126 54.6698 9.9639C54.6698 11.039 53.0366 12.2311 51.2612 12.2311C50.6174 12.2311 50.4222 12.6798 50.4222 12.9143C50.4222 13.462 50.9494 13.6959 51.7086 13.6959ZM51.5533 14.5168C51.8074 16.3724 54.6115 18.8741 55.3713 18.815C55.8794 18.7721 56.0739 16.3921 56.0739 14.5168C56.0739 13.4423 56.1328 12.6016 55.567 12.4059C54.6692 14.2239 52.3143 14.595 51.5533 14.5168Z" fill="white"/>
<path d="M7.69478 26.8069C8.3564 26.8069 8.22015 22.742 9.2917 22.742C9.54576 22.742 9.6237 22.9962 9.6237 23.3088C9.6237 24.2271 9.17509 25.5761 9.17509 26.3177C9.17509 26.6894 9.27267 26.8069 9.44818 26.8069C9.91643 26.8069 10.7345 22.3315 11.533 22.3315C11.7864 22.3315 11.9031 22.5857 11.9031 22.8399C11.9031 23.7778 10.7155 26.474 10.7155 27.2359C10.7155 27.3534 10.7536 27.4507 10.8517 27.4507C11.339 27.4507 12.313 25.341 12.6242 24.2861C12.7997 23.7384 13.0335 23.4449 13.2483 23.4449C13.4429 23.4449 13.619 23.6603 13.619 24.1101C13.619 25.165 12.6438 27.6464 11.7864 29.308C11.1248 30.5974 10.092 32.4523 10.092 33.4881C10.092 34.0161 10.1877 34.5626 10.9481 35.2273C9.70105 35.1491 9.19472 35.0322 8.72767 34.0555C6.64227 38.217 12.5659 37.8072 10.5394 41.4986C10.1687 40.8357 7.24677 40.1514 7.24677 36.2827C7.24677 32.9416 10.1687 30.9876 10.1687 29.601C10.1687 29.3277 10.0723 29.0932 9.81886 28.8785C9.17509 28.3301 9.15545 27.8821 8.64913 27.8821C8.27965 27.8821 7.82984 28.7412 8.29809 29.5031C8.45457 29.7573 8.59082 29.9136 8.59082 30.1481C8.59082 30.6946 7.73286 32.1594 7.12955 32.1594C6.52506 32.1594 6.05859 30.657 6.05859 28.2329C6.05859 26.0826 6.54469 23.915 7.14919 23.915C7.32411 23.915 7.38242 24.032 7.38242 24.1889C7.38242 24.443 7.30507 24.9502 7.30507 25.8099C7.30507 26.7282 7.51926 26.8069 7.69478 26.8069Z" fill="white"/>
<path d="M12.6625 32.531C13.4818 32.531 14.163 31.9243 14.163 30.5782V28.5843C14.163 27.8224 14.2219 26.9632 14.7288 26.3564C14.6699 26.6112 14.6699 26.8845 14.6699 27.1386C14.6699 28.8194 15.6047 29.9727 15.6047 31.5937C15.6047 32.1987 15.4291 32.5316 14.9627 32.5316C14.5141 32.5316 14.5533 32.1212 14.4552 32.1212C14.3778 32.1212 14.2606 32.3747 14.2606 32.6486C14.2606 33.0591 14.5527 33.7034 15.3708 33.7034C16.0729 33.7034 16.6369 33.0591 16.6369 32.3359C16.6369 30.5788 15.2732 28.6237 15.2732 26.7484C15.2732 25.9274 15.4874 25.3809 15.663 24.9501C15.663 28.839 18.9556 31.6719 18.9556 33.2929C18.9556 33.6647 18.6831 33.9582 18.2737 33.9582C17.8257 33.9582 17.6109 33.6056 17.6109 33.3317C17.6109 33.1951 17.5913 33.1563 17.533 33.1563C17.417 33.1563 17.0659 33.5471 17.0659 34.056C17.0659 34.6998 17.5913 35.4826 18.5659 35.4826C19.6755 35.4826 20.28 34.5435 20.28 33.7034C20.28 31.6528 16.2859 28.5455 16.2859 25.2246C16.2859 24.6572 16.3823 23.739 16.7928 23.0361C14.2207 24.696 13.4223 26.9047 13.4223 28.839C13.4223 30.5198 13.364 31.3586 12.5066 31.3586C12.058 31.3586 11.9414 30.9494 11.7849 30.9494C11.6683 30.9494 11.6094 31.3008 11.6094 31.398C11.6106 32.1206 12.1371 32.531 12.6625 32.531Z" fill="white"/>
<path d="M42.1822 10.5308C42.4297 10.3643 43.528 10.628 44.9482 9.92401C45.1231 9.82795 45.2987 9.78857 45.4545 9.78857C46.1376 9.78857 45.9621 10.5696 46.5862 10.5696C47.0723 10.5696 47.6976 10.1591 48.0683 10.1591C48.649 10.1591 49.4873 11.9961 49.4873 12.8559C49.4873 13.8523 47.9897 14.4585 46.2155 14.4585C43.6256 14.4585 42.0649 12.1918 42.0649 10.7259C42.0655 10.609 42.1244 10.5696 42.1822 10.5308ZM46.4303 13.0122C47.2883 13.0122 47.9314 12.6214 47.9314 12.3863C47.9314 12.3094 47.8148 12.2503 47.5608 12.2503C47.3073 12.2503 46.8004 12.2312 45.8448 12.0743C45.025 11.9377 44.4014 11.625 44.1676 11.625C44.0897 11.625 44.0504 11.6638 44.0504 11.7223C44.0504 12.2312 44.9869 13.0122 46.4303 13.0122Z" fill="white"/>
<path d="M13.0725 39.8972C12.43 40.0542 11.3965 41.0684 11.3965 42.6728C11.3965 44.5862 13.4426 47.5378 16.8132 47.5378C19.6572 47.5378 20.3592 45.5641 20.3592 44.2342C20.3592 41.2844 18.5481 39.2129 16.1908 39.2129C14.9045 39.2129 13.7544 40.1508 13.7544 41.5374C13.7544 42.8285 14.729 44.7622 17.047 44.7622C18.1382 44.7622 18.7808 43.9794 18.7808 43.0833C18.7808 42.2032 17.9823 40.9927 16.8126 40.9927C16.4621 40.9927 16.2093 41.2248 16.2093 41.5977C16.2093 42.0654 16.8512 42.5356 17.6509 42.5356C17.8449 42.5356 18.0013 42.4962 18.0799 42.4568C18.118 42.5171 18.1382 42.6137 18.1382 42.6919C18.1382 43.1418 17.7092 43.4156 17.047 43.4156C16.0534 43.4156 15.0984 42.6734 15.0984 41.4986C15.0984 40.797 15.7029 40.2892 16.5793 40.2892C18.3131 40.2892 19.3454 41.8321 19.3454 43.3768C19.3454 44.7628 18.5868 45.5653 17.0274 45.5653C13.9097 45.5647 12.3913 42.7504 13.0725 39.8972Z" fill="white"/>
<path d="M35.3137 51.3454C36.2484 51.3454 36.1996 51.2673 36.4923 51.2673C36.7839 51.2673 36.8041 51.4433 36.8041 51.5608C36.8041 51.991 35.8486 52.5184 34.1535 52.5184C33.1599 52.5184 32.5554 51.9904 32.3804 51.4045C31.4065 52.0298 29.9262 52.5966 28.4643 52.5966C24.4708 52.5966 23.4576 50.8562 22.2099 50.2912C21.255 49.861 19.7937 50.7017 17.7476 48.4154C18.0207 48.4744 18.3913 48.4935 18.6835 48.4935C20.4749 48.4935 21.4299 47.6159 21.4299 46.2078C21.4299 46.0312 21.4102 45.8379 21.3906 45.6625C21.9368 45.8773 23.1845 46.814 23.4772 48.4744C23.5153 48.6701 24.3137 48.8455 24.8207 48.8455C25.5227 48.8455 26.4188 48.552 26.555 47.4005C28.8933 47.2054 30.4723 45.8188 30.8038 44.0581C31.6403 44.332 32.5952 45.0939 32.8291 45.4859C33.1605 45.3689 33.5496 45.3099 33.9976 45.3099C34.6211 45.3099 35.3232 45.4274 36.1603 45.6816C36.1996 45.4274 36.2383 45.1148 36.6286 45.1148C37.2129 45.1148 37.057 45.7597 37.2521 46.129C37.3497 46.3247 37.8376 46.4417 37.8376 46.8331C37.8376 47.2054 37.524 47.3426 37.3295 47.3426C37.2515 47.3426 37.1539 47.3229 37.095 47.3038C36.7059 47.4404 36.6857 50.2524 35.0495 50.2524C33.8423 50.2524 32.7315 49.256 32.2436 48.0067C32.1073 47.6355 31.8152 47.4005 31.5421 47.4005C31.2309 47.4005 31.0554 47.4595 30.6859 47.87C29.634 49.0215 27.88 50.0179 25.7173 50.0179C25.0545 50.0179 24.5285 49.9583 24.3917 49.9583C24.3131 49.9583 24.3131 49.978 24.3131 49.997C24.3131 50.1343 24.9753 50.6623 26.4176 50.6623C29.847 50.6623 30.6854 48.7274 31.2304 48.7274C31.3095 48.7274 31.5415 48.7274 31.6778 49.0406C32.478 50.9153 34.2225 51.3454 35.3137 51.3454ZM33.803 47.4404C33.803 47.8706 34.1541 48.2226 34.5831 48.2226C35.012 48.2226 35.3625 47.8706 35.3625 47.4404C35.3625 47.0097 35.012 46.6577 34.5831 46.6577C34.1541 46.6577 33.803 47.0097 33.803 47.4404Z" fill="white"/>
<path d="M49.2346 37.689C48.9615 37.689 48.6693 37.9044 48.6693 38.433C48.6693 39.0171 49.1179 39.3894 49.3708 39.5058C49.5077 39.5851 49.7224 39.6633 49.9349 39.6633C50.5007 39.6633 50.9499 39.5058 50.9499 39.0362C50.9493 38.433 50.0711 37.689 49.2346 37.689ZM47.1325 38.8996C46.7232 38.8996 44.4599 41.9281 43.0016 41.9281C42.6511 41.9281 42.3584 41.2641 42.3584 40.7581C42.3584 40.4843 42.5333 40.2886 43.1586 40.1507C46.509 39.3888 45.7676 36.8674 48.6295 36.8674C50.2074 36.8674 51.9637 37.9438 51.9637 40.3655C51.9637 42.9448 48.3028 46.1481 47.7566 46.1481C47.308 46.1481 46.8207 45.5038 46.8207 45.0742C46.8207 44.9376 46.8796 44.7616 47.2693 44.6052C49.1376 43.8618 50.2079 42.1429 50.2079 41.2629C50.2079 41.0672 50.111 40.8739 49.8575 40.8739C49.5267 40.8739 48.1083 44.116 46.528 44.116C45.435 44.116 44.3236 43.122 44.3236 42.6518C44.3236 41.8691 47.4835 40.4246 47.4835 39.3292C47.4829 38.9181 47.2884 38.8996 47.1325 38.8996Z" fill="white"/>
<path d="M8.57135 13.2861C8.57135 13.2861 8.00672 13.7151 7.30524 13.7151C6.46811 13.7151 5.8053 13.0904 5.8053 12.2109C5.8053 11.6047 6.11707 10.9801 6.83759 10.6668C6.81855 10.7844 6.81855 10.8816 6.81855 10.9992C6.81795 12.1137 7.44149 12.9531 8.57135 13.2861ZM12.741 17.0377C12.3126 17.5449 11.864 18.4052 11.864 19.2841C11.864 20.3389 12.5077 21.2178 13.5013 21.2178C14.4557 21.2178 14.9043 20.3974 14.9043 19.5579C14.9043 18.2489 13.7155 17.3295 12.741 17.0377ZM6.27295 17.8187C6.23607 17.879 6.21405 17.956 6.21405 18.0341C6.21405 18.2101 6.4092 18.4052 6.58353 18.4052C6.73942 18.4052 6.83699 18.3665 6.91494 18.3665C7.38199 18.3665 7.90855 18.6982 8.66834 18.6982C9.11576 18.6982 9.64231 18.561 10.3045 18.2298C11.7075 17.5258 12.2537 15.7872 12.2537 15.4936C12.2537 15.1219 11.9562 15.1709 11.7075 14.829C11.4588 14.4883 11.554 14.187 11.3957 14.0277C11.3059 13.9364 11.0262 13.9304 10.6746 13.8911C10.5574 13.8785 10.4015 13.8714 10.2456 13.8714C9.60364 13.8714 8.84147 13.9507 7.9859 14.4972C6.29616 15.579 6.54486 17.3695 6.27295 17.8187ZM10.8513 15.3958C10.9864 15.5801 11.3588 15.8069 11.3588 15.9435C11.3588 16.2162 11.2018 16.5688 10.8906 16.5688C10.2081 16.5688 9.66314 15.533 9.66314 14.9459C9.66314 14.5754 9.87793 14.5366 10.1695 14.5366C10.3057 14.5366 10.3646 14.5563 10.4616 14.6148C10.6365 14.7126 10.6365 15.1028 10.8513 15.3958ZM9.05805 17.78C8.41547 17.78 7.71399 16.9793 7.71399 16.2555C7.71399 15.8653 8.00613 15.3761 8.22032 15.3761C8.29826 15.3761 8.33753 15.4352 8.35657 15.5724C8.47318 16.5294 9.09732 17.0771 9.68218 17.3498C9.74049 17.3886 9.77975 17.4082 9.77975 17.447C9.77975 17.5843 9.40908 17.78 9.05805 17.78ZM10.7151 12.8559C10.812 12.5427 10.89 12.1531 10.89 11.7223C10.89 10.785 10.4604 9.3584 9.13599 9.3584C8.3768 9.3584 7.83001 9.96399 7.83001 10.6871C7.83001 12.2312 9.36982 12.8559 10.7151 12.8559ZM5.66846 20.6713C5.66846 22.1557 6.11707 22.8597 6.91553 22.8597C7.53907 22.8597 8.3768 22.4099 9.36981 21.5501C8.61062 21.7261 8.02516 21.8437 7.4998 21.8437C6.79832 21.8437 6.25332 21.5698 5.66846 20.6713ZM6.3509 18.9321C6.33186 19.0305 6.33186 19.1278 6.33186 19.225C6.33186 20.1432 6.81795 20.6516 7.46113 20.6516C7.94663 20.6516 8.51305 20.3586 9.01818 19.7131C8.80518 19.7518 8.55113 19.7715 8.3173 19.7715C7.59738 19.7715 6.81795 19.577 6.3509 18.9321ZM11.1244 18.6588C10.6752 18.7757 9.74049 19.3229 9.74049 20.2996C9.74049 21.0024 10.2855 21.4529 10.9679 21.4529C11.319 21.4529 11.5718 21.3741 11.7277 21.2572C11.1827 20.7297 10.9876 20.1432 10.9876 19.5579C10.9876 19.1469 11.0459 18.8933 11.1244 18.6588ZM11.8253 13.3052C11.8253 13.7347 12.1757 14.0874 12.6041 14.0874C13.0331 14.0874 13.3841 13.7353 13.3841 13.3052C13.3841 12.8756 13.0331 12.523 12.6041 12.523C12.1757 12.523 11.8253 12.8756 11.8253 13.3052ZM12.8379 15.0635C12.8379 15.4936 13.1896 15.8457 13.6191 15.8457C14.0469 15.8457 14.398 15.4936 14.398 15.0635C14.398 14.6345 14.0469 14.2825 13.6191 14.2825C13.189 14.2825 12.8379 14.6345 12.8379 15.0635Z" fill="white"/>
<path d="M43.2361 24.6566C43.2361 24.2664 43.5871 23.9341 43.9721 23.9341C44.4016 23.9341 44.733 24.2664 44.733 24.6566C44.733 25.1059 44.401 25.4191 43.9721 25.4191C43.5871 25.4191 43.2361 25.1059 43.2361 24.6566ZM36.395 18.6389C36.395 19.0685 36.7466 19.4205 37.1738 19.4205C37.604 19.4205 37.955 19.0685 37.955 18.6389C37.955 18.2099 37.6034 17.8579 37.1738 17.8579C36.7466 17.8579 36.395 18.2099 36.395 18.6389ZM35.7334 21.3936C35.7334 21.9998 36.2385 22.5069 36.8436 22.5069C37.4469 22.5069 37.955 21.9998 37.955 21.3936C37.955 20.7886 37.4469 20.2797 36.8436 20.2797C36.2385 20.2797 35.7334 20.7886 35.7334 21.3936ZM38.1889 20.1431C38.1889 20.8083 38.7154 21.3351 39.3741 21.3351C40.0363 21.3351 40.5646 20.8083 40.5646 20.1431C40.5646 19.479 40.0363 18.9516 39.3741 18.9516C38.7154 18.9516 38.1889 19.479 38.1889 20.1431ZM38.287 17.6032C38.287 18.0142 38.6184 18.3472 39.0236 18.3472C39.433 18.3472 39.7644 18.0142 39.7644 17.6032C39.7644 17.1939 39.4324 16.8615 39.0236 16.8615C38.6184 16.8615 38.287 17.1939 38.287 17.6032ZM41.8123 15.7285C41.8123 16.1378 42.1437 16.4701 42.5536 16.4701C42.963 16.4701 43.295 16.1378 43.295 15.7285C43.295 15.3174 42.963 14.9851 42.5536 14.9851C42.1437 14.9851 41.8123 15.3174 41.8123 15.7285ZM40.3498 18.1318C40.3498 18.8149 40.9151 19.3811 41.5975 19.3811C42.2805 19.3811 42.8464 18.8149 42.8464 18.1318C42.8464 17.4468 42.2811 16.8812 41.5975 16.8812C40.9151 16.8812 40.3498 17.4468 40.3498 18.1318ZM38.3448 22.7032C38.3448 23.1334 38.6958 23.4842 39.1212 23.4842C39.5502 23.4842 39.9018 23.1334 39.9018 22.7032C39.9018 22.273 39.5502 21.9216 39.1212 21.9216C38.6958 21.9216 38.3448 22.273 38.3448 22.7032ZM40.896 21.1394C40.896 21.5696 41.2465 21.9216 41.6766 21.9216C42.105 21.9216 42.4561 21.5696 42.4561 21.1394C42.4561 20.7105 42.105 20.3584 41.6766 20.3584C41.2465 20.3584 40.896 20.7105 40.896 21.1394ZM40.1749 23.8947C40.1749 24.6369 40.7788 25.2431 41.5202 25.2431C42.2609 25.2431 42.8666 24.6369 42.8666 23.8947C42.8666 23.1525 42.2609 22.5463 41.5202 22.5463C40.7788 22.5463 40.1749 23.1525 40.1749 23.8947ZM42.982 22.2331C42.982 22.742 43.392 23.1525 43.8953 23.1525C44.4022 23.1525 44.8116 22.742 44.8116 22.2331C44.8116 21.7259 44.4022 21.3154 43.8953 21.3154C43.392 21.3154 42.982 21.7259 42.982 22.2331ZM42.9237 19.7713C42.9237 20.2218 43.295 20.5929 43.7382 20.5929C44.1874 20.5929 44.5581 20.2218 44.5581 19.7713C44.5581 19.3227 44.1874 18.9516 43.7382 18.9516C43.295 18.9516 42.9237 19.3227 42.9237 19.7713Z" fill="white"/>
<path d="M44.9083 45.4077C44.4014 45.7991 43.2162 46.6768 41.2462 46.6768C40.1937 46.6768 39.7254 46.3444 39.5696 46.3444C39.3744 46.3444 39.1602 46.5395 38.9454 46.7943C38.4825 47.342 37.8774 48.3581 37.8774 49.4708C37.8774 50.2518 38.4825 51.0322 39.6082 51.0322C43.2554 51.0322 45.981 48.7471 45.981 46.8922C45.981 45.8379 45.3575 45.4077 44.9083 45.4077ZM43.8951 45.1929C44.0527 45.0581 44.0896 44.8415 44.0896 44.6255V44.1763C44.0896 43.6089 43.2358 43.2783 42.0655 43.2783C40.6417 43.2783 39.8813 43.9215 39.8813 44.1959V45.0945C39.8813 45.4668 40.7399 45.8379 41.793 45.8379C42.6313 45.8379 43.3917 45.6231 43.8951 45.1929ZM43.738 47.1272C43.8361 47.1272 43.9522 47.1851 43.9522 47.5377C43.9522 47.9667 43.7582 48.5329 43.0597 48.9816C42.5724 49.3151 41.909 49.589 40.9344 49.6063C41.0903 49.1391 41.2075 48.6493 41.2075 48.1827C41.2075 48.0258 41.1885 47.9082 41.1689 47.7328H41.4223C42.9627 47.7334 43.6261 47.1272 43.738 47.1272Z" fill="white"/>
<path d="M36.2971 23.251C36.5113 24.9108 38.7347 24.0708 38.7347 26.0826C38.7347 26.3762 38.6568 26.8069 38.6568 27.1775C38.6568 27.6076 38.6948 27.9787 39.0233 27.9787C39.3541 27.9787 39.4326 27.7449 39.4326 27.4316C39.4326 27.1184 39.3541 26.7282 39.3541 26.5134C39.3541 25.8291 39.842 25.6733 40.1353 25.6733C40.876 25.6733 41.4413 26.4352 42.5533 26.4352C42.2992 27.6858 39.7254 27.3535 39.7254 28.7216C39.7254 29.4059 40.4078 29.561 40.8564 29.561C41.2657 29.561 41.4026 29.5026 41.4026 29.1517C41.4026 28.9554 41.3633 28.7406 41.3633 28.604C41.3633 28.5253 41.4222 28.4471 41.5198 28.4471C41.95 28.4471 44.0502 30.0497 44.0502 30.5389C44.0502 30.9876 41.8316 31.4369 41.1884 31.4369C40.9932 31.4369 40.954 31.3002 40.954 31.2221C40.954 31.0854 41.2854 30.675 41.2854 30.4411C41.2854 30.2651 40.9932 30.1475 40.2126 30.1475C39.842 30.1475 39.5689 30.1869 39.5689 30.4804C39.5689 31.0067 40.4268 31.6522 40.4268 32.1397C40.4268 32.5311 40.193 32.7656 39.5689 32.7656C39.0423 32.7656 38.2462 32.3545 38.2462 31.6713C38.2462 31.1242 38.8085 30.5783 38.8085 30.2454C38.8085 30.1475 38.7341 29.9912 38.5003 29.9912C37.778 29.9912 37.5834 31.9052 35.0298 32.1206C35.4391 31.7495 35.789 31.339 35.789 30.5001C35.789 30.0896 35.6926 29.7567 35.6926 29.3081C35.6926 28.7216 35.9645 28.428 36.3542 28.428C37.0747 28.428 37.4258 29.4435 37.8952 29.4435C38.1493 29.4435 38.4218 29.2102 38.4218 28.8582C38.4218 27.3732 35.576 27.5879 35.576 25.4973C35.5766 24.9305 35.7705 24.2271 36.2971 23.251ZM45.5906 28.9757C45.5906 29.4632 45.7477 30.03 46.235 30.03C46.6444 30.03 46.9948 29.4059 46.9948 28.7216C46.9948 27.94 46.8585 27.3338 46.8585 27.0205C46.8585 26.8845 46.9174 26.826 46.9948 26.826C47.2875 26.8457 47.56 27.6464 47.873 27.6464C48.224 27.6464 48.747 27.0009 48.9606 27.0009C49.0195 27.0009 49.0385 27.0796 49.0385 27.0987C49.0385 27.3922 48.5899 28.0378 48.5899 28.2914C48.5899 28.5062 49.721 28.545 49.721 28.7406C49.721 29.0342 48.5352 29.0342 47.9706 29.2884C47.425 29.5222 47.0918 29.8152 47.0918 30.2066C47.0918 30.5974 47.4821 30.6749 48.0283 30.6749C49.3301 30.6749 50.2463 29.9721 50.5385 29.9721C50.5968 29.9721 50.6355 30.0103 50.6355 30.0694C50.6355 30.2651 49.9733 30.9094 49.9733 31.203C49.9733 31.5347 51.1822 31.9243 51.1626 32.1206C51.1436 32.1791 51.065 32.1982 50.9288 32.1982C50.7134 32.1982 50.3826 32.1397 50.1285 32.1397C49.9727 32.1397 49.8364 32.1588 49.7769 32.2369C49.6419 32.3939 49.8162 33.4296 49.5449 33.4296C49.2908 33.4296 48.628 31.1242 47.131 31.1242C46.9163 31.1242 46.7604 31.3002 46.7604 31.5932C46.7604 32.3742 47.5208 33.2727 48.2425 33.7029C48.5691 33.9183 49.1159 34.1331 49.1159 34.2512C49.1159 34.4845 47.8718 34.2703 47.8718 34.6605C47.8718 35.0125 48.0277 35.5411 48.0277 35.8526C48.0277 35.9504 48.008 36.0668 47.8914 36.0668C47.6576 36.0668 47.0912 34.9928 46.8187 34.9928C46.5849 34.9928 46.0779 35.6372 45.8631 35.6372C45.8048 35.6372 45.7662 35.5787 45.7662 35.5208C45.7662 35.071 46.4879 34.0555 46.4879 33.0585C46.4879 32.5896 46.429 31.5735 45.8631 31.5735C45.3955 31.5735 44.8683 32.3157 44.6345 33.0585C44.4989 33.4881 44.5958 35.1491 44.2835 35.1491C43.9913 35.1491 44.0693 34.0358 43.6784 34.0358C43.391 34.0358 42.7669 34.5626 42.5521 34.5626C42.5128 34.5626 42.4736 34.543 42.4736 34.5042C42.4736 34.2703 43.0394 33.5078 43.0394 33.3515C43.0394 33.0585 41.7524 33.0197 41.7524 32.7853C41.7524 32.648 42.2594 32.5508 42.727 32.472C43.7183 32.296 45.1801 31.5735 45.1801 30.558C45.1801 29.425 44.0883 28.9357 43.3708 28.4668C43.0001 28.2323 42.5908 28.0378 42.5908 27.8815C42.5908 27.7246 43.0584 27.7246 43.2536 27.7246C43.5457 27.7246 43.8349 27.7049 43.8349 27.471C43.8349 27.2944 43.7956 26.9436 43.7956 26.6697C43.7956 26.474 43.8146 26.3177 43.8938 26.3177C44.1859 26.3177 44.5952 27.2747 44.791 27.2747C45.1022 27.2747 45.5311 26.4931 45.8245 26.4931C45.9209 26.4931 45.9607 26.5522 45.9607 26.7276C45.9619 27.4507 45.5906 28.2711 45.5906 28.9757Z" fill="white"/>
<path d="M36.8633 34.3866C37.7605 34.5042 37.9753 34.8162 37.9753 35.071C37.9753 35.5011 37.585 35.6372 37.2137 35.6372C36.9418 35.6372 36.6294 35.5787 36.298 35.5787C35.8685 35.5787 35.4407 35.6766 35.0902 36.087C35.3431 36.1258 35.7138 36.3024 35.7138 36.6938C35.7138 37.8268 32.577 36.8877 32.577 39.8005C32.577 41.3434 34.1751 43.0248 36.5902 43.0248C37.839 43.0248 38.6381 42.6143 38.6381 42.1441C38.6381 41.7736 37.9759 42.0266 37.9759 41.7139C37.9759 41.5773 38.2097 41.3225 38.2097 41.1066C38.2097 41.0123 38.1317 40.8351 37.9759 40.8351C37.6236 40.8351 36.9608 41.4001 35.6162 41.4001C34.5637 41.4001 33.5308 40.7963 33.5308 39.9747C33.5308 39.7993 33.6093 39.7009 33.7259 39.7009C33.8431 39.7009 33.9984 39.7796 34.1353 39.7796C34.2525 39.7796 34.2715 39.7009 34.2715 39.4867C34.2715 39.2713 34.2715 38.6651 34.641 38.6651C35.0123 38.6651 35.7138 40.0332 38.4042 40.0332C39.2973 40.0332 41.0329 39.8584 41.6766 39.2713C41.657 41.421 39.9792 44.2538 36.4735 44.2538C32.8299 44.2538 30.8813 41.3225 30.8813 38.6257C30.8813 35.6372 33.316 32.9219 36.6491 32.9219C37.5052 32.9219 38.2281 33.2142 38.2281 33.5859C38.2275 34.0949 36.9602 33.7816 36.8633 34.3866ZM42.8458 35.4236C42.982 35.6372 43.0409 35.8526 43.0409 36.0477C43.0409 36.5954 42.6702 37.1031 42.6702 37.6705C42.6702 38.3149 43.1581 38.8417 43.8953 38.8417C44.6944 38.8417 45.2405 38.1985 45.2405 37.4354C45.2405 36.3997 44.3046 35.5208 42.8458 35.4236ZM36.395 36.6735C36.589 36.868 36.6485 37.0637 36.6485 37.2594C36.6485 37.5524 36.5122 37.8656 36.5122 38.198C36.5122 38.6651 36.8633 39.0762 37.369 39.0762C37.9158 39.0762 38.287 38.6454 38.287 38.1395C38.287 37.3967 37.5243 36.6735 36.395 36.6735ZM38.9849 33.3515C41.0323 33.7423 42.1437 35.2864 42.1437 36.7326C42.1437 37.7296 41.5201 38.646 40.4278 38.646C39.433 38.646 38.7154 37.9629 38.7154 36.8686C38.7154 36.0483 39.3544 35.1885 39.3544 34.3478C39.3544 34.0161 39.2574 33.6838 38.9849 33.3515ZM39.9988 35.9504C39.9988 36.2237 40.1939 36.4391 40.467 36.4391C40.7782 36.4391 40.974 36.1652 40.974 35.8526C40.974 35.4427 40.6033 34.8759 40.2523 34.8759C40.0958 34.8759 40.1547 35.1103 40.116 35.3645C40.0958 35.559 39.9988 35.7935 39.9988 35.9504Z" fill="white"/>
<path d="M18.4897 15.8457C19.1519 15.8457 19.9111 12.2503 19.9111 11.6441C19.9111 11.4878 19.8534 11.3703 19.7171 11.3703C19.1126 11.3703 18.2755 14.7902 18.2755 15.5527C18.2749 15.6893 18.3136 15.8457 18.4897 15.8457ZM23.2632 16.9202C23.7493 16.9202 24.2949 15.0438 24.2949 13.8714C24.2949 13.6172 24.2562 13.3445 24.1384 13.3445C23.7291 13.3445 23.0472 15.2788 23.0472 16.3337C23.0478 16.7442 23.146 16.9202 23.2632 16.9202ZM20.0854 15.181C20.2996 15.181 20.5727 14.9453 21.0808 14.3803C21.1189 14.1261 21.1189 13.8911 21.1189 13.5981C21.1189 13.2079 20.963 12.7777 20.7298 12.7777C20.1443 12.7777 19.8528 14.3409 19.8528 14.752C19.8534 14.9853 19.9694 15.181 20.0854 15.181ZM22.7557 14.3803C22.7557 14.0474 22.6771 13.9692 22.5998 13.9692C22.4046 13.9692 22.191 14.2043 21.8793 14.7317C21.9179 15.4352 22.0351 15.7478 22.2297 15.7478C22.4439 15.7478 22.7557 15.0635 22.7557 14.3803ZM24.2562 12.0743C25.5425 12.0743 26.1262 13.1882 26.1262 14.4388C26.1262 14.9853 25.9715 15.7872 25.7181 15.7872C25.4646 15.7872 25.5039 15.3373 25.4646 14.9268C25.4259 14.3994 25.3278 14.2825 25.1522 14.2825C24.8208 14.2825 24.6072 15.0635 24.6072 15.7872C24.6072 16.2359 24.6852 16.7442 25.035 16.7442C25.2302 16.7442 25.4057 16.6463 25.5229 16.5294C25.445 17.4273 24.7816 18.2101 23.8469 18.2101C22.1321 18.2101 21.489 16.1971 21.295 15.0247C20.2621 16.1189 19.3078 16.9202 17.5924 16.9202C15.9955 16.9202 15.2744 15.7478 15.2744 14.6345C15.2744 14.3016 15.391 13.4424 15.801 13.4424C16.2877 13.4424 15.8593 15.0438 16.8136 15.0438C17.048 15.0438 17.4752 14.8481 17.7103 14.2043C17.8465 13.8129 17.9244 13.4036 17.9244 13.051C17.9244 12.523 17.8078 12.1918 17.4181 12.1918C17.0861 12.1918 16.6768 12.4448 16.5405 12.582C17.0088 11.1752 18.1386 10.4526 19.3839 10.4526C20.9249 10.4526 21.7424 11.8201 21.7424 13.3445C21.7424 13.5587 21.7228 13.7932 21.6835 14.0086C22.3463 12.9144 23.2632 12.0743 24.2562 12.0743Z" fill="white"/>
<path d="M20.6124 17.3293C19.7747 17.3293 19.736 18.3472 19.736 20.3973C19.1119 19.0495 18.0802 17.6032 16.8718 17.6032C16.0537 17.6032 15.7426 18.1509 15.7426 19.1073C15.7426 19.303 15.7616 19.5966 15.8009 19.7714C15.8984 19.4403 16.2102 19.303 16.5993 19.303C17.4382 19.303 18.4509 19.9474 19.1131 20.8274C18.3539 20.6908 17.6132 20.5536 16.9902 20.5536C16.5999 20.5536 16.2495 20.593 15.9573 20.7296C15.3921 20.9832 14.6323 21.8238 14.6323 23.0941C14.6323 23.2898 14.652 23.504 14.6912 23.7384C15.3731 22.214 17.1848 21.5303 18.3539 21.5303C18.5883 21.5303 18.7627 21.55 18.8995 21.5697C18.295 22.1162 18.1594 23.0738 18.1195 23.7187C18.101 24.0314 17.9832 24.0517 17.7685 24.0517C17.7685 24.6954 18.276 25.6536 18.276 26.1417C18.276 26.3177 18.1784 26.474 18.0814 26.5134C18.0814 27.3732 18.9376 27.9984 18.9376 28.545C18.9376 28.6816 18.8995 28.7991 18.84 28.8582C18.8995 29.2102 19.842 29.8015 19.9639 30.098C20.1139 30.4584 20.2822 30.5192 20.3798 30.5192C20.7112 30.5192 21.236 30.1278 21.236 29.7758C21.236 29.6589 21.1384 29.5223 21.0617 29.4632C20.691 29.1905 20.4958 28.604 20.3399 28.2138C20.2031 28.2138 20.027 28.156 19.9651 27.9256C19.8586 27.5211 19.8533 26.7676 19.6974 26.3177C19.4439 26.2592 19.3267 26.1614 19.3267 25.634C19.3267 25.3798 19.4832 24.3828 19.4832 24.0308C19.3666 24.0308 19.2107 23.9526 19.2107 23.7182C19.2107 23.0935 19.8348 22.6048 20.0091 21.8041C21.12 22.6239 21.3919 23.464 21.3919 24.2074C21.3919 24.597 21.3336 24.9687 21.2556 25.3213C22.0743 24.9102 23.3018 24.3046 23.3018 23.0738C23.3018 22.3501 22.9703 21.5494 20.7683 21.2367C21.4502 20.9826 22.3081 20.8465 23.0287 20.8465C24.2763 20.8465 24.9968 21.2367 25.1521 22.1156C25.4056 21.7254 25.6007 21.2755 25.6007 20.8656C25.6007 19.9074 24.8011 19.2833 23.7884 19.2833C22.5997 19.2833 21.5478 19.9074 20.4173 20.6705C20.9254 19.6157 21.2741 18.9904 21.8988 18.9904C21.9958 18.9904 22.0933 19.0101 22.1909 19.0298C21.9571 18.1706 21.0807 17.3293 20.6124 17.3293Z" fill="white"/>
<path d="M53.4411 31.4172C54.4169 31.4172 55.1963 32.6869 55.1963 34.1725C55.1963 35.7548 54.4549 37.4749 53.1335 38.6461C53.1139 36.009 49.895 36.849 49.895 34.935C49.895 34.1146 50.4811 33.5669 51.1831 33.5669C51.8073 33.5669 52.2946 33.7429 52.6456 34.0955C52.2946 33.7626 52.119 33.2931 52.119 32.8444C52.119 32.1004 52.5873 31.4172 53.4411 31.4172Z" fill="white"/>
<path d="M36.0439 12.8559C36.5514 13.3445 36.9983 13.5587 37.5445 13.5587C37.7598 13.5587 38.0139 13.5008 38.1507 13.5008C38.3263 13.5008 38.4423 13.5784 38.4423 13.715C38.4423 13.9304 38.2471 14.2824 38.0139 14.4781C38.2471 14.5754 38.5012 14.6148 38.7743 14.6148C39.8809 14.6148 41.1482 13.9107 41.1482 12.153C41.3833 12.4645 41.5195 13.11 41.5195 13.4036C41.5195 15.533 39.9589 16.3534 38.5202 16.3534C37.5843 16.3534 37.1155 16.0401 36.9977 16.0401C36.6282 16.0401 36.6478 16.7835 36.3944 16.7639C35.9458 16.6857 35.5376 15.6893 35.5376 14.6345C35.5382 14.0086 35.6941 13.3445 36.0439 12.8559ZM38.9849 11.4293C38.829 11.1751 38.2471 11.0391 37.9752 11.0391C37.1161 11.0391 36.5312 11.6441 36.4146 12.1918C36.3367 11.9961 36.2783 11.7616 36.2783 11.5272C36.2783 10.6674 36.8632 9.61255 38.2876 9.61255C39.5311 9.61255 40.0184 10.2766 40.1945 10.2766C40.389 10.2766 40.5842 10.0809 40.7407 10.0809C40.9549 10.0809 40.9549 10.4132 40.9549 10.6483C40.9549 11.4293 40.6032 12.7777 39.7262 13.2664C39.5698 12.934 39.258 12.5623 38.7546 12.3284C38.6184 12.27 38.5601 12.153 38.5601 12.0355C38.5595 11.8201 38.754 11.5463 38.9849 11.4293Z" fill="white"/>
<path d="M22.5023 7.16989C22.5023 7.85364 24.9375 11.1948 25.4058 11.1948C25.7961 11.1948 26.0876 10.5111 26.0876 9.92397C26.0876 9.76885 26.0483 9.61313 25.9716 9.49499C25.6205 9.00634 23.146 7.05235 22.5998 7.05235C22.5409 7.05235 22.5023 7.11142 22.5023 7.16989ZM8.18114 5.15743C8.18114 5.54882 6.70083 6.85725 6.17547 6.85725C5.98091 6.85725 5.92141 6.62337 5.92141 6.40858C5.92141 6.01838 6.09693 5.47067 6.31172 5.29406C6.56399 5.05958 7.14885 4.94383 7.59687 4.94383C7.86937 4.94383 8.18114 5.00111 8.18114 5.15743ZM25.9716 6.29104C25.9716 5.11805 22.8105 2.98865 22.7754 2.07102C22.7718 1.98689 22.8176 1.90336 22.8884 1.82878C23.4298 1.25601 25.6783 0.838364 25.6783 0.350313C25.6783 0.0973384 25.21 0.0973384 24.9762 0.0973384C23.1645 0.0973384 20.5144 0.761397 20.5144 1.40577C20.5144 2.07102 22.8914 3.69268 22.8914 4.49397C22.8914 4.70876 22.7551 4.78692 22.5403 4.78692C21.8787 4.78692 20.4365 3.98504 19.7547 3.98504C19.4429 3.98504 19.3251 4.19983 19.3251 4.51366C19.3251 5.45098 20.4359 7.22896 20.4359 7.75519C20.4359 7.81426 20.4163 7.89242 20.3383 7.89242C19.9873 7.89242 18.3327 5.93962 17.7472 5.93962C17.5336 5.93962 17.5134 6.23198 17.5134 6.66215V7.32621C17.5134 7.77548 17.4937 8.04934 17.2807 8.04934C16.7726 8.04934 16.5394 6.62337 16.0527 6.62337C15.5458 6.62337 15.4482 9.16267 14.9621 9.16267C14.3963 9.16267 14.8836 6.36861 14.338 6.36861C13.7341 6.36861 13.0516 8.22535 12.6227 8.22535C12.4674 8.22535 12.4287 8.06843 12.4287 7.9318C12.4287 7.36559 12.7589 6.44736 12.7589 5.90084C12.7589 5.62639 12.681 5.47066 12.4483 5.47066C11.8432 5.47066 10.5188 6.44736 10.0125 6.44736C9.93454 6.44736 9.83696 6.40858 9.83696 6.32982C9.83696 5.86206 11.9604 4.37643 11.9604 3.71237C11.9604 3.06681 9.03672 3.49758 9.03672 2.75417C9.03672 2.12949 11.1233 1.48452 11.1233 0.839557C11.1233 0.27275 8.6482 0.0197754 7.69385 0.0197754C6.54376 0.0197754 5.92082 0.155212 5.92082 0.48754C5.92082 0.995876 8.53218 1.15279 8.53218 1.60146C8.53218 2.03164 5.82324 3.18435 5.82324 3.8484C5.82324 4.4349 9.64181 3.88719 9.64181 4.49397C9.64181 5.15743 6.31112 8.02905 6.31112 8.98666C6.31112 9.20204 6.46701 9.29989 6.68061 9.29989C7.69385 9.29989 10.3231 7.36559 11.0448 7.36559C11.2982 7.36559 11.3179 7.67763 11.3179 7.95149C11.3179 8.45982 11.1429 9.24082 11.1429 9.80823C11.1429 10.2569 11.2596 10.5695 11.6487 10.5695C12.371 10.5695 13.032 9.33867 13.5205 9.33867C14.1434 9.33867 13.7733 12.9531 14.7086 12.9531C15.5071 12.9531 15.8379 9.04572 16.3448 9.04572C16.8518 9.04572 17.2617 10.1787 17.7288 10.1787C18.3124 10.1787 18.0399 8.20566 18.6641 8.20566C19.3453 8.20566 21.2939 10.5504 22.1709 10.5504C22.4434 10.5504 22.5403 10.3351 22.5403 10.0612C22.5403 9.02544 21.0993 6.68184 21.0993 5.93962C21.0993 5.74452 21.157 5.68546 21.3712 5.68546C22.131 5.68546 24.3532 6.74031 25.4046 6.74031C25.758 6.74031 25.9716 6.54521 25.9716 6.29104ZM23.9445 2.42244C23.9445 2.77386 25.1719 3.53636 25.7378 3.53636C26.0686 3.53636 26.1661 3.0865 26.1661 2.61754C26.1661 2.03164 25.9139 2.01195 25.4063 2.01195C24.7632 2.01195 23.9445 2.18796 23.9445 2.42244ZM19.3655 0.429069C19.3655 0.311532 18.7813 0.193994 17.9828 0.193994C16.7161 0.193994 16.8916 1.25064 15.9176 1.25064C14.9044 1.25064 15.1567 0.155212 13.8709 0.155212C13.0915 0.155212 12.3716 0.292439 12.3716 0.467851C12.3716 0.702927 13.2866 0.605078 13.2866 1.25064C13.2866 1.93379 11.3185 2.12949 11.3185 2.53998C11.3185 2.67661 11.4737 2.73508 11.6689 2.73508C12.0985 2.73508 12.7791 2.53998 13.267 2.53998C13.5401 2.53998 13.7936 2.59785 13.7936 2.85202C13.7936 3.34067 12.7405 4.22011 12.7405 4.61091C12.7405 4.72845 12.8374 4.76783 12.935 4.76783C13.3253 4.76783 13.9881 3.77084 14.6111 3.77084C15.6439 3.77084 14.9627 5.9784 15.5267 5.9784C16.111 5.9784 15.8581 3.80903 16.6959 3.80903C17.3789 3.80903 17.8846 5.31375 18.3523 5.31375C18.4695 5.31375 18.5665 5.2165 18.5665 5.07927C18.5665 4.66998 17.9822 3.82872 17.9822 3.2822C17.9822 2.94987 18.216 2.79295 18.5278 2.79295C18.9752 2.79295 19.5797 3.06681 19.9099 3.06681C20.0266 3.06681 20.1438 3.02803 20.1438 2.8914C20.1438 2.42244 18.4112 1.9147 18.4112 1.30911C18.4118 0.702927 19.3655 0.702927 19.3655 0.429069Z" fill="white"/>
<path d="M53.9087 3.59571C53.9087 5.33372 52.6455 6.66243 50.3632 7.03354C50.6173 7.05264 50.8511 7.05264 51.0855 7.05264C53.7528 7.05264 54.7286 5.84206 54.7286 4.82658C54.7286 4.25917 54.4162 3.75203 53.9087 3.59571ZM50.6173 5.5682C50.6173 4.18101 47.3074 3.829 47.3074 3.51695C47.3074 3.26338 49.1554 2.83261 50.1103 2.81292C48.6491 0.937687 46.5667 1.13338 46.5667 0.801056C46.5667 0.605359 48.1261 0.213964 49.5659 0.213964C50.7737 0.213964 51.9042 0.487821 51.9042 1.40605C51.9042 1.91498 51.4949 2.44301 51.4949 3.22341C51.4949 3.65359 51.7079 4.02469 52.2749 4.02469C52.8806 4.02469 53.0156 3.38032 53.0156 2.69538C53.0156 2.12977 52.9186 1.69959 52.9186 1.42574C52.9186 0.605359 53.4797 0.0588379 54.2793 0.0588379C54.9422 0.0588379 55.0986 0.350594 56.0738 0.350594C55.5467 0.664426 55.3521 1.23123 55.3521 1.5039C55.3521 2.32547 55.8798 2.89168 55.8798 4.57241C55.8798 7.65822 52.9966 8.75246 49.4684 8.75246C48.4985 8.75246 47.4639 8.6743 46.4494 8.51858C46.2942 8.49889 46.2549 8.46011 46.2549 8.36226C46.2549 8.10809 47.64 7.97086 47.64 6.7215C47.64 6.23226 47.4835 5.7639 47.4835 5.58848C47.4835 5.49064 47.5615 5.43157 47.64 5.43157C47.9321 5.43157 48.5182 6.56458 49.6058 6.56458C49.895 6.56458 50.6173 6.46674 50.6173 5.5682ZM53.7921 1.25092C53.7921 1.52359 54.0063 1.73838 54.2793 1.73838C54.5524 1.73838 54.7672 1.52359 54.7672 1.25092C54.7672 0.977065 54.5524 0.761678 54.2793 0.761678C54.0063 0.761678 53.7921 0.977065 53.7921 1.25092Z" fill="white"/>
<path d="M52.0607 19.3032C52.0607 18.8933 51.0266 18.8545 50.9296 17.7012C50.9094 17.5258 50.8511 17.2137 50.6363 17.2137C50.2858 17.2137 50.5583 18.2883 50.1686 18.2883C49.2726 18.2883 48.9805 16.5294 48.6491 16.5294C48.5705 16.5294 48.4777 16.5879 48.4777 16.8223C48.4777 17.0377 48.517 17.1743 48.517 17.4273C48.517 17.6821 48.4575 17.8581 48.2242 17.8581C47.6977 17.8581 47.2294 16.6266 46.7808 16.6266C46.6833 16.6266 46.5863 16.6857 46.5863 16.7836C46.5863 17.018 46.9754 17.447 46.9754 17.6624C46.9754 18.132 45.7081 17.8772 45.7081 18.2686C45.7081 18.4446 45.883 18.5025 46.1174 18.5025C46.5274 18.5025 47.1711 18.3277 47.5025 18.3277C47.6977 18.3277 47.9898 18.3664 47.9898 18.6194C47.9898 18.8933 47.2877 19.2447 47.2877 19.4989C47.2877 19.6164 47.4044 19.6743 47.5019 19.6743C48.0285 19.6743 48.9602 18.7566 49.623 18.7566C49.7397 18.7566 50.0318 18.8151 50.0318 18.9911C50.0318 19.2447 49.3696 19.6934 49.3696 20.0651C49.3696 20.1629 49.4291 20.2799 49.5457 20.2799C49.8944 20.2799 50.3626 19.3622 51.026 19.3622C51.2795 19.3622 51.6501 19.4601 51.8459 19.4601C52.0024 19.4601 52.0607 19.3622 52.0607 19.3032ZM52.5676 28.7796C52.8799 27.8035 53.2703 27.1185 53.9087 26.0637C53.2703 25.7325 51.5728 25.0279 51.5728 23.8752C51.5728 22.5268 53.2488 21.4719 53.5963 21.4719C53.7528 21.4719 53.7915 21.6092 53.7915 21.8633C53.7915 22.5662 53.4601 23.6992 53.4601 24.3054C53.4601 24.8519 53.8111 25.3805 54.1229 25.3805C54.4543 25.3805 55.3705 24.2081 55.3705 23.0548C55.3705 20.9833 53.557 20.3586 52.996 20.3586C52.4694 20.3586 51.5139 21.2178 49.272 21.2178C45.084 21.2178 44.1284 17.0574 44.1284 15.2395C44.1284 15.1613 44.1469 15.1416 44.1665 15.1416C44.2641 15.1416 44.6746 15.6505 45.9996 15.6505C46.6821 15.6505 47.3062 15.4739 48.301 15.4739C50.6351 15.4739 51.6692 17.0968 53.1126 19.1665C53.9854 19.713 56.0726 20.5931 56.0726 23.0745C56.0726 25.263 53.7522 26.4742 53.1905 28.8189C54.083 28.7217 54.6101 27.1185 55.5264 27.1185C55.9947 27.1185 56.2089 27.4902 56.2089 28.0773C56.2089 28.9359 55.721 30.2264 54.7851 31.0271C54.8041 30.9489 54.8041 30.8505 54.8041 30.7336C54.8041 30.187 54.5905 29.406 53.9652 29.406C52.9948 29.406 52.683 30.4609 52.1374 31.3391C51.5716 29.347 50.8112 27.5487 49.4475 26.4545C48.0678 25.3411 45.6879 25.9461 45.6879 23.9146C45.6879 23.3669 46.0395 22.5859 46.0395 21.9606C46.0395 21.7458 46.0002 21.5501 45.8824 21.3938C47.7548 22.0978 47.0914 23.3472 48.2433 24.6371C48.9602 25.4587 50.9487 26.2397 52.0987 29.6196C52.1178 29.5224 52.1374 29.2688 52.1374 29.0928C52.1374 26.2009 48.32 23.3669 47.9886 22.1945C50.2061 22.4486 50.5958 22.9963 51.6489 25.927C51.8649 26.5332 52.5676 28.0379 52.5676 28.7796Z" fill="white"/>
<path d="M41.9098 8.10772C40.5443 8.10772 39.6477 7.42457 39.6477 7.07196C39.6477 6.89595 39.7643 6.77961 39.9213 6.77961C40.3497 6.77961 41.2856 7.44307 41.5968 7.44307C41.6759 7.44307 41.7336 7.40488 41.7336 7.28735C41.7336 6.93533 41.4022 6.34943 41.4022 6.05708C41.4022 5.97832 41.4611 5.92045 41.5778 5.92045C42.1037 5.92045 42.8837 6.13524 43.2943 6.13524C43.4305 6.13524 43.4692 6.05708 43.4692 5.97832C43.4692 5.54874 42.2013 4.70867 42.2013 4.45451C42.2013 4.22003 43.7768 3.86741 43.7768 3.4975C43.7768 3.1061 41.6349 3.37996 41.6349 3.00825C41.6349 2.73499 42.0448 2.26603 42.0448 2.05124C42.0448 1.9534 41.9663 1.91461 41.8306 1.91461C41.6551 1.91461 40.7192 2.28572 40.3289 2.28572C40.1343 2.28572 39.8999 2.24694 39.8999 1.97249C39.8999 1.52322 40.6603 1.03517 41.8503 1.03517C43.7762 1.03517 44.9275 2.36388 44.9275 4.59114C44.9287 7.40488 42.9629 8.10772 41.9098 8.10772ZM38.1114 4.39603C38.1114 4.18065 37.3498 3.77076 37.3498 3.53628C37.3498 3.4975 37.3879 3.47781 37.4468 3.47781C37.6622 3.47781 38.0329 3.55597 38.3262 3.55597C38.5797 3.55597 38.6183 2.46173 38.8099 2.46173C38.9462 2.46173 39.1794 3.4975 39.3954 3.4975C39.6482 3.4975 40.1159 3.20395 40.3111 3.20395C40.3497 3.20395 40.389 3.22304 40.389 3.26302C40.389 3.39965 39.9017 3.92648 39.9017 4.0828C39.9017 4.25881 40.9941 4.47419 40.9941 4.63051C40.9941 4.82621 39.8821 4.80652 39.8821 4.98253C39.8821 5.11797 40.292 5.66568 40.292 5.84169C40.292 5.88107 40.2718 5.90076 40.2331 5.90076C40.0766 5.90076 39.4727 5.6263 39.2972 5.6263C39.0824 5.6263 38.7355 6.42759 38.56 6.42759C38.5017 6.42759 38.4631 6.34943 38.4631 6.25158L38.4238 5.47058C38.4238 5.39242 38.3857 5.31367 38.2875 5.31367C38.0531 5.31367 37.6045 5.29398 37.4671 5.29398C37.3695 5.29398 37.3308 5.27488 37.3308 5.23551C37.3302 5.07919 38.1114 4.53266 38.1114 4.39603ZM37.5444 7.59879C37.8574 7.59879 37.9157 8.36189 37.9752 8.81056C38.0138 9.04564 38.0531 9.06473 38.1507 9.06473C38.3851 9.06473 38.7546 8.1662 39.0051 8.1662C39.3746 8.1662 40.37 9.20196 42.027 9.20196C44.3831 9.20196 46.6059 7.54032 46.6059 4.61082C46.6059 1.77739 44.6157 0.116345 41.8705 0.116345C40.5651 0.116345 39.6084 0.761311 39.1015 0.761311C38.7939 0.781 38.3262 0 38.0912 0C37.9942 0 37.8966 0.193908 37.8966 0.526832C37.8966 0.742219 37.8966 1.42537 37.6622 1.42537C37.1934 1.42537 35.3823 0.0781597 35.3823 0.565614C35.3823 1.01548 36.5889 2.38357 36.5889 2.73499C36.5889 3.08641 35.4013 3.41934 35.4013 3.65322C35.4013 4.0828 36.6674 4.16096 36.6674 4.70867C36.6674 5.25519 35.3418 5.68537 35.3418 6.09586C35.3418 6.42759 36.6674 6.19371 36.6674 6.6036C36.6674 7.01349 35.6934 8.38158 35.6934 8.77119C35.6934 8.86963 35.7125 8.86963 35.7898 8.86963C36.1605 8.86963 37.2713 7.59879 37.5444 7.59879Z" fill="white"/>
<path d="M28.7182 41.9097C28.7182 42.0857 28.6593 42.2814 28.5034 42.4759C28.2904 42.0857 27.6853 41.89 27.4122 41.8906C25.4053 41.8906 26.1651 44.8022 24.022 44.8022C23.126 44.8022 23.0474 44.6846 22.7172 44.6846C22.5804 44.6846 22.5024 44.7437 22.5024 44.8606C22.5024 45.3696 23.2236 46.6189 25.2304 46.6189C27.2373 46.6189 29.1668 45.3887 29.1668 43.8631C29.1668 43.6089 29.1085 43.3374 28.9913 43.0636C29.0692 42.946 29.265 42.8679 29.4399 42.8679C29.7511 42.8679 29.9266 43.2211 30.2187 43.2211C30.5311 43.2211 30.7649 42.9854 30.7649 42.6734C30.7649 42.418 30.6287 42.2432 30.3954 42.1244C30.5513 42.0081 30.6679 41.8124 30.6679 41.5976C30.6679 41.2641 30.4335 40.9532 30.0432 40.9532C29.8677 40.9532 29.7517 41.0129 29.6154 41.1466C29.5773 40.7969 29.3816 40.4646 29.0109 40.4646C28.7188 40.4646 28.5034 40.6788 28.5034 41.0123C28.5034 41.3226 28.7182 41.5779 28.7182 41.9097Z" fill="white"/>
<path d="M18.0408 38.2769C19.5996 38.6653 20.379 39.5059 20.5343 40.5029C20.6902 41.4599 20.8848 42.2427 21.2548 42.6323C21.7421 43.1806 22.6971 43.6663 23.5354 43.6663C24.2369 43.6663 24.8009 43.4342 24.8009 42.7887C24.8009 42.0846 23.8466 40.5023 22.4436 40.5023C22.3073 40.5023 22.1318 40.5226 21.9367 40.5226C21.7612 40.5226 21.5077 40.4838 21.3524 40.3466C21.0412 40.0722 20.9431 38.6068 20.3588 37.728C19.7162 36.7507 19.0147 36.4768 18.0604 36.4768C17.3791 36.4768 16.6182 36.8473 16.6182 37.395C16.6182 37.7292 16.7937 37.963 18.0408 38.2769ZM23.4771 42.6526C22.8916 42.6526 22.0152 42.0261 22.0152 41.6741C22.0152 41.3806 22.2883 41.2243 22.5013 41.2243C22.9892 41.2243 23.865 41.8316 23.865 42.3394C23.8656 42.476 23.768 42.6526 23.4771 42.6526Z" fill="white"/>
<path d="M21.6839 27.4316C21.6839 26.1811 24.6463 25.517 24.6463 23.9729C24.6463 23.7187 24.5488 23.2701 24.3732 22.9377C25.4049 23.504 26.1653 24.4622 26.1653 25.2432C26.1653 26.5916 24.763 27.2168 24.763 28.0575C24.763 29.0342 26.2629 29.1905 26.2629 30.4017C26.2629 31.3975 24.8403 32.5508 24.8403 33.8401C24.8403 34.8365 25.5424 35.6563 26.6127 35.7935C26.2623 35.8717 25.9511 35.9302 25.6197 35.9302C23.6509 35.9302 21.625 34.3091 21.625 32.3742C21.625 31.4172 22.0344 30.5783 22.6567 29.9721C23.2035 30.4411 23.7485 30.7531 24.0996 30.7531C24.4107 30.7531 24.5482 30.5974 24.5482 30.3629C24.5488 29.6392 21.6839 28.9757 21.6839 27.4316ZM27.8997 37.2988C27.2315 37.6055 26.965 37.553 26.965 38.2374C26.965 38.4909 26.9061 38.8215 26.9061 38.9981C26.9061 39.2325 26.9447 39.3698 27.2172 39.3698C27.9193 39.3698 29.0301 38.1783 29.0301 37.1616C29.0301 36.8872 28.8737 36.772 28.6981 36.772C28.5423 36.772 28.3679 37.0835 27.8997 37.2988ZM27.8217 35.8914C27.8217 35.0125 26.0094 34.9928 26.0094 33.6641C26.0094 33.3312 26.223 32.7656 26.6526 32.1588C26.8287 33.1749 27.2363 33.7029 28.1145 34.0358C29.8476 34.6796 30.0821 35.6563 30.0821 36.6933C30.0821 38.4521 28.8546 40.64 25.6983 40.64C23.1648 40.64 21.3525 38.3728 21.3525 36.4582C21.3525 35.9302 21.4888 35.3449 21.8202 35.3449C22.1129 35.3449 22.2099 35.5787 22.4437 35.8126C23.3213 36.6933 24.2757 36.9265 25.659 36.9265C26.9061 36.9271 27.8217 36.4194 27.8217 35.8914Z" fill="white"/>
<path d="M14.0235 36.3149C14.0711 36.723 13.7802 37.0911 13.3738 37.1389C12.9668 37.1866 12.598 36.8942 12.5515 36.4867C12.504 36.078 12.7949 35.7087 13.2019 35.661C13.6088 35.6133 13.9765 35.9062 14.0235 36.3149ZM10.3823 37.0834C10.465 37.7504 11.0855 38.2564 11.7858 38.1782C12.0387 38.1502 12.2731 38.0809 12.4296 37.9831C12.5855 38.6078 13.1084 39.0099 13.8153 38.9168C14.5328 38.8232 15.0207 38.2564 14.9434 37.5332C14.9231 37.3387 14.8845 37.22 14.8267 37.0834C14.8267 37.0834 14.9213 37.0732 14.9927 37.0601C15.6966 36.9265 16.1708 36.3602 16.1119 35.6765C16.0346 34.9731 15.4051 34.451 14.75 34.5321C14.4959 34.5632 14.2615 34.6604 14.105 34.797C13.9289 34.2117 13.3798 33.7028 12.6301 33.8269C11.9524 33.9397 11.5044 34.516 11.5722 35.2469C11.5835 35.3656 11.6109 35.5011 11.6698 35.6371C11.6698 35.6371 11.555 35.6544 11.4758 35.6658C10.907 35.7505 10.29 36.3244 10.3823 37.0834Z" fill="white"/>
</g>
<defs>
<clipPath id="clip0_1728_36755">
<rect width="64" height="71" fill="white"/>
</clipPath>
</defs>
</svg>
