<svg width="90" height="72" viewBox="0 0 90 72" fill="none" xmlns="http://www.w3.org/2000/svg">
<path d="M41.7881 40.6318C41.7877 41.3121 41.9889 41.9772 42.3661 42.5431C42.7433 43.1089 43.2796 43.55 43.9072 43.8105C44.5348 44.0711 45.2255 44.1395 45.8919 44.007C46.5583 43.8744 47.1705 43.547 47.6511 43.0661C48.1316 42.5852 48.4589 41.9724 48.5916 41.3052C48.7242 40.638 48.6563 39.9464 48.3964 39.3178C48.1365 38.6893 47.6962 38.1521 47.1314 37.7741C46.5665 37.3961 45.9023 37.1943 45.2229 37.1943C44.3122 37.1943 43.4388 37.5564 42.7947 38.2011C42.1506 38.8457 41.7885 39.72 41.7881 40.6318Z" fill="white"/>
<path d="M44.5687 29.9383L15.0259 8.44995L19.9491 18.7295L42.8079 35.3525L44.5687 29.9383Z" fill="white"/>
<path d="M42.3489 36.7165L21.2075 21.3354L26.1464 31.6237L33.1548 36.7217L42.3489 36.7165Z" fill="white"/>
<path d="M37.1451 39.6274L31.3735 43.8171L38.3993 48.9343L40.5955 42.153L37.1451 39.6274Z" fill="white"/>
<path d="M50.9762 49.6868L45.2099 53.8834L39.4453 49.6833L45.2168 45.4919L50.9658 49.6868H50.9762Z" fill="white"/>
<path d="M45.8506 29.9313L47.6062 35.3542L70.4598 18.7399L75.3934 8.44995L45.8506 29.9313Z" fill="white"/>
<path d="M57.2597 36.72L64.2733 31.6323L69.2138 21.3354L48.062 36.7217L57.2597 36.72Z" fill="white"/>
<path d="M49.791 42.1693L52.0254 48.9314L59.039 43.8195L53.29 39.6333L49.791 42.1693Z" fill="white"/>
<path d="M71.2098 0.00292969L63.9863 15.0453L74.6932 7.25835L71.2098 0.00292969Z" fill="white"/>
<path d="M15.73 7.26063L26.4299 15.0476L19.2099 0L15.73 7.26063Z" fill="white"/>
<path d="M43.5238 68.7743C43.4225 68.6212 43.3063 68.4787 43.1768 68.3487C43.0572 68.2128 42.9215 68.0921 42.7726 67.9892L42.7501 67.9788C42.8233 67.9539 42.8951 67.9249 42.9652 67.8919C43.2809 67.7338 43.5527 67.4999 43.7562 67.211C43.9646 66.8844 44.0675 66.5015 44.0511 66.1143C44.0346 65.7272 43.8996 65.3544 43.6643 65.0467C43.4047 64.733 43.0534 64.5089 42.6598 64.4058C42.1155 64.282 41.5576 64.2283 40.9997 64.246H37.0098V70.9004H39.7212V68.3852C39.8698 68.3846 40.0159 68.4236 40.1445 68.4981C40.2826 68.6093 40.3966 68.7476 40.4793 68.9046L41.7491 70.9021H44.8127L43.5238 68.7726V68.7743ZM41.5548 66.3738C41.5528 66.4386 41.5381 66.5023 41.5114 66.5614C41.4865 66.6151 41.4538 66.6648 41.4143 66.709C41.32 66.8154 41.1919 66.8859 41.0517 66.9088C40.8558 66.9517 40.6569 66.9802 40.4567 66.9939H39.5095V65.7276H40.4949C40.9043 65.7276 41.1888 65.7815 41.3345 65.8892C41.3679 65.9137 41.3987 65.9416 41.4264 65.9725L41.4351 65.983C41.4871 66.0465 41.5234 66.1215 41.5409 66.2018C41.5418 66.2087 41.5418 66.2157 41.5409 66.2227C41.5501 66.2666 41.5548 66.3115 41.5548 66.3564C41.5565 66.3621 41.5576 66.3679 41.5583 66.3738H41.5548Z" fill="white"/>
<path d="M19.4185 69.0728V70.8983H21.6528V69.0728H21.5661H19.4185Z" fill="white"/>
<path d="M8.45947 69.0767V70.9005H10.6921V69.0767H10.6054H8.45947Z" fill="white"/>
<path d="M7.65546 64.2581H5.05333V68.2531C5.06045 68.3725 5.03898 68.4919 4.9907 68.6012C4.94241 68.7106 4.86873 68.8069 4.77577 68.8819C4.53199 69.0533 4.23676 69.1355 3.93962 69.1147C3.63861 69.1341 3.33998 69.0502 3.09306 68.8767C3.00158 68.8018 2.92918 68.7062 2.88183 68.5978C2.83447 68.4894 2.81353 68.3713 2.82071 68.2531V64.2581H0V68.1767C0.010891 68.563 0.0907949 68.9442 0.235926 69.3023C0.360097 69.6094 0.553674 69.8835 0.801455 70.103C1.06101 70.3461 1.36179 70.5408 1.68965 70.678C2.0684 70.8229 2.46652 70.9107 2.87101 70.9385C3.32552 70.982 3.73839 71.0028 4.12871 71.0028C4.7142 71.013 5.2982 70.9405 5.86346 70.7874C6.24312 70.6731 6.59673 70.4855 6.90431 70.2351C7.22272 69.9876 7.47535 69.6655 7.63984 69.2971C7.79505 68.9417 7.87423 68.5577 7.8723 68.1698V64.2581H7.65546Z" fill="white"/>
<path d="M17.3469 66.7789C16.9744 66.6378 16.5916 66.5257 16.2019 66.4436L18.5837 66.3273L18.5473 66.0893C18.5094 65.7593 18.3939 65.4431 18.2103 65.1665C18.0266 64.8899 17.78 64.6609 17.4908 64.4982C16.9288 64.1803 16.1134 64.0188 15.0622 64.0188C14.3782 63.9963 13.6952 64.0849 13.0395 64.2811C12.5905 64.4192 12.1886 64.6796 11.8789 65.0332C11.7217 65.2115 11.6057 65.4223 11.5391 65.6505C11.4725 65.8788 11.457 66.119 11.4936 66.354C11.5302 66.5889 11.618 66.813 11.7509 67.0101C11.8838 67.2072 12.0584 67.3726 12.2623 67.4945C12.748 67.8419 13.5287 68.1007 14.6441 68.304C15.4594 68.4481 15.7231 68.5732 15.8064 68.634C15.9799 68.766 15.9799 68.8667 15.9799 68.8997C15.9799 68.9327 15.9799 69.0457 15.7891 69.1794C15.5789 69.3009 15.3372 69.3566 15.0952 69.3392C14.926 69.3523 14.7561 69.3303 14.5958 69.2748C14.4355 69.2192 14.2884 69.1311 14.1636 69.0161C14.0226 68.8524 13.9354 68.6493 13.9138 68.4342L13.8808 68.2432L11.1382 68.3856L11.1625 68.6131C11.1962 68.9516 11.2991 69.2796 11.4647 69.5766C11.6304 69.8736 11.8552 70.1333 12.1253 70.3397C12.6891 70.7913 13.6501 71.0102 15.0639 71.0102C15.7356 71.0273 16.4056 70.9334 17.0467 70.7323C17.5417 70.5738 17.9831 70.2809 18.3218 69.8864C18.6241 69.5344 18.7914 69.0861 18.7936 68.6218C18.7953 68.2352 18.669 67.859 18.4345 67.5518C18.1463 67.2027 17.7711 66.9361 17.3469 66.7789ZM15.0015 66.2039C14.4568 66.1136 14.3076 66.0302 14.2607 66.0076C14.1844 65.9555 14.1688 65.9191 14.1688 65.9121C14.1688 65.8843 14.1688 65.8166 14.292 65.7384C14.4524 65.6557 14.6322 65.6179 14.8124 65.629C15.0572 65.6138 15.3012 65.6699 15.515 65.7905C15.5955 65.8484 15.6635 65.9219 15.7151 66.0066C15.7666 66.0914 15.8006 66.1857 15.8151 66.2838L15.8324 66.3672C15.5844 66.3099 15.3085 66.2578 15.0015 66.2039Z" fill="white"/>
<path d="M32.8965 64.2478V70.9022H35.4657V64.2478H35.2488H32.8965Z" fill="white"/>
<path d="M47.8604 64.2581V70.9021H50.7019V68.3608H53.7065V66.6673H50.6932V66.0385H54.2269V64.2581H47.8604Z" fill="white"/>
<path d="M79.1696 68.0844C79.0988 68.3847 78.9399 68.6569 78.7134 68.8661C78.4435 69.0562 78.116 69.1465 77.787 69.1214C77.4308 69.1453 77.0793 69.0295 76.8069 68.7983C76.5848 68.5899 76.4721 68.1661 76.4721 67.5442C76.4721 67.0457 76.5675 66.6757 76.7566 66.4656C77.0133 66.1616 77.3794 66.0157 77.8772 66.0157C78.0781 66.0126 78.2777 66.048 78.4653 66.1199C78.6276 66.1824 78.774 66.2803 78.8938 66.4065C78.9801 66.5091 79.0466 66.6269 79.0898 66.7539L79.1557 66.9154L81.7683 66.4673L81.659 66.2154C81.3924 65.5522 80.9069 65.0004 80.2833 64.6521C79.6796 64.3186 78.847 64.1501 77.8113 64.1501C76.4842 64.1501 75.4382 64.4437 74.7009 65.0186C73.9636 65.5936 73.5664 66.4656 73.5664 67.5564C73.5377 68.2901 73.7659 69.0108 74.2117 69.5939C74.6044 70.0956 75.1288 70.4781 75.7261 70.6986C76.4354 70.9229 77.1771 71.0268 77.9206 71.0061C78.5403 71.0265 79.1592 70.9449 79.7525 70.7646C80.2206 70.6073 80.6458 70.3433 80.9946 69.9934C81.3398 69.6337 81.5927 69.1957 81.7319 68.7167L81.8012 68.4944L79.2251 67.8934L79.1696 68.0844Z" fill="white"/>
<path d="M85.8591 69.0556V68.274H89.5871V66.5804H85.8574V66.0159H89.8889V64.2581H83.0176V70.9021H90V69.0556H85.8591Z" fill="white"/>
<path d="M29.5056 64.2478H26.6536L23.5918 70.9022H26.4923L26.8601 69.8826H29.2367L29.6166 70.9022H32.5657L29.5056 64.2478ZM27.2174 68.321L28.0588 66.0751L28.9019 68.3141L27.2174 68.321Z" fill="white"/>
<path d="M71.8006 68.7778C71.7003 68.6246 71.584 68.4825 71.4537 68.354C71.3339 68.2165 71.1969 68.095 71.046 67.9927L71.0252 67.9823C71.0977 67.9575 71.1689 67.9291 71.2386 67.8972C71.554 67.7378 71.8257 67.5034 72.0296 67.2145C72.2389 66.8884 72.3426 66.5054 72.3265 66.1181C72.3103 65.7307 72.1751 65.3578 71.9394 65.0502C71.6802 64.7366 71.3286 64.5129 70.935 64.411C70.3914 64.2857 69.834 64.2314 69.2766 64.2495H65.2866V70.9039H67.9963V68.3887C68.1449 68.3879 68.2911 68.4268 68.4196 68.5016C68.5591 68.6121 68.6733 68.7513 68.7544 68.9098L70.026 70.9056H73.0878L71.8006 68.7743V68.7778ZM69.6912 66.7091C69.5968 66.8154 69.4688 66.886 69.3286 66.9088C69.1328 66.9527 68.9338 66.9811 68.7336 66.9939H67.7864V65.7277H68.7735C69.1829 65.7277 69.4622 65.7815 69.6114 65.8892C69.6568 65.9205 69.6967 65.9593 69.7293 66.0038C69.7827 66.077 69.8167 66.1624 69.8282 66.2522C69.83 66.2864 69.83 66.3206 69.8282 66.3547C69.8301 66.4852 69.7831 66.6116 69.6964 66.7091H69.6912Z" fill="white"/>
<path d="M62.5614 65.0328C61.8276 64.4491 60.7763 64.1521 59.4389 64.1521C58.1343 64.1521 57.0952 64.4543 56.3527 65.0484C55.6103 65.6424 55.213 66.5092 55.213 67.5879C55.1881 68.2811 55.3897 68.9635 55.7872 69.5316C56.1658 70.0456 56.6844 70.4394 57.2808 70.6658C58.0053 70.9174 58.7695 71.0352 59.536 71.0132C60.305 71.0364 61.0703 70.898 61.7825 70.6068C62.3572 70.3656 62.8492 69.9617 63.1981 69.4447C63.5467 68.8703 63.7187 68.2057 63.6925 67.534C63.6925 66.4658 63.3126 65.6251 62.5614 65.0328ZM60.6532 68.9601C60.3135 69.2242 59.8958 69.3675 59.4657 69.3675C59.0357 69.3675 58.6179 69.2242 58.2783 68.9601C58.2421 68.925 58.2085 68.8872 58.1777 68.8472C58.1675 68.8346 58.1582 68.8212 58.1499 68.8072C58.1256 68.7742 58.1031 68.7412 58.0823 68.7065L58.0615 68.6648C58.0377 68.6202 58.0162 68.5744 57.9973 68.5276C57.9934 68.5151 57.9888 68.503 57.9834 68.4911C57.9618 68.4307 57.9433 68.3693 57.9279 68.307C57.9269 68.303 57.9269 68.2988 57.9279 68.2948C57.9175 68.2531 57.9088 68.2097 57.9001 68.1663C57.9001 68.1524 57.9001 68.1385 57.9001 68.1246C57.9001 68.0847 57.888 68.0447 57.8828 68.0013C57.8776 67.9579 57.8828 67.9457 57.8741 67.9179C57.8654 67.8901 57.8741 67.8554 57.8741 67.8224C57.8741 67.7564 57.8741 67.6886 57.8741 67.6174C57.8741 67.6174 57.8741 67.6035 57.8741 67.5948C57.8741 66.9712 58.0216 66.5214 58.3095 66.2504C58.6282 65.9674 59.0446 65.8203 59.4701 65.8405C59.9053 65.8171 60.3328 65.9626 60.6636 66.2469C60.7057 66.2848 60.7441 66.3266 60.7781 66.372L60.818 66.4258C60.8371 66.4536 60.8561 66.4814 60.8735 66.5109C60.8891 66.5355 60.903 66.561 60.9151 66.5874C60.9325 66.6219 60.9481 66.6572 60.962 66.6933C60.9724 66.7194 60.9845 66.7437 60.9932 66.7697C61.0146 66.8311 61.032 66.8937 61.0452 66.9573C61.0452 66.9851 61.0556 67.0147 61.0626 67.0442C61.0695 67.0737 61.0782 67.1432 61.0834 67.1953C61.0886 67.2474 61.0834 67.2509 61.0921 67.2787C61.0921 67.3603 61.1042 67.4437 61.1042 67.5323C61.0811 68.2132 60.929 68.688 60.648 68.9566L60.6532 68.9601Z" fill="white"/>
</svg>
