<svg width="95" height="27" viewBox="0 0 95 27" fill="none" xmlns="http://www.w3.org/2000/svg">
<g>
<path d="M0 0.280783H26.4047V26.8276H0V0.280783ZM5.43433 4.41321V23.4596L21.9904 13.7245L5.43433 4.41321ZM35.2918 26.5458H30.7353V14.7145H35.3194C38.716 14.7145 40.7534 17.4029 40.7534 20.8272C40.7534 24.2525 38.9429 26.5458 35.2918 26.5458ZM39.3382 12.0273L38.4342 9.39491H34.0747L33.2817 12.0273H30.9048L34.8952 0.168633H37.3007L41.7724 12.0273H39.3382ZM35.0936 16.7245H33.2254V24.7052H35.2357C37.8955 24.7052 38.2921 22.4407 38.2634 20.7148C38.2634 19.3558 37.6123 16.7245 35.0936 16.7245ZM37.6124 7.01694L36.1123 2.65869L34.7831 6.9896L34.697 7.72406H37.641C37.641 7.3288 37.6697 7.24383 37.6124 7.01694ZM41.6038 26.5458V14.7145H50.3202V16.696H43.9795V19.2148H49.5833V21.3659H44.0082V24.5357H50.5184V26.5458H41.6038ZM49.8102 12.0273L44.603 4.01666V12.0273H42.2261V0.168633H44.6604L49.6681 8.06434V0.168633H52.046V12.0273H49.8102ZM57.2532 26.5171H54.989L51.0847 15.3379V14.7145H53.4603L56.1211 23.3746L58.7249 14.7432H61.0453V15.3655L57.2532 26.5171ZM61.0182 12.0273L60.1114 9.39491H55.7534L54.9616 12.0273H52.5836L56.5741 0.168633H58.9803L63.4509 12.0273H61.0182ZM59.3187 7.07298L57.8193 2.60265L56.3182 7.07298V7.72406H59.3758C59.3758 7.3288 59.3758 7.2714 59.3187 7.07298ZM61.7814 14.7432H64.3001V26.5171H61.7814V14.7432ZM63.96 12.0273V0.168633H66.3103V10.0172H71.6012V12.0273H63.96ZM70.5549 26.8276C64.0747 26.9697 62.9408 14.4602 70.5826 14.545C74.8283 14.545 75.5639 18.0826 75.7334 18.62H73.3843C73.0165 17.8856 72.0538 16.4703 70.8668 16.3842C66.6781 16.1024 66.6781 24.9597 70.8668 24.9597C72.8758 24.9597 73.3572 22.9507 73.469 22.7249H75.7622C75.7622 22.7525 75.4781 26.7715 70.5549 26.8276ZM77.0639 12.2244C69.4504 12.2244 69.7346 -0.0584278 77.1487 -0.00108337C84.3091 0.0549622 84.5074 12.2244 77.0639 12.2244ZM76.9792 10.2441C81.3651 10.2715 81.3651 2.06395 77.0639 2.0079C72.7911 1.9792 72.6487 10.2154 76.9792 10.2441ZM76.1865 26.5458V14.7145H84.591V16.8669H78.4509V19.2995H83.8837V21.422H78.4781V24.5357H84.8752V26.5458H76.1865ZM92.1487 11.743V10.612C91.8944 10.8376 90.7611 12.2816 88.6385 12.2244C81.395 12.0547 81.3651 0.168636 88.9792 0.0265446C90.817 0.0265446 92.3458 1.18734 92.9408 2.0079C93.6487 2.94186 93.7052 3.73479 93.7334 3.93321H91.7238C91.2707 3.19609 90.5628 1.95163 88.8944 1.95163C84.4786 1.89558 84.1967 10.2441 88.8656 10.3278C90.9317 10.3838 91.9781 8.23406 91.9781 8.20649V7.58304H89.1487V5.74378H94.0153V11.743H92.1487ZM89.9402 26.8563C84.9312 26.8563 84.9877 23.0069 84.9877 23.0069H87.2521C87.2521 23.0069 87.0814 24.8749 89.6023 25.0446C90.2249 25.0731 92.2622 24.8189 92.2622 23.4033C92.2622 21.7625 90.195 21.8459 88.8944 21.4793C87.591 21.1388 85.1295 20.5727 85.1295 18.2808C85.1295 16.2719 86.7707 14.545 89.9402 14.545C94.1865 14.5737 94.1577 17.8569 94.1865 18.0551H92.008C91.8645 17.5726 91.7238 16.4129 89.8283 16.3568C88.8944 16.3568 87.4786 16.6685 87.4786 17.7708C87.4786 19.1587 89.0628 19.3558 90.7334 19.61C93.2526 20.0927 94.6961 20.8572 94.6103 23.1764C94.5543 25.2141 92.7425 26.8563 89.9402 26.8563Z" fill="white"/>
</g>
</svg>
