<svg width="276" height="40" viewBox="0 0 276 40" fill="none" xmlns="http://www.w3.org/2000/svg">
<path d="M35.1127 38.4135V0H43.851V38.4135H35.1127ZM204.975 24.0618C204.975 14.7785 197.782 9.0165 189.364 9.0165C180.892 9.0165 173.752 14.8319 173.752 24.0618C173.752 33.345 180.945 39.1604 189.364 39.1604C197.782 39.1604 204.975 33.2917 204.975 24.0618ZM196.344 24.0618C196.344 28.9168 193.093 31.6378 189.31 31.6378C185.527 31.6378 182.277 28.9168 182.277 24.0618C182.277 19.1534 185.527 16.5391 189.31 16.5391C193.093 16.5391 196.344 19.1534 196.344 24.0618ZM31.5961 27.3696C31.5961 23.0481 29.3583 19.7403 25.3622 18.2464C29.1452 16.1657 30.4772 13.4447 30.4772 10.2436C30.4772 4.64163 26.4278 0 17.3699 0.0533521H0V38.4668H18.1158C27.227 38.4135 31.5961 33.8786 31.5961 27.3696ZM21.2062 11.364C21.2062 13.9782 19.5544 15.4721 16.3575 15.4721H9.1112V7.46929H16.3575C19.288 7.46929 21.2062 8.74974 21.2062 11.364ZM22.0054 26.7827C22.0054 29.2903 20.2471 30.9442 16.9969 30.9442H9.1112V22.6213H16.9969C20.1405 22.6213 22.0054 24.2218 22.0054 26.7827ZM107.683 16.8592C105.285 11.8442 100.809 9.06985 94.0425 9.06985C86.0502 9.06985 78.9104 14.0849 78.9104 24.0618C78.9104 33.7718 85.1977 39.1604 93.9359 39.1604C100.063 39.1604 105.232 36.7062 107.683 31.4244L100.649 27.7964C99.3707 30.1439 97.3992 31.6378 94.2556 31.6378C90.2062 31.6378 87.5954 28.7568 87.5954 24.0618C87.5954 19.3668 90.5791 16.5391 94.2023 16.5391C97.0263 16.5391 99.1575 17.8196 100.49 20.5939L107.683 16.8592ZM236.465 16.8592C234.067 11.8442 229.592 9.06985 222.825 9.06985C214.832 9.06985 207.693 14.0849 207.693 24.0618C207.693 33.7718 213.98 39.1604 222.718 39.1604C228.846 39.1604 234.014 36.7062 236.465 31.4244L229.432 27.7964C228.153 30.1439 226.181 31.6378 223.038 31.6378C218.988 31.6378 216.378 28.7568 216.378 24.0618C216.378 19.3668 219.361 16.5391 222.985 16.5391C225.808 16.5391 227.94 17.8196 229.272 20.5939L236.465 16.8592ZM163.202 38.4135L155.903 25.5023H150.308V38.4135H141.303V0H157.554C166.346 0 172.473 4.21481 172.473 12.4844C172.473 17.7662 169.863 21.5009 165.227 23.795L173.646 38.4135H163.202ZM150.361 17.8729H157.075C161.231 17.8729 163.256 15.5254 163.256 12.7511C163.256 9.44331 161.337 7.62934 157.075 7.62934H150.361V17.8729ZM77.4718 37.9333V31.9045C77.0988 32.0112 76.566 32.1179 75.9799 32.1179C74.861 32.1179 74.2749 31.5311 74.2749 30.5174V20.5405C74.2749 13.0713 69.2664 9.1232 61.0077 9.1232C55.6263 9.1232 51.044 11.0972 48.1668 13.6581L53.0154 19.1C54.9336 17.3928 57.4911 16.3257 59.9954 16.3257C63.8317 16.3257 65.6432 18.2464 65.6432 21.3942V22.3012C63.8317 21.8743 61.5405 21.4475 58.7699 21.4475C51.79 21.4475 47.261 24.8087 47.261 30.3573C47.261 36.066 51.044 39.0537 56.905 39.0537C60.9012 39.0537 64.471 37.3998 66.3359 35.2657C67.4548 38.0934 69.9058 38.8403 72.3035 38.8403C73.9552 38.8936 75.8734 38.6269 77.4718 37.9333ZM65.6965 28.9168C65.6965 31.5311 63.1923 33.2383 60.3151 33.2383C57.5977 33.2383 56.2656 31.8512 56.2656 29.9305C56.2656 27.9031 57.7575 26.4093 60.7946 26.4093C62.6595 26.4093 64.3112 26.7294 65.6965 27.0495V28.9168ZM267.688 38.4135L257.405 20.5405L267.049 10.0302H257.351L247.174 21.3408V0.0533521H238.49V38.4668H247.174V31.5311L251.33 27.1028L257.831 38.4668H267.688V38.4135ZM139.012 38.4135L128.729 20.5405L138.373 10.0302H128.569L118.499 21.3408V0.0533521H109.814V38.4668H118.499V31.5311L122.655 27.1028L129.155 38.4668H139.012V38.4135ZM273.016 33.0783C274.828 33.0783 275.893 34.1987 275.893 35.9059C275.893 37.6132 274.828 38.7336 273.016 38.7336C271.205 38.7336 270.139 37.6132 270.139 35.9059C270.139 34.1987 271.205 33.0783 273.016 33.0783ZM273.016 38.3601C274.455 38.3601 275.414 37.5065 275.414 35.9059C275.414 34.3054 274.402 33.4517 273.016 33.4517C271.578 33.4517 270.619 34.3054 270.619 35.9059C270.565 37.5598 271.578 38.3601 273.016 38.3601ZM271.897 34.4654H273.069C273.762 34.4654 274.135 34.8389 274.135 35.3724C274.135 35.8526 273.922 36.1193 273.549 36.2794L274.082 37.2931H273.549L273.069 36.3861H272.43V37.2931H271.897V34.4654ZM272.43 34.8922V35.9059H273.016C273.389 35.9059 273.602 35.7992 273.602 35.4258C273.602 35.1056 273.442 34.9456 273.069 34.9456H272.43V34.8922Z" fill="white"/>
</svg>
