<svg width="191" height="80" viewBox="0 0 191 80" fill="none" xmlns="http://www.w3.org/2000/svg">
<path d="M163.636 34.943C160.457 35.6766 152.061 36.0842 152.061 36.0842L151.029 39.3992C151.029 39.3992 155.186 39.0459 158.229 39.3448C158.229 39.3448 159.207 39.2633 159.316 40.4317C159.37 41.6272 159.235 42.8772 159.235 42.8772C159.235 42.8772 159.153 43.6108 158.148 43.801C156.979 43.9912 149.099 44.3444 149.099 44.3444L147.822 48.6376C147.822 48.6376 147.36 49.6158 148.42 49.344C149.398 49.0723 157.659 47.4964 158.745 47.7137C159.887 47.9855 161.191 49.5614 160.811 50.9744C160.376 52.6862 152.116 57.9575 147.116 57.6043C147.116 57.6043 144.48 57.7673 142.279 54.2078C140.16 50.8113 143.013 44.4259 143.013 44.4259C143.013 44.4259 141.736 41.437 142.687 40.3502C142.687 40.3502 143.23 39.8882 144.861 39.7524L146.899 35.5679C146.899 35.5679 144.589 35.7038 143.23 34.0191C141.98 32.3888 141.872 31.6824 142.85 31.2476C143.882 30.7042 153.447 28.9923 160.023 29.2097C160.023 29.2097 162.332 28.938 164.37 32.9323C164.37 32.9323 165.294 34.5626 163.664 34.943M138.856 51.0287C138.041 53.0122 135.785 55.1045 133.068 53.8274C130.297 52.5232 125.922 43.6108 125.922 43.6108C125.922 43.6108 124.292 40.2958 123.966 40.4045C123.966 40.4045 123.612 39.7524 123.422 43.3934C123.15 47.0073 123.476 54.0448 121.982 55.1588C120.623 56.2457 118.993 55.7838 118.069 54.5067C117.308 53.2296 116.982 50.1592 117.417 44.8063C117.906 39.4535 119.129 33.7474 120.678 31.9812C122.308 30.1879 123.612 31.4922 124.101 31.9812C124.101 31.9812 126.194 33.8833 129.726 39.5078L130.324 40.5404C130.324 40.5404 133.53 45.8932 133.856 45.8661C133.856 45.8661 134.128 46.1378 134.345 45.9204C134.671 45.8389 134.563 44.0999 134.563 44.0999C134.563 44.0999 133.965 38.3123 130.976 28.5304C130.976 28.5304 130.541 27.2805 130.84 26.085C131.112 24.9981 132.28 25.5415 132.28 25.5415C132.28 25.5415 136.791 27.7153 138.992 35.0517C141.165 42.3881 139.698 49.0452 138.883 51.0287M116.738 32.1986C116.303 32.9594 116.113 34.0191 114.238 34.318C114.238 34.318 96.0329 35.5951 95.1362 36.8722C95.1362 36.8722 94.5384 37.633 95.5166 37.8232C96.5491 38.0406 100.679 38.584 102.636 38.6927C104.755 38.6927 111.874 38.747 114.483 41.9533C114.483 41.9533 115.977 43.4749 115.923 46.9258C115.868 50.4581 115.243 51.708 113.858 52.9851C112.417 54.1806 100.081 59.7237 92.1201 51.2461C92.1201 51.2461 88.4791 47.1703 93.3972 44.0727C93.3972 44.0727 96.9296 41.899 105.978 44.4259C105.978 44.4259 108.695 45.4041 108.586 46.4095C108.423 47.4964 106.331 48.5832 103.288 48.5289C100.353 48.4474 98.1795 47.0344 98.6142 47.279C99.0218 47.4148 95.4351 45.54 94.3211 46.8171C93.2342 48.0126 93.5059 48.7191 94.5928 49.4527C97.31 51.0287 107.988 50.4581 111.168 46.8986C111.168 46.8986 112.445 45.4585 110.515 44.2901C108.613 43.2032 103.07 42.5239 100.924 42.4424C98.8859 42.3337 91.2506 42.4424 90.1094 40.4589C90.1094 40.4589 89.0226 39.0459 90.2181 35.1875C91.468 31.1117 100.353 29.5358 104.212 29.2097C104.212 29.2097 114.809 28.775 116.792 30.9487C116.792 30.9487 117.064 31.4378 116.738 32.1714M86.6858 56.0827C85.4087 57.0337 82.6915 56.6261 81.9035 55.5392C81.1427 54.5882 80.871 50.8385 81.0069 44.9422C81.1971 38.9101 81.2786 31.5193 82.6372 30.3238C83.9958 29.1554 84.8109 30.1879 85.3544 30.9759C85.8978 31.791 86.6043 32.6877 86.713 34.5626C86.876 36.4646 87.3379 46.2465 87.3379 46.2465C87.3379 46.2465 87.9357 55.1588 86.713 56.0827M89.403 24.2916C85.6532 25.5687 83.0991 25.1611 80.9253 24.2101C79.9743 25.9219 79.4037 26.4382 78.6973 26.5469C77.6104 26.6556 76.6594 24.9166 76.5235 24.3731C76.3061 23.9656 75.7899 23.2319 76.4148 21.5744C74.2954 19.6724 74.1324 17.1183 74.5128 15.4064C75.0019 13.3957 78.5886 5.84195 89.4573 4.94528C89.4573 4.94528 94.783 4.56487 95.7068 7.39074H95.8699C95.8699 7.39074 101.033 7.39074 100.924 12.01C100.924 16.6292 95.2177 22.3896 89.403 24.3731M94.2395 11.1405C90.8159 11.6839 85.5446 16.2488 83.0176 20.0256C86.9032 20.7321 93.6961 20.4604 96.7393 14.3196C96.7393 14.3196 98.1795 10.4612 94.2395 11.1405ZM79.2135 14.1294C78.1266 15.8955 78.0723 16.9552 78.5886 17.6617C79.8657 15.7597 82.1209 12.7708 85.5174 10.434C82.9089 10.7057 80.708 11.7926 79.2135 14.1294ZM171.788 55.8925C169.288 62.0333 167.169 68.2556 165.946 77.5756C165.946 77.5756 165.674 79.3961 164.18 78.7983C162.685 78.2549 160.24 75.8094 159.696 72.3586C159.153 67.8481 161.164 60.2399 165.267 51.4906C164.071 49.5886 163.229 46.7627 163.908 42.7956C163.908 42.7956 164.995 35.4592 172.331 28.8293C172.331 28.8293 173.201 28.0957 173.69 28.3402C174.288 28.6119 174.043 30.9487 173.554 32.1443C173.119 33.2855 169.859 38.9372 169.859 38.9372C169.859 38.9372 167.821 42.7956 168.391 45.8117C172.25 39.8883 181.026 27.8783 186.461 31.6824C189.912 34.1278 189.912 42.0076 187.33 46.5725C185.292 50.1864 179.532 57.6586 171.842 55.9196M183.146 37.4428C181.135 39.6165 177.548 43.7467 174.722 49.344C177.711 49.018 180.619 47.3605 181.515 46.5182C182.956 45.2411 186.271 41.7903 185.754 37.2254C185.754 37.2254 185.428 34.8343 183.146 37.4428ZM61.416 59.0987C51.7971 62.0333 42.7218 60.6747 37.7765 59.3704C37.6406 61.3812 37.4233 62.2235 37.0972 62.5496C36.7168 62.9843 33.5649 64.7776 31.8259 62.2235C31.065 61.0008 30.6846 58.7998 30.4673 56.7891C19.3268 51.7352 14.1642 44.2901 14.0011 44.0184C13.7294 43.7466 11.2024 41.111 13.7294 37.8504C16.0934 34.9158 23.9189 31.9541 30.9292 30.7857C31.2009 24.8079 31.853 20.1887 32.6954 18.1508C33.7007 15.7053 34.9778 17.8791 36.119 19.5094C37.0428 20.7321 37.6135 25.9763 37.6678 30.1607C42.2327 29.9434 45.0042 30.2694 50.0853 31.2476C56.7696 32.3888 61.2258 35.8125 60.8725 39.6709C60.5465 43.4749 57.0685 45.0509 55.7099 45.1596C54.3513 45.2683 52.1776 44.2629 52.1776 44.2629C50.6559 43.5564 52.0417 42.9043 53.8079 42.1435C55.7642 41.1925 55.3295 40.2415 55.3295 40.2415C54.623 38.0677 45.9552 36.6276 37.3417 36.6276C37.3417 41.3827 37.5319 49.2625 37.6678 53.8546C43.7 54.9958 48.2105 54.7512 48.2105 54.7512C48.2105 54.7512 70.2197 54.1263 70.8446 40.0785C71.5239 26.0034 48.8354 12.5262 32.1247 8.28741C15.4412 3.91275 5.98545 7.01034 5.1703 7.41791C4.27363 7.85266 5.08878 8.01569 5.08878 8.01569C5.08878 8.01569 5.98545 8.15155 7.61576 8.69499C9.24607 9.23843 7.94182 10.0536 7.94182 10.0536C5.08878 11.0318 1.90968 10.4612 1.28473 9.15691C0.659774 7.87984 1.6923 6.71145 2.91504 4.99962C4.05625 3.23345 5.3605 3.2878 5.3605 3.2878C26.0111 -3.91274 51.2265 8.99388 51.2265 8.99388C74.8117 20.8951 78.8331 34.8886 78.3984 40.323C78.018 45.6758 75.9529 54.7241 61.416 59.1259M16.039 39.6709C13.7023 40.7577 15.3326 42.4967 15.3326 42.4967C19.7344 47.1975 25.1144 50.1592 30.2771 52.0069C30.8748 43.8553 30.8205 40.948 30.8205 36.845C22.832 37.3884 18.2128 38.6927 16.039 39.6709Z" fill="white"/>
</svg>
