<svg width="92" height="40" viewBox="0 0 92 40" fill="none" xmlns="http://www.w3.org/2000/svg">
<path d="M14.3938 0C6.45538 0 0 6.45539 0 14.3938C0 22.3323 6.45538 28.7877 14.3938 28.7877C15.2 28.7877 16.0062 28.7015 16.8154 28.5754V6.62462H13.5046C12.4 9.59692 9.55692 9.55385 9.55692 9.55385V12.5692H12.1046V24.2031C7.64308 23.1846 4.33231 19.1938 4.33231 14.3938C4.33231 8.83077 8.83385 4.32923 14.3969 4.32923C19.96 4.32923 24.4615 8.83077 24.4615 14.3938C24.4615 18.5969 21.9138 22.1662 18.2615 23.6923V28.2369C24.3354 26.5385 28.7938 20.9754 28.7938 14.3508C28.7908 6.45538 22.3354 0 14.3938 0ZM38.9815 37.2C39.0677 36.6492 38.9385 36.1385 38.6431 35.7569C38.3446 35.3754 37.88 35.2062 37.3692 35.2062C36.4769 35.2062 35.6708 35.8431 35.5446 36.7354C35.4585 37.2862 35.5877 37.7969 35.8831 38.1785C36.1815 38.5169 36.6462 38.7292 37.1569 38.7292C38.0492 38.7692 38.8123 38.1323 38.9815 37.2ZM36.0954 36.8585C36.1815 36.2215 36.7323 35.7538 37.3692 35.7538C37.7077 35.7538 38.0062 35.88 38.2185 36.1354C38.4308 36.3908 38.5169 36.7723 38.4738 37.1108C38.3877 37.7046 37.8369 38.1723 37.2 38.1723C36.8615 38.1723 36.5631 38.0462 36.3508 37.7908C36.0954 37.5815 36.0092 37.2 36.0954 36.8585ZM41.1908 33.76C40.2554 33.76 40.0031 34.0154 39.8308 35.0338L39.7877 35.2892H39.1508L39.0646 35.8H39.7015L39.2769 38.4338C39.1908 38.9846 39.0215 39.1138 38.5538 39.1138H38.4277L38.3415 39.6646H38.64C39.4462 39.6646 39.7015 39.3661 39.8708 38.4338L40.3385 35.8H41.0615L41.1477 35.2892H40.4246L40.4677 35.0769C40.5538 34.4831 40.6369 34.3138 41.1908 34.3138H41.3169L41.4031 33.7631C41.4031 33.76 41.1908 33.76 41.1908 33.76ZM42.2954 36.2215C42.2954 34.8615 43.4 33.7169 44.7569 33.7169C46.1569 33.7169 47.2615 34.8215 47.2615 36.2215C47.2615 37.6215 46.1569 38.7262 44.7569 38.7262C43.3969 38.7262 42.2954 37.6246 42.2954 36.2215ZM46.3292 36.2215C46.3292 35.3292 45.6492 34.6492 44.7569 34.6492C43.8646 34.6492 43.1846 35.3723 43.1846 36.2215C43.1846 37.1138 43.8646 37.7938 44.7569 37.7938C45.6492 37.7938 46.3292 37.1138 46.3292 36.2215ZM47.56 35.3292H48.4523V35.6677C48.6646 35.4123 48.9631 35.2431 49.3446 35.2431C49.8123 35.2431 50.1508 35.4123 50.3631 35.7538C50.5754 35.4154 50.9569 35.2431 51.3815 35.2431C52.2308 35.2431 52.6554 35.7538 52.6554 36.6031V38.64H51.72V36.7292C51.72 36.3046 51.5508 36.0061 51.1262 36.0061C50.7877 36.0061 50.5323 36.2615 50.5323 36.8123V38.6369H49.5969V36.7262C49.5969 36.3015 49.4277 36.0031 49.0031 36.0031C48.6646 36.0031 48.4092 36.2585 48.4092 36.8092V38.6338H47.56V35.3292ZM52.9538 36.9877C52.9538 35.8 53.8031 35.2462 54.5662 35.2462C54.9908 35.2462 55.3292 35.4154 55.5415 35.6277V35.2892H56.4338V38.6431H55.5415V38.2615C55.3292 38.5169 54.9908 38.6861 54.5231 38.6861C53.8862 38.7262 52.9538 38.1754 52.9538 36.9877ZM55.5846 36.9877C55.5846 36.4769 55.2462 36.0954 54.7354 36.0954C54.2246 36.0954 53.8431 36.4769 53.8431 36.9877C53.8431 37.4985 54.2246 37.88 54.7354 37.88C55.2462 37.8769 55.5846 37.4523 55.5846 36.9877ZM56.8585 33.8H57.7508V35.7108C57.9631 35.4554 58.3015 35.2862 58.6862 35.2862C59.4492 35.2862 59.96 35.7969 59.96 36.6462V38.6431H59.0246V36.7323C59.0246 36.2646 58.8123 36.0092 58.4308 36.0092C58.0923 36.0092 57.7938 36.2646 57.7938 36.8154V38.64H56.9015V33.8H56.8585ZM60.2554 36.9877C60.2554 35.8 61.1046 35.2462 61.8677 35.2462C62.2923 35.2462 62.6308 35.4154 62.8431 35.6277V35.2892H63.7354V38.6431H62.8431V38.2615C62.6308 38.5169 62.2923 38.6861 61.8246 38.6861C61.1477 38.7262 60.2554 38.1754 60.2554 36.9877ZM62.8892 36.9877C62.8892 36.4769 62.5508 36.0954 62.04 36.0954C61.5292 36.0954 61.1477 36.4769 61.1477 36.9877C61.1477 37.4985 61.5292 37.88 62.04 37.88C62.5508 37.8769 62.8892 37.4523 62.8892 36.9877ZM35.7969 28.1538H38.5569V29.0462H36.7323V30.1508H38.5569V31H36.7323V32.9969H35.7969V28.1538ZM39.0246 29.6831H39.9169V32.9938H39.0246V29.6831ZM40.3846 29.6831H41.2769V30.2338C41.4462 29.8954 41.7446 29.6831 42.2123 29.6831H42.5508V30.5754H42C41.5323 30.5754 41.32 30.8308 41.32 31.4677V33.04H40.4277V29.6862H40.3846V29.6831ZM42.72 32.1877L43.5692 31.8492C43.6954 32.1477 43.9508 32.3169 44.2492 32.3169C44.5477 32.3169 44.7169 32.1908 44.7169 32.0185C44.7169 31.8492 44.3785 31.8062 43.9938 31.72C43.4 31.5938 42.8062 31.4215 42.8062 30.7015C42.8062 30.1508 43.3569 29.64 44.1662 29.64C44.9292 29.64 45.3538 29.9385 45.5662 30.4031L44.76 30.7415C44.6738 30.5292 44.4615 30.36 44.1662 30.36C43.8708 30.36 43.7415 30.4862 43.7415 30.6154C43.7415 30.7446 43.9538 30.8277 44.4215 30.9138C44.9723 31.04 45.6092 31.2123 45.6092 31.9323C45.6092 32.4 45.1415 33.0369 44.2092 33.0369C43.44 33.08 42.9723 32.7385 42.72 32.1877ZM45.9046 29.6831H46.4554V28.7908H47.3477V29.6831H47.9846V30.4892H47.3477V31.5508C47.3477 32.0615 47.4338 32.1446 47.9846 32.1446V32.9938H47.8585C46.7969 32.9938 46.4585 32.6554 46.4585 31.5508V30.4892H45.9077C45.9046 30.4892 45.9046 29.6831 45.9046 29.6831ZM49.8954 28.1538H50.9569L53.0369 31.4246V28.1538H53.9723V32.9938H52.9969L50.8738 29.64V32.9938H49.9385V28.1538H49.8954ZM54.2677 31.3385C54.2677 30.1508 55.1169 29.5969 55.88 29.5969C56.3046 29.5969 56.6431 29.7662 56.8554 29.9785V29.64H57.7477V32.9508H56.8554V32.5692C56.6431 32.8246 56.3046 32.9938 55.8369 32.9938C55.16 33.08 54.2677 32.5261 54.2677 31.3385ZM56.9015 31.3385C56.9015 30.8277 56.5631 30.4462 56.0523 30.4462C55.5415 30.4462 55.16 30.8277 55.16 31.3385C55.16 31.8492 55.5415 32.2308 56.0523 32.2308C56.5631 32.2308 56.9015 31.8492 56.9015 31.3385ZM58.1754 29.6831H58.7262V28.7908H59.6185V29.6831H60.2554V30.4892H59.6185V31.5508C59.6185 32.0615 59.7046 32.1446 60.2554 32.1446V32.9938H60.1292C59.0677 32.9938 58.7292 32.6554 58.7292 31.5508V30.4892H58.1785V29.6831H58.1754ZM60.7231 29.6831H61.6154V32.9938H60.7231V29.6831ZM61.9538 31.3385C61.9538 30.3631 62.7169 29.5969 63.6954 29.5969C64.6738 29.5969 65.4369 30.36 65.4369 31.3385C65.4369 32.3138 64.6738 33.08 63.6954 33.08C62.7169 33.08 61.9538 32.3138 61.9538 31.3385ZM64.5446 31.3385C64.5446 30.8708 64.1631 30.4892 63.6954 30.4892C63.2277 30.4892 62.8462 30.8708 62.8462 31.3385C62.8462 31.8062 63.1846 32.1877 63.6954 32.1877C64.1631 32.1877 64.5446 31.8062 64.5446 31.3385ZM65.6923 29.6831H66.5846V30.0646C66.7969 29.8092 67.1354 29.64 67.52 29.64C68.2831 29.64 68.7938 30.1508 68.7938 31V33.0369H67.8585V31.1262C67.8585 30.7015 67.6462 30.4031 67.2646 30.4031C66.9262 30.4031 66.6277 30.6585 66.6277 31.2092V33.0338H65.7354V29.68H65.6923V29.6831ZM69.0031 31.3385C69.0031 30.1508 69.8523 29.5969 70.6154 29.5969C71.04 29.5969 71.3785 29.7662 71.5908 29.9785V29.64H72.4831V32.9508H71.5908V32.5692C71.3785 32.8246 71.04 32.9938 70.5723 32.9938C69.8954 33.08 69.0031 32.5261 69.0031 31.3385ZM71.6369 31.3385C71.6369 30.8277 71.2985 30.4462 70.7877 30.4462C70.2769 30.4462 69.8954 30.8277 69.8954 31.3385C69.8954 31.8492 70.2769 32.2308 70.7877 32.2308C71.2985 32.2308 71.6369 31.8492 71.6369 31.3385ZM73.8862 28.1538V32.9938H72.9939V28.1538H73.8862ZM75.5446 28.1538H77.0739C78.1354 28.1538 78.7723 28.6215 78.7723 29.5138C78.7723 29.9385 78.6031 30.2369 78.2615 30.4492C78.6862 30.6615 78.9415 31.0431 78.9415 31.5538C78.9415 32.5292 78.2615 32.9969 77.2 32.9969H75.5446V28.1538ZM76.4769 29.0031V30.0646H77.0708C77.6215 30.0646 77.8339 29.8523 77.8339 29.5138C77.8339 29.1754 77.6215 29.0031 77.0708 29.0031H76.4769ZM76.4769 30.9569V32.1446H77.2C77.7508 32.1446 78.0062 31.9323 78.0062 31.5508C78.0062 31.1692 77.8369 30.9569 77.1569 30.9569H76.4769ZM79.1538 31.3385C79.1538 30.1508 80.0031 29.5969 80.7662 29.5969C81.1908 29.5969 81.5292 29.7662 81.7415 29.9785V29.64H82.6339V32.9508H81.7415V32.5692C81.5292 32.8246 81.1908 32.9938 80.7231 32.9938C80.0462 33.08 79.1538 32.5261 79.1538 31.3385ZM81.7846 31.3385C81.7846 30.8277 81.4462 30.4462 80.9354 30.4462C80.4246 30.4462 80.0431 30.8277 80.0431 31.3385C80.0431 31.8492 80.4246 32.2308 80.9354 32.2308C81.4462 32.2308 81.7846 31.8492 81.7846 31.3385ZM83.1446 29.6831H84.0369V30.0646C84.2492 29.8092 84.5877 29.64 84.9723 29.64C85.7354 29.64 86.2462 30.1508 86.2462 31V33.0369H85.3108V31.1262C85.3108 30.7015 85.0985 30.4031 84.7169 30.4031C84.3785 30.4031 84.08 30.6585 84.08 31.2092V33.0338H83.1877V29.68H83.1446V29.6831ZM87.9846 31.6769L87.56 32.1877V32.9938H86.6677V28.1538H87.56V31.1692L88.7908 29.6831H89.8523L88.6646 31.1262L89.9385 32.9938H88.9631L87.9846 31.6769ZM39.5354 28.24C39.8154 28.24 40.0462 28.4677 40.0462 28.7508C40.0462 29.0308 39.8185 29.2615 39.5354 29.2615C39.2523 29.2615 39.0246 29.0338 39.0246 28.7508C39.0246 28.4677 39.2523 28.24 39.5354 28.24ZM61.1046 28.24C61.3846 28.24 61.6154 28.4677 61.6154 28.7508C61.6154 29.0308 61.3877 29.2615 61.1046 29.2615C60.8215 29.2615 60.5938 29.0338 60.5938 28.7508C60.5969 28.4677 60.8246 28.24 61.1046 28.24ZM52.0615 10.1077C50.32 10.1077 48.8338 10.8708 47.9015 12.1046V10.4062H44.8431H43.8246H40V10.0246C40 7.64615 40.2985 7.30769 42.8462 7.30769V3.44H42.4646C37.4123 3.44 35.7969 5.05231 35.7969 10.0215V10.4031H33.2062V14.1385H35.7969V25.56H39.9569V14.0985H43.7785V25.52H47.9385V17.2831C47.9385 14.7354 49.2554 13.6308 50.8246 13.6308C52.6492 13.6308 53.6277 14.8185 53.6277 16.8585V25.5631H57.8308V16.3077C57.7938 12.4 55.6277 10.1077 52.0615 10.1077ZM67.9846 10.1077C65.9477 10.1077 64.4185 10.9138 63.44 12.0615V3.44H59.28V25.52H63.44V23.9077C64.4154 25.0954 66.0308 25.8615 68.0246 25.8615C71.2523 25.8615 75.2862 23.3138 75.2862 18.0062C75.3323 12.6123 71.4246 10.1077 67.9846 10.1077ZM67.2215 21.9969C64.7169 21.9969 62.9754 19.7046 63.4 17.1138C63.7385 15.2031 65.48 13.76 67.3908 13.8431C69.6 13.9292 71.2554 15.6277 71.2554 17.8769C71.2554 20.2554 69.5138 21.9969 67.2215 21.9969ZM84.1631 10.1077C79.5354 9.93846 75.7969 13.76 76.0523 18.3877C76.2646 22.3785 79.5754 25.6492 83.5692 25.8185C88.1969 25.9877 91.9354 22.1662 91.68 17.5385C91.5108 13.5046 88.1969 10.2338 84.1631 10.1077ZM83.8677 21.9108C81.6185 21.9108 79.92 19.9569 80.0892 17.6646C80.2154 15.7108 81.8308 14.0554 83.8246 14.0554C85.9477 14.0123 87.6892 15.84 87.6892 18.0031C87.6892 20.1292 85.9908 21.9108 83.8677 21.9108Z" fill="white"/>
</svg>
