<svg width="182" height="40" viewBox="0 0 182 40" fill="none" xmlns="http://www.w3.org/2000/svg">
<path d="M61.5145 16.9499C60.5333 16.0114 59.2251 15.4852 57.86 15.5137C55.4 15.5137 53.5514 17.4618 53.5514 19.9929C53.5514 22.524 55.4284 24.4721 57.9738 24.4721C59.1398 24.4721 60.4196 24.145 61.2585 23.6047V21.1447H57.5898V19.2961H63.2777V24.5859C62.069 25.695 59.865 26.3918 57.9738 26.3918C54.3193 26.3918 51.4754 23.5478 51.4754 20.0071C51.4611 16.4948 54.2909 13.6367 57.8031 13.6225C57.8174 13.6225 57.8458 13.6225 57.86 13.6225C59.865 13.6225 61.5998 14.3335 62.8511 15.5279L61.5145 16.9499ZM69.3069 20.8603V24.2019H76.6016V26.0647H67.2592V13.9211H76.6016V15.7839H69.3069V19.0117H75.4782V20.8745L69.3069 20.8603ZM84.0669 13.9211H86.2852L90.3804 23.6189L94.4757 13.9211H96.5945L91.3901 26.0647H89.2713L84.0669 13.9211ZM101.33 20.8603V24.2019H108.624V26.0647H99.282V13.9211H108.624V15.7839H101.33V19.0117H107.501V20.8745L101.33 20.8603ZM120.697 26.0647L118.066 21.5002H114.497V26.0647H112.449V13.9211H118.919C121.294 13.9211 123.057 15.5563 123.057 17.7177C123.057 19.4525 121.92 20.8461 120.256 21.3295L123.057 26.0647H120.697ZM120.981 17.7177C120.981 16.5091 120.199 15.7696 118.919 15.7696H114.497V19.6374H118.919C120.199 19.6374 120.981 18.9122 120.981 17.7177ZM126.982 13.9211H129.129L135.926 22.9221V13.9211H137.931V26.0647H135.869L128.987 17.0068V26.0647H126.982V13.9211ZM141.586 19.9929C141.586 16.4522 144.444 13.5798 147.984 13.5656C151.525 13.5656 154.398 16.4237 154.412 19.9645C154.412 23.5052 151.554 26.3775 148.013 26.3918H147.999C144.472 26.406 141.6 23.562 141.586 20.0355C141.586 20.0213 141.586 20.0071 141.586 19.9929ZM152.336 19.9929C152.336 17.4618 150.444 15.5137 147.999 15.5137C145.553 15.5137 143.662 17.4618 143.662 19.9929C143.662 22.524 145.553 24.4863 147.999 24.4863C150.444 24.4863 152.336 22.524 152.336 19.9929ZM155.905 13.9211H158.123L162.218 23.6189L166.314 13.9211H168.432L163.228 26.0647H161.109L155.905 13.9211ZM181.131 26.0647H178.926L177.647 23.0075H171.888L170.608 26.0647H168.518L173.722 13.9211H175.94L181.131 26.0647ZM176.865 21.1589L174.774 16.1251L172.684 21.1589H176.865ZM24.4437 14.7885C24.4437 12.5133 25.9795 10.3093 26.8184 10.7217C27.7711 11.2051 26.0932 13.3523 24.4437 14.7885ZM13.978 15.6274C13.978 13.7931 15.7839 10.3235 16.8788 10.6932C18.1871 11.1198 15.7981 14.6178 13.978 15.6274ZM12.1437 28.6953C11.3189 28.738 10.7644 28.1977 10.7644 27.316C10.7644 24.9271 14.0633 22.6662 16.5518 21.4433C16.111 24.7707 14.9876 28.5674 12.1437 28.6953ZM27.373 20.9456C25.496 20.9456 24.0456 22.3249 24.0456 23.9886C24.0456 25.3679 24.8703 26.4771 25.9795 26.4771C26.3634 26.4771 26.7473 26.2496 26.7473 25.7519C26.7473 25.0267 25.7946 24.856 25.8657 23.7753C25.9084 23.0643 26.5767 22.5951 27.245 22.5951C28.5674 22.5951 29.1931 23.8891 29.1931 25.2115C29.1362 27.2592 27.6289 28.6811 25.8657 28.6811C23.5337 28.6811 22.0548 26.4629 22.0548 24.0882C22.0548 20.5475 24.3726 19.1539 25.5955 18.8269C25.6097 18.8269 28.7807 19.3957 28.6812 17.9879C28.6385 17.3765 27.7285 17.1347 27.0601 17.1063C26.5625 17.1063 26.0648 17.1774 25.5813 17.348C25.1831 17.1205 24.8988 16.765 24.7566 16.3242C27.0317 14.6036 28.6243 12.9399 28.6243 11.0629C28.6243 10.0675 27.956 9.18592 26.6904 9.18592C24.4153 9.18592 22.7089 12.0725 22.7089 14.6747C22.6947 15.1013 22.7231 15.5279 22.8227 15.9545C21.3865 17.0068 20.32 17.6609 18.3719 18.8269C18.4004 18.2581 18.4715 17.7035 18.5852 17.149C19.2535 16.4237 20.1636 15.3573 20.1636 14.5183C20.1636 14.1344 19.9361 13.7931 19.4953 13.7931C18.3861 13.7931 17.5614 15.4568 17.3339 16.6228C16.8362 17.2343 15.8408 18.0021 15.0018 18.0021C14.3335 18.0021 14.1202 17.3907 14.0633 17.1774C16.1679 16.4522 18.7701 13.5798 18.7701 10.9776C18.7701 10.423 18.5426 9.20014 16.8931 9.20014C14.4046 9.20014 12.3001 12.9115 12.3001 15.7981C11.4185 15.7981 11.0772 14.8596 11.0772 14.1344C11.0772 13.4092 11.3474 12.6982 11.3474 12.4707C11.3474 12.2432 11.2336 11.973 10.9066 11.973C10.0818 11.973 9.58414 13.0821 9.58414 14.3619C9.64102 16.1394 10.807 17.2485 12.357 17.348C12.5845 18.4003 13.523 19.3957 14.689 19.3957C15.4142 19.3957 16.2958 19.1681 16.9073 18.6136C16.8504 18.9975 16.7935 19.3388 16.7366 19.6658C14.3051 20.9456 12.5276 21.8272 10.9208 23.2634C9.65524 24.4294 8.93004 25.9794 8.93004 27.2023C8.93004 28.866 9.98229 30.4159 12.1437 30.4159C14.689 30.4159 16.6229 28.3683 17.5614 25.5386C18.0022 24.2019 18.1871 22.268 18.2866 20.5048C20.0356 19.5379 21.742 18.4572 23.363 17.2911C23.5052 17.5471 23.6901 17.7746 23.9176 17.9595C22.7516 18.5709 19.993 20.2915 19.993 24.3299C19.993 27.2165 21.9268 30.4301 25.7519 30.4301C28.9087 30.4301 31.0701 27.8279 31.0701 25.3395C31.0843 23.0359 29.8045 20.9314 27.373 20.9456ZM36.886 25.695C36.8717 25.7092 36.8433 25.7376 36.7864 25.7234C36.7438 25.7092 36.7295 25.6808 36.7295 25.6523C37.1561 24.273 37.3836 22.8368 37.3979 21.3864C37.3836 18.9549 36.4025 17.4476 35.1227 17.4476C34.3406 17.4476 33.8003 18.0021 33.8003 18.8269C33.8003 20.3199 35.6204 20.4337 35.6204 23.7042C35.6204 25.0409 35.3502 26.3064 34.8952 27.7C32.8476 34.625 26.3207 37.8386 19.9503 37.8386C17.021 37.8386 14.9307 37.2414 14.3051 36.957C14.2766 36.9285 14.2624 36.8859 14.2766 36.8432C14.2909 36.8006 14.3335 36.7721 14.362 36.7864C15.7413 37.2272 17.1775 37.4547 18.6136 37.4547C21.0452 37.4547 22.4956 36.4593 22.4956 35.2364C22.4956 34.4828 21.8984 33.8571 21.1305 33.8571C21.1163 33.8571 21.1163 33.8571 21.1021 33.8571C19.609 33.8571 19.4953 35.7341 16.2816 35.7341C14.9023 35.7341 13.6794 35.4639 12.2432 35.0089C5.37511 32.9044 2.10458 26.4202 2.1188 19.9929C2.1188 18.0732 2.41742 16.1678 3.01464 14.3477C3.04308 14.3192 3.08574 14.3192 3.11418 14.3335C3.15684 14.3477 3.17106 14.3903 3.17106 14.4046C2.74447 15.7839 2.51695 17.2201 2.50273 18.6705C2.50273 21.102 3.49811 22.5524 4.77789 22.5524C5.50309 22.5667 6.10032 21.9836 6.10032 21.2584C6.10032 21.2442 6.10032 21.23 6.10032 21.23C6.10032 19.7369 4.2802 19.5663 4.2802 16.3526C4.2802 14.9733 4.55037 13.7504 5.0054 12.3143C7.10992 5.44614 13.5799 2.21827 19.9503 2.17561C22.908 2.14717 25.496 3.04301 25.5955 3.11411C25.624 3.14255 25.624 3.18521 25.6097 3.21365C25.5955 3.27053 25.5529 3.27053 25.5386 3.27053C25.5102 3.27053 23.8181 2.55955 21.2727 2.55955C18.898 2.55955 17.405 3.55492 17.405 4.8347C17.405 5.5599 17.988 6.15713 18.7274 6.17135C18.7558 6.17135 18.7701 6.17135 18.7985 6.17135C20.2916 6.17135 20.4053 4.33701 23.619 4.33701C24.9983 4.33701 26.2212 4.60718 27.6574 5.06221C34.5824 7.16673 37.7249 13.7078 37.7818 20.0213C37.796 21.9268 37.4974 23.8606 36.886 25.695ZM19.9503 0.9385C9.42773 0.92428 0.895909 9.4561 0.881689 19.9787C0.867469 30.5012 9.39929 39.0473 19.9219 39.0473C30.4444 39.0615 38.9905 30.5297 38.9905 20.0071V19.9929C38.9905 9.48454 30.4729 0.95272 19.9503 0.9385ZM19.9503 40C8.9016 39.9716 -0.0283717 30.9989 6.77402e-05 19.9502C0.0427268 8.94419 8.95848 0.0284394 19.9503 0C30.9706 0 39.9432 8.97263 39.9432 19.9929C39.9432 31.0132 30.9706 40 19.9503 40Z" fill="white"/>
</svg>
