<svg width="216" height="70" viewBox="0 0 216 70" fill="none" xmlns="http://www.w3.org/2000/svg">
<path d="M26.9708 23.8875V31.0625H44.134C43.6086 35.0875 42.2659 38.0333 40.2227 40.1042C37.7124 42.6125 33.8011 45.3542 26.9708 45.3542C16.4043 45.3542 8.14378 36.8375 8.14378 26.2792C8.14378 15.7208 16.4043 7.20417 26.9708 7.20417C32.6627 7.20417 36.8368 9.45 39.9016 12.3375L44.9513 7.29167C40.6897 3.15 34.9686 0 26.9708 0C12.493 0 0.321075 11.7833 0.321075 26.25C0.321075 40.7167 12.493 52.5 26.9708 52.5C34.7935 52.5 40.6897 49.9333 45.3016 45.15C50.0303 40.425 51.5189 33.7458 51.5189 28.3792C51.5189 26.7167 51.4021 25.1708 51.1394 23.8875H26.9708Z" fill="white"/>
<path d="M72.973 18.0542C63.6032 18.0542 55.9557 25.1709 55.9557 35C55.9557 44.7417 63.6032 51.9459 72.973 51.9459C82.3427 51.9459 89.9903 44.7709 89.9903 35C89.9903 25.1709 82.3427 18.0542 72.973 18.0542ZM72.973 45.2667C67.8357 45.2667 63.3989 41.0375 63.3989 35C63.3989 28.9042 67.8357 24.7334 72.973 24.7334C78.1103 24.7334 82.547 28.9042 82.547 35C82.547 41.0375 78.1103 45.2667 72.973 45.2667Z" fill="white"/>
<path d="M156.396 21.8459H156.133C154.469 19.8625 151.258 18.0542 147.201 18.0542C138.736 18.0542 131.351 25.4334 131.351 35C131.351 44.5084 138.736 51.9459 147.201 51.9459C151.258 51.9459 154.469 50.1375 156.133 48.0959H156.396V50.4584C156.396 56.9334 152.922 60.4042 147.347 60.4042C142.794 60.4042 139.962 57.1375 138.795 54.3667L132.315 57.05C134.183 61.5417 139.116 67.0542 147.347 67.0542C156.075 67.0542 163.459 61.9209 163.459 49.4084V18.9292H156.396V21.8459ZM147.843 45.2667C142.706 45.2667 138.795 40.8917 138.795 35C138.795 29.0209 142.706 24.7334 147.843 24.7334C152.922 24.7334 156.892 29.1084 156.892 35.0584C156.921 40.9792 152.922 45.2667 147.843 45.2667Z" fill="white"/>
<path d="M110.919 18.0542C101.549 18.0542 93.9016 25.1709 93.9016 35C93.9016 44.7417 101.549 51.9459 110.919 51.9459C120.289 51.9459 127.936 44.7709 127.936 35C127.936 25.1709 120.289 18.0542 110.919 18.0542ZM110.919 45.2667C105.782 45.2667 101.345 41.0375 101.345 35C101.345 28.9042 105.782 24.7334 110.919 24.7334C116.056 24.7334 120.493 28.9042 120.493 35C120.493 41.0375 116.056 45.2667 110.919 45.2667Z" fill="white"/>
<path d="M169.297 0.700195H176.624V51.946H169.297V0.700195Z" fill="white"/>
<path d="M199.245 45.2667C195.451 45.2667 192.765 43.5459 191.014 40.1334L213.694 30.7709L212.935 28.8459C211.534 25.0542 207.214 18.0542 198.428 18.0542C189.701 18.0542 182.432 24.9084 182.432 35C182.432 44.5084 189.613 51.9459 199.245 51.9459C207.01 51.9459 211.505 47.1917 213.373 44.45L207.594 40.6C205.667 43.4 203.04 45.2667 199.245 45.2667ZM198.72 24.4125C201.726 24.4125 204.295 25.9584 205.142 28.1459L189.817 34.475C189.817 27.3584 194.867 24.4125 198.72 24.4125Z" fill="white"/>
</svg>
