<svg width="182" height="36" viewBox="0 0 182 36" fill="none" xmlns="http://www.w3.org/2000/svg">
<path d="M16.0787 21.4293L2.40932 12.3039C0.904012 11.2986 0 9.60788 0 7.79854V1.46523C0 0.783893 0.552017 0.231934 1.23335 0.231934H9.33601C13.5254 0.231934 16.9214 3.62789 16.9214 7.81723V20.9786C16.9214 21.4119 16.4387 21.6693 16.0787 21.4293Z" fill="white"/>
<path d="M16.5534 24.8915L0.885365 14.4315C0.506695 14.1794 0 14.4504 0 14.9048V35.4075C0 35.7223 0.25472 35.9782 0.569328 35.9782H2.08665C2.10555 35.9782 2.12521 35.9768 2.14525 35.9755C5.82394 35.7423 13.2839 33.8395 16.7546 25.5489C16.8547 25.3115 16.7699 25.0342 16.5534 24.8915Z" fill="white"/>
<path d="M20.3075 21.4293L33.9768 12.3039C35.4821 11.2986 36.3862 9.60788 36.3862 7.79854V1.46523C36.3862 0.783893 35.8342 0.231934 35.1529 0.231934H27.0502C22.8609 0.231934 19.4648 3.62789 19.4648 7.81723V20.9786C19.4648 21.4119 19.9475 21.6693 20.3075 21.4293Z" fill="white"/>
<path d="M19.8329 24.8915L35.5436 14.4035C35.9034 14.1635 36.3862 14.4224 36.3862 14.8542V35.4075C36.3862 35.7223 36.1315 35.9782 35.8169 35.9782H34.2702C30.6009 35.7514 23.1116 33.8609 19.6316 25.5489C19.5314 25.3115 19.6164 25.0342 19.8329 24.8915Z" fill="white"/>
<path d="M98.3533 33.3444C98.3533 33.1509 98.1961 32.9937 98.0026 32.9937H93.4039V23.415C93.4039 23.2324 93.2372 23.0643 93.0532 23.0643H90.9172C90.724 23.0643 90.5664 23.2215 90.5664 23.415V35.3017C90.5664 35.4952 90.7236 35.6524 90.9172 35.6524H98.0025C98.196 35.6524 98.3533 35.4952 98.3533 35.3017L98.3533 33.3444Z" fill="white"/>
<path d="M109.513 23.4155C109.513 23.2223 109.355 23.0647 109.162 23.0647H100.521C100.327 23.0647 100.17 23.2219 100.17 23.4155V25.3728C100.17 25.5659 100.327 25.7235 100.521 25.7235H103.414V35.3022C103.414 35.4847 103.581 35.6529 103.765 35.6529H105.918C106.102 35.6529 106.27 35.4847 106.27 35.3022V25.7235H109.162C109.355 25.7235 109.513 25.5663 109.513 25.3728L109.513 23.4155Z" fill="white"/>
<path d="M122.099 35.6527H124.236C124.419 35.6527 124.587 35.4845 124.587 35.302V23.4153C124.587 23.2313 124.419 23.0646 124.236 23.0646H122.099C121.905 23.0646 121.748 23.2218 121.748 23.4153V27.9313H116.632V23.4153C116.632 23.2218 116.475 23.0646 116.282 23.0646H114.144C113.962 23.0646 113.795 23.2313 113.795 23.4153V35.302C113.795 35.4845 113.962 35.6527 114.144 35.6527H116.282C116.475 35.6527 116.632 35.4955 116.632 35.302V30.5886H121.748V35.302C121.748 35.4955 121.905 35.6527 122.099 35.6527Z" fill="white"/>
<path d="M79.9211 31.3244L81.2624 28.3737L82.621 31.3244H79.9211ZM87.2944 35.1711L81.6731 23.0857C81.6156 22.9712 81.4852 22.8858 81.3612 22.8858H81.1825C81.0585 22.8858 80.9266 22.9724 80.8665 23.0911L75.2478 35.1724C75.1957 35.2869 75.1983 35.4071 75.2591 35.5031C75.3204 35.5976 75.43 35.6524 75.5604 35.6524H77.5364C77.8365 35.6524 78.075 35.4952 78.1897 35.219L78.835 33.7857H83.7071L84.3523 35.199C84.5149 35.5456 84.6646 35.6524 84.9871 35.6524H86.9804C87.1111 35.6524 87.2219 35.5976 87.2831 35.5031C87.3432 35.4086 87.3469 35.2871 87.2944 35.1711Z" fill="white"/>
<path d="M72.0313 23.4155C72.0313 23.2223 71.8741 23.0647 71.6806 23.0647H64.2472C64.0541 23.0647 63.8965 23.2219 63.8965 23.4155V35.3021C63.8965 35.4956 64.0537 35.6528 64.2472 35.6528H71.6806C71.8741 35.6528 72.0313 35.4956 72.0313 35.3021V33.3448C72.0313 33.1513 71.8741 32.994 71.6806 32.994H66.7165V30.5887H70.8006C70.9941 30.5887 71.1513 30.4314 71.1513 30.2379V28.2806C71.1513 28.0981 70.9846 27.9314 70.8006 27.9314H66.7165V25.7234H71.6806C71.8741 25.7234 72.0313 25.5662 72.0313 25.3727V23.4155Z" fill="white"/>
<path d="M56.8568 35.6527H58.9941C59.1766 35.6527 59.3448 35.4845 59.3448 35.302V23.4153C59.3448 23.2313 59.1766 23.0646 58.9941 23.0646H56.8568C56.6636 23.0646 56.506 23.2218 56.506 23.4153V27.9313H51.39V23.4153C51.39 23.2218 51.2328 23.0646 51.0393 23.0646H48.9019C48.7194 23.0646 48.5527 23.2313 48.5527 23.4153V35.302C48.5527 35.4845 48.7194 35.6527 48.9019 35.6527H51.0393C51.2324 35.6527 51.39 35.4955 51.39 35.302V30.5886H56.506V35.302C56.506 35.4955 56.6633 35.6527 56.8568 35.6527Z" fill="white"/>
<path d="M67.1161 13.0134C64.6894 13.0134 62.7147 11.0387 62.7147 8.61201C62.7147 6.16001 64.6894 4.16396 67.1161 4.16396C69.5561 4.16396 71.5401 6.16001 71.5401 8.61201C71.5401 11.0387 69.5561 13.0134 67.1161 13.0134ZM67.1161 0C62.3934 0 58.5508 3.86402 58.5508 8.61201C58.5508 13.4147 62.3134 17.1773 67.1161 17.1773C71.9321 17.1773 75.704 13.4147 75.704 8.61201C75.704 3.86402 71.8521 0 67.1161 0Z" fill="white"/>
<path d="M82.9208 10.3916H88.1942V16.2796C88.1942 16.6463 88.4928 16.9449 88.8595 16.9449H91.6248C91.9782 16.9449 92.2888 16.6343 92.2888 16.2796V0.896938C92.2888 0.542418 91.9782 0.232971 91.6248 0.232971H88.8595C88.4929 0.232971 88.1942 0.530399 88.1942 0.896938V6.5303H82.9208V0.896938C82.9208 0.530323 82.6223 0.232971 82.2568 0.232971H79.4915C79.137 0.232971 78.8262 0.542116 78.8262 0.896938V16.2796C78.8262 16.6342 79.1369 16.9449 79.4915 16.9449H82.2568C82.6223 16.9449 82.9208 16.6464 82.9208 16.2796V10.3916Z" fill="white"/>
<path d="M143.25 0.232422C142.895 0.232422 142.586 0.543101 142.586 0.897772V10.4938C142.586 14.1791 145.646 17.1777 149.407 17.1777C153.195 17.1777 156.277 14.1791 156.277 10.4938V0.897772C156.277 0.543253 155.966 0.232422 155.613 0.232422H152.754C152.387 0.232422 152.09 0.531007 152.09 0.897772V10.3084C152.09 11.8497 150.937 13.0124 149.407 13.0124C147.906 13.0124 146.773 11.8497 146.773 10.3084V0.897772C146.773 0.531158 146.474 0.232422 146.107 0.232422H143.25Z" fill="white"/>
<path d="M160.943 0.232422C160.59 0.232422 160.279 0.543102 160.279 0.897772V16.2804C160.279 16.6338 160.59 16.9444 160.943 16.9444H163.731C164.086 16.9444 164.397 16.6338 164.397 16.2804V0.897772C164.397 0.543253 164.086 0.232422 163.731 0.232422H160.943Z" fill="white"/>
<path d="M175.814 7.18026H172.598V4.00161H175.814C176.652 4.00161 177.358 4.70826 177.358 5.54425C177.358 6.41626 176.637 7.18026 175.814 7.18026ZM172.598 10.5776H173.841L173.852 10.6003L176.871 16.6136C176.95 16.7735 177.163 16.9455 177.442 16.9455H180.532C180.787 16.9455 181.002 16.8309 181.12 16.631C181.242 16.4269 181.243 16.1643 181.124 15.943L178.056 10.2563L178.094 10.2375C180.138 9.31344 181.407 7.48946 181.407 5.47482C181.407 2.58416 179.034 0.232117 176.118 0.232117H169.17C168.803 0.232117 168.506 0.53074 168.506 0.897467V16.2801C168.506 16.6467 168.803 16.9441 169.17 16.9441H171.935C172.289 16.9441 172.599 16.6334 172.599 16.2801L172.598 10.5776Z" fill="white"/>
<path d="M134.357 8.19038L134.528 16.281C134.536 16.6465 134.844 16.9451 135.215 16.9451H138.011C138.198 16.9451 138.371 16.8717 138.502 16.7398C138.631 16.6106 138.7 16.4397 138.698 16.2598L138.555 0.795807C138.552 0.423901 138.243 0.122498 137.868 0.122498H136.791C136.602 0.122498 136.428 0.21055 136.23 0.409353L129.954 6.36002L129.927 6.33736L123.514 0.404047C123.314 0.210536 123.143 0.123997 122.958 0.123997H121.903C121.529 0.123997 121.219 0.425212 121.215 0.797306L121.072 16.2613C121.071 16.4412 121.141 16.6132 121.27 16.7426C121.4 16.8734 121.573 16.9467 121.76 16.9467H124.556C124.927 16.9467 125.235 16.6466 125.243 16.2774L125.379 8.1747L125.442 8.22948L129.156 11.5268C129.295 11.6466 129.502 11.8069 129.714 11.8069H130.058C130.28 11.8069 130.49 11.6297 130.616 11.5242L134.357 8.19038Z" fill="white"/>
<path d="M100.56 8.53319L100.625 8.59594L109.381 16.996C109.476 17.0893 109.72 17.1774 109.84 17.1774H110.212C110.573 17.1774 110.877 16.8841 110.877 16.536V0.897374C110.877 0.542855 110.567 0.232024 110.212 0.232024H107.424C107.057 0.232024 106.759 0.530647 106.759 0.897374V8.64403L106.695 8.58279L97.9387 0.182773C97.8442 0.0882847 97.6 0.000244141 97.4787 0.000244141H97.1068C96.7469 0.000244141 96.4414 0.295062 96.4414 0.64293V16.2803C96.4414 16.6348 96.7521 16.9455 97.1068 16.9455H99.8961C100.262 16.9455 100.56 16.647 100.56 16.2803L100.56 8.53319Z" fill="white"/>
<path d="M48.6166 12.7677C48.4499 12.7677 48.2794 12.8331 48.1312 12.9624L46.5392 14.533C46.3313 14.7742 46.3125 15.117 46.4912 15.4024C47.4179 16.545 48.7339 17.177 50.1953 17.177C53.2673 17.177 55.4139 14.9931 55.4139 11.865V0.896999C55.4139 0.530384 55.1153 0.233032 54.7499 0.233032H51.9152C51.5486 0.233032 51.2499 0.53046 51.2499 0.896999V11.841C51.2499 12.8437 50.6593 13.385 50.1019 13.385C49.5406 13.385 49.3219 13.2104 49.0752 12.9624C48.9445 12.8331 48.7831 12.7677 48.6166 12.7677Z" fill="white"/>
</svg>
