<svg width="153" height="22" viewBox="0 0 153 22" fill="none" xmlns="http://www.w3.org/2000/svg">
<mask id="mask0_57_825" style="mask-type:luminance" maskUnits="userSpaceOnUse" x="0" y="0" width="153" height="22">
<path d="M152.082 0H0V21.939H152.082V0Z" fill="white"/>
</mask>
<g mask="url(#mask0_57_825)">
<path d="M0 1.6V19.789C0 20.889 0.641 21.389 1.875 21.389H19.068C20.257 21.389 20.942 20.889 20.942 19.789C20.942 18.738 20.257 18.189 19.068 18.189H4.29799C3.70399 18.189 3.47499 17.915 3.47499 17.366V1.6C3.47581 1.37784 3.43036 1.15795 3.34152 0.954325C3.25269 0.750701 3.12242 0.567806 2.95901 0.417292C2.79561 0.266778 2.60266 0.151945 2.39244 0.0800997C2.18222 0.00825471 1.95933 -0.0190252 1.73799 -1.34623e-06C1.51744 -0.0151062 1.29611 0.014895 1.08754 0.0881716C0.878965 0.161448 0.687517 0.276461 0.524872 0.426192C0.362226 0.575923 0.231799 0.75723 0.141556 0.959044C0.0513129 1.16086 0.00315206 1.37895 0 1.6Z" fill="white"/>
<path d="M29.5394 13.416V1.6C29.5047 1.16306 29.3065 0.75527 28.9845 0.457886C28.6625 0.160501 28.2403 -0.00464249 27.802 -0.00464249C27.3636 -0.00464249 26.9414 0.160501 26.6194 0.457886C26.2974 0.75527 26.0992 1.16306 26.0645 1.6V13.736C26.0645 21.098 30.6365 21.936 38.5475 21.936C46.4585 21.936 51.0305 21.096 51.0305 13.736V1.6C50.9957 1.16306 50.7975 0.75527 50.4755 0.457886C50.1535 0.160501 49.7313 -0.00464249 49.293 -0.00464249C48.8546 -0.00464249 48.4324 0.160501 48.1104 0.457886C47.7884 0.75527 47.5902 1.16306 47.5555 1.6V13.416C47.5555 19.406 44.3555 18.6 38.5475 18.6C32.7395 18.6 29.5394 19.314 29.5394 13.416Z" fill="white"/>
<path d="M84.9127 5.35V20.067C84.9119 20.2892 84.9574 20.509 85.0462 20.7127C85.135 20.9163 85.2653 21.0992 85.4287 21.2497C85.5921 21.4002 85.7851 21.5151 85.9953 21.5869C86.2055 21.6587 86.4284 21.686 86.6497 21.667C86.8719 21.69 87.0965 21.6655 87.3085 21.5952C87.5205 21.5248 87.7151 21.4102 87.8795 21.2589C88.0438 21.1076 88.1741 20.9231 88.2618 20.7176C88.3494 20.5121 88.3923 20.2903 88.3877 20.067V2.377C88.4047 2.07521 88.3608 1.7731 88.2585 1.48867C88.1562 1.20424 87.9976 0.943329 87.7923 0.721497C87.587 0.499664 87.3391 0.321453 87.0634 0.197495C86.7878 0.0735358 86.4899 0.00637061 86.1877 0C84.9877 0 84.4647 0.679 83.3077 1.737L74.4367 10.489H74.3907L65.5197 1.783C64.3827 0.612001 63.5197 0 62.5017 0C61.9021 0.0533513 61.3429 0.324788 60.9301 0.762882C60.5173 1.20098 60.2794 1.77529 60.2617 2.377V20.067C60.2609 20.2892 60.3064 20.509 60.3952 20.7127C60.484 20.9163 60.6143 21.0992 60.7777 21.2497C60.9411 21.4002 61.1341 21.5151 61.3443 21.5869C61.5545 21.6587 61.7774 21.686 61.9987 21.667C62.2209 21.69 62.4455 21.6655 62.6575 21.5952C62.8695 21.5248 63.0641 21.4102 63.2285 21.2589C63.3928 21.1076 63.5231 20.9231 63.6108 20.7176C63.6984 20.5121 63.7413 20.2903 63.7367 20.067V5.304H63.9197L72.3787 13.324C73.1397 14.07 73.7317 14.65 74.3447 14.65C75.1147 14.65 75.5097 14.05 76.3567 13.324L84.7707 5.35H84.9127Z" fill="white"/>
<path d="M118.84 1.92C118.84 0.868998 118.2 0.273998 116.965 0.273998H99.5888C98.3548 0.273998 97.7148 0.873998 97.7148 1.92V3.514L117.015 3.475C118.204 3.475 118.844 2.926 118.844 1.92" fill="white"/>
<path d="M97.7129 9.304V19.789C97.7129 20.889 98.3529 21.389 99.5879 21.389H117.146C118.335 21.389 118.975 20.889 118.975 19.789C118.975 18.737 118.335 18.189 117.146 18.189H102.013C101.419 18.189 101.19 17.914 101.19 17.366V12.547H112.621C113.856 12.547 114.496 11.998 114.496 10.947C114.496 9.947 113.856 9.347 112.621 9.347L97.7129 9.304Z" fill="white"/>
<path d="M152.082 19.606V1.6C152.079 1.379 152.031 1.16093 151.941 0.959119C151.85 0.757308 151.72 0.575989 151.558 0.426244C151.395 0.276499 151.204 0.161473 150.995 0.0881856C150.787 0.0148986 150.565 -0.0151078 150.345 1.19582e-06C150.123 -0.0191695 149.9 0.00799946 149.69 0.079778C149.48 0.151556 149.287 0.266369 149.123 0.416898C148.96 0.567427 148.829 0.75037 148.74 0.954068C148.651 1.15777 148.606 1.37775 148.607 1.6V16.177L131.412 1.737C130.229 0.744001 129.57 1.19582e-06 128.44 1.19582e-06C127.2 1.19582e-06 126.383 0.823 126.383 2.377V20.067C126.386 20.288 126.434 20.5061 126.524 20.7079C126.614 20.9097 126.744 21.091 126.907 21.2408C127.07 21.3905 127.261 21.5055 127.47 21.5788C127.678 21.6521 127.899 21.6821 128.12 21.667C128.341 21.6862 128.564 21.659 128.775 21.5872C128.985 21.5154 129.178 21.4006 129.341 21.2501C129.505 21.0996 129.635 20.9166 129.724 20.7129C129.813 20.5092 129.859 20.2892 129.858 20.067V5.167L146.868 19.789C148.007 20.757 148.797 21.664 149.977 21.664C150.252 21.6734 150.525 21.6269 150.782 21.5273C151.038 21.4277 151.271 21.2772 151.468 21.0847C151.664 20.8923 151.819 20.662 151.924 20.4079C152.029 20.1537 152.081 19.8809 152.077 19.606" fill="white"/>
</g>
</svg>
