<svg width="197" height="86" viewBox="0 0 197 86" fill="none" xmlns="http://www.w3.org/2000/svg">
<path fill-rule="evenodd" clip-rule="evenodd" d="M176.132 46.411H195.793C196.115 46.411 196.378 46.1486 196.378 45.826V40.9226C196.378 40.6 196.115 40.3376 195.793 40.3376H186.13C185.807 40.3376 185.545 40.6 185.545 40.9226V41.8086C185.545 42.1312 185.807 42.3936 186.13 42.3936H192.476C192.583 42.3936 192.669 42.4796 192.669 42.5872V43.5377C192.669 43.6453 192.583 43.7313 192.476 43.7313H179.84C179.517 43.7313 179.255 43.4689 179.255 43.1463V39.5074C179.255 39.1848 179.517 38.9225 179.84 38.9225H195.793C196.115 38.9225 196.378 38.6601 196.378 38.3375V37.0041C196.378 36.6815 196.115 36.4191 195.793 36.4191H176.132C175.809 36.4191 175.547 36.6815 175.547 37.0041V45.8217C175.547 46.1443 175.809 46.4067 176.132 46.4067V46.411ZM170.629 46.411H173.167C173.49 46.411 173.753 46.1486 173.753 45.826V37.0084C173.753 36.6858 173.49 36.4234 173.167 36.4234H170.319C170.199 36.4234 170.1 36.4535 170.001 36.518L163.044 41.0516C162.846 41.1806 162.606 41.1806 162.408 41.0516L155.451 36.518C155.352 36.4535 155.249 36.4234 155.133 36.4234H152.285C151.962 36.4234 151.7 36.6858 151.7 37.0084V45.826C151.7 46.1486 151.962 46.411 152.285 46.411H154.823C155.146 46.411 155.408 46.1486 155.408 45.826V40.5096C155.408 40.4064 155.46 40.3204 155.55 40.2731C155.64 40.2258 155.739 40.2258 155.825 40.2817L161.212 43.6539C161.311 43.7141 161.405 43.7442 161.521 43.7442H163.939C164.055 43.7442 164.154 43.7141 164.249 43.6539L169.635 40.2817C169.721 40.2258 169.825 40.2258 169.911 40.2731C170.001 40.3204 170.053 40.4107 170.053 40.5096V45.826C170.053 46.1486 170.315 46.411 170.638 46.411H170.629ZM149.32 46.411H146.782C146.459 46.411 146.197 46.1486 146.197 45.826V44.2733C146.197 44.1657 146.111 44.0797 146.003 44.0797H132.662C132.473 44.0797 132.314 44.1571 132.198 44.3077L130.804 46.1099C130.653 46.3078 130.438 46.411 130.189 46.411H126.704C126.596 46.411 126.506 46.3551 126.459 46.2605C126.411 46.1658 126.424 46.0583 126.489 45.9723L133.695 36.6514C133.811 36.5051 133.97 36.4234 134.159 36.4234H149.32C149.643 36.4234 149.905 36.6858 149.905 37.0084V45.826C149.905 46.1486 149.643 46.411 149.32 46.411ZM146.197 41.3097V39.1203C146.197 39.0128 146.111 38.9268 146.003 38.9268H136.551C136.427 38.9268 136.319 38.9784 136.242 39.0773L134.56 41.2538C134.521 41.3011 134.517 41.3613 134.542 41.4172C134.568 41.4731 134.62 41.5032 134.684 41.5032H146.003C146.111 41.5032 146.197 41.4172 146.197 41.3097ZM102.418 46.411H94.0544C93.9469 46.411 93.8565 46.3551 93.8092 46.2605C93.7619 46.1658 93.7748 46.0583 93.8393 45.9723L101.045 36.6514C101.162 36.5051 101.321 36.4234 101.506 36.4234H109.792C109.912 36.4234 110.02 36.4879 110.071 36.5998C110.123 36.7116 110.115 36.832 110.037 36.9267L102.878 46.183C102.762 46.3293 102.603 46.411 102.414 46.411H102.418ZM108.501 46.411H104.539C104.431 46.411 104.341 46.3551 104.294 46.2605C104.246 46.1658 104.259 46.0583 104.324 45.9723L111.53 36.6514C111.646 36.5051 111.805 36.4234 111.995 36.4234H115.875C115.996 36.4234 116.103 36.4879 116.155 36.5998C116.206 36.7073 116.198 36.832 116.12 36.9267L108.962 46.183C108.845 46.3293 108.686 46.411 108.497 46.411H108.501ZM113.952 46.411H110.893C110.786 46.411 110.695 46.3551 110.648 46.2605C110.601 46.1658 110.614 46.0583 110.678 45.9723L117.884 36.6514C118 36.5051 118.16 36.4234 118.349 36.4234H121.33C121.451 36.4234 121.558 36.4879 121.61 36.5998C121.662 36.7073 121.653 36.832 121.576 36.9267L114.417 46.183C114.301 46.3293 114.141 46.411 113.952 46.411ZM118.878 46.411H116.74C116.632 46.411 116.542 46.3551 116.495 46.2605C116.447 46.1658 116.46 46.0583 116.525 45.9723L123.731 36.6514C123.847 36.5051 124.006 36.4234 124.196 36.4234H126.252C126.372 36.4234 126.48 36.4879 126.532 36.5998C126.583 36.7116 126.575 36.832 126.497 36.9267L119.338 46.183C119.222 46.3293 119.063 46.411 118.874 46.411H118.878ZM123.598 46.411H122.027C121.92 46.411 121.829 46.3551 121.782 46.2605C121.735 46.1658 121.748 46.0583 121.812 45.9723L129.018 36.6514C129.135 36.5051 129.294 36.4234 129.483 36.4234H130.976C131.096 36.4234 131.204 36.4879 131.255 36.5998C131.307 36.7116 131.299 36.832 131.221 36.9267L124.062 46.183C123.946 46.3293 123.787 46.411 123.598 46.411Z" fill="white"/>
<path d="M87.1668 51.9252C86.5989 51.5768 85.4889 51.4048 83.7637 51.4048H76.2822V61.4655H77.8783V57.6029H83.7681C85.4932 57.6029 86.6075 57.4352 87.1711 57.0911C87.7519 56.7384 88.0444 56.0846 88.0444 55.1512V53.8694C88.0444 52.936 87.7476 52.2822 87.1668 51.9252ZM86.3537 54.2522V54.7168C86.3537 55.3362 86.2203 55.7448 85.9493 55.9254C85.6653 56.119 85.0544 56.2179 84.138 56.2179H77.874V52.7511H84.138C85.0544 52.7511 85.6653 52.85 85.9493 53.0436C86.216 53.2242 86.3537 53.6328 86.3537 54.2522Z" fill="white"/>
<path d="M91.3438 61.4655H102.026V60.0934H92.9098V56.9362H101.643V55.5598H92.9098V52.7769H102.026V51.4048H91.3438V61.4655Z" fill="white"/>
<path d="M104.332 52.7769H109.559V61.4655H111.155V52.7769H116.387V51.4048H104.332V52.7769Z" fill="white"/>
<path d="M130.446 51.9209C129.874 51.5725 128.756 51.4048 127.035 51.4048H119.351V61.4655H120.947V57.6287H127.211C128.536 57.6287 129.04 57.8008 129.229 57.947C129.491 58.1492 129.625 58.5535 129.625 59.1428V61.4655H131.221V58.9019C131.221 58.2997 131.062 57.818 130.743 57.4696C130.545 57.2502 130.287 57.0911 129.969 56.9835C130.378 56.8502 130.679 56.6825 130.885 56.4717C131.182 56.1663 131.333 55.6846 131.333 55.048V53.8737C131.333 52.936 131.036 52.2779 130.446 51.9252V51.9209ZM129.668 54.2522V54.7168C129.668 55.3276 129.53 55.7276 129.263 55.9168C128.979 56.1147 128.373 56.2179 127.461 56.2179H120.947V52.7511H127.461C128.373 52.7511 128.979 52.8543 129.263 53.0522C129.53 53.2414 129.668 53.6458 129.668 54.2479V54.2522Z" fill="white"/>
<path d="M147.204 51.9984C146.851 51.7404 146.386 51.5554 145.814 51.4479C145.255 51.3403 144.407 51.2887 143.293 51.2887H139.765C138.651 51.2887 137.803 51.3403 137.244 51.4479C136.676 51.5554 136.207 51.7404 135.855 51.9984C135.459 52.2909 135.17 52.6952 134.994 53.2028C134.826 53.6974 134.74 54.3684 134.74 55.1943V57.8611C134.74 58.6181 134.826 59.2418 135.003 59.7106C135.179 60.1881 135.472 60.5838 135.872 60.8806C136.229 61.143 136.693 61.3279 137.248 61.4355C137.795 61.5387 138.647 61.5903 139.782 61.5903H143.297C144.437 61.5903 145.294 61.5387 145.84 61.4355C146.395 61.3279 146.855 61.143 147.208 60.8806C147.595 60.5967 147.879 60.201 148.06 59.702C148.236 59.216 148.322 58.5751 148.322 57.8009V55.0739C148.322 54.3039 148.232 53.6673 148.06 53.177C147.879 52.678 147.595 52.278 147.208 51.9984H147.204ZM143.921 60.1709H139.146C138.483 60.1709 137.963 60.1193 137.61 60.0117C137.27 59.9085 137.003 59.7407 136.814 59.5128C136.676 59.345 136.577 59.1472 136.521 58.9149C136.461 58.674 136.435 58.2611 136.435 57.689V55.1212C136.435 54.5491 136.465 54.1405 136.521 53.8953C136.577 53.6673 136.676 53.4652 136.814 53.2974C137.003 53.0652 137.27 52.8974 137.61 52.7985C137.967 52.6952 138.483 52.6393 139.146 52.6393H143.921C144.588 52.6393 145.104 52.6909 145.457 52.7985C145.797 52.8974 146.064 53.0652 146.253 53.2974C146.382 53.4566 146.477 53.6501 146.533 53.8695C146.593 54.0975 146.623 54.4674 146.623 54.9706V57.8396C146.623 58.3342 146.593 58.7041 146.533 58.9364C146.477 59.1558 146.382 59.3493 146.253 59.5085C146.064 59.7407 145.797 59.9085 145.457 60.0074C145.104 60.1107 144.588 60.1666 143.921 60.1666V60.1709Z" fill="white"/>
<path d="M163.595 59.8869L154.242 51.4048H151.983V61.4655H153.575V52.85L163.07 61.4655H165.183V51.4048H163.595V59.8869Z" fill="white"/>
<path d="M173.968 51.4048L167.661 61.4655H169.493L170.84 59.3105H179.083L180.464 61.4655H182.189L175.865 51.4048H173.963H173.968ZM171.657 57.9986L174.936 52.7855L178.266 57.9986H171.662H171.657Z" fill="white"/>
<path d="M196.365 56.9191C196.202 56.5363 195.918 56.2352 195.526 56.0244C195.264 55.8782 194.907 55.7706 194.472 55.7061C194.046 55.6459 193.414 55.6115 192.583 55.6115H188.789C187.649 55.6115 186.896 55.4997 186.547 55.2803C186.216 55.0695 186.057 54.6824 186.057 54.0974C186.057 53.5125 186.22 53.1425 186.56 52.9361C186.917 52.721 187.64 52.6092 188.703 52.6092H192.308C193.353 52.6092 194.038 52.7167 194.347 52.9232C194.64 53.121 194.786 53.5211 194.786 54.1103V54.4028H196.331V53.977C196.331 53.4867 196.27 53.0737 196.146 52.7511C196.021 52.4156 195.827 52.1403 195.565 51.9296C195.251 51.6887 194.812 51.5167 194.27 51.422C193.741 51.3274 192.803 51.2801 191.495 51.2801H189.099C187.322 51.2801 186.13 51.4866 185.45 51.9081C184.758 52.3382 184.409 53.0909 184.409 54.1447C184.409 55.1986 184.719 55.9126 185.326 56.347C185.924 56.7728 186.922 56.9793 188.376 56.9793H192.837C193.741 56.9793 194.343 57.0868 194.618 57.2933C194.881 57.4954 195.018 57.8826 195.018 58.4503C195.018 59.1428 194.829 59.5945 194.433 59.831C194.025 60.0805 193.104 60.2053 191.706 60.2053H188.948C187.786 60.2053 186.986 60.0891 186.578 59.8611C186.19 59.6461 185.997 59.2676 185.997 58.7041C185.997 58.6353 186.001 58.5106 186.01 58.3256L186.04 57.9858H184.504L184.482 58.1019C184.478 58.1363 184.474 58.1794 184.474 58.231C184.461 58.5278 184.452 58.7385 184.452 58.8633C184.452 59.831 184.779 60.5322 185.42 60.9537C186.053 61.3709 187.068 61.5731 188.531 61.5731H192.114C193.805 61.5731 194.95 61.3537 195.608 60.9064C196.279 60.4504 196.619 59.6461 196.619 58.5149C196.619 57.8223 196.537 57.2804 196.378 56.9105L196.365 56.9191Z" fill="white"/>
<path d="M97.1087 69.7798V70.3261H94.1272V73.8359H93.5034V66.5237H97.3324V67.07H94.1315V69.7798H97.113H97.1087Z" fill="white"/>
<path d="M104.827 70.1756C104.827 72.3993 103.644 73.9564 101.966 73.9564C100.289 73.9564 99.084 72.4122 99.084 70.1282C99.084 67.8443 100.289 66.399 101.958 66.399C103.627 66.399 104.832 67.9561 104.832 70.1713L104.827 70.1756ZM99.7637 70.1411C99.7637 72.0595 100.663 73.3972 101.958 73.3972C103.253 73.3972 104.152 72.0595 104.152 70.1756C104.152 68.2916 103.244 66.9625 101.958 66.9625C100.672 66.9625 99.7637 68.3002 99.7637 70.1411Z" fill="white"/>
<path d="M108.234 66.5237C109.366 66.5237 109.693 66.5581 110.175 66.7216C110.932 66.9625 111.405 67.655 111.405 68.5324C111.405 69.4959 110.88 70.154 109.826 70.5067L111.831 73.8402H111.061L109.099 70.5927H107.74V73.8402H107.116V66.528H108.234V66.5237ZM108.26 70.0422C109.224 70.0422 109.465 70.0207 109.839 69.8873C110.411 69.6895 110.725 69.1948 110.725 68.5152C110.725 67.8915 110.441 67.4313 109.959 67.2334C109.607 67.1001 109.314 67.07 108.269 67.07H107.744V70.0422H108.26Z" fill="white"/>
<path d="M114.89 66.5237L117.093 73.1348L119.295 66.5237H120.302V73.8359H119.678V67.0915L117.407 73.8359H116.783L114.503 67.0915V73.8359H113.879V66.5237H114.886H114.89Z" fill="white"/>
<path d="M123.464 66.5237V70.868C123.473 72.1842 123.498 72.3821 123.739 72.7219C124.023 73.1477 124.617 73.4015 125.318 73.4015C126.11 73.4015 126.734 73.0961 126.996 72.5799C127.16 72.2616 127.172 72.0767 127.181 70.868V66.5237H127.805V70.8766C127.805 72.0724 127.796 72.2143 127.663 72.5885C127.353 73.4531 126.488 73.9606 125.314 73.9606C124.26 73.9606 123.46 73.5563 123.085 72.8423C122.9 72.481 122.832 72.1197 122.832 71.4186V66.528H123.455L123.464 66.5237Z" fill="white"/>
<path d="M130.972 66.5237V73.2896H134.086V73.8359H130.326V66.5237H130.972Z" fill="white"/>
<path d="M138.733 66.4681L141.267 73.8362H140.608L139.894 71.763H137.085L136.362 73.8362H135.717L138.251 66.4681H138.733ZM138.492 67.3585L137.266 71.2167H139.714L138.496 67.3585H138.492Z" fill="white"/>
<path d="M152.065 70.1756C152.065 72.3993 150.882 73.9564 149.204 73.9564C147.526 73.9564 146.322 72.4122 146.322 70.1282C146.322 67.8443 147.526 66.399 149.196 66.399C150.865 66.399 152.07 67.9561 152.07 70.1713L152.065 70.1756ZM146.997 70.1411C146.997 72.0595 147.896 73.3972 149.191 73.3972C150.486 73.3972 151.385 72.0595 151.385 70.1756C151.385 68.2916 150.473 66.9625 149.191 66.9625C147.909 66.9625 146.997 68.3002 146.997 70.1411Z" fill="white"/>
<path d="M155.042 66.5237L158.729 72.9283V66.5237H159.31V73.8359H158.587L154.948 67.4528V73.8359H154.354V66.5237H155.047H155.042Z" fill="white"/>
<path d="M165.548 69.78V70.3263H162.567V73.2855H165.815V73.8318H161.943V66.5196H165.772V67.0659H162.571V69.7757H165.552L165.548 69.78Z" fill="white"/>
<path d="M175.181 66.5237V67.07H173.296V73.8359H172.673V67.07H170.775V66.5237H175.185H175.181Z" fill="white"/>
<path d="M180.726 69.78V70.3263H177.745V73.2855H180.993V73.8318H177.121V66.5196H180.946V67.0659H177.745V69.7757H180.726V69.78Z" fill="white"/>
<path d="M185.519 66.4681L188.053 73.8362H187.395L186.68 71.763H183.871L183.148 73.8362H182.503L185.037 66.4681H185.519ZM185.278 67.3585L184.047 71.2167H186.495L185.278 67.3585Z" fill="white"/>
<path d="M191 66.5237L193.202 73.1348L195.405 66.5237H196.412V73.8359H195.788V67.0915L193.517 73.8359H192.893L190.613 67.0915V73.8359H189.989V66.5237H190.995H191Z" fill="white"/>
<path d="M25.7873 52.9231C25.8691 52.85 25.8992 52.7898 25.9164 52.6951L29.3668 28.6682C22.6295 28.9477 16.2881 31.7307 11.5084 36.5094C6.43608 41.5806 3.63965 48.325 3.63965 55.4996C3.63965 59.8396 4.68939 64.1408 6.6813 67.9389L25.7873 52.9231ZM3.82035 55.4996C3.82035 48.3723 6.59526 41.6709 11.6374 36.6341C16.3268 31.9457 22.4531 29.223 29.0226 28.866C29.1258 28.866 29.1517 28.9434 29.1431 28.9994L25.7486 52.6693C25.74 52.7166 25.7443 52.7295 25.6884 52.7811L6.8663 67.5733C6.80607 67.6206 6.72433 67.6034 6.68561 67.5431C4.81415 63.8526 3.82465 59.7578 3.82465 55.4996H3.82035ZM30.5068 24.9992C22.3585 24.9992 14.7006 28.1735 8.93565 33.9329C3.17502 39.6923 0 47.3529 0 55.4996C0 63.6462 3.17502 71.3068 8.93565 77.0662C14.6963 82.8256 22.3585 86 30.5068 86C38.6552 86 46.3174 82.8299 52.078 77.0662C57.8387 71.3068 61.0137 63.6462 61.0137 55.4996C61.0137 47.3529 57.8387 39.6966 52.078 33.9329C46.3174 28.1735 38.6552 24.9992 30.5068 24.9992ZM51.949 76.9372C46.2228 82.6622 38.6036 85.8193 30.5025 85.8193C22.4015 85.8193 14.7866 82.6665 9.06042 76.9372C3.83756 71.7154 0.757188 64.9237 0.253831 57.6287C0.245227 57.1426 0.266737 56.8674 0.266737 56.8674C0.335572 55.7705 0.851833 54.6651 1.11857 54.1748C1.1745 54.0758 1.21752 53.9984 1.25624 53.9339C1.25624 53.9339 1.43263 53.65 1.48856 53.2285C1.48856 53.2285 1.51007 53.0521 1.51437 52.9747C1.55309 52.5661 1.5789 52.3381 1.64344 51.8349C1.9532 49.31 2.69747 46.2647 4.03976 43.3441C5.40786 40.3762 7.38256 37.5202 9.58098 35.262C11.0997 33.7007 12.7431 32.3415 14.3005 31.3134C17.4626 29.223 20.1902 28.2767 20.2289 28.2638C23.4168 27.0595 26.9317 26.4186 30.5413 26.4186C37.8163 26.4186 44.5105 29.0983 49.6043 33.5501C54.2463 37.6105 57.6193 43.0559 58.9443 49.4132C58.996 49.3831 58.9831 49.2197 58.9615 49.0906C57.1761 39.7612 51.622 32.1737 43.706 28.1864C46.7261 29.6488 49.5096 31.6188 51.9533 34.062C57.6795 39.7913 60.8373 47.4045 60.8373 55.5039C60.8373 63.6032 57.6838 71.2164 51.9533 76.9458L51.949 76.9372ZM27.035 52.5704C27.1985 52.7639 29.0441 54.1662 29.84 54.7597C29.9949 54.863 29.9863 54.6694 29.9863 54.6694L30.2229 27.9498C30.1283 28.0144 30.0121 28.1305 29.8787 28.238C29.7626 28.3327 29.6636 28.4359 29.5862 28.5262C29.5518 28.8187 26.9145 51.1381 26.8801 51.8435C26.8715 52.037 26.8414 52.3467 27.0307 52.5704H27.035ZM30.5628 26.6379C26.751 26.6379 23.1716 27.3262 19.7772 28.6897C16.1289 30.1521 12.8291 32.3587 10.1058 35.0814C7.69662 37.4901 5.6918 40.3074 4.25917 43.4474C2.58562 47.1164 1.63913 51.2026 1.63913 55.4953C1.63913 63.4612 4.93462 70.696 10.1575 75.9177C15.3803 81.1395 22.5693 84.344 30.537 84.344C38.5046 84.344 45.7065 81.0879 50.9251 75.8661C56.1479 70.6444 59.353 63.4827 59.353 55.5168C59.353 47.5508 56.1909 40.3332 50.9681 35.1115C45.7452 29.8897 38.5304 26.6336 30.5628 26.6336V26.6379ZM58.8755 55.4522V55.5641C58.8755 56.4286 58.8325 57.2846 58.755 58.1319C58.0108 66.5065 53.5838 73.7585 47.1778 78.4211C42.5401 81.7976 36.8741 83.8364 30.6703 83.8364H30.6144C26.7424 83.8364 23.0081 83.0837 19.6352 81.6772C16.2193 80.2491 13.1346 78.1888 10.5447 75.621C8.00208 73.0961 5.93703 70.0809 4.48719 66.7603C3.73861 65.0398 3.17072 63.2505 2.77492 61.3923C2.37911 59.5256 2.1597 57.5943 2.1597 55.5942V55.5598C2.1597 55.3318 2.1597 55.1038 2.16831 54.8759C2.16831 54.8544 2.16831 54.8286 2.16831 54.8027C2.16831 49.6799 4.18173 43.4775 7.42128 39.0471C7.89883 38.3977 8.40218 37.7654 8.93135 37.1589C10.7641 34.9953 12.9109 33.1114 15.2943 31.5758C19.6868 28.7542 24.9527 27.1541 30.5585 27.1541H30.6488C42.3465 27.1541 52.8395 34.6426 56.9223 45.1937C58.157 48.3809 58.8755 51.822 58.8755 55.4479V55.4522ZM31.6555 28.6682C31.6555 28.6682 31.6512 28.6639 31.6469 28.6596C31.3243 28.2079 30.7521 27.924 30.5198 27.7864L30.5068 27.7778C30.5068 27.7778 30.4853 27.7907 30.4552 27.8036L30.438 27.8122L30.2831 54.7081C30.2831 54.7081 30.2831 54.7167 30.2831 54.721V54.8415C30.2788 54.906 30.2659 54.9705 30.2272 54.992C30.1885 55.0135 30.1154 54.992 30.0551 54.9662L27.8266 53.8135C27.8266 53.8135 26.6951 53.1769 26.6478 53.2156C26.6478 53.2156 6.8663 68.0507 6.70712 68.1711C6.64689 68.3389 6.56515 68.6185 6.54794 68.9798L29.2635 55.5641C29.2635 55.5641 29.3539 55.5125 29.3883 55.491C29.4184 55.4738 29.5819 55.3877 29.4657 55.2845C28.6741 54.7296 26.6306 53.2973 26.665 53.2629C26.665 53.2629 26.7252 53.2973 26.8242 53.3532C27.121 53.5597 27.7491 53.9382 27.7491 53.9382L29.7497 55.2157C29.7497 55.2157 29.7583 55.22 29.7626 55.2243L29.8615 55.2888C29.9131 55.3275 29.9562 55.3705 29.9562 55.4221C29.9562 55.4824 29.9088 55.5297 29.8529 55.5641L29.7755 55.6114C29.7755 55.6114 29.7497 55.6243 29.7368 55.6329L6.54794 69.2249V69.3153C6.54794 69.3153 7.17606 69.8701 7.8472 69.9261C7.94185 70.0766 8.47102 70.8981 9.18518 71.8229C9.86923 72.709 10.7856 73.7542 11.517 74.4854C16.3784 79.3459 22.7715 82.1116 29.6077 82.3353C29.1431 82.3353 28.6784 82.3353 28.2181 82.2923C18.1768 81.5997 9.30134 75.8618 4.97333 67.0657C4.93892 67.0055 4.87869 66.9152 4.82276 66.9195C6.22957 70.0121 8.16126 72.8896 10.6996 75.4231L10.7168 75.4403C13.2809 78.0039 16.3483 79.9997 19.7213 81.432C23.0641 82.8557 26.7811 83.5912 30.6617 83.5912H30.6961C36.887 83.5912 42.4411 81.5352 47.066 78.1931C48.262 77.3286 49.3677 76.378 50.4174 75.3328L50.4346 75.3199C54.9777 70.7777 57.9333 64.8376 58.5399 58.0674C58.5399 58.033 58.5485 57.9943 58.5485 57.9556C58.5571 57.8223 58.5744 57.6717 58.583 57.5384C58.5916 57.4394 58.5959 57.3147 58.6045 57.2072C58.6045 56.9835 58.4797 56.7985 58.4625 56.7727C58.3334 56.5792 58.1398 56.2136 57.8774 55.6157C57.7053 55.22 57.3826 54.2092 57.3009 53.4478C56.8191 47.0432 54.0958 41.0903 49.5096 36.5051C44.7342 31.7307 38.3971 28.9434 31.6641 28.6639L31.6555 28.6682ZM52.9256 70.0164C51.9275 71.539 50.6927 73.0488 49.3763 74.365C44.3341 79.4061 37.6356 82.1804 30.5068 82.1804C23.3781 82.1804 16.6796 79.4061 11.6374 74.365C10.9663 73.694 10.0413 72.6531 9.32285 71.7197C8.8238 71.0745 8.41509 70.4766 8.18277 70.1282C8.14405 70.068 8.15696 69.9777 8.2344 69.9433L30.3649 61.0482C30.4939 60.9966 30.5456 61.0009 30.6531 61.0482L52.8653 69.8357C52.9385 69.8658 52.9643 69.9476 52.9299 70.0164H52.9256ZM53.2999 69.8185H53.2956L30.5025 60.7987L7.91173 69.883L7.89883 69.8873C7.46 69.7239 7.04269 69.4486 6.84909 69.2249L30.0293 55.9899C30.0981 55.9555 30.1885 55.9211 30.2401 55.9469C30.2788 55.9641 30.296 56.0114 30.3046 56.063C30.3262 56.8243 30.3907 58.8201 30.4509 59.8439C30.4724 60.1923 30.4767 60.5622 30.5068 60.5622C30.5327 60.5622 30.537 60.1923 30.5585 59.8439C30.6144 58.8288 30.6789 56.8545 30.7005 56.0845C30.7048 56.0243 30.722 55.9684 30.7607 55.9512C30.8123 55.9254 30.9242 55.9684 30.993 56.0071C30.993 56.0071 54.3238 69.3454 54.4098 69.3927C53.9753 69.7454 53.2999 69.8271 53.2999 69.8271V69.8185ZM54.4873 69.2508L31.2554 55.6157C31.2554 55.6157 31.2124 55.5899 31.1909 55.577L31.1694 55.5641C31.1694 55.5641 31.1393 55.5426 31.1221 55.534C31.1092 55.5254 31.1006 55.5168 31.0876 55.5082C31.0876 55.5082 31.0833 55.5082 31.0833 55.5039C31.0747 55.4953 31.0704 55.4867 31.0618 55.478C31.0618 55.478 31.0575 55.4738 31.0532 55.4694C31.0489 55.4565 31.0446 55.4436 31.0446 55.4307C31.0446 55.3963 31.0704 55.3662 31.1049 55.3361L33.3248 53.964C33.3248 53.964 33.3334 53.9597 33.3463 53.9511C33.9314 53.5941 34.4046 53.3059 34.4089 53.3145C34.4305 53.336 31.548 55.3146 31.548 55.3146C31.5308 55.3275 31.5007 55.3533 31.5265 55.4135C31.5394 55.4436 31.5781 55.4651 31.5781 55.4651L54.2808 68.8852C54.3281 68.6314 54.3066 68.3647 54.242 68.1324C52.9127 67.1388 35.1876 53.7876 34.4347 53.2242C34.3917 53.1812 33.1957 53.8178 33.1957 53.8178L31.079 54.9103C31.079 54.9103 31.0575 54.9189 31.0446 54.9275L30.9715 54.9662C30.9371 54.9834 30.9027 54.9963 30.8725 55.0049C30.8381 55.0135 30.808 55.0135 30.7908 55.0049C30.7822 55.0006 30.7736 54.992 30.7693 54.9877C30.7521 54.9662 30.7435 54.9318 30.7392 54.8974L30.5886 28.78V28.0918C30.9285 28.1778 31.3114 28.4058 31.6555 28.7327L35.0328 52.6564C35.0457 52.7811 35.0758 52.8285 35.1059 52.8543L54.3453 67.9561C54.4787 68.2357 54.5776 68.8378 54.4916 69.2551L54.4873 69.2508ZM54.3238 67.5604C54.2937 67.6077 54.2162 67.6249 54.1603 67.5862L35.2178 52.7209C35.2178 52.7209 35.2091 52.6951 35.2005 52.6435L31.862 29.008C31.862 29.008 31.862 28.9951 31.862 28.9864C31.862 28.9821 31.862 28.9735 31.862 28.9692C31.8706 28.9047 31.9223 28.866 31.9868 28.866C38.5649 29.2187 44.6783 31.9457 49.372 36.6341C54.4141 41.6752 57.189 48.3723 57.189 55.4996C57.189 59.8008 56.1952 63.844 54.3195 67.5604H54.3238Z" fill="white"/>
<path d="M83.6692 4.77453C83.6692 7.59617 82.1548 9.52314 79.9392 9.52314C77.7236 9.52314 76.1963 7.60907 76.1963 4.70571C76.1963 1.96579 77.7365 0.0259094 79.9392 0.0259094C82.1419 0.0259094 83.6692 1.95288 83.6692 4.77453ZM77.2976 4.72291C77.2976 7.10582 78.3302 8.61987 79.9392 8.61987C81.5482 8.61987 82.5678 7.09292 82.5678 4.77883C82.5678 2.46474 81.5224 0.937783 79.9392 0.937783C78.356 0.937783 77.2976 2.45183 77.2976 4.72291Z" fill="white"/>
<path d="M88.1304 2.84745V3.63028H86.5472V9.3682H85.5276V3.63028H84.6069V2.84745H85.5276V2.43453C85.5276 1.45814 85.5835 1.11403 85.8029 0.757025C86.0912 0.275281 86.629 0 87.2614 0C87.5927 0 87.9067 0.0688203 88.2939 0.206461V1.10113C87.9497 0.920474 87.6744 0.851654 87.3861 0.851654C86.9989 0.851654 86.7236 1.04521 86.6032 1.38931C86.5343 1.58287 86.5085 1.88396 86.5085 2.40872V2.84745H88.1347H88.1304Z" fill="white"/>
<path d="M92.4669 2.84745V3.63028H90.8836V9.3682H89.864V3.63028H88.9434V2.84745H89.864V2.43453C89.864 1.45814 89.92 1.11403 90.1394 0.757025C90.4276 0.275281 90.9654 0 91.5978 0C91.9291 0 92.2431 0.0688203 92.6303 0.206461V1.10113C92.2862 0.920474 92.0108 0.851654 91.7226 0.851654C91.3354 0.851654 91.06 1.04521 90.9396 1.38931C90.8707 1.58287 90.8449 1.88396 90.8449 2.40872V2.84745H92.4711H92.4669Z" fill="white"/>
<path d="M95.07 0.787103C95.07 1.18712 94.7818 1.47531 94.3687 1.47531C93.9557 1.47531 93.6675 1.18712 93.6675 0.787103C93.6675 0.387083 93.9686 0.0730896 94.3816 0.0730896C94.7947 0.0730896 95.07 0.374179 95.07 0.787103ZM94.8764 2.84742V9.37246H93.8568V2.84742H94.8764Z" fill="white"/>
<path d="M100.671 4.968C100.49 3.90988 100.095 3.49696 99.2513 3.49696C98.1629 3.49696 97.5046 4.48626 97.5046 6.11214C97.5046 7.73803 98.1672 8.71442 99.2815 8.71442C100.15 8.71442 100.602 8.21977 100.714 7.13154H101.678C101.553 8.68861 100.714 9.54026 99.2815 9.54026C97.6036 9.54026 96.5151 8.18966 96.5151 6.12504C96.5151 4.06043 97.5907 2.67111 99.2815 2.67111C100.658 2.67111 101.484 3.48405 101.622 4.968H100.671Z" fill="white"/>
<path d="M104.513 0.787103C104.513 1.18712 104.225 1.47531 103.812 1.47531C103.399 1.47531 103.11 1.18712 103.11 0.787103C103.11 0.387083 103.412 0.0730896 103.825 0.0730896C104.238 0.0730896 104.513 0.374179 104.513 0.787103ZM104.319 2.84742V9.37246H103.3V2.84742H104.319Z" fill="white"/>
<path d="M106.204 4.55507C106.342 3.32921 107.193 2.67111 108.639 2.67111C109.697 2.67111 110.485 3.07113 110.73 3.74643C110.855 4.07763 110.88 4.39163 110.88 5.20457V7.6563C110.867 8.60688 110.906 8.96389 111.061 9.37681H110.14C110.046 9.07572 110.029 8.92088 109.99 8.49505C109.603 9.19616 108.97 9.54026 108.075 9.54026C106.793 9.54026 105.967 8.79614 105.967 7.6563C105.967 6.74873 106.492 6.07343 107.482 5.70352C108.114 5.47125 108.721 5.33361 109.934 5.12714V4.85186C109.934 3.87547 109.564 3.50126 108.6 3.50126C107.761 3.50126 107.292 3.83246 107.155 4.55938H106.204V4.55507ZM109.934 5.83686C107.731 6.22397 106.961 6.68851 106.961 7.58318C106.961 8.25848 107.469 8.72732 108.226 8.72732C108.845 8.72732 109.383 8.43913 109.671 7.95739C109.852 7.63909 109.934 7.18746 109.934 6.48635V5.84116V5.83686Z" fill="white"/>
<path d="M113.914 0.150711V9.37266H112.894V0.150711H113.914Z" fill="white"/>
<path d="M124.471 0.193466V1.08813H122.075V9.3724H121.042V1.08813H118.659V0.193466H124.467H124.471Z" fill="white"/>
<path d="M125.559 6.27559C125.602 7.85846 126.26 8.71011 127.444 8.71011C128.158 8.71011 128.588 8.43483 128.958 7.72082L129.853 7.83265C129.453 8.95959 128.627 9.54026 127.431 9.54026C125.684 9.54026 124.565 8.23267 124.565 6.18096C124.565 4.12925 125.667 2.67111 127.375 2.67111C128.984 2.67111 130.016 3.9787 130.016 6.00031C130.016 6.04332 130.016 6.15085 130.003 6.27559H125.559ZM129.014 5.51856C128.902 4.19807 128.313 3.47975 127.336 3.47975C126.359 3.47975 125.779 4.18086 125.589 5.51856H129.018H129.014Z" fill="white"/>
<path d="M131.505 4.55507C131.643 3.32921 132.495 2.67111 133.94 2.67111C134.999 2.67111 135.786 3.07113 136.031 3.74643C136.156 4.07763 136.182 4.39163 136.182 5.20457V7.6563C136.169 8.60688 136.207 8.96389 136.362 9.37681H135.442C135.347 9.07572 135.33 8.92088 135.291 8.49505C134.904 9.19616 134.271 9.54026 133.377 9.54026C132.095 9.54026 131.269 8.79614 131.269 7.6563C131.269 6.74873 131.793 6.07343 132.783 5.70352C133.415 5.47125 134.022 5.33361 135.235 5.12714V4.85186C135.235 3.87547 134.865 3.50126 133.902 3.50126C133.063 3.50126 132.594 3.83246 132.456 4.55938H131.505V4.55507ZM135.239 5.83686C133.037 6.22397 132.267 6.68851 132.267 7.58318C132.267 8.25848 132.774 8.72732 133.532 8.72732C134.151 8.72732 134.689 8.43913 134.977 7.95739C135.158 7.63909 135.239 7.18746 135.239 6.48635V5.84116V5.83686Z" fill="white"/>
<path d="M138.995 2.84754C139.077 3.07981 139.12 3.3981 139.12 3.74221C139.533 3.01099 140.127 2.66689 141.022 2.66689C141.916 2.66689 142.493 3.02389 142.824 3.81103C143.263 3.0411 143.913 2.66689 144.833 2.66689C145.603 2.66689 146.21 2.96797 146.511 3.50563C146.731 3.89275 146.761 4.13792 146.761 5.37669V9.36829H145.797V5.37669C145.797 4.55085 145.771 4.33148 145.616 4.0562C145.423 3.7121 145.053 3.53144 144.528 3.53144C143.964 3.53144 143.508 3.78092 143.233 4.21965C143.052 4.52074 142.97 4.90785 142.97 5.51433V9.36829H142.007V5.52724C142.007 4.55085 141.994 4.3831 141.869 4.13792C141.688 3.7379 141.275 3.51854 140.755 3.51854C140.191 3.51854 139.696 3.78092 139.434 4.23255C139.253 4.56375 139.172 4.94656 139.172 5.56595V9.36398H138.208V4.86484C138.208 3.51424 138.195 3.3938 138.044 2.84324H138.995V2.84754Z" fill="white"/>
<path d="M156.673 2.57239C156.579 1.52718 155.929 0.933603 154.884 0.933603C153.92 0.933603 153.206 1.52718 153.206 2.33582C153.206 2.72294 153.399 3.06704 153.756 3.29931C153.957 3.43695 154.503 3.70793 155.395 4.11225C156.579 4.63701 157.06 4.9381 157.392 5.32521C157.749 5.75104 157.942 6.30161 157.942 6.90809C157.942 8.47806 156.729 9.52326 154.939 9.52326C153.864 9.52326 152.986 9.15335 152.461 8.46515C152.074 7.9705 151.924 7.44575 151.868 6.58119H152.874C152.969 7.90168 153.7 8.62 154.982 8.62C156.097 8.62 156.884 7.9576 156.884 7.03712C156.884 6.58119 156.703 6.22418 156.333 5.91019C156.045 5.66072 155.808 5.54028 154.901 5.14026C153.95 4.71443 153.343 4.38323 153.029 4.13376C152.466 3.69503 152.177 3.11435 152.177 2.42615C152.177 1.03683 153.335 0.0303345 154.944 0.0303345C155.92 0.0303345 156.733 0.400245 157.215 1.07555C157.516 1.48847 157.641 1.90139 157.684 2.57669H156.678L156.673 2.57239Z" fill="white"/>
<path d="M160.635 2.8475V6.83909C160.635 7.5402 160.704 7.89721 160.854 8.14668C161.074 8.47788 161.487 8.67144 161.969 8.67144C162.532 8.67144 162.988 8.42197 163.289 7.94022C163.483 7.60903 163.565 7.22621 163.565 6.55091V2.8475H164.528V7.38966C164.528 8.80908 164.528 8.89081 164.679 9.37255H163.728C163.634 9.08436 163.603 8.84779 163.591 8.50369C163.203 9.23491 162.696 9.536 161.857 9.536C161.018 9.536 160.317 9.16609 159.955 8.5467C159.736 8.17679 159.667 7.76387 159.667 6.83909V2.8475H160.631H160.635Z" fill="white"/>
<path d="M166.542 4.79165C166.529 3.52707 166.529 3.32061 166.417 2.85177H167.368C167.45 3.13995 167.463 3.27759 167.48 3.81525C167.949 3.01521 168.5 2.67111 169.326 2.67111C170.883 2.67111 171.916 4.06043 171.916 6.12504C171.916 8.18966 170.909 9.54026 169.395 9.54026C168.569 9.54026 167.992 9.20906 167.51 8.46494V12.0866H166.547V4.79165H166.542ZM167.493 6.11214C167.493 7.652 168.207 8.70151 169.257 8.70151C170.307 8.70151 170.922 7.73803 170.922 6.15515C170.922 4.57228 170.277 3.51416 169.257 3.51416C168.237 3.51416 167.493 4.54647 167.493 6.11644V6.11214Z" fill="white"/>
<path d="M173.533 4.79165C173.52 3.52707 173.52 3.32061 173.408 2.85177H174.359C174.441 3.13995 174.454 3.27759 174.471 3.81525C174.94 3.01521 175.49 2.67111 176.316 2.67111C177.874 2.67111 178.906 4.06043 178.906 6.12504C178.906 8.18966 177.9 9.54026 176.385 9.54026C175.559 9.54026 174.983 9.20906 174.501 8.46494V12.0866H173.537V4.79165H173.533ZM174.484 6.11214C174.484 7.652 175.198 8.70151 176.248 8.70151C177.297 8.70151 177.913 7.73803 177.913 6.15515C177.913 4.57228 177.267 3.51416 176.248 3.51416C175.228 3.51416 174.484 4.54647 174.484 6.11644V6.11214Z" fill="white"/>
<path d="M181.548 0.150711V9.37266H180.528V0.150711H181.548Z" fill="white"/>
<path d="M184.783 0.787103C184.783 1.18712 184.495 1.47531 184.082 1.47531C183.669 1.47531 183.381 1.18712 183.381 0.787103C183.381 0.387083 183.682 0.0730896 184.095 0.0730896C184.508 0.0730896 184.783 0.374179 184.783 0.787103ZM184.59 2.84742V9.37246H183.57V2.84742H184.59Z" fill="white"/>
<path d="M187.218 6.27559C187.261 7.85846 187.92 8.71011 189.103 8.71011C189.817 8.71011 190.247 8.43483 190.617 7.72082L191.512 7.83265C191.112 8.95959 190.286 9.54026 189.09 9.54026C187.343 9.54026 186.225 8.23267 186.225 6.18096C186.225 4.12925 187.326 2.67111 189.034 2.67111C190.643 2.67111 191.675 3.9787 191.675 6.00031C191.675 6.04332 191.675 6.15085 191.663 6.27559H187.218ZM190.673 5.51856C190.561 4.19807 189.972 3.47975 188.995 3.47975C188.019 3.47975 187.438 4.18086 187.249 5.51856H190.677H190.673Z" fill="white"/>
<path d="M194.128 2.84746C194.209 3.17866 194.252 3.52277 194.252 3.85397C194.252 3.93569 194.24 4.07333 194.227 4.25398C194.696 3.16576 195.216 2.67111 195.922 2.67111C196.171 2.67111 196.429 2.73993 196.705 2.87757V3.84106C196.249 3.6346 196.085 3.57868 195.823 3.57868C195.328 3.57868 194.859 3.94859 194.571 4.58518C194.377 5.04112 194.295 5.59168 194.295 6.45624V9.37251H193.319V5.09274C193.306 3.59159 193.306 3.48405 193.207 2.84746H194.128Z" fill="white"/>
</svg>
