<svg width="174" height="40" viewBox="0 0 174 40" fill="none" xmlns="http://www.w3.org/2000/svg">
<g>
<path d="M3.36719 37.8851H12.1028H3.36719Z" fill="white"/>
<path d="M3.36719 37.8851H12.1028" stroke="white" stroke-width="2.11494" stroke-linecap="round"/>
<path d="M17.1602 37.8851H25.8958H17.1602Z" fill="white"/>
<path d="M17.1602 37.8851H25.8958" stroke="white" stroke-width="2.11494" stroke-linecap="round"/>
<path d="M30.9531 37.8851H39.6888H30.9531Z" fill="white"/>
<path d="M30.9531 37.8851H39.6888" stroke="white" stroke-width="2.11494" stroke-linecap="round"/>
<path d="M44.7461 37.8851H53.4817H44.7461Z" fill="white"/>
<path d="M44.7461 37.8851H53.4817" stroke="white" stroke-width="2.11494" stroke-linecap="round"/>
<path d="M58.5391 37.8851H67.2747H58.5391Z" fill="white"/>
<path d="M58.5391 37.8851H67.2747" stroke="white" stroke-width="2.11494" stroke-linecap="round"/>
<path d="M72.332 37.8851H81.0677H72.332Z" fill="white"/>
<path d="M72.332 37.8851H81.0677" stroke="white" stroke-width="2.11494" stroke-linecap="round"/>
<path d="M86.125 37.8851H94.8606H86.125Z" fill="white"/>
<path d="M86.125 37.8851H94.8606" stroke="white" stroke-width="2.11494" stroke-linecap="round"/>
<path d="M99.9199 37.8851H108.656H99.9199Z" fill="white"/>
<path d="M99.9199 37.8851H108.656" stroke="white" stroke-width="2.11494" stroke-linecap="round"/>
<path d="M113.713 37.8851H122.449H113.713Z" fill="white"/>
<path d="M113.713 37.8851H122.449" stroke="white" stroke-width="2.11494" stroke-linecap="round"/>
<path d="M127.506 37.8851H136.241H127.506Z" fill="white"/>
<path d="M127.506 37.8851H136.241" stroke="white" stroke-width="2.11494" stroke-linecap="round"/>
<path d="M141.297 37.8851H150.033H141.297Z" fill="white"/>
<path d="M141.297 37.8851H150.033" stroke="white" stroke-width="2.11494" stroke-linecap="round"/>
<path d="M155.092 37.8851H163.827H155.092Z" fill="white"/>
<path d="M155.092 37.8851H163.827" stroke="white" stroke-width="2.11494" stroke-linecap="round"/>
<path d="M78.8622 1.10339V12.3678C78.0122 11.0767 76.8504 10.0207 75.4843 9.29745C74.1182 8.57419 72.5917 8.20701 71.0461 8.22983C68.1956 8.22983 65.8048 9.24133 63.7818 11.2643C62.8271 12.2239 62.0748 13.3654 61.5693 14.6211C61.0639 15.8769 60.8156 17.2212 60.8392 18.5747C60.8392 21.5172 61.8507 23.954 63.8277 25.977C65.7588 28.0459 68.1956 29.0574 70.9542 29.0574C72.5634 29.0574 74.0346 28.6896 75.368 28.0919C76.6553 27.4022 77.8507 26.4367 78.9082 25.1494V28.5517H81.4369V1.10339H78.8622ZM12.1956 7.99995C10.8162 7.99995 9.43694 8.36776 8.14958 9.14937C7.06392 9.88989 6.14086 10.8442 5.43694 11.954V8.50569H2.9082V28.5517H5.43694V20.0459C5.43694 17.5172 5.7128 15.6781 6.17257 14.4367C6.62658 13.2731 7.40935 12.2667 8.42544 11.5402C9.43694 10.8505 10.5404 10.4827 11.6898 10.4827C12.7013 10.4827 13.5749 10.7586 14.3565 11.2643C15.0813 11.7733 15.6281 12.497 15.9197 13.3333C16.1956 14.2528 16.3335 15.862 16.3335 18.2988V28.5517H18.8622V20.7356C18.8622 17.839 19.0921 15.7701 19.5519 14.5287C20.0117 13.3333 20.7933 12.3218 21.8048 11.5862C22.8162 10.8505 23.9197 10.4827 25.1611 10.4827C26.1726 10.4827 27.0002 10.7126 27.7358 11.2183C28.4714 11.6781 28.9772 12.3678 29.299 13.1494C29.6208 13.977 29.7588 15.4482 29.7588 17.6091V28.5517H32.3335V17.6551C32.3335 15.1724 32.1036 13.2413 31.5979 11.9999C31.1401 10.7952 30.3188 9.76282 29.2477 9.04604C28.1767 8.32927 26.9091 7.96366 25.6208 7.99995C24.1956 7.99995 22.8622 8.45972 21.5749 9.24133C20.3335 10.0689 19.276 11.2643 18.4025 12.8275C18.0346 11.6781 17.5289 10.7586 17.0231 10.1149C16.4493 9.4477 15.7241 8.92748 14.9082 8.59765C14.0346 8.18385 13.1611 7.99995 12.1496 7.99995H12.1956ZM46.8162 7.99995C43.8277 7.99995 41.345 9.10339 39.4599 11.3563C37.6627 13.3282 36.6773 15.9067 36.7013 18.5747C36.7013 21.3333 37.6208 23.816 39.5519 25.931C41.391 27.9999 43.8277 29.0574 46.7703 29.0574C48.1334 29.097 49.4883 28.8328 50.7367 28.2842C51.9852 27.7355 53.096 26.916 53.9887 25.885C55.8245 23.8968 56.8282 21.2805 56.7933 18.5747C56.7933 15.816 55.9197 13.3793 54.1266 11.3103C53.2262 10.2401 52.099 9.38372 50.8266 8.8032C49.5543 8.22269 48.1687 7.9326 46.7703 7.95397L46.8162 7.99995ZM96.2415 7.99995C93.0231 7.99995 90.4484 9.24133 88.4714 11.7701C86.9542 13.7471 86.2185 15.9999 86.2185 18.5747C86.2185 21.2873 87.1381 23.6781 88.9312 25.839C89.8438 26.9094 90.9899 27.7562 92.2812 28.3142C93.5724 28.8721 94.9745 29.1264 96.3795 29.0574C98.9367 29.0942 101.409 28.1383 103.276 26.3908C104.196 25.5632 105.023 24.4137 105.667 23.0344L103.598 21.885C102.816 23.2183 102.127 24.1839 101.437 24.7356C99.9624 25.9913 98.0863 26.6764 96.1496 26.6666C94.1266 26.6666 92.3795 25.931 91.0002 24.4597C89.5749 22.9425 88.8392 21.0574 88.7933 18.7126H106.356C106.356 15.954 105.621 13.6551 104.196 11.816C103.274 10.5881 102.069 9.60024 100.685 8.93601C99.3004 8.27178 97.7763 7.95071 96.2415 7.99995ZM117.759 7.99995C116.793 7.99995 115.874 8.27581 115 8.82753C113.974 9.51901 113.099 10.4104 112.425 11.4482V8.45972H109.759V28.5057H112.425V21.7931C112.425 18.2988 112.609 15.954 112.931 14.8505C113.391 13.3333 113.989 12.2298 114.77 11.5402C115.462 10.8722 116.383 10.4939 117.345 10.4827C117.667 10.4827 118.127 10.5747 118.724 10.8505L120.104 8.64362C119.23 8.18385 118.494 7.95397 117.759 7.95397V7.99995ZM132.931 7.99995C131.46 7.99995 130.127 8.32178 128.885 9.01144C127.556 9.78221 126.411 10.8334 125.529 12.0919V8.45972H123V28.5057H125.529V21.1494C125.529 18.5287 125.667 16.6896 125.897 15.6781C126.265 14.1609 127.092 12.9195 128.288 11.862C129.529 10.8045 130.908 10.2988 132.425 10.2988C133.805 10.2988 134.862 10.6666 135.644 11.3103C136.543 12.0772 137.144 13.1345 137.345 14.2988C137.575 15.0804 137.667 16.5976 137.667 18.9425V28.5057H140.196V18.2528C140.196 15.4942 139.92 13.4712 139.368 12.1839C138.816 10.8965 137.989 9.885 136.839 9.10339C135.682 8.33549 134.32 7.93487 132.931 7.95397V7.99995ZM154.54 7.99995C151.828 7.99995 149.483 9.01144 147.552 11.0344C146.599 12.0141 145.848 13.1722 145.343 14.4424C144.838 15.7126 144.589 17.07 144.609 18.4367C144.551 21.2186 145.592 23.9113 147.506 25.931C148.457 26.976 149.631 27.7949 150.94 28.3276C152.249 28.8604 153.66 29.0934 155.071 29.0096C156.482 28.9258 157.856 28.5274 159.093 27.8436C160.329 27.1597 161.398 26.2077 162.219 25.0574V28.5517H164.701V8.45972H162.265V12.1379C161.406 10.8189 160.238 9.72984 158.862 8.96546C157.556 8.29303 156.101 7.96095 154.632 7.99995H154.54ZM96.2415 10.4367C97.4369 10.4367 98.5404 10.7126 99.5519 11.2183C100.655 11.6781 101.483 12.3678 102.127 13.1953C102.724 14.0229 103.23 15.0804 103.598 16.4597H89.0231C89.5749 14.6206 90.3105 13.2413 91.322 12.3218C92.7013 11.0804 94.3565 10.4827 96.2415 10.4827V10.4367ZM154.77 10.4367C156.931 10.4367 158.724 11.2183 160.242 12.7816C161.667 14.3448 162.402 16.2758 162.402 18.6206C162.402 20.1379 162.081 21.5172 161.483 22.7126C160.822 23.9038 159.857 24.8977 158.685 25.5926C157.514 26.2874 156.178 26.6581 154.816 26.6666C153.437 26.6666 152.15 26.2988 150.954 25.6091C149.194 24.4404 147.932 22.6585 147.413 20.6102C146.895 18.5619 147.157 16.3941 148.15 14.5287C148.775 13.311 149.724 12.2893 150.891 11.5755C152.059 10.8617 153.401 10.4836 154.77 10.4827V10.4367ZM46.7243 10.5287C48.7933 10.5287 50.5864 11.3103 52.0576 12.8735C53.2514 14.1774 54.0117 15.8191 54.234 17.5729C54.4563 19.3266 54.1297 21.1061 53.299 22.6666C52.6848 23.8665 51.7488 24.8719 50.5958 25.5702C49.4428 26.2685 48.1182 26.6322 46.7703 26.6206C45.4223 26.6322 44.0978 26.2685 42.9448 25.5702C41.7917 24.8719 40.8558 23.8665 40.2415 22.6666C39.5756 21.4221 39.2281 20.0321 39.23 18.6206C39.23 16.3678 39.9657 14.4827 41.4369 12.8735C42.9082 11.3103 44.6553 10.5287 46.7703 10.5287H46.7243ZM71.1841 10.6666C72.2301 10.6662 73.2656 10.8757 74.2292 11.2828C75.1928 11.6899 76.0649 12.2862 76.7938 13.0366C77.5227 13.7869 78.0935 14.6759 78.4725 15.6509C78.8515 16.6258 79.0309 17.667 79.0002 18.7126C79.0218 20.141 78.6734 21.5507 77.9887 22.8045C77.2717 23.9832 76.2668 24.9603 75.0684 25.6439C73.8701 26.3275 72.5176 26.6953 71.1381 26.7126C69.7542 26.6969 68.3993 26.3141 67.2118 25.6033C66.0244 24.8924 65.0469 23.879 64.3795 22.6666C63.6948 21.4446 63.3353 20.0673 63.3353 18.6666C63.3353 17.2659 63.6948 15.8886 64.3795 14.6666C65.0453 13.4463 66.03 12.4297 67.2284 11.7253C68.4268 11.0208 69.794 10.6549 71.1841 10.6666ZM168.425 10.0689H168.793C168.977 10.0689 169.115 10.0689 169.161 9.97696C169.253 9.97696 169.299 9.885 169.299 9.79305L169.207 9.65512C169.207 9.56316 169.207 9.56316 169.115 9.51719H168.425V10.0689ZM168.15 11.1264V9.2873H169.253C169.391 9.33328 169.483 9.42523 169.529 9.51719L169.621 9.74707C169.621 9.93098 169.529 10.0229 169.483 10.1149C169.349 10.2171 169.19 10.2807 169.023 10.2988L169.207 10.3908L169.483 10.7586L169.713 11.1264H169.345L169.207 10.8045L168.885 10.3448H168.471V11.1264H168.15ZM168.885 8.6896C168.655 8.6896 168.425 8.73558 168.196 8.91949C167.966 9.01144 167.782 9.19535 167.69 9.42523C167.551 9.64547 167.477 9.90051 167.477 10.1609C167.477 10.4212 167.551 10.6763 167.69 10.8965C167.782 11.1264 167.966 11.3103 168.196 11.4022C168.425 11.5862 168.655 11.6321 168.885 11.6321C169.161 11.6321 169.391 11.5862 169.621 11.4022C169.851 11.3103 170.081 11.1264 170.173 10.8965C170.265 10.6666 170.356 10.4367 170.356 10.1609C170.356 9.93098 170.265 9.7011 170.173 9.42523C170.039 9.20902 169.848 9.034 169.621 8.91949C169.391 8.73558 169.161 8.6896 168.885 8.6896ZM168.885 8.45972C169.207 8.45972 169.483 8.50569 169.759 8.64362C170.035 8.78155 170.219 9.01144 170.402 9.2873C170.586 9.56316 170.632 9.83903 170.632 10.2068C170.632 10.4827 170.586 10.7586 170.402 11.0344C170.265 11.3103 170.035 11.4942 169.759 11.6781C169.491 11.8262 169.191 11.9052 168.885 11.908C168.609 11.908 168.333 11.816 168.058 11.6781C167.782 11.5402 167.598 11.3103 167.414 11.0344C167.276 10.7586 167.184 10.4827 167.184 10.1609C167.184 9.83903 167.276 9.56316 167.414 9.2873C167.598 9.01144 167.782 8.82753 168.058 8.64362C168.333 8.50569 168.655 8.45972 168.885 8.45972Z" fill="white"/>
</g>
</svg>
