<svg width="296" height="49" viewBox="0 0 296 49" fill="none" xmlns="http://www.w3.org/2000/svg">
<g clip-path="url(#clip0_1728_38289)">
<path d="M29.54 21.67L29.42 21.98C31.42 22.86 35.91 26.35 35.91 33.38C35.91 40 30.33 46.67 21.56 46.67C10.65 46.67 6.89 40.29 6.89 34.43C6.89 26.92 12.14 21.92 12.14 15.08C12.1114 12.6609 11.2631 10.323 9.73364 8.44843C8.20422 6.57389 6.08417 5.27358 3.72 4.76001L3.54 5.07001C4.39736 5.90191 5.07763 6.89861 5.53991 8.00017C6.00219 9.10173 6.23692 10.2854 6.23 11.48C6.23 18.87 0 24.12 0 32.6C0 40.41 5.46 48.37 21.27 48.37C35.36 48.37 42.79 41.47 42.79 34.13C42.78 27.83 38.27 22.5 29.54 21.67Z" fill="white"/>
<path d="M91.4402 47.11L72.7102 22.96V44.73L76.5302 45.64V46.64H67.8202V45.64L70.9402 44.73V21.01C70.1808 20.3022 69.2665 19.7817 68.2702 19.49C67.8902 19.41 67.3802 19.32 67.3802 19.32V18.32H74.7702L90.7702 39.12V20.25L86.9501 19.33V18.33H95.6602V19.33L92.5402 20.25V41.84C92.5402 43.84 92.6802 46.75 92.7102 47.12L91.4402 47.11ZM130.6 31.73C130.6 41.73 123.6 47.53 115.95 47.53C108.3 47.53 101.27 41.65 101.27 32.51C101.27 23.37 108.27 17.43 115.88 17.43C117.796 17.3668 119.704 17.6906 121.492 18.3821C123.279 19.0737 124.909 20.1187 126.283 21.4547C127.658 22.7907 128.748 24.3901 129.49 26.1574C130.232 27.9247 130.609 29.8234 130.6 31.74V31.73ZM125.73 33.23C125.73 25.88 121.33 18.75 115.35 18.75C108.99 18.75 106.12 24.9 106.12 31.48C106.12 38.06 109.75 46.22 116.58 46.22C123 46.22 125.73 39.72 125.73 33.23ZM136.65 20.23L133.65 19.31V18.31H145.14V19.31L141.54 20.23L149.47 41.85L157.4 20.23L153.8 19.31V18.31H162.3V19.31L159.3 20.23L149.37 47.18H146.83L136.65 20.23ZM204.55 32.18H202.73V19.8C208.73 19.8 212.3 21.18 212.3 26.08C212.27 29.72 209.15 32.18 204.55 32.18ZM255.96 45.64L259.96 44.73V20.24L255.96 19.32V18.32H268.43V19.32L264.43 20.24V44.73L268.43 45.64V46.64H255.96V45.64ZM276.07 38.86H276.86L279.51 44.96C281.086 45.7513 282.818 46.1817 284.58 46.22C288.02 46.22 291.16 44.22 291.16 40.64C291.16 37.92 289.4 36.3 286.55 34.81L283.73 33.35C280.36 31.6 276.99 29.12 276.99 25.13C276.99 20.79 279.99 17.44 286.41 17.44C288.666 17.4629 290.905 17.8305 293.05 18.53L293.72 25.09H292.87L290.42 19.83C289.152 19.1217 287.723 18.7498 286.27 18.75C283.02 18.75 280.81 20.75 280.81 23.52C280.81 26.03 282.48 27.61 285.34 29.09L288.68 30.83C293.24 33.19 295.4 35.38 295.4 39.43C295.4 44.43 290.71 47.54 284.88 47.54C282.135 47.5818 279.403 47.173 276.79 46.33L276.07 38.86ZM160.47 45.64L163.68 44.73L173.59 18.3L176.9 17.45L187.13 44.72L190.34 45.64V46.64H178.2V45.64L182.31 44.72L179.41 36.88H168.51L165.63 44.72L169.74 45.63V46.63H160.47V45.64ZM169.27 34.79H178.7L174.02 22.15L169.27 34.79ZM210.27 32.79C211.27 32.54 216.88 31.11 216.88 25.79C216.88 21.52 213.61 18.21 205.55 18.21C200.55 18.21 195.55 18.32 194.92 18.34V19.34L198.21 20.26V44.72L194.92 45.64V46.64H206.56V45.64L202.74 44.72V33.66H206.03L214.44 46.66H221.89V45.66L218.12 44.66L210.27 32.79ZM234.85 19.79V44.73L230.85 45.64V46.64H243.32V45.64L239.32 44.73V19.8H246.05L248.27 24.58H249.13L248.49 18.35H225.68L225.04 24.58H225.9L228.1 19.85L234.85 19.79ZM21.4602 37.79L25.4602 0H17.1602L21.1602 37.79H21.4602Z" fill="white"/>
</g>
<defs>
<clipPath id="clip0_1728_38289">
<rect width="295.44" height="48.31" fill="white"/>
</clipPath>
</defs>
</svg>
