<svg width="100" height="42" viewBox="0 0 100 42" fill="none" xmlns="http://www.w3.org/2000/svg">
<g clip-path="url(#clip0_57_870)">
<path d="M1.94861 16.5441C3.12852 12.1879 8.04278 11.1511 12.5673 11.023C16.2868 10.9177 20.4339 11.4144 20.4339 11.4144L18.4853 18.6088C18.4853 18.6088 14.3381 18.1121 10.6187 18.2174C6.0942 18.3455 1.17992 19.3823 0 23.7385L1.94861 16.5441Z" fill="white"/>
<path d="M64.5571 8.88458C58.6006 8.88462 57.0747 14.706 56.2207 17.8589L49.858 41.3461H53.5701L59.2113 20.5202H63.0668L60.5002 29.9967H64.2123L67.2905 18.6321H59.7231C60.1108 17.1997 60.5243 15.6737 60.8613 14.4294C61.4837 12.1315 62.5004 10.4627 63.9789 10.5189C65.613 10.5809 64.7814 11.6645 64.5576 12.4906C64.2481 13.6336 65.0839 14.7829 66.5483 14.7829C69.7291 14.7829 70.5135 8.88458 64.5571 8.88458ZM43.4996 12.9943V12.9945L38.8945 29.9967H42.7645L44.4697 23.7006H47.8313C51.5405 23.7006 54.002 21.6333 54.6676 18.7597C55.2891 16.0766 53.7373 12.9944 49.5809 12.9944C47.5537 12.9944 45.5269 12.9943 43.4996 12.9943ZM46.8277 14.9951H48.3156C49.8734 14.9951 51.1094 16.2544 50.8109 18.4459C50.5343 20.4774 48.3498 21.6951 46.4451 21.6951H45.0129L46.8277 14.9951ZM83.5254 18.2879C80.2715 18.2879 77.9243 21.1147 77.361 23.9398C76.8197 26.6546 78.3613 30.2622 82.6057 30.2622C85.6223 30.2622 87.1395 28.9208 87.1395 28.9208L86.4452 27.1901C86.4452 27.1901 85.1769 28.2324 83.4098 28.2324C81.6427 28.2324 80.5341 26.8238 80.7793 24.5791H87.9955C88.5114 23.2572 88.7939 18.2879 83.5254 18.2879ZM97.9094 18.4408C95.4892 18.4408 94.0624 20.9646 94.0624 20.9646L94.694 18.6323H90.9819L87.9038 29.9967H91.6159C91.6159 29.9967 92.5098 26.6764 92.9647 25.0187C93.667 22.4275 95.0993 20.8049 95.7879 20.7385C96.5838 20.6618 96.5076 22.5983 98.0596 22.5983C100.414 22.5983 100.922 18.4408 97.9098 18.4408H97.9094ZM68.6891 18.6323L68.1776 20.5206H72.8828L65.4858 29.9967H75.9315L76.4428 28.1084H71.135L78.5319 18.6323H68.6891ZM83.5116 20.1644V20.1646C85.5298 20.1646 85.0705 22.8557 85.0705 22.8557L81.0274 22.8462C81.0274 22.8462 81.6979 20.1644 83.5116 20.1644Z" fill="white"/>
<path d="M30.1837 30.0232C16.8717 29.1849 1.40201 22.2509 1.94807 16.5441L0.111417 23.3253C-0.445703 29.1477 13.9046 36.0605 28.2351 37.2176L30.1837 30.0232Z" fill="white"/>
<path d="M35.0204 20.6735C33.8405 25.0297 28.9262 26.0665 24.4017 26.1946C20.6823 26.2999 16.5352 25.8032 16.5352 25.8032L18.4838 18.6088C18.4838 18.6088 22.6309 19.1054 26.3504 19.0002C30.8748 18.8721 35.7891 17.8353 36.969 13.479L35.0204 20.6735Z" fill="white"/>
<path d="M6.78711 7.19442C20.0991 8.03269 35.5688 14.9667 35.0227 20.6735L36.8594 13.8923C37.4165 8.06986 23.0662 1.15706 8.73571 0L6.78711 7.19442Z" fill="white"/>
</g>
<defs>
<clipPath id="clip0_57_870">
<rect width="100" height="41.3462" fill="white"/>
</clipPath>
</defs>
</svg>
