<svg width="230" height="40" viewBox="0 0 230 40" fill="none" xmlns="http://www.w3.org/2000/svg">
<g clip-path="url(#clip0_57_949)">
<path fill-rule="evenodd" clip-rule="evenodd" d="M226.834 14.6231H227.085C227.386 14.6231 227.587 14.5226 227.587 14.2714C227.587 14.0704 227.437 13.9196 227.085 13.9196C226.934 13.9196 226.834 13.9196 226.783 13.9699V14.6231H226.834ZM226.281 15.9297V13.6684C226.482 13.6181 226.783 13.5679 227.135 13.5679C227.587 13.5679 227.738 13.6181 227.939 13.7689C228.04 13.8694 228.14 14.0704 228.14 14.2714C228.14 14.5226 227.939 14.7236 227.688 14.7739V14.8242C227.889 14.8744 228.04 15.0754 228.09 15.3769C228.14 15.7287 228.19 15.8292 228.241 15.9297H227.688C227.638 15.8292 227.587 15.6282 227.487 15.3769C227.437 15.1257 227.286 15.0252 227.035 15.0252H226.783V15.9297H226.281ZM225.427 14.7236C225.427 15.7287 226.18 16.5327 227.185 16.5327C228.19 16.5327 228.944 15.7287 228.944 14.7236C228.944 13.7186 228.19 12.9146 227.185 12.9146C226.18 12.9146 225.427 13.7186 225.427 14.7236ZM229.497 14.7236C229.497 16.0302 228.492 16.985 227.185 16.985C225.879 16.985 224.824 15.9799 224.824 14.7236C224.824 13.4674 225.879 12.4623 227.185 12.4623C228.492 12.4623 229.497 13.4674 229.497 14.7236ZM94.0195 21.3066C95.7783 21.3066 96.8838 20.7538 96.8838 18.9448C96.8838 17.1357 95.929 16.6332 94.2205 16.6332H92.9642V21.3066H94.0195ZM102.512 30.7035H97.5873L95.4265 25.8292C95.1753 25.2262 94.7732 24.8744 94.12 24.8242H92.9642V30.7035H88.3913V13.0151H94.924C99.0948 13.0151 101.658 14.9749 101.658 18.6432C101.658 21.0553 100.653 22.7136 98.9441 23.7186C99.3964 23.9699 99.8486 24.4724 100.1 25.0754L102.512 30.7035ZM104.823 30.7538H116.582V26.7839H109.396V23.7689H115.427V19.799H109.396V17.0855H116.432V13.0654H104.823V30.7538ZM71.1049 13.0654V24.8744C71.1049 29.196 73.4667 31.0553 78.0898 31.0553C82.2607 31.0553 85.1753 28.8945 85.1753 25.2764V13.0654H80.6024V24.7739C80.6024 26.4322 79.5974 27.2865 78.2406 27.2865C76.7833 27.2865 75.728 26.6834 75.728 24.6734V13.0654H71.1049ZM59.7481 21.3066V16.6332H61.0044C62.6627 16.6332 63.6677 17.1357 63.6677 18.9448C63.6677 20.8041 62.5622 21.3066 60.8034 21.3066H59.7481ZM59.7481 24.8744H61.1049C65.3763 24.8744 68.3913 22.8141 68.3913 18.6935C68.3913 15.0252 65.8788 13.0654 61.6577 13.0654H55.125V30.7538H59.6979V24.8744H59.7481ZM171.004 22.5126C173.818 22.5126 175.829 21.4573 175.829 18.6432C175.829 15.1257 173.718 14.7739 170.653 14.7739H168.341V22.5126H171.004ZM178.542 30.7035H176.281L174.019 25.8292C173.567 24.8744 173.065 24.1709 171.959 24.1709H172.009C171.808 24.1709 171.607 24.1709 171.356 24.1709H168.341V30.7035H166.231V13.0654H172.009C175.728 13.0654 177.989 14.8744 177.989 18.3417C177.989 21.0051 176.783 22.7136 174.823 23.6181C175.376 23.9196 175.628 24.3719 176.03 25.2262L178.542 30.7035ZM213.215 30.7538H223.316V28.9448H215.326V22.6131H222.06V20.8041H215.326V14.8744H223.165V13.0654H213.215V30.7538ZM209.597 21.3066H203.467V23.1156H207.487V28.392C206.834 28.8443 205.276 29.3468 203.869 29.3468C199.999 29.3468 198.291 26.5327 198.291 21.7588C198.291 17.2865 200.301 14.5729 203.668 14.5729C205.577 14.5729 206.934 15.4272 208.14 16.8342L209.648 15.6282C207.839 13.3166 205.527 12.7638 203.718 12.7638C200.15 12.7638 196.18 15.0754 196.18 21.9598C196.18 28.1407 199.045 31.1056 203.718 31.1056C206.03 31.1056 208.14 30.4523 209.597 29.4975V21.3066ZM187.688 14.9247L190.703 23.5679H184.723L187.688 14.9247ZM182.311 30.7538L184.22 25.3267H191.205L193.165 30.7538H195.376L188.994 13.0654H186.482L180.251 30.7538H182.311ZM155.778 29.2463C151.356 29.2463 150.401 25.3267 150.401 21.8091C150.401 18.191 151.859 14.4724 155.728 14.4724C159.798 14.4724 160.854 18.794 160.854 21.9598C160.854 25.6282 159.648 29.2463 155.778 29.2463ZM155.527 31.0553C160.1 31.0553 162.964 28.0402 162.964 21.9096C162.964 15.1257 159.648 12.7136 155.778 12.7136C152.16 12.7136 148.19 15.0754 148.19 21.9096C148.241 27.99 150.954 31.0553 155.527 31.0553ZM134.271 13.0654V14.8744H139.547V30.7538H141.658V14.8744H147.035V13.0654H134.271ZM121.356 27.6885C122.16 28.2412 124.07 29.196 126.18 29.196C127.989 29.196 129.899 28.6432 129.899 25.9297C129.899 23.8191 128.04 23.1156 125.879 22.5126C123.316 21.8091 120.803 20.8543 120.803 17.588C120.803 14.6231 123.115 12.7136 126.432 12.7136C128.844 12.7136 130.954 13.8191 132.21 15.0754L131.055 16.4824C129.648 15.2764 128.14 14.5226 126.432 14.5226C124.924 14.5226 123.014 15.1759 123.014 17.387C123.014 19.4975 124.823 20.1005 127.135 20.8041C129.597 21.5578 132.11 22.5126 132.11 25.8794C132.11 29.196 129.849 31.0553 126.13 31.0553C123.567 31.0553 121.205 30 120.452 29.4473L121.356 27.6885Z" fill="white"/>
<path fill-rule="evenodd" clip-rule="evenodd" d="M23.8693 40H14.0201C11.9598 40 10.1005 38.8945 9.04523 37.1357L0.753769 22.8643C-0.251256 21.1055 -0.251256 18.9447 0.753769 17.1859L9.04523 2.86432C10.0503 1.10553 11.9598 0 14.0201 0H30.603C32.6633 0 34.5226 1.10553 35.5779 2.86432L43.8694 17.1859C44.8744 18.9447 44.8744 21.1055 43.8694 22.8643L41.7085 26.2312C40.7035 27.9397 38.794 29.0452 36.7839 29.0452H26.8844L32.2613 20L27.2864 11.407H17.2864L12.3116 20L23.8693 40Z" fill="white"/>
</g>
<defs>
<clipPath id="clip0_57_949">
<rect width="229.497" height="40" fill="white"/>
</clipPath>
</defs>
</svg>
