<svg width="66" height="82" viewBox="0 0 66 82" fill="none" xmlns="http://www.w3.org/2000/svg">
<path fill-rule="evenodd" clip-rule="evenodd" d="M3.77437 70.233V5.3095C3.77437 5.3095 4.00124 1.681 2.06249 0.451003V3.16966e-06H27.225C29.4171 -0.000899934 31.6051 0.191184 33.7631 0.574003C36.9483 1.13512 39.9138 2.56526 42.3286 4.7047C44.7433 6.84414 46.5121 9.60866 47.4375 12.6895C48.4115 15.8463 48.6316 19.1853 48.0802 22.4414C47.5289 25.6976 46.2213 28.781 44.2612 31.447C42.3644 33.8807 40.1362 36.0402 37.6406 37.8635C37.0837 38.253 36.7537 38.458 36.1762 38.827C39.5063 43.8271 42.2142 49.21 44.2406 54.858C45.969 59.7891 47.2731 64.8571 48.1387 70.0075C48.675 74.2715 49.9537 74.702 50.2012 74.784V75.2555H35.145V74.784C35.5987 74.538 39.6825 72.734 39.7031 66.4405C39.5322 61.1161 38.4439 55.8603 36.4856 50.9015C35.2507 47.5051 33.7829 44.1968 32.0925 41C29.1921 42.1597 26.1882 43.0452 23.1206 43.6445C21.1612 44.0135 19.1812 44.321 16.7269 44.5875C14.2725 44.854 12.6019 44.977 11.2612 45.059V70.274C11.2612 70.8275 11.4056 73.8 13.3237 74.825V75.2965H1.71187V74.825C3.58874 73.841 3.77437 70.8275 3.77437 70.274M27.555 4.264H11.1994V40.385C14.7416 40.1948 18.2572 39.6662 21.6975 38.8065C33.6187 35.301 39.3112 27.0395 39.3937 17.302C39.3937 11.644 37.3312 8.1795 35.2687 6.3345C33.9312 5.31122 32.3437 4.66026 30.6694 4.4485C29.665 4.30969 28.6514 4.248 27.6375 4.264M25.9875 44.116V47.929C28.5894 47.7716 31.1792 47.4567 33.7425 46.986C34.4437 48.585 35.0625 50.102 35.4956 51.2705V51.4345C34.1962 51.66 32.8144 51.8445 31.3706 52.0085C29.3081 52.2545 27.2456 52.3775 26.0287 52.4595V77.0595C26.0287 77.5925 26.1525 80.5035 28.0912 81.508V82H16.6856V81.549C18.5212 80.5855 18.7481 77.6335 18.7481 77.1005V45.428C21.1962 45.1164 23.6264 44.6784 26.0287 44.116M41.0231 44.608C44.7957 42.9755 48.0018 40.2763 50.2425 36.8463C52.4832 33.4163 53.6595 29.407 53.625 25.3175C53.625 19.762 51.7069 16.4 49.5 14.555L49.1081 14.35C48.9431 13.694 48.7781 13.0585 48.5719 12.4435C48.1525 11.1991 47.6281 9.99216 47.0044 8.8355C47.3962 8.8355 47.7675 8.9585 48.1181 9.02C51.2394 9.57609 54.1454 10.9789 56.5149 13.0736C58.8843 15.1682 60.6252 17.8732 61.545 20.8895C62.5077 23.9934 62.7275 27.2779 62.1868 30.4812C61.646 33.6845 60.3598 36.7179 58.4306 39.3395C56.5679 41.7197 54.3814 43.8309 51.9337 45.6125C51.3975 46.002 51.0675 46.207 50.5106 46.576C53.771 51.4716 56.4169 56.745 58.3894 62.279C60.0809 67.1133 61.3709 72.0772 62.2462 77.121C62.7412 81.221 63.9994 81.631 64.3087 81.713V82H49.5V81.549C49.9537 81.3235 53.955 79.6835 53.9756 73.472C53.8256 68.2527 52.7648 63.099 50.8406 58.2405C49.5872 54.9246 48.1198 51.6925 46.4475 48.5645C45.705 48.8925 44.6325 49.2615 43.4569 49.651C42.6937 47.888 41.91 46.289 41.0231 44.6695M37.6819 12.5255H25.9875V35.9775C24.494 36.6735 22.9496 37.256 21.3675 37.72C20.4922 37.9771 19.6041 38.1892 18.7069 38.3555V13.5505C18.7069 13.5505 18.9131 10.004 16.9125 8.7945V8.3435H35.6194C36.5836 9.55443 37.2857 10.9503 37.6819 12.4435" fill="white"/>
</svg>
