<svg width="140" height="97" viewBox="0 0 140 97" fill="none" xmlns="http://www.w3.org/2000/svg">
<path fill-rule="evenodd" clip-rule="evenodd" d="M58.2596 10.5793C62.7748 5.92245 69.0608 3.03412 76.0129 3.03412C85.2545 3.03412 93.3174 8.1352 97.6113 15.7079C101.343 14.0577 105.473 13.1396 109.818 13.1396C126.487 13.1396 140 26.6328 140 43.2765C140 59.9221 126.487 73.4153 109.818 73.4153C107.822 73.4165 105.83 73.2201 103.873 72.829C100.092 79.5054 92.8867 84.0163 84.6163 84.0163C81.1542 84.0163 77.8795 83.2248 74.9639 81.8172C71.1308 90.7421 62.2004 97 51.792 97C40.953 97 31.7154 90.2111 28.1696 80.6899C26.62 81.0156 25.0146 81.1854 23.3672 81.1854C10.4622 81.1856 0 70.7227 0 57.814C0 49.1634 4.70058 41.6103 11.6846 37.5693C10.2468 34.2944 9.44699 30.6797 9.44699 26.8794C9.44699 12.0341 21.6222 0 36.6394 0C45.4561 0 53.2918 4.14959 58.2596 10.5793ZM20.2763 50.3018C20.2036 50.4897 20.2731 50.5546 20.3151 50.5937C20.3238 50.6019 20.3313 50.6089 20.3361 50.6157C20.5446 50.7658 20.7558 50.8826 20.9685 51.0002L20.9688 51.0005C21.0244 51.0312 21.0801 51.062 21.1359 51.0934C22.5638 51.8435 23.9121 52.0626 25.322 52.0626C28.1938 52.0626 29.9766 50.5505 29.9766 48.1163V48.069C29.9766 45.8184 27.9645 45.0012 26.0758 44.4109L25.8306 44.332L25.8282 44.3312C24.4052 43.8735 23.1781 43.4788 23.1781 42.5514V42.5021C23.1781 41.7085 23.8961 41.1241 25.0089 41.1241C26.2454 41.1241 27.7132 41.5308 28.6585 42.048C28.6585 42.048 28.9357 42.2257 29.0374 41.9592C29.0932 41.817 29.5719 40.5417 29.6218 40.4035C29.6756 40.2534 29.5799 40.1429 29.4822 40.0836C28.4033 39.4342 26.9115 38.99 25.368 38.99L25.0808 38.9919C22.4523 38.9919 20.6176 40.5634 20.6176 42.8158V42.8632C20.6176 45.238 22.6418 46.0079 24.5385 46.5449L24.8436 46.6377L24.8478 46.639C26.2281 47.0589 27.4163 47.4204 27.4163 48.3828V48.4303C27.4163 49.3107 26.6425 49.9661 25.394 49.9661C24.9094 49.9661 23.3638 49.9562 21.6946 48.9118C21.5788 48.8448 21.4907 48.7883 21.4072 48.7348L21.4071 48.7347C21.3453 48.6951 21.2861 48.6571 21.22 48.6177C21.1383 48.5664 20.9328 48.4774 20.8431 48.746L20.2763 50.3018ZM62.318 50.3018C62.2454 50.4897 62.3149 50.5546 62.3568 50.5937C62.3655 50.6019 62.3731 50.6089 62.3779 50.6157C62.5862 50.7657 62.7971 50.8824 63.0095 50.9998L63.0103 51.0003C63.0659 51.0311 63.1217 51.0619 63.1775 51.0934C64.6054 51.8435 65.9538 52.0626 67.3636 52.0626C70.2354 52.0626 72.0184 50.5505 72.0184 48.1163V48.069C72.0184 45.8184 70.0061 45.0012 68.1174 44.4109L67.8722 44.332L67.8696 44.3312C66.4467 43.8735 65.2196 43.4787 65.2196 42.5514V42.5021C65.2196 41.7085 65.9376 41.1241 67.0504 41.1241C68.2869 41.1241 69.7547 41.5308 70.7001 42.048C70.7001 42.048 70.9773 42.2257 71.0789 41.9592C71.1347 41.817 71.6134 40.5417 71.6633 40.4035C71.7172 40.2534 71.6214 40.1429 71.5237 40.0836C70.4447 39.4342 68.9529 38.99 67.4094 38.99L67.1222 38.9919C64.4937 38.9919 62.659 40.5634 62.659 42.8158V42.8632C62.659 45.238 64.6832 46.0079 66.5798 46.5449L66.8849 46.6377L66.8919 46.6398C68.271 47.0594 69.4597 47.421 69.4597 48.3828V48.4303C69.4597 49.3107 68.6839 49.9661 67.4354 49.9661C66.9509 49.9661 65.4053 49.9562 63.7361 48.9118C63.5785 48.8206 63.471 48.7513 63.3592 48.6792C63.3281 48.6591 63.2966 48.6388 63.2635 48.6177C63.2115 48.5841 62.9683 48.4913 62.8845 48.746L62.318 50.3018ZM91.0189 45.5339C91.0189 46.9099 90.7596 47.9936 90.2491 48.7596C89.7444 49.5177 88.9807 49.8868 87.9159 49.8868C86.849 49.8868 86.0891 49.5196 85.5925 48.7596C85.0898 47.9957 84.8347 46.9099 84.8347 45.5339C84.8347 44.16 85.0898 43.0781 85.5925 42.32C86.0891 41.5699 86.849 41.2047 87.9159 41.2047C88.9808 41.2047 89.7446 41.5699 90.2512 42.32C90.7597 43.078 91.0189 44.1599 91.0189 45.5339ZM93.4161 42.9834C93.1807 42.1956 92.8138 41.5007 92.3252 40.9224C91.8366 40.3419 91.2184 39.8761 90.4844 39.5365C89.7524 39.199 88.887 39.0273 87.9159 39.0273C86.9426 39.0273 86.0771 39.199 85.3451 39.5365C84.6112 39.8761 83.9931 40.3421 83.5024 40.9224C83.0159 41.5028 82.6488 42.1976 82.4116 42.9834C82.1783 43.767 82.0605 44.6237 82.0605 45.5339C82.0605 46.444 82.1783 47.3027 82.4116 48.0844C82.6488 48.8702 83.0139 49.5651 83.5045 50.1454C83.9931 50.7258 84.6133 51.1897 85.3453 51.5193C86.0791 51.8491 86.9426 52.0168 87.916 52.0168C88.8872 52.0168 89.7507 51.8491 90.4845 51.5193C91.2165 51.1897 91.8366 50.7257 92.3254 50.1454C92.8139 49.567 93.1808 48.8721 93.4162 48.0844C93.6517 47.3008 93.7692 46.442 93.7692 45.5339C93.7692 44.6258 93.6514 43.767 93.4161 42.9834ZM113.101 49.5194C113.021 49.2884 112.796 49.3752 112.796 49.3752C112.447 49.5076 112.076 49.6299 111.681 49.6911C111.28 49.7521 110.84 49.7839 110.367 49.7839C109.206 49.7839 108.285 49.4424 107.625 48.7672C106.963 48.0921 106.592 47.0005 106.596 45.5238C106.6 44.1794 106.927 43.1685 107.515 42.3988C108.1 41.6329 108.989 41.2399 110.176 41.2399C111.165 41.2399 111.919 41.3524 112.708 41.5992C112.708 41.5992 112.898 41.6801 112.987 41.4354C113.037 41.2992 113.083 41.1722 113.128 41.0492L113.177 40.9156L113.177 40.9154C113.304 40.5695 113.424 40.2417 113.576 39.8126C113.64 39.6329 113.484 39.556 113.428 39.5342C113.117 39.4138 112.383 39.2184 111.829 39.1355C111.31 39.0566 110.704 39.0151 110.03 39.0151C109.023 39.0151 108.125 39.1849 107.358 39.5245C106.592 39.862 105.942 40.3278 105.427 40.9084C104.912 41.4888 104.522 42.1835 104.26 42.9692C104.001 43.7528 103.87 44.6136 103.87 45.5238C103.87 47.492 104.406 49.083 105.465 50.2478C106.526 51.4165 108.119 52.0107 110.198 52.0107C111.426 52.0107 112.686 51.764 113.592 51.4106C113.592 51.4106 113.765 51.3276 113.69 51.1284L113.101 49.5194ZM117.295 44.2158C117.409 43.4518 117.622 42.8161 117.952 42.3207C118.448 41.5685 119.206 41.156 120.271 41.156C121.336 41.156 122.04 41.5705 122.544 42.3207C122.88 42.8161 123.025 43.4796 123.083 44.2158H117.295ZM125.366 42.5357C125.163 41.7756 124.658 41.0077 124.327 40.6563C123.805 40.0996 123.294 39.7108 122.788 39.4935C122.126 39.2132 121.332 39.0277 120.462 39.0277C119.449 39.0277 118.53 39.1956 117.784 39.5429C117.036 39.8904 116.408 40.3643 115.915 40.9545C115.423 41.5427 115.052 42.2435 114.816 43.0391C114.579 43.8308 114.46 44.6935 114.46 45.6034C114.46 46.5294 114.583 47.3921 114.829 48.1678C115.076 48.9496 115.471 49.6385 116.005 50.209C116.538 50.7835 117.224 51.2337 118.045 51.5473C118.861 51.8593 119.852 52.0212 120.991 52.0191C123.334 52.0112 124.569 51.4941 125.077 51.2157C125.167 51.1664 125.253 51.0796 125.145 50.8308L124.615 49.36C124.535 49.1409 124.309 49.2218 124.309 49.2218C124.279 49.2328 124.249 49.2443 124.218 49.2561C124.196 49.2643 124.174 49.2727 124.151 49.2813C123.576 49.499 122.735 49.8177 120.979 49.8142C119.721 49.8122 118.787 49.445 118.203 48.8704C117.602 48.2822 117.309 47.4175 117.257 46.1975L125.372 46.2054C125.372 46.2054 125.586 46.2016 125.608 45.9961C125.608 45.9903 125.61 45.9779 125.613 45.9592C125.648 45.699 125.852 44.2248 125.366 42.5357ZM52.3075 44.2158C52.4231 43.4518 52.6346 42.8161 52.9637 42.3207C53.4602 41.5685 54.2181 41.156 55.283 41.156C56.3479 41.156 57.052 41.5705 57.5584 42.3207C57.8914 42.8161 58.037 43.4796 58.0949 44.2158H52.3075ZM60.3764 42.5357C60.173 41.7756 59.6705 41.0077 59.3395 40.6563C58.8169 40.0996 58.3064 39.7108 57.7999 39.4935C57.1377 39.2132 56.3441 39.0277 55.4745 39.0277C54.4634 39.0277 53.542 39.1956 52.7962 39.5429C52.0484 39.8904 51.4202 40.3643 50.9276 40.9545C50.435 41.5427 50.064 42.2435 49.8287 43.0391C49.5934 43.8308 49.4718 44.6935 49.4718 45.6034C49.4718 46.5294 49.5954 47.3921 49.8408 48.1678C50.0881 48.9496 50.483 49.6385 51.0174 50.209C51.5499 50.7835 52.2359 51.2337 53.0576 51.5473C53.8733 51.8593 54.8644 52.0212 56.0032 52.0191C58.3464 52.0112 59.5809 51.4941 60.0895 51.2157C60.1793 51.1664 60.265 51.0796 60.1573 50.8308L59.6289 49.36C59.547 49.1409 59.3218 49.2218 59.3218 49.2218C59.2709 49.2405 59.2181 49.2605 59.1628 49.2815C58.5884 49.4993 57.7485 49.8177 55.9893 49.8142C54.7329 49.8122 53.7996 49.445 53.2152 48.8704C52.6149 48.2822 52.3218 47.4175 52.2698 46.1975L60.3846 46.2054C60.3846 46.2054 60.5979 46.2016 60.6199 45.9961C60.6205 45.9902 60.6222 45.9774 60.6249 45.958L60.6249 45.9579C60.6611 45.6942 60.863 44.222 60.3764 42.5357ZM34.7674 49.4754C34.4503 49.2246 34.4064 49.1615 34.2988 48.9996C34.1392 48.7528 34.0575 48.4014 34.0575 47.9553C34.0575 47.2485 34.2928 46.7412 34.7815 46.3997C34.7756 46.4017 35.4795 45.7976 37.1347 45.8192C38.2973 45.8351 39.3363 46.0049 39.3363 46.0049V49.657H39.3383C39.3383 49.657 38.3072 49.876 37.1466 49.9451C35.4953 50.0439 34.7614 49.4735 34.7674 49.4754ZM37.9961 43.8314C37.6671 43.8076 37.2402 43.7938 36.7297 43.7938C36.0337 43.7938 35.3616 43.8806 34.7314 44.0485C34.0973 44.2162 33.5269 44.4789 33.0363 44.8261C32.5464 45.1723 32.1438 45.6256 31.8597 46.1508C31.5725 46.6799 31.4269 47.3037 31.4269 48.0026C31.4269 48.7133 31.5505 49.3311 31.7979 49.8366C32.0452 50.3439 32.4022 50.7663 32.8568 51.0922C33.3075 51.4179 33.864 51.6567 34.51 51.8008C35.1462 51.9449 35.8681 52.0179 36.6579 52.0179C37.4895 52.0179 38.3192 51.9509 39.1229 51.8145C39.9186 51.6802 40.8958 51.4848 41.1669 51.4237C41.3571 51.3784 41.5466 51.3303 41.7354 51.2796C41.9369 51.2304 41.9209 51.017 41.9209 51.017L41.9168 43.6714C41.9168 42.0604 41.4821 40.866 40.6266 40.1258C39.7749 39.3875 38.5205 39.0142 36.8993 39.0142C36.2909 39.0142 35.3117 39.0973 34.7254 39.2137C34.7254 39.2137 32.9525 39.5533 32.2225 40.1179C32.2225 40.1179 32.063 40.2167 32.1507 40.4378L32.7252 41.9658C32.7969 42.1632 32.9905 42.0961 32.9905 42.0961C32.9905 42.0961 33.0523 42.0724 33.1242 42.0309C34.6857 41.19 36.66 41.2156 36.66 41.2156C37.5376 41.2156 38.2117 41.3893 38.6663 41.7347C39.109 42.0703 39.3343 42.5776 39.3343 43.6476V43.9871C38.6363 43.8885 37.9961 43.8314 37.9961 43.8314ZM103.446 39.6925C103.507 39.5107 103.378 39.4239 103.324 39.4042C103.186 39.3509 102.496 39.2068 101.964 39.1732C100.945 39.112 100.379 39.2818 99.8718 39.5068C99.3692 39.7318 98.8109 40.095 98.4997 40.5077V39.5306C98.4997 39.3943 98.402 39.2857 98.2663 39.2857H96.1862C96.0507 39.2857 95.953 39.3942 95.953 39.5306V51.5114C95.953 51.6457 96.0647 51.7563 96.2003 51.7563H98.3322C98.3975 51.7559 98.46 51.7299 98.506 51.684C98.5519 51.6381 98.5776 51.576 98.5775 51.5114V45.526C98.5775 44.7225 98.6673 43.9211 98.8468 43.4177C99.0223 42.9201 99.2616 42.5214 99.5567 42.2351C99.8538 41.9508 100.191 41.7515 100.56 41.639C100.937 41.5244 101.353 41.487 101.649 41.487C102.074 41.487 102.54 41.5954 102.54 41.5954C102.696 41.6132 102.783 41.5184 102.835 41.3783C102.975 41.0111 103.37 39.9115 103.446 39.6925ZM82.6327 33.9506C82.9399 34.0077 83.1752 34.0611 83.4344 34.1401C83.4902 34.1617 83.6477 34.2387 83.5839 34.4207L82.9637 36.1066C82.9117 36.2328 82.8759 36.3098 82.6107 36.2309C82.5447 36.211 82.447 36.1834 82.1957 36.13C82.0142 36.0926 81.773 36.065 81.5298 36.065C81.2087 36.065 80.9154 36.1044 80.6582 36.1873C80.4068 36.2683 80.1776 36.4084 79.978 36.6058C79.7765 36.8073 79.5373 37.1015 79.4096 37.4627C79.1563 38.1876 79.0335 38.9516 78.994 39.1969C78.9872 39.2394 78.9828 39.2664 78.9808 39.2748H81.5753C81.7928 39.2748 81.8606 39.3736 81.8406 39.5334L81.5376 41.2035C81.4915 41.4463 81.2663 41.4383 81.2663 41.4383H78.594L76.7651 51.6781C76.5739 52.7361 76.3324 53.6442 76.0513 54.3747C75.7679 55.1149 75.4708 55.6558 74.9981 56.1731C74.5593 56.6507 74.0649 57.0042 73.4985 57.2076C72.934 57.4088 72.2519 57.5134 71.5061 57.5134C71.1492 57.5134 70.7684 57.5076 70.3176 57.4029C69.9924 57.3259 69.815 57.2707 69.5757 57.1877C69.4741 57.1503 69.3943 57.0258 69.4501 56.866C69.508 56.7059 69.9866 55.4051 70.0524 55.2334C70.1362 55.0261 70.3456 55.1049 70.3456 55.1049C70.4912 55.1663 70.5929 55.2076 70.7844 55.2452C70.9779 55.2846 71.239 55.3164 71.4345 55.3164C71.7875 55.3164 72.1105 55.2729 72.3897 55.1801C72.7288 55.0676 72.9243 54.8743 73.1317 54.6136C73.3471 54.3411 73.5205 53.9681 73.698 53.4705C73.8795 52.9653 74.0431 52.3 74.1847 51.4905L76.0036 41.4383H74.2107C73.9954 41.4383 73.9255 41.3378 73.9475 41.1798L74.2485 39.5078C74.2964 39.2668 74.5198 39.2747 74.5198 39.2747H76.3624L76.4622 38.7319C76.7374 37.119 77.2859 35.8931 78.0937 35.0875C78.9052 34.2782 80.0619 33.8676 81.5299 33.8676C81.9506 33.8676 82.3214 33.8953 82.6327 33.9506ZM46.9496 51.7552C47.0853 51.7552 47.183 51.6466 47.183 51.5123V34.3691C47.183 34.2349 47.0853 34.1263 46.9496 34.1263H44.7978C44.6621 34.1263 44.5664 34.2349 44.5664 34.3691V51.5123C44.5664 51.6466 44.6621 51.7552 44.7978 51.7552H46.9496Z" fill="white"/>
</svg>
