<svg width="88" height="97" viewBox="0 0 88 97" fill="none" xmlns="http://www.w3.org/2000/svg">
<mask id="mask0_1728_38603" style="mask-type:luminance" maskUnits="userSpaceOnUse" x="0" y="0" width="88" height="97">
<path d="M87.9992 0H0V97H87.9992V0Z" fill="white"/>
</mask>
<g mask="url(#mask0_1728_38603)">
<path d="M11.3336 85.2818C11.1896 84.8245 10.7691 83.7966 10.6546 83.0378C10.4018 81.357 11.2837 80.25 12.0936 79.9965C13.0025 79.7438 13.3576 80.1987 13.7094 81.2559C14.1642 82.8658 14.2149 84.9753 14.062 87.9954C13.8632 92.1207 11.7917 97.1028 6.64265 96.9992C2.19794 96.9022 0.231243 94.0338 0.0267188 89.6574C-0.0698164 87.5943 0.0782589 85.532 0.935622 82.6155C1.39048 81.0537 1.79626 80.4978 3.20747 80.1987C4.31681 79.9965 4.217 81.1524 3.96585 82.5153C3.41281 85.532 3.15593 86.9887 3.36045 90.4114C3.55843 94.0338 5.22817 95.4432 7.04597 95.4432C9.77268 95.4953 10.9835 93.2317 11.4907 89.9582C11.8907 87.3433 11.5889 86.0855 11.3336 85.2818ZM69.4707 88.8545C70.5326 88.8545 70.8369 90.1057 70.5833 90.8638C70.3297 91.617 69.4224 92.4761 68.0096 92.7263C67.7053 91.9699 67.5531 88.8545 69.4707 88.8545ZM49.7333 90.5597C49.7333 89.7079 49.276 89.0029 48.7254 89.0029C48.2657 89.0029 47.2095 89.5042 47.2095 91.1148C47.2095 92.3767 47.6595 92.975 47.8656 93.2317C49.3259 92.7769 49.7333 91.5664 49.7333 90.5597ZM34.0276 80.2989C33.9564 79.492 33.3215 78.9426 32.4625 78.9426C31.5046 78.9426 30.6022 79.9444 30.6979 81.2029C30.7593 82.0327 31.2501 82.715 32.2147 82.715C33.3215 82.7158 34.129 81.458 34.0276 80.2989ZM42.2388 83.2538C42.1512 81.8469 41.8093 81.2119 41.0509 81.264C40.0455 81.3244 39.5808 84.4765 39.7861 87.7899C39.917 89.9517 40.2402 90.285 40.5412 90.2638C41.0975 90.2304 42.4318 86.3684 42.2388 83.2538ZM75.7324 88.5496C75.1066 91.136 73.2094 94.941 70.3788 94.941C69.7235 94.941 68.5618 94.6875 68.5618 94.0338C68.5618 93.3287 73.0081 93.2317 73.0081 89.8587C73.0081 88.6026 71.8473 86.8395 70.1293 86.8395C67.8574 86.8395 65.6412 89.3069 65.6412 92.7272C65.6412 95.7937 67.5531 96.8003 69.4715 96.8003C72.8053 96.8003 74.8251 94.0819 75.8846 91.8199C76.3918 93.3295 76.6896 96.8003 77.9568 96.8003C78.4599 96.8003 78.8158 96.5485 79.422 95.1921C80.933 91.8191 82.399 87.9456 84.4197 87.9456C85.1748 87.9456 84.7224 89.3069 86.5394 89.3069C87.396 89.3069 87.9997 88.6026 87.9997 87.794C87.9997 86.6357 86.9411 85.7334 85.327 85.7334C80.5796 85.7334 79.5733 92.8274 78.815 92.8274C77.5518 92.8274 77.956 87.1419 77.0454 87.1419C76.2372 87.1411 75.8404 88.1005 75.7324 88.5496ZM35.3414 94.5856C36.0982 94.5856 37.3997 94.3411 38.424 92.7068C37.8382 91.4107 37.4202 88.7917 37.3621 87.838C37.0611 82.9611 38.9468 78.3736 41.0108 78.2464C42.5243 78.1551 43.7351 79.5824 43.8741 81.895C44.2464 87.9717 42.215 90.5084 41.1982 92.697C41.37 93.5455 42.8147 94.9899 44.1777 94.9899C44.6808 94.9899 45.2895 94.7381 45.4424 94.5343C45.341 94.1846 45.2379 93.7322 45.2379 93.076C45.2379 89.5547 47.5106 86.5852 49.4805 86.5852C51.0456 86.5852 51.9545 88.6475 51.9545 90.0087C51.9545 91.6161 50.5899 92.9269 48.5716 94.1846C48.9267 94.5343 49.5795 94.7886 50.1375 94.7886C53.018 94.7886 54.5249 91.3162 55.6408 88.1453C55.8421 87.5405 56.1979 86.6871 56.9031 86.6871C58.1147 86.6871 58.6219 94.6362 60.6361 94.6362C61.4975 94.6362 62.2027 92.8739 62.2027 91.5191C62.2027 90.5116 61.8493 90.4106 61.8493 88.9515C61.8493 87.3433 62.7083 85.9861 63.8725 85.9861C64.5785 85.9861 64.8337 86.6871 64.8337 87.5405C64.8337 90.7611 62.5079 96.749 59.0793 96.749C56.4998 96.749 56.7011 92.3212 55.793 92.3212C54.7785 92.3212 53.3649 96.7987 48.3712 96.7987C47.5597 96.7987 46.7031 96.3969 45.9979 95.5899C44.788 96.3969 43.7752 96.749 42.6135 96.749C40.7474 96.749 39.9375 94.8367 39.1824 94.8367C38.2718 94.8367 37.2648 96.7987 34.2321 96.7987C31.8089 96.7987 31.4047 93.5822 30.5482 93.5822C29.789 93.5822 28.6281 96.7987 27.3666 96.7987C25.2429 96.7987 24.7929 91.2159 22.9211 91.2159C21.4575 91.2159 16.8312 96.8859 15.5754 96.7563C15.0707 96.7042 14.858 96.3284 14.9111 95.8246C14.9823 95.1285 15.5836 93.2651 15.8274 92.384C16.2356 90.854 16.6103 89.1773 16.8197 88.6426C17.0275 88.103 17.5879 87.7182 18.0379 87.7598C18.2645 87.781 18.3324 88.2024 18.4028 88.5505C18.658 89.7943 19.0139 91.0627 19.4156 91.0627C20.1249 91.0627 22.4671 86.5844 23.83 86.5844C25.4989 86.5844 25.6985 93.6295 27.9696 93.6295C28.7288 93.6295 29.2859 92.7255 29.789 91.6153C29.8405 89.7511 30.3453 87.0906 31.8596 87.0906C32.9207 87.0906 33.4263 89.4528 32.6662 91.5183C32.6646 93.9816 34.2787 94.5856 35.3414 94.5856Z" fill="white"/>
</g>
<path d="M70.5102 15.6944C70.1355 15.6944 69.5989 15.6944 69.3035 15.1083C69.0614 14.6274 69.1432 13.8522 68.6875 13.5058C69.1432 13.6386 69.625 13.6386 69.9997 13.6386C71.2072 13.6386 72.3607 12.8113 73.2459 12.8113C73.8292 12.8113 74.0174 13.1854 74.0174 13.5579C74.0182 14.7342 71.6376 15.6944 70.5102 15.6944ZM71.0992 18.7112C73.8832 18.7112 76.4324 16.4957 76.4324 14.5475C76.4324 13.6386 76.0021 12.892 74.9034 12.7583C75.0907 12.9988 75.1709 13.1854 75.1709 13.6126C75.1709 15.0814 72.9252 16.71 70.484 16.71C69.5989 16.71 69.3305 17.323 69.3305 17.6434C69.3305 18.3916 70.0554 18.7112 71.0992 18.7112ZM70.8857 19.8328C71.2351 22.3678 75.0907 25.7856 76.1354 25.7049C76.8341 25.6463 77.1016 22.3947 77.1016 19.8328C77.1016 18.3647 77.1826 17.2162 76.4046 16.9489C75.1701 19.4326 71.9321 19.9396 70.8857 19.8328Z" fill="white"/>
<path d="M10.5808 36.6237C11.4905 36.6237 11.3032 31.0702 12.7766 31.0702C13.1259 31.0702 13.2331 31.4175 13.2331 31.8446C13.2331 33.0991 12.6162 34.9421 12.6162 35.9553C12.6162 36.4631 12.7504 36.6237 12.9917 36.6237C13.6356 36.6237 14.7605 30.5094 15.8583 30.5094C16.2069 30.5094 16.3672 30.8566 16.3672 31.2039C16.3672 32.4853 14.7343 36.1688 14.7343 37.2097C14.7343 37.3703 14.7866 37.5032 14.9216 37.5032C15.5916 37.5032 16.9309 34.6209 17.3587 33.1798C17.6001 32.4315 17.9216 32.0304 18.2169 32.0304C18.4844 32.0304 18.7266 32.3247 18.7266 32.9393C18.7266 34.3804 17.3857 37.7705 16.2069 40.0407C15.2971 41.8022 13.8769 44.3364 13.8769 45.7514C13.8769 46.4728 14.0086 47.2195 15.0542 48.1275C13.3394 48.0208 12.6432 47.861 12.001 46.5266C9.13361 52.2121 17.2786 51.6521 14.4921 56.6953C13.9825 55.7897 9.96479 54.8548 9.96479 49.5695C9.96479 45.0048 13.9825 42.3352 13.9825 40.4409C13.9825 40.0676 13.8499 39.7472 13.5014 39.4538C12.6162 38.7047 12.5892 38.0925 11.893 38.0925C11.385 38.0925 10.7665 39.2663 11.4104 40.3072C11.6255 40.6545 11.8129 40.868 11.8129 41.1884C11.8129 41.935 10.6332 43.9362 9.80363 43.9362C8.97244 43.9362 8.33105 41.8837 8.33105 38.5718C8.33105 35.6341 8.99944 32.6727 9.83062 32.6727C10.0711 32.6727 10.1513 32.8325 10.1513 33.0469C10.1513 33.3941 10.045 34.087 10.045 35.2616C10.045 36.5161 10.3395 36.6237 10.5808 36.6237Z" fill="white"/>
<path d="M17.4109 44.444C18.5374 44.444 19.4742 43.615 19.4742 41.7761V39.0519C19.4742 38.011 19.5551 36.8372 20.2522 36.0082C20.1712 36.3563 20.1712 36.7296 20.1712 37.0769C20.1712 39.3731 21.4564 40.9487 21.4564 43.1634C21.4564 43.9899 21.2151 44.4448 20.5737 44.4448C19.9568 44.4448 20.0108 43.884 19.8758 43.884C19.7695 43.884 19.6083 44.2304 19.6083 44.6045C19.6083 45.1653 20.01 46.0457 21.1349 46.0457C22.1002 46.0457 22.8758 45.1653 22.8758 44.1774C22.8758 41.7769 21.0007 39.1057 21.0007 36.5438C21.0007 35.4221 21.2952 34.6755 21.5366 34.087C21.5366 39.4 26.0639 43.2702 26.0639 45.4849C26.0639 45.9927 25.6892 46.3937 25.1264 46.3937C24.5103 46.3937 24.215 45.912 24.215 45.5379C24.215 45.3512 24.188 45.2982 24.1078 45.2982C23.9483 45.2982 23.4656 45.8321 23.4656 46.5274C23.4656 47.4069 24.188 48.4764 25.5281 48.4764C27.0538 48.4764 27.885 47.1934 27.885 46.0457C27.885 43.2441 22.3931 38.9989 22.3931 34.4619C22.3931 33.6867 22.5256 32.4323 23.0901 31.472C19.5535 33.7397 18.4556 36.7573 18.4556 39.4C18.4556 41.6962 18.3755 42.8422 17.1966 42.8422C16.5797 42.8422 16.4194 42.2831 16.2042 42.2831C16.0439 42.2831 15.9629 42.7632 15.9629 42.896C15.9645 43.8832 16.6885 44.444 17.4109 44.444Z" fill="white"/>
<path d="M58 14.3869C58.3404 14.1595 59.8506 14.5198 61.8034 13.558C62.0439 13.4267 62.2852 13.3729 62.4996 13.3729C63.4387 13.3729 63.1974 14.4399 64.0556 14.4399C64.724 14.4399 65.5838 13.8791 66.0934 13.8791C66.8919 13.8791 68.0446 16.3889 68.0446 17.5635C68.0446 18.9247 65.9855 19.7529 63.5459 19.7529C59.9847 19.7529 57.8389 16.6563 57.8389 14.6535C57.8397 14.4937 57.9207 14.4399 58 14.3869ZM63.8412 17.7771C65.0209 17.7771 65.9053 17.2431 65.9053 16.922C65.9053 16.8168 65.7449 16.7361 65.3956 16.7361C65.0471 16.7361 64.3501 16.7101 63.0362 16.4957C61.9089 16.309 61.0515 15.8819 60.73 15.8819C60.6228 15.8819 60.5689 15.9349 60.5689 16.0147C60.5689 16.7101 61.8565 17.7771 63.8412 17.7771Z" fill="white"/>
<path d="M17.9745 54.5075C17.091 54.7218 15.6699 56.1076 15.6699 58.2994C15.6699 60.9135 18.4834 64.946 23.1179 64.946C27.0283 64.946 27.9937 62.2495 27.9937 60.4326C27.9937 56.4026 25.5034 53.5725 22.2621 53.5725C20.4934 53.5725 18.912 54.8539 18.912 56.7482C18.912 58.5122 20.2521 61.154 23.4394 61.154C24.9398 61.154 25.8233 60.0846 25.8233 58.8602C25.8233 57.6579 24.7254 56.004 23.117 56.004C22.6352 56.004 22.2875 56.3211 22.2875 56.8306C22.2875 57.4696 23.1702 58.1119 24.2697 58.1119C24.5364 58.1119 24.7516 58.0582 24.8596 58.0044C24.9119 58.0867 24.9398 58.2187 24.9398 58.3255C24.9398 58.9401 24.3499 59.3143 23.4394 59.3143C22.0731 59.3143 20.7601 58.3002 20.7601 56.6953C20.7601 55.7367 21.5913 55.043 22.7963 55.043C25.1803 55.043 26.5997 57.1509 26.5997 59.2613C26.5997 61.1548 25.5566 62.2512 23.4124 62.2512C19.1256 62.2503 17.0378 58.4054 17.9745 54.5075Z" fill="white"/>
<path d="M48.5568 70.1481C49.842 70.1481 49.7749 70.0413 50.1774 70.0413C50.5783 70.0413 50.6061 70.2818 50.6061 70.4423C50.6061 71.0301 49.2922 71.7506 46.9615 71.7506C45.5952 71.7506 44.7641 71.0292 44.5235 70.2288C43.1843 71.083 41.1489 71.8574 39.1388 71.8574C33.6478 71.8574 32.2546 69.4797 30.539 68.7078C29.226 68.1201 27.2167 69.2686 24.4033 66.145C24.7788 66.2257 25.2885 66.2518 25.6902 66.2518C28.1535 66.2518 29.4665 65.0527 29.4665 63.129C29.4665 62.8878 29.4395 62.6237 29.4125 62.384C30.1635 62.6775 31.8791 63.9572 32.2816 66.2257C32.3339 66.4931 33.4318 66.7327 34.1288 66.7327C35.0942 66.7327 36.3262 66.3317 36.5136 64.7585C39.7287 64.4919 41.8999 62.5976 42.3556 60.1921C43.5058 60.5663 44.8189 61.6072 45.1404 62.1427C45.5961 61.983 46.1311 61.9023 46.7471 61.9023C47.6045 61.9023 48.5698 62.0629 49.7209 62.4101C49.7749 62.0629 49.8281 61.6357 50.3647 61.6357C51.1681 61.6357 50.9538 62.5169 51.2221 63.0214C51.3563 63.2888 52.0271 63.4486 52.0271 63.9833C52.0271 64.4919 51.596 64.6794 51.3285 64.6794C51.2213 64.6794 51.0871 64.6525 51.0061 64.6264C50.4711 64.8131 50.4433 68.6548 48.1935 68.6548C46.5336 68.6548 45.0062 67.2935 44.3354 65.5866C44.148 65.0796 43.7464 64.7585 43.3708 64.7585C42.943 64.7585 42.7016 64.8392 42.1936 65.4C40.7472 66.9732 38.3355 68.3344 35.3617 68.3344C34.4503 68.3344 33.7271 68.2529 33.539 68.2529C33.431 68.2529 33.431 68.2798 33.431 68.3059C33.431 68.4934 34.3415 69.2148 36.3246 69.2148C41.0401 69.2148 42.1928 66.5713 42.9422 66.5713C43.051 66.5713 43.37 66.5713 43.5574 66.9993C44.6577 69.5604 47.0564 70.1481 48.5568 70.1481ZM46.4796 64.8131C46.4796 65.4008 46.9623 65.8817 47.5521 65.8817C48.142 65.8817 48.6238 65.4008 48.6238 64.8131C48.6238 64.2246 48.142 63.7436 47.5521 63.7436C46.9623 63.7436 46.4796 64.2246 46.4796 64.8131Z" fill="white"/>
<path d="M67.6969 51.4907C67.3214 51.4907 66.9197 51.785 66.9197 52.5072C66.9197 53.3052 67.5366 53.8138 67.8842 53.9728C68.0724 54.0812 68.3677 54.188 68.6598 54.188C69.4378 54.188 70.0555 53.9728 70.0555 53.3313C70.0547 52.5072 68.8471 51.4907 67.6969 51.4907ZM64.8066 53.1446C64.2437 53.1446 61.1317 57.2822 59.1265 57.2822C58.6447 57.2822 58.2422 56.375 58.2422 55.6837C58.2422 55.3096 58.4827 55.0422 59.3425 54.8539C63.9492 53.813 62.9299 50.3683 66.8649 50.3683C69.0345 50.3683 71.4495 51.8388 71.4495 55.1474C71.4495 58.6712 66.4158 63.0476 65.6648 63.0476C65.0479 63.0476 64.3779 62.1672 64.3779 61.5803C64.3779 61.3937 64.4589 61.1532 64.9947 60.9397C67.5636 59.924 69.0353 57.5756 69.0353 56.3733C69.0353 56.106 68.902 55.8419 68.5535 55.8419C68.0986 55.8419 66.1483 60.2713 63.9754 60.2713C62.4726 60.2713 60.9444 58.9133 60.9444 58.2709C60.9444 57.2015 65.2893 55.2281 65.2893 53.7315C65.2884 53.1699 65.0209 53.1446 64.8066 53.1446Z" fill="white"/>
<path d="M11.7854 18.1513C11.7854 18.1513 11.0091 18.7373 10.0445 18.7373C8.89346 18.7373 7.98211 17.8839 7.98211 16.6824C7.98211 15.8542 8.41079 15.0008 9.4015 14.5728C9.37532 14.7334 9.37532 14.8663 9.37532 15.0269C9.3745 16.5495 10.2319 17.6964 11.7854 18.1513ZM17.5186 23.2768C16.9296 23.9696 16.3128 25.145 16.3128 26.3457C16.3128 27.7869 17.1979 28.9875 18.5642 28.9875C19.8764 28.9875 20.4932 27.8667 20.4932 26.7199C20.4932 24.9315 18.8587 23.6754 17.5186 23.2768ZM8.62513 24.3438C8.57441 24.4261 8.54414 24.5312 8.54414 24.638C8.54414 24.8785 8.81247 25.145 9.05217 25.145C9.26652 25.145 9.40068 25.0921 9.50785 25.0921C10.1501 25.0921 10.8741 25.5453 11.9188 25.5453C12.534 25.5453 13.258 25.3578 14.1685 24.9054C16.0976 23.9435 16.8486 21.5683 16.8486 21.1672C16.8486 20.6594 16.4396 20.7262 16.0976 20.2592C15.7556 19.7937 15.8865 19.3821 15.6689 19.1645C15.5454 19.0397 15.1609 19.0316 14.6774 18.9778C14.5162 18.9607 14.3019 18.9509 14.0875 18.9509C13.2048 18.9509 12.1568 19.0593 10.9804 19.806C8.65703 21.2838 8.999 23.73 8.62513 24.3438ZM14.9204 21.0335C15.1061 21.2854 15.6182 21.5952 15.6182 21.7818C15.6182 22.1543 15.4022 22.6361 14.9744 22.6361C14.036 22.6361 13.2866 21.221 13.2866 20.4189C13.2866 19.9127 13.582 19.8598 13.9828 19.8598C14.1702 19.8598 14.2512 19.8867 14.3845 19.9665C14.625 20.1002 14.625 20.6333 14.9204 21.0335ZM12.4546 24.2908C11.5711 24.2908 10.6066 23.1969 10.6066 22.2081C10.6066 21.675 11.0082 21.0066 11.3028 21.0066C11.4099 21.0066 11.4639 21.0873 11.4901 21.2748C11.6504 22.5823 12.5086 23.3306 13.3128 23.7031C13.393 23.7561 13.447 23.783 13.447 23.8359C13.447 24.0234 12.9373 24.2908 12.4546 24.2908ZM14.733 17.5635C14.8664 17.1356 14.9735 16.6033 14.9735 16.0148C14.9735 14.7342 14.3829 12.7853 12.5618 12.7853C11.5179 12.7853 10.7661 13.6126 10.7661 14.6006C10.7661 16.7101 12.8833 17.5635 14.733 17.5635ZM7.79395 28.2409C7.79395 30.2689 8.41079 31.2308 9.50867 31.2308C10.366 31.2308 11.5179 30.6162 12.8833 29.4416C11.8394 29.682 11.0344 29.8426 10.312 29.8426C9.34751 29.8426 8.59813 29.4685 7.79395 28.2409ZM8.7323 25.8648C8.70612 25.9993 8.70612 26.1322 8.70612 26.265C8.70612 27.5195 9.3745 28.214 10.2589 28.214C10.9264 28.214 11.7053 27.8138 12.3998 26.9318C12.1069 26.9848 11.7576 27.0117 11.4361 27.0117C10.4462 27.0117 9.3745 26.7459 8.7323 25.8648ZM15.2959 25.4915C14.6782 25.6512 13.393 26.3987 13.393 27.7331C13.393 28.6933 14.1424 29.3087 15.0807 29.3087C15.5634 29.3087 15.9111 29.2011 16.1254 29.0413C15.376 28.3208 15.1077 27.5195 15.1077 26.7199C15.1077 26.1582 15.1879 25.8118 15.2959 25.4915ZM16.2596 18.1773C16.2596 18.7642 16.7414 19.246 17.3305 19.246C17.9203 19.246 18.403 18.765 18.403 18.1773C18.403 17.5904 17.9203 17.1087 17.3305 17.1087C16.7414 17.1087 16.2596 17.5904 16.2596 18.1773ZM17.652 20.5795C17.652 21.1672 18.1355 21.6481 18.7261 21.6481C19.3144 21.6481 19.797 21.1672 19.797 20.5795C19.797 19.9934 19.3144 19.5125 18.7261 19.5125C18.1347 19.5125 17.652 19.9934 17.652 20.5795Z" fill="white"/>
<path d="M59.449 33.6859C59.449 33.1528 59.9317 32.6987 60.461 32.6987C61.0516 32.6987 61.5073 33.1528 61.5073 33.6859C61.5073 34.2996 61.0508 34.7276 60.461 34.7276C59.9317 34.7276 59.449 34.2996 59.449 33.6859ZM50.0425 25.4645C50.0425 26.0514 50.526 26.5323 51.1134 26.5323C51.7049 26.5323 52.1876 26.0514 52.1876 25.4645C52.1876 24.8784 51.7041 24.3975 51.1134 24.3975C50.526 24.3975 50.0425 24.8784 50.0425 25.4645ZM49.1328 29.2279C49.1328 30.0561 49.8274 30.749 50.6594 30.749C51.4889 30.749 52.1876 30.0561 52.1876 29.2279C52.1876 28.4014 51.4889 27.7061 50.6594 27.7061C49.8274 27.7061 49.1328 28.4014 49.1328 29.2279ZM52.5091 27.5194C52.5091 28.4283 53.2331 29.148 54.1387 29.148C55.0493 29.148 55.7757 28.4283 55.7757 27.5194C55.7757 26.6122 55.0493 25.8916 54.1387 25.8916C53.2331 25.8916 52.5091 26.6122 52.5091 27.5194ZM52.6441 24.0494C52.6441 24.6111 53.0998 25.0659 53.6569 25.0659C54.2197 25.0659 54.6754 24.6111 54.6754 24.0494C54.6754 23.4903 54.2189 23.0362 53.6569 23.0362C53.0998 23.0362 52.6441 23.4903 52.6441 24.0494ZM57.4913 21.4883C57.4913 22.0475 57.947 22.5015 58.5106 22.5015C59.0735 22.5015 59.53 22.0475 59.53 21.4883C59.53 20.9267 59.0735 20.4727 58.5106 20.4727C57.947 20.4727 57.4913 20.9267 57.4913 21.4883ZM55.4804 24.7716C55.4804 25.705 56.2576 26.4785 57.196 26.4785C58.1351 26.4785 58.9131 25.705 58.9131 24.7716C58.9131 23.8359 58.1359 23.0631 57.196 23.0631C56.2576 23.0631 55.4804 23.8359 55.4804 24.7716ZM52.7234 31.0171C52.7234 31.6048 53.2061 32.0841 53.791 32.0841C54.3809 32.0841 54.8644 31.6048 54.8644 31.0171C54.8644 30.4294 54.3809 29.9493 53.791 29.9493C53.2061 29.9493 52.7234 30.4294 52.7234 31.0171ZM56.2314 28.8807C56.2314 29.4684 56.7133 29.9493 57.3048 29.9493C57.8938 29.9493 58.3765 29.4684 58.3765 28.8807C58.3765 28.2946 57.8938 27.8137 57.3048 27.8137C56.7133 27.8137 56.2314 28.2946 56.2314 28.8807ZM55.2399 32.6449C55.2399 33.659 56.0703 34.4871 57.0896 34.4871C58.1081 34.4871 58.9409 33.659 58.9409 32.6449C58.9409 31.6309 58.1081 30.8028 57.0896 30.8028C56.0703 30.8028 55.2399 31.6309 55.2399 32.6449ZM59.0997 30.3748C59.0997 31.0701 59.6633 31.6309 60.3554 31.6309C61.0525 31.6309 61.6153 31.0701 61.6153 30.3748C61.6153 29.682 61.0525 29.1211 60.3554 29.1211C59.6633 29.1211 59.0997 29.682 59.0997 30.3748ZM59.0195 27.0116C59.0195 27.627 59.53 28.134 60.1395 28.134C60.7571 28.134 61.2668 27.627 61.2668 27.0116C61.2668 26.3986 60.7571 25.8916 60.1395 25.8916C59.53 25.8916 59.0195 26.3986 59.0195 27.0116Z" fill="white"/>
<path d="M61.7495 62.036C61.0524 62.5707 59.4228 63.7698 56.7141 63.7698C55.2669 63.7698 54.623 63.3158 54.4087 63.3158C54.1404 63.3158 53.8458 63.5823 53.5505 63.9304C52.914 64.6787 52.082 66.0668 52.082 67.587C52.082 68.654 52.914 69.7202 54.4619 69.7202C59.4768 69.7202 63.2245 66.5983 63.2245 64.064C63.2245 62.6237 62.3671 62.036 61.7495 62.036ZM60.3562 61.7426C60.573 61.5584 60.6238 61.2625 60.6238 60.9674V60.3536C60.6238 59.5784 59.4498 59.1268 57.8406 59.1268C55.8829 59.1268 54.8374 60.0055 54.8374 60.3805V61.6081C54.8374 62.1167 56.0179 62.6237 57.4659 62.6237C58.6186 62.6237 59.6641 62.3303 60.3562 61.7426ZM60.1403 64.3852C60.2753 64.3852 60.4348 64.4643 60.4348 64.946C60.4348 65.5321 60.1681 66.3056 59.2076 66.9186C58.5376 67.3743 57.6254 67.7484 56.2854 67.7721C56.4997 67.1338 56.6609 66.4646 56.6609 65.8272C56.6609 65.6128 56.6347 65.4522 56.6077 65.2126H56.9562C59.0743 65.2134 59.9865 64.3852 60.1403 64.3852Z" fill="white"/>
<path d="M49.9086 31.7655C50.2031 34.0332 53.2603 32.8855 53.2603 35.6341C53.2603 36.0351 53.1531 36.6237 53.1531 37.1298C53.1531 37.7176 53.2055 38.2246 53.6571 38.2246C54.1119 38.2246 54.2199 37.905 54.2199 37.4771C54.2199 37.0491 54.1119 36.5161 54.1119 36.2226C54.1119 35.2877 54.7828 35.0749 55.1861 35.0749C56.2046 35.0749 56.9818 36.1158 58.5108 36.1158C58.1615 37.8243 54.6224 37.3703 54.6224 39.2394C54.6224 40.1743 55.5608 40.3863 56.1776 40.3863C56.7405 40.3863 56.9286 40.3064 56.9286 39.8271C56.9286 39.5589 56.8746 39.2655 56.8746 39.0788C56.8746 38.9712 56.9556 38.8644 57.0898 38.8644C57.6813 38.8644 60.5692 41.0539 60.5692 41.7223C60.5692 42.3352 57.5185 42.949 56.6341 42.949C56.3658 42.949 56.3118 42.7624 56.3118 42.6556C56.3118 42.4689 56.7675 41.9081 56.7675 41.5886C56.7675 41.3481 56.3658 41.1875 55.2924 41.1875C54.7828 41.1875 54.4073 41.2413 54.4073 41.6424C54.4073 42.3613 55.587 43.2433 55.587 43.9093C55.587 44.444 55.2654 44.7643 54.4073 44.7643C53.6832 44.7643 52.5886 44.2027 52.5886 43.2694C52.5886 42.5219 53.3617 41.7761 53.3617 41.3212C53.3617 41.1875 53.2595 40.974 52.938 40.974C51.9448 40.974 51.6773 43.5889 48.166 43.8832C48.7289 43.3762 49.2099 42.8153 49.2099 41.6693C49.2099 41.1085 49.0774 40.6536 49.0774 40.0407C49.0774 39.2394 49.4512 38.8384 49.9871 38.8384C50.9778 38.8384 51.4605 40.2257 52.106 40.2257C52.4553 40.2257 52.83 39.907 52.83 39.4261C52.83 37.3972 48.917 37.6907 48.917 34.8345C48.9178 34.0601 49.1845 33.099 49.9086 31.7655ZM62.6872 39.5866C62.6872 40.2526 62.9032 41.027 63.5732 41.027C64.136 41.027 64.6179 40.1743 64.6179 39.2394C64.6179 38.1716 64.4306 37.3434 64.4306 36.9155C64.4306 36.7296 64.5116 36.6497 64.6179 36.6497C65.0204 36.6766 65.3951 37.7705 65.8254 37.7705C66.3081 37.7705 67.0272 36.8886 67.3209 36.8886C67.4019 36.8886 67.4281 36.9962 67.4281 37.0222C67.4281 37.4233 66.8112 38.3053 66.8112 38.6517C66.8112 38.9451 68.3664 38.9981 68.3664 39.2655C68.3664 39.6665 66.7359 39.6665 65.9596 40.0138C65.2094 40.3333 64.7513 40.7335 64.7513 41.2682C64.7513 41.8021 65.2879 41.9081 66.0389 41.9081C67.8289 41.9081 69.0888 40.9479 69.4905 40.9479C69.5707 40.9479 69.6238 41.0001 69.6238 41.0808C69.6238 41.3481 68.7133 42.2285 68.7133 42.6295C68.7133 43.0827 70.3757 43.615 70.3487 43.8832C70.3225 43.963 70.2145 43.9891 70.0271 43.9891C69.731 43.9891 69.2761 43.9093 68.9268 43.9093C68.7125 43.9093 68.5251 43.9353 68.4433 44.0421C68.2576 44.2565 68.4973 45.6716 68.1243 45.6716C67.7749 45.6716 66.8636 42.5219 64.8052 42.5219C64.5099 42.5219 64.2956 42.7624 64.2956 43.1626C64.2956 44.2296 65.3411 45.4572 66.3334 46.0449C66.7826 46.3391 67.5344 46.6326 67.5344 46.794C67.5344 47.1127 65.8238 46.8201 65.8238 47.3532C65.8238 47.8341 66.0381 48.5563 66.0381 48.9818C66.0381 49.1155 66.0111 49.2744 65.8508 49.2744C65.5293 49.2744 64.7504 47.8072 64.3757 47.8072C64.0542 47.8072 63.3572 48.6875 63.0619 48.6875C62.9817 48.6875 62.9285 48.6076 62.9285 48.5286C62.9285 47.914 63.9209 46.5266 63.9209 45.1645C63.9209 44.5239 63.8399 43.1357 63.0619 43.1357C62.4189 43.1357 61.694 44.1497 61.3725 45.1645C61.186 45.7514 61.3193 48.0207 60.8898 48.0207C60.4882 48.0207 60.5953 46.4997 60.0578 46.4997C59.6627 46.4997 58.8045 47.2195 58.5092 47.2195C58.4552 47.2195 58.4012 47.1926 58.4012 47.1396C58.4012 46.8201 59.1792 45.7783 59.1792 45.5648C59.1792 45.1645 57.4097 45.1116 57.4097 44.7912C57.4097 44.6037 58.1067 44.4709 58.7497 44.3633C60.1127 44.1228 62.1227 43.1357 62.1227 41.7484C62.1227 40.2004 60.6215 39.532 59.6349 38.8913C59.1252 38.571 58.5624 38.3053 58.5624 38.0917C58.5624 37.8773 59.2054 37.8773 59.4737 37.8773C59.8754 37.8773 60.273 37.8504 60.273 37.5309C60.273 37.2896 60.219 36.8103 60.219 36.4362C60.219 36.1688 60.2452 35.9553 60.354 35.9553C60.7557 35.9553 61.3185 37.2627 61.5877 37.2627C62.0155 37.2627 62.6054 36.1949 63.0087 36.1949C63.1412 36.1949 63.1961 36.2756 63.1961 36.5152C63.1977 37.5032 62.6872 38.624 62.6872 39.5866Z" fill="white"/>
<path d="M50.687 46.9789C51.9207 47.1395 52.2161 47.5658 52.2161 47.9139C52.2161 48.5016 51.6794 48.6874 51.1689 48.6874C50.795 48.6874 50.3655 48.6075 49.9098 48.6075C49.3192 48.6075 48.731 48.7412 48.2491 49.302C48.5968 49.355 49.1065 49.5963 49.1065 50.131C49.1065 51.6789 44.7935 50.3959 44.7935 54.3754C44.7935 56.4833 46.9909 58.7803 50.3115 58.7803C52.0287 58.7803 53.1274 58.2195 53.1274 57.5772C53.1274 57.071 52.2169 57.4166 52.2169 56.9895C52.2169 56.8028 52.5384 56.4548 52.5384 56.1597C52.5384 56.0309 52.4312 55.7888 52.2169 55.7888C51.7326 55.7888 50.8212 56.5607 48.9723 56.5607C47.5251 56.5607 46.1049 55.7358 46.1049 54.6134C46.1049 54.3737 46.2129 54.2392 46.3732 54.2392C46.5344 54.2392 46.7479 54.3468 46.9361 54.3468C47.0972 54.3468 47.1234 54.2392 47.1234 53.9466C47.1234 53.6524 47.1234 52.8242 47.6315 52.8242C48.1419 52.8242 49.1065 54.6933 52.8059 54.6933C54.0339 54.6933 56.4202 54.4544 57.3054 53.6524C57.2784 56.5893 54.9714 60.4595 50.1512 60.4595C45.1412 60.4595 42.4619 56.4548 42.4619 52.7704C42.4619 48.6874 45.8096 44.9778 50.3925 44.9778C51.5698 44.9778 52.5637 45.3772 52.5637 45.885C52.5629 46.5803 50.8204 46.1524 50.687 46.9789ZM58.913 48.3956C59.1003 48.6874 59.1813 48.9817 59.1813 49.2482C59.1813 49.9965 58.6716 50.6902 58.6716 51.4654C58.6716 52.3457 59.3425 53.0655 60.3561 53.0655C61.4548 53.0655 62.2058 52.1868 62.2058 51.1442C62.2058 49.7292 60.919 48.5285 58.913 48.3956ZM50.0432 50.1033C50.3099 50.369 50.3917 50.6364 50.3917 50.9037C50.3917 51.304 50.2044 51.7319 50.2044 52.1859C50.2044 52.8242 50.687 53.3858 51.3824 53.3858C52.1342 53.3858 52.6447 52.7973 52.6447 52.1061C52.6447 51.0912 51.5959 50.1033 50.0432 50.1033ZM53.6044 45.5647C56.4194 46.0986 57.9476 48.2081 57.9476 50.184C57.9476 51.5461 57.0903 52.7981 55.5882 52.7981C54.2204 52.7981 53.2338 51.8648 53.2338 50.3698C53.2338 49.249 54.1124 48.0744 54.1124 46.9259C54.1124 46.4727 53.9791 46.0187 53.6044 45.5647ZM54.9984 49.1154C54.9984 49.4887 55.2667 49.783 55.6422 49.783C56.0701 49.783 56.3393 49.4088 56.3393 48.9817C56.3393 48.4217 55.8296 47.6473 55.3469 47.6473C55.1317 47.6473 55.2127 47.9677 55.1596 48.3149C55.1318 48.5806 54.9984 48.901 54.9984 49.1154Z" fill="white"/>
<path d="M25.4229 21.6481C26.3335 21.6481 27.3774 16.7361 27.3774 15.908C27.3774 15.6944 27.298 15.5338 27.1107 15.5338C26.2795 15.5338 25.1284 20.2061 25.1284 21.2478C25.1276 21.4345 25.1808 21.6481 25.4229 21.6481ZM31.9865 23.1161C32.6549 23.1161 33.4051 20.5525 33.4051 18.9508C33.4051 18.6036 33.3519 18.2311 33.1899 18.2311C32.6271 18.2311 31.6895 20.8737 31.6895 22.3148C31.6904 22.8757 31.8253 23.1161 31.9865 23.1161ZM27.6171 20.74C27.9116 20.74 28.2871 20.4181 28.9857 19.6461C29.0381 19.2989 29.0381 18.9777 29.0381 18.5775C29.0381 18.0444 28.8238 17.4567 28.5031 17.4567C27.6981 17.4567 27.2972 19.5923 27.2972 20.154C27.298 20.4727 27.4575 20.74 27.6171 20.74ZM31.2887 19.6461C31.2887 19.1913 31.1807 19.0845 31.0743 19.0845C30.806 19.0845 30.5123 19.4057 30.0836 20.1262C30.1368 21.0873 30.298 21.5144 30.5655 21.5144C30.86 21.5144 31.2887 20.5794 31.2887 19.6461ZM33.3519 16.4957C35.1206 16.4957 35.9232 18.0175 35.9232 19.726C35.9232 20.4727 35.7105 21.5682 35.362 21.5682C35.0135 21.5682 35.0675 20.9536 35.0135 20.3928C34.9603 19.6722 34.8253 19.5124 34.584 19.5124C34.1283 19.5124 33.8346 20.5794 33.8346 21.5682C33.8346 22.1812 33.9418 22.8757 34.4228 22.8757C34.6911 22.8757 34.9325 22.742 35.0936 22.5822C34.9865 23.809 34.0743 24.8784 32.7891 24.8784C30.4313 24.8784 29.547 22.1282 29.2803 20.5265C27.86 22.0214 26.5478 23.1161 24.1893 23.1161C21.9935 23.1161 21.002 21.5144 21.002 19.9934C21.002 19.5385 21.1623 18.3647 21.726 18.3647C22.3952 18.3647 21.8061 20.5525 23.1184 20.5525C23.4407 20.5525 24.0281 20.2852 24.3512 19.4057C24.5386 18.8709 24.6457 18.3118 24.6457 17.83C24.6457 17.1086 24.4854 16.6562 23.9495 16.6562C23.4931 16.6562 22.9302 17.0019 22.7429 17.1893C23.3867 15.2673 24.9403 14.2802 26.6525 14.2802C28.7714 14.2802 29.8955 16.1484 29.8955 18.2311C29.8955 18.5237 29.8685 18.844 29.8145 19.1383C30.7258 17.6434 31.9865 16.4957 33.3519 16.4957Z" fill="white"/>
<path d="M28.3418 23.6753C27.1899 23.6753 27.1368 25.0659 27.1368 27.8667C26.2786 26.0253 24.86 24.0494 23.1984 24.0494C22.0736 24.0494 21.6457 24.7977 21.6457 26.1044C21.6457 26.3717 21.6719 26.7728 21.7259 27.0116C21.86 26.5592 22.2887 26.3717 22.8238 26.3717C23.9773 26.3717 25.3697 27.2521 26.2802 28.4544C25.2363 28.2677 24.2178 28.0802 23.3612 28.0802C22.8246 28.0802 22.3427 28.134 21.941 28.3207C21.1638 28.6671 20.1191 29.8156 20.1191 31.551C20.1191 31.8184 20.1461 32.111 20.2001 32.4314C21.1377 30.3487 23.6288 29.4146 25.2363 29.4146C25.5587 29.4146 25.7984 29.4415 25.9865 29.4684C25.1553 30.2151 24.9688 31.5233 24.914 32.4045C24.8886 32.8316 24.7267 32.8593 24.4313 32.8593C24.4313 33.7388 25.1292 35.0479 25.1292 35.7147C25.1292 35.9552 24.995 36.1687 24.8616 36.2225C24.8616 37.3971 26.0389 38.2514 26.0389 38.998C26.0389 39.1847 25.9865 39.3453 25.9047 39.426C25.9865 39.9069 27.2824 40.7147 27.4501 41.1198C27.6562 41.6121 27.8878 41.6953 28.0219 41.6953C28.4776 41.6953 29.1992 41.1606 29.1992 40.6796C29.1992 40.5199 29.065 40.3332 28.9595 40.2525C28.4498 39.88 28.1815 39.0787 27.9671 38.5456C27.779 38.5456 27.5368 38.4666 27.4517 38.1519C27.3053 37.5993 27.2979 36.5698 27.0836 35.9552C26.7351 35.8753 26.5739 35.7416 26.5739 35.021C26.5739 34.6738 26.7891 33.3117 26.7891 32.8308C26.6287 32.8308 26.4144 32.724 26.4144 32.4037C26.4144 31.5502 27.2726 30.8826 27.5123 29.7887C29.0396 30.9087 29.4135 32.0564 29.4135 33.0721C29.4135 33.6043 29.3333 34.1122 29.2262 34.5939C30.3519 34.0323 32.0396 33.2049 32.0396 31.5233C32.0396 30.5346 31.5839 29.4407 28.5561 29.0136C29.4937 28.6663 30.6734 28.4805 31.6641 28.4805C33.3796 28.4805 34.3703 29.0136 34.5839 30.2142C34.9324 29.6811 35.2007 29.0665 35.2007 28.5065C35.2007 27.1975 34.1012 26.3448 32.7088 26.3448C31.0742 26.3448 29.6279 27.1975 28.0735 28.24C28.7721 26.7989 29.2515 25.9446 30.1105 25.9446C30.2439 25.9446 30.378 25.9715 30.5122 25.9984C30.1907 24.8246 28.9857 23.6753 28.3418 23.6753Z" fill="white"/>
<path d="M73.4813 42.9221C74.823 42.9221 75.8947 44.6567 75.8947 46.6864C75.8947 48.8481 74.8753 51.1981 73.0584 52.7982C73.0314 49.1953 68.6055 50.343 68.6055 47.7281C68.6055 46.6073 69.4113 45.859 70.3766 45.859C71.2348 45.859 71.9048 46.0995 72.3875 46.5812C71.9048 46.1264 71.6635 45.4849 71.6635 44.8719C71.6635 43.8554 72.3073 42.9221 73.4813 42.9221Z" fill="white"/>
<path d="M49.5605 17.5635C50.2583 18.2311 50.8727 18.5237 51.6237 18.5237C51.9198 18.5237 52.2692 18.4446 52.4573 18.4446C52.6987 18.4446 52.8582 18.5506 52.8582 18.7373C52.8582 19.0315 52.5899 19.5124 52.2692 19.7798C52.5899 19.9127 52.9392 19.9665 53.3147 19.9665C54.8363 19.9665 56.5789 19.0046 56.5789 16.6033C56.902 17.0287 57.0894 17.9107 57.0894 18.3118C57.0894 21.2209 54.9435 22.3417 52.9654 22.3417C51.6785 22.3417 51.0338 21.9138 50.8719 21.9138C50.3638 21.9138 50.3908 22.9294 50.0423 22.9025C49.4255 22.7958 48.8643 21.4345 48.8643 19.9934C48.8651 19.1383 49.0794 18.2311 49.5605 17.5635ZM53.6043 15.6145C53.39 15.2673 52.5899 15.0814 52.216 15.0814C51.0347 15.0814 50.2305 15.908 50.0701 16.6562C49.963 16.3889 49.8828 16.0685 49.8828 15.7482C49.8828 14.5736 50.687 13.1324 52.6455 13.1324C54.3553 13.1324 55.0253 14.0397 55.2675 14.0397C55.535 14.0397 55.8033 13.7723 56.0185 13.7723C56.313 13.7723 56.313 14.2263 56.313 14.5475C56.313 15.6145 55.8295 17.4567 54.6236 18.1243C54.4085 17.6703 53.9798 17.1624 53.2877 16.8429C53.1004 16.763 53.0202 16.6033 53.0202 16.4427C53.0194 16.1484 53.2869 15.7743 53.6043 15.6145Z" fill="white"/>
<path d="M30.9405 9.79533C30.9405 10.7295 34.2889 15.2942 34.9328 15.2942C35.4695 15.2942 35.8703 14.36 35.8703 13.5579C35.8703 13.346 35.8163 13.1333 35.7108 12.9719C35.2281 12.3043 31.8257 9.63475 31.0747 9.63475C30.9937 9.63475 30.9405 9.71544 30.9405 9.79533ZM11.2489 7.04591C11.2489 7.58063 9.21353 9.3682 8.49115 9.3682C8.22363 9.3682 8.14182 9.04867 8.14182 8.75523C8.14182 8.22213 8.38316 7.47385 8.67849 7.23257C9.02536 6.91222 9.82955 6.75409 10.4456 6.75409C10.8203 6.75409 11.2489 6.83234 11.2489 7.04591ZM35.7108 8.59464C35.7108 6.99211 31.3643 4.08292 31.316 2.82926C31.3111 2.71433 31.3741 2.60021 31.4714 2.49832C32.2159 1.7158 35.3075 1.14521 35.3075 0.478435C35.3075 0.132822 34.6636 0.132822 34.3421 0.132822C31.851 0.132822 28.2072 1.04006 28.2072 1.92039C28.2072 2.82926 31.4755 5.04477 31.4755 6.13949C31.4755 6.43293 31.2882 6.53971 30.9928 6.53971C30.0831 6.53971 28.1001 5.44418 27.1625 5.44418C26.7338 5.44418 26.5719 5.73763 26.5719 6.16638C26.5719 7.44695 28.0992 9.87602 28.0992 10.595C28.0992 10.6757 28.0722 10.7824 27.9651 10.7824C27.4824 10.7824 25.2073 8.11454 24.4023 8.11454C24.1086 8.11454 24.0808 8.51395 24.0808 9.10165V10.0089C24.0808 10.6227 24.0538 10.9968 23.7609 10.9968C23.0622 10.9968 22.7415 9.04867 22.0723 9.04867C21.3753 9.04867 21.2412 12.5178 20.5728 12.5178C19.7948 12.5178 20.4648 8.70061 19.7146 8.70061C18.8842 8.70061 17.9459 11.2373 17.356 11.2373C17.1425 11.2373 17.0893 11.0229 17.0893 10.8362C17.0893 10.0627 17.5434 8.80821 17.5434 8.06155C17.5434 7.68659 17.4362 7.47385 17.1163 7.47385C16.2843 7.47385 14.4632 8.80821 13.767 8.80821C13.6599 8.80821 13.5257 8.75523 13.5257 8.64763C13.5257 8.00857 16.4455 5.97891 16.4455 5.07167C16.4455 4.1897 12.4254 4.77822 12.4254 3.76258C12.4254 2.90914 15.2944 2.02799 15.2944 1.14684C15.2944 0.372469 11.8911 0.0268555 10.5789 0.0268555C8.99755 0.0268555 8.141 0.211889 8.141 0.665914C8.141 1.3604 11.7316 1.57478 11.7316 2.18775C11.7316 2.77546 8.00684 4.35028 8.00684 5.25752C8.00684 6.05879 13.2574 5.3105 13.2574 6.13949C13.2574 7.04591 8.67767 10.9691 8.67767 12.2774C8.67767 12.5716 8.89201 12.7053 9.18571 12.7053C10.5789 12.7053 14.1941 10.0627 15.1864 10.0627C15.5349 10.0627 15.5619 10.489 15.5619 10.8631C15.5619 11.5576 15.3214 12.6246 15.3214 13.3998C15.3214 14.0128 15.4818 14.4399 16.0168 14.4399C17.01 14.4399 17.9189 12.7583 18.5905 12.7583C19.4471 12.7583 18.9382 17.6963 20.2243 17.6963C21.3221 17.6963 21.777 12.3581 22.474 12.3581C23.171 12.3581 23.7347 13.906 24.3769 13.906C25.1795 13.906 24.8048 11.2104 25.663 11.2104C26.5997 11.2104 29.2789 14.4138 30.4848 14.4138C30.8595 14.4138 30.9928 14.1196 30.9928 13.7454C30.9928 12.3304 29.0114 9.12855 29.0114 8.11454C29.0114 7.84799 29.0908 7.76729 29.3853 7.76729C30.43 7.76729 33.4856 9.20844 34.9312 9.20844C35.4171 9.20844 35.7108 8.94189 35.7108 8.59464ZM32.9235 3.30937C32.9235 3.78948 34.6113 4.83121 35.3893 4.83121C35.8441 4.83121 35.9783 4.2166 35.9783 3.57591C35.9783 2.77546 35.6314 2.74856 34.9336 2.74856C34.0492 2.74856 32.9235 2.98902 32.9235 3.30937ZM26.6275 0.586032C26.6275 0.425452 25.8241 0.264872 24.7262 0.264872C22.9845 0.264872 23.2259 1.70846 21.8866 1.70846C20.4934 1.70846 20.8403 0.211889 19.0724 0.211889C18.0007 0.211889 17.0108 0.399368 17.0108 0.639015C17.0108 0.960175 18.269 0.826494 18.269 1.70846C18.269 2.64178 15.5628 2.90914 15.5628 3.46995C15.5628 3.65661 15.7763 3.73649 16.0446 3.73649C16.6353 3.73649 17.5712 3.46995 18.242 3.46995C18.6175 3.46995 18.966 3.54902 18.966 3.89626C18.966 4.56385 17.518 5.76534 17.518 6.29925C17.518 6.45983 17.6514 6.51363 17.7855 6.51363C18.3222 6.51363 19.2335 5.15155 20.0901 5.15155C21.5103 5.15155 20.5736 8.16752 21.3491 8.16752C22.1525 8.16752 21.8048 5.20372 22.9567 5.20372C23.8959 5.20372 24.5913 7.25947 25.2343 7.25947C25.3954 7.25947 25.5288 7.1266 25.5288 6.93912C25.5288 6.37995 24.7254 5.23062 24.7254 4.48396C24.7254 4.02994 25.0469 3.81556 25.4756 3.81556C26.0908 3.81556 26.922 4.1897 27.376 4.1897C27.5364 4.1897 27.6976 4.13672 27.6976 3.95006C27.6976 3.30937 25.3153 2.6157 25.3153 1.78834C25.3161 0.960175 26.6275 0.960175 26.6275 0.586032Z" fill="white"/>
<path d="M74.1246 4.9119C74.1246 7.28636 72.3877 9.10165 69.2495 9.60866C69.5989 9.63474 69.9204 9.63474 70.2427 9.63474C73.9102 9.63474 75.2519 7.98085 75.2519 6.59351C75.2519 5.81832 74.8224 5.12546 74.1246 4.9119ZM69.5989 7.60671C69.5989 5.71154 65.0478 5.23062 65.0478 4.8043C65.0478 4.45788 67.5888 3.86936 68.9018 3.84246C66.8926 1.28051 64.0293 1.54788 64.0293 1.09385C64.0293 0.826489 66.1735 0.291767 68.1533 0.291767C69.814 0.291767 71.3684 0.66591 71.3684 1.92039C71.3684 2.61569 70.8056 3.33708 70.8056 4.40326C70.8056 4.99097 71.0984 5.49798 71.8781 5.49798C72.7109 5.49798 72.8966 4.61764 72.8966 3.68188C72.8966 2.90914 72.7633 2.32143 72.7633 1.94729C72.7633 0.826489 73.5347 0.079834 74.6342 0.079834C75.5456 0.079834 75.7608 0.478431 77.1016 0.478431C76.3768 0.907187 76.1093 1.68156 76.1093 2.05407C76.1093 3.1765 76.8349 3.95005 76.8349 6.24626C76.8349 10.4621 72.8704 11.957 68.0191 11.957C66.6856 11.957 65.263 11.8503 63.8681 11.6375C63.6546 11.6106 63.6006 11.5576 63.6006 11.4239C63.6006 11.0767 65.5051 10.8892 65.5051 9.18235C65.5051 8.51394 65.29 7.87407 65.29 7.63442C65.29 7.50074 65.3971 7.42004 65.5051 7.42004C65.9068 7.42004 66.7126 8.96797 68.2081 8.96797C68.6057 8.96797 69.5989 8.83429 69.5989 7.60671ZM73.9642 1.70846C73.9642 2.08097 74.2587 2.37441 74.6342 2.37441C75.0097 2.37441 75.3051 2.08097 75.3051 1.70846C75.3051 1.33431 75.0097 1.04005 74.6342 1.04005C74.2587 1.04005 73.9642 1.33431 73.9642 1.70846Z" fill="white"/>
<path d="M71.5836 26.3718C71.5836 25.8118 70.1617 25.7588 70.0284 24.1832C70.0006 23.9435 69.9204 23.5172 69.6251 23.5172C69.1432 23.5172 69.5179 24.9853 68.9821 24.9853C67.75 24.9853 67.3483 22.5823 66.8926 22.5823C66.7847 22.5823 66.657 22.6621 66.657 22.9825C66.657 23.2767 66.711 23.4634 66.711 23.809C66.711 24.1571 66.6292 24.3975 66.3085 24.3975C65.5845 24.3975 64.9407 22.7151 64.3238 22.7151C64.1897 22.7151 64.0563 22.7958 64.0563 22.9295C64.0563 23.2498 64.5913 23.8359 64.5913 24.1302C64.5913 24.7717 62.8488 24.4236 62.8488 24.9584C62.8488 25.1988 63.0893 25.2779 63.4117 25.2779C63.9753 25.2779 64.8605 25.0391 65.3162 25.0391C65.5845 25.0391 65.9862 25.092 65.9862 25.4376C65.9862 25.8118 65.0208 26.2919 65.0208 26.6391C65.0208 26.7997 65.1812 26.8788 65.3154 26.8788C66.0394 26.8788 67.3205 25.6251 68.2319 25.6251C68.3922 25.6251 68.7939 25.705 68.7939 25.9455C68.7939 26.2919 67.8834 26.9049 67.8834 27.4127C67.8834 27.5464 67.9652 27.7061 68.1255 27.7061C68.6049 27.7061 69.2488 26.4525 70.1609 26.4525C70.5094 26.4525 71.0191 26.5862 71.2883 26.5862C71.5034 26.5862 71.5836 26.4525 71.5836 26.3718ZM72.2806 39.3184C72.7101 37.9849 73.2468 37.0491 74.1246 35.608C73.2468 35.1556 70.9128 34.1929 70.9128 32.6181C70.9128 30.7759 73.2173 29.3348 73.6951 29.3348C73.9103 29.3348 73.9634 29.5222 73.9634 29.8695C73.9634 30.8297 73.5078 32.3776 73.5078 33.2058C73.5078 33.9525 73.9904 34.6747 74.4191 34.6747C74.8748 34.6747 76.1347 33.0729 76.1347 31.4973C76.1347 28.6672 73.6411 27.8137 72.8696 27.8137C72.1456 27.8137 70.8318 28.9875 67.7492 28.9875C61.9906 28.9875 60.6768 23.3036 60.6768 20.82C60.6768 20.7132 60.7021 20.6863 60.7291 20.6863C60.8633 20.6863 61.4278 21.3816 63.2497 21.3816C64.188 21.3816 65.0462 21.1403 66.4141 21.1403C69.6234 21.1403 71.0453 23.3574 73.03 26.1851C74.2301 26.9318 77.1 28.1341 77.1 31.5242C77.1 34.5141 73.9094 36.1688 73.1372 39.3722C74.3643 39.2394 75.0891 37.0491 76.349 37.0491C76.9928 37.0491 77.2874 37.5569 77.2874 38.359C77.2874 39.532 76.6165 41.2951 75.3297 42.389C75.3558 42.2822 75.3558 42.1477 75.3558 41.988C75.3558 41.2413 75.0621 40.1743 74.2023 40.1743C72.868 40.1743 72.4393 41.6155 71.6891 42.8153C70.9111 40.0936 69.8656 37.6368 67.9905 36.1419C66.0934 34.6209 62.821 35.4474 62.821 32.6719C62.821 31.9236 63.3045 30.8566 63.3045 30.0024C63.3045 29.7089 63.2505 29.4415 63.0885 29.228C65.663 30.1898 64.7509 31.8967 66.3347 33.659C67.3205 34.7814 70.0546 35.8484 71.636 40.4661C71.6621 40.3333 71.6891 39.9868 71.6891 39.7464C71.6891 35.7955 66.4402 31.9236 65.9846 30.3219C69.0336 30.6691 69.5694 31.4174 71.0175 35.4213C71.3144 36.2495 72.2806 38.3052 72.2806 39.3184Z" fill="white"/>
<path d="M57.6257 11.0767C55.7481 11.0767 54.5153 10.1434 54.5153 9.66169C54.5153 9.42123 54.6756 9.26228 54.8916 9.26228C55.4806 9.26228 56.7675 10.1687 57.1954 10.1687C57.3042 10.1687 57.3835 10.1165 57.3835 9.95595C57.3835 9.47503 56.9278 8.67457 56.9278 8.27516C56.9278 8.16756 57.0088 8.0885 57.1692 8.0885C57.8924 8.0885 58.9649 8.38194 59.5294 8.38194C59.7167 8.38194 59.7699 8.27516 59.7699 8.16756C59.7699 7.58067 58.0265 6.43297 58.0265 6.08573C58.0265 5.76539 60.1929 5.28365 60.1929 4.77827C60.1929 4.24355 57.2477 4.61769 57.2477 4.10987C57.2477 3.73654 57.8114 3.09585 57.8114 2.8024C57.8114 2.66872 57.7034 2.61574 57.5169 2.61574C57.2755 2.61574 55.9887 3.12275 55.452 3.12275C55.1845 3.12275 54.8621 3.06976 54.8621 2.69481C54.8621 2.08102 55.9077 1.41424 57.5439 1.41424C60.192 1.41424 61.7751 3.22953 61.7751 6.2724C61.7767 10.1165 59.0737 11.0767 57.6257 11.0767ZM52.403 6.00585C52.403 5.71159 51.3558 5.1516 51.3558 4.83125C51.3558 4.77827 51.4082 4.75137 51.4891 4.75137C51.7853 4.75137 52.295 4.85815 52.6983 4.85815C53.0468 4.85815 53.1 3.36321 53.3634 3.36321C53.5507 3.36321 53.8714 4.77827 54.1684 4.77827C54.5161 4.77827 55.1591 4.37723 55.4275 4.37723C55.4806 4.37723 55.5346 4.40331 55.5346 4.45792C55.5346 4.64459 54.8646 5.36434 54.8646 5.57791C54.8646 5.81837 56.3666 6.11263 56.3666 6.32619C56.3666 6.59355 54.8376 6.56666 54.8376 6.80712C54.8376 6.99215 55.4013 7.74044 55.4013 7.9809C55.4013 8.0347 55.3735 8.0616 55.3203 8.0616C55.1051 8.0616 54.2748 7.68664 54.0334 7.68664C53.7381 7.68664 53.2611 8.78135 53.0198 8.78135C52.9396 8.78135 52.8865 8.67457 52.8865 8.54089L52.8325 7.47389C52.8325 7.36711 52.7801 7.25951 52.6451 7.25951C52.3228 7.25951 51.7059 7.23261 51.517 7.23261C51.3828 7.23261 51.3296 7.20653 51.3296 7.15273C51.3288 6.93917 52.403 6.19251 52.403 6.00585ZM51.6233 10.3814C52.0536 10.3814 52.1338 11.424 52.2156 12.037C52.2688 12.3581 52.3228 12.3842 52.457 12.3842C52.7793 12.3842 53.2873 11.1566 53.6317 11.1566C54.1398 11.1566 55.5084 12.5717 57.7868 12.5717C61.0265 12.5717 64.0829 10.3016 64.0829 6.29929C64.0829 2.42826 61.3464 0.15895 57.5717 0.15895C55.7768 0.15895 54.4613 1.0401 53.7643 1.0401C53.3413 1.067 52.6983 0 52.3751 0C52.2418 0 52.1076 0.264916 52.1076 0.719756C52.1076 1.01402 52.1076 1.94734 51.7853 1.94734C51.1406 1.94734 48.6504 0.106782 48.6504 0.77274C48.6504 1.38734 50.3095 3.25643 50.3095 3.73654C50.3095 4.21665 48.6765 4.67149 48.6765 4.99102C48.6765 5.57791 50.4174 5.68469 50.4174 6.43297C50.4174 7.17963 48.5947 7.76734 48.5947 8.32814C48.5947 8.78135 50.4174 8.46182 50.4174 9.02182C50.4174 9.58181 49.0782 11.4509 49.0782 11.9832C49.0782 12.1177 49.1044 12.1177 49.2108 12.1177C49.7204 12.1177 51.2478 10.3814 51.6233 10.3814Z" fill="white"/>
<path d="M39.488 57.2569C39.488 57.4974 39.4071 57.7648 39.1927 58.0305C38.8998 57.4974 38.0678 57.2301 37.6923 57.2309C34.9329 57.2309 35.9776 61.2087 33.0308 61.2087C31.7988 61.2087 31.6908 61.0481 31.2367 61.0481C31.0486 61.0481 30.9414 61.1288 30.9414 61.2886C30.9414 61.9839 31.9329 63.6907 34.6924 63.6907C37.4518 63.6907 40.1049 62.01 40.1049 59.9257C40.1049 59.5784 40.0247 59.2075 39.8635 58.8334C39.9707 58.6728 40.2399 58.566 40.4804 58.566C40.9083 58.566 41.1496 59.0486 41.5513 59.0486C41.9808 59.0486 42.3023 58.7266 42.3023 58.3003C42.3023 57.9514 42.1149 57.7126 41.7943 57.5504C42.0086 57.3914 42.1689 57.1241 42.1689 56.8306C42.1689 56.375 41.8466 55.9503 41.3099 55.9503C41.0686 55.9503 40.9091 56.0318 40.7217 56.2144C40.6694 55.7367 40.4002 55.2827 39.8905 55.2827C39.4889 55.2827 39.1927 55.5753 39.1927 56.031C39.1927 56.4549 39.488 56.8037 39.488 57.2569Z" fill="white"/>
<path d="M24.8067 52.2936C26.9501 52.8242 28.0218 53.9727 28.2353 55.3348C28.4496 56.6423 28.7171 57.7117 29.226 58.244C29.896 58.9931 31.2091 59.6566 32.3618 59.6566C33.3263 59.6566 34.1018 59.3395 34.1018 58.4576C34.1018 57.4957 32.7896 55.334 30.8606 55.334C30.6732 55.334 30.4319 55.3617 30.1635 55.3617C29.9222 55.3617 29.5737 55.3087 29.3602 55.1213C28.9323 54.7463 28.7973 52.7444 27.9939 51.5437C27.1104 50.2085 26.1459 49.8344 24.8336 49.8344C23.8969 49.8344 22.8506 50.3405 22.8506 51.0888C22.8506 51.5453 23.0919 51.8648 24.8067 52.2936ZM32.2816 58.2717C31.4766 58.2717 30.2715 57.4158 30.2715 56.9349C30.2715 56.5339 30.647 56.3203 30.9399 56.3203C31.6107 56.3203 32.815 57.1501 32.815 57.8438C32.8158 58.0304 32.6816 58.2717 32.2816 58.2717Z" fill="white"/>
<path d="M29.8151 37.4771C29.8151 35.7686 33.8883 34.8613 33.8883 32.7518C33.8883 32.4045 33.7542 31.7915 33.5128 31.3375C34.9314 32.1111 35.9769 33.4202 35.9769 34.4872C35.9769 36.3294 34.0487 37.1836 34.0487 38.3321C34.0487 39.6665 36.1111 39.88 36.1111 41.5348C36.1111 42.8952 34.155 44.4708 34.155 46.2323C34.155 47.5936 35.1204 48.7136 36.5922 48.901C36.1103 49.0078 35.6824 49.0877 35.2268 49.0877C32.5197 49.0877 29.7341 46.873 29.7341 44.2296C29.7341 42.9221 30.2969 41.776 31.1526 40.9479C31.9045 41.5885 32.6538 42.0149 33.1365 42.0149C33.5644 42.0149 33.7534 41.8021 33.7534 41.4818C33.7542 40.493 29.8151 39.5866 29.8151 37.4771ZM38.3617 50.9576C37.443 51.3766 37.0765 51.3048 37.0765 52.2398C37.0765 52.5862 36.9955 53.0378 36.9955 53.2791C36.9955 53.5994 37.0486 53.7869 37.4233 53.7869C38.3887 53.7869 39.9161 52.1591 39.9161 50.7701C39.9161 50.3952 39.7009 50.2379 39.4596 50.2379C39.2452 50.2379 39.0055 50.6633 38.3617 50.9576ZM38.2545 49.0347C38.2545 47.834 35.7626 47.8071 35.7626 45.9919C35.7626 45.537 36.0563 44.7643 36.647 43.9353C36.8891 45.3235 37.4495 46.0448 38.657 46.4997C41.0401 47.3792 41.3625 48.7136 41.3625 50.1303C41.3625 52.5332 39.6747 55.5223 35.3347 55.5223C31.8513 55.5223 29.3594 52.4248 29.3594 49.8091C29.3594 49.0877 29.5467 48.2881 30.0024 48.2881C30.4049 48.2881 30.5382 48.6076 30.8598 48.9271C32.0665 50.1303 33.3787 50.449 35.2807 50.449C36.9955 50.4498 38.2545 49.7561 38.2545 49.0347Z" fill="white"/>
<path d="M19.2821 49.6135C19.3476 50.171 18.9475 50.674 18.3887 50.7392C17.8292 50.8044 17.3219 50.405 17.2581 49.8482C17.1927 49.2899 17.5927 48.7853 18.1523 48.7201C18.7119 48.6549 19.2175 49.0551 19.2821 49.6135ZM14.2754 50.6634C14.3891 51.5747 15.2424 52.2659 16.2052 52.1591C16.5529 52.1208 16.8753 52.0263 17.0904 51.8926C17.3048 52.746 18.0239 53.2954 18.9958 53.1683C19.9824 53.0403 20.6532 52.2659 20.5469 51.278C20.5191 51.0122 20.4659 50.85 20.3865 50.6634C20.3865 50.6634 20.5166 50.6495 20.6148 50.6316C21.5826 50.449 22.2346 49.6754 22.1536 48.7413C22.0473 47.7803 21.1817 47.067 20.281 47.1779C19.9317 47.2203 19.6093 47.3531 19.3942 47.5398C19.152 46.7402 18.3969 46.0449 17.3661 46.2144C16.4343 46.3685 15.8183 47.1559 15.9116 48.1544C15.9271 48.3166 15.9647 48.5017 16.0457 48.6875C16.0457 48.6875 15.8878 48.7111 15.779 48.7266C14.9969 48.8424 14.1486 49.6265 14.2754 50.6634Z" fill="white"/>
</svg>
