<svg width="155" height="123" viewBox="0 0 155 123" fill="none" xmlns="http://www.w3.org/2000/svg">
<path d="M72.3418 70.4479C72.3412 71.6142 72.6861 72.7545 73.3328 73.7246C73.9795 74.6946 74.899 75.4508 75.975 75.8976C77.0509 76.3443 78.235 76.4615 79.3775 76.2343C80.52 76.0071 81.5696 75.4458 82.3935 74.6213C83.2173 73.7968 83.7784 72.7461 84.0059 71.6023C84.2334 70.4584 84.1169 69.2727 83.6713 68.1951C83.2257 67.1175 82.4709 66.1964 81.5025 65.5484C80.534 64.9003 79.3953 64.5544 78.2305 64.5544C76.6693 64.5544 75.1719 65.1753 74.0676 66.2804C72.9634 67.3856 72.3426 68.8846 72.3418 70.4479Z" fill="white"/>
<path d="M77.1091 52.1143L26.46 15.2736L34.9005 32.8973L74.0903 61.3966L77.1091 52.1143Z" fill="white"/>
<path d="M73.3031 63.735L37.0576 37.365L45.5249 55.0036L57.5403 63.744L73.3031 63.735Z" fill="white"/>
<path d="M64.3822 68.7258L54.4873 75.9087L66.5325 84.6819L70.2977 73.0558L64.3822 68.7258Z" fill="white"/>
<path d="M88.0951 85.9722L78.2091 93.167L68.3262 85.9663L78.221 78.7804L88.0772 85.9722H88.0951Z" fill="white"/>
<path d="M79.3066 52.1024L82.3164 61.3996L121.497 32.9152L129.956 15.2736L79.3066 52.1024Z" fill="white"/>
<path d="M98.8674 63.741L110.892 55.0185L119.362 37.365L83.0986 63.744L98.8674 63.741Z" fill="white"/>
<path d="M86.0625 73.0837L89.8932 84.677L101.917 75.9128L92.0613 68.7358L86.0625 73.0837Z" fill="white"/>
<path d="M122.785 0.791931L110.4 26.5813L128.757 13.231L122.785 0.791931Z" fill="white"/>
<path d="M27.667 13.2347L46.0113 26.585L33.6331 0.786682L27.667 13.2347Z" fill="white"/>
<path d="M75.3182 118.697C75.1447 118.434 74.9454 118.19 74.7233 117.967C74.5184 117.734 74.2856 117.527 74.0304 117.351L73.9917 117.333C74.1173 117.29 74.2405 117.24 74.3605 117.184C74.9019 116.913 75.3678 116.512 75.7167 116.016C76.0739 115.456 76.2504 114.8 76.2222 114.136C76.194 113.472 75.9625 112.833 75.5591 112.306C75.1141 111.768 74.5118 111.384 73.8371 111.207C72.9038 110.995 71.9474 110.903 70.9908 110.933H64.1504V122.342H68.7989V118.03C69.0537 118.028 69.3041 118.095 69.5246 118.223C69.7615 118.414 69.9569 118.651 70.0986 118.92C70.0986 118.92 72.2757 122.345 72.2757 122.345H77.5279L75.3182 118.694V118.697ZM71.9426 114.581C71.9391 114.692 71.9138 114.801 71.8682 114.903C71.8254 114.995 71.7693 115.08 71.7017 115.156C71.54 115.338 71.3204 115.459 71.0801 115.498C70.7441 115.572 70.4031 115.621 70.0599 115.644H68.4361V113.473H70.1254C70.8273 113.473 71.315 113.566 71.5648 113.75C71.6222 113.792 71.675 113.84 71.7225 113.893L71.7373 113.911C71.8265 114.02 71.8887 114.149 71.9188 114.286C71.9202 114.298 71.9202 114.31 71.9188 114.322C71.9345 114.397 71.9425 114.474 71.9426 114.551C71.9454 114.561 71.9474 114.571 71.9485 114.581H71.9426Z" fill="white"/>
<path d="M33.9902 119.208V122.338H37.8209V119.208H37.6722H33.9902Z" fill="white"/>
<path d="M15.2021 119.215V122.342H19.0298V119.215H18.8811H15.2021Z" fill="white"/>
<path d="M13.824 110.954H9.3628V117.803C9.37501 118.008 9.33819 118.213 9.25542 118.4C9.17265 118.588 9.04631 118.753 8.88694 118.881C8.46901 119.175 7.96284 119.316 7.45342 119.28C6.93736 119.314 6.42539 119.17 6.00206 118.872C5.84522 118.744 5.72109 118.58 5.63991 118.394C5.55873 118.208 5.52281 118.006 5.53512 117.803V110.954H0.699219V117.672C0.717891 118.335 0.85488 118.988 1.1037 119.602C1.31658 120.129 1.64845 120.598 2.07326 120.975C2.51825 121.392 3.03391 121.725 3.596 121.961C4.24535 122.209 4.9279 122.36 5.62137 122.407C6.40059 122.482 7.10843 122.517 7.7776 122.517C8.78138 122.535 9.78262 122.411 10.7517 122.148C11.4026 121.952 12.0089 121.631 12.5362 121.201C13.0821 120.777 13.5152 120.225 13.7972 119.593C14.0633 118.984 14.199 118.325 14.1957 117.66V110.954H13.824Z" fill="white"/>
<path d="M30.4393 115.276C29.8007 115.034 29.1444 114.842 28.4764 114.701L32.5598 114.501L32.4973 114.093C32.4324 113.528 32.2344 112.986 31.9195 112.511C31.6046 112.037 31.1819 111.644 30.6861 111.366C29.7225 110.821 28.3247 110.544 26.5224 110.544C25.3498 110.505 24.1787 110.657 23.0545 110.993C22.2847 111.23 21.5958 111.677 21.0649 112.283C20.7954 112.589 20.5965 112.95 20.4823 113.341C20.3681 113.733 20.3415 114.144 20.4042 114.547C20.467 114.95 20.6176 115.334 20.8454 115.672C21.0732 116.01 21.3725 116.294 21.7221 116.503C22.5549 117.098 23.8932 117.542 25.8056 117.89C27.2034 118.138 27.6555 118.352 27.7983 118.456C28.0957 118.683 28.0957 118.855 28.0957 118.912C28.0957 118.968 28.0957 119.162 27.7685 119.391C27.4082 119.6 26.9938 119.695 26.5789 119.665C26.2889 119.688 25.9975 119.65 25.7227 119.555C25.448 119.459 25.1957 119.309 24.9818 119.111C24.7401 118.831 24.5906 118.482 24.5535 118.114L24.497 117.786L19.7949 118.03L19.8366 118.42C19.8944 119.001 20.0708 119.563 20.3548 120.072C20.6387 120.581 21.0242 121.027 21.4872 121.381C22.4538 122.155 24.1014 122.53 26.5253 122.53C27.6769 122.559 28.8255 122.398 29.9247 122.054C30.7733 121.782 31.53 121.28 32.1107 120.603C32.629 120 32.9158 119.231 32.9197 118.435C32.9226 117.773 32.7061 117.127 32.304 116.601C31.8099 116.002 31.1666 115.545 30.4393 115.276ZM26.4183 114.29C25.4844 114.135 25.2286 113.992 25.1483 113.953C25.0175 113.864 24.9907 113.802 24.9907 113.79C24.9907 113.742 24.9907 113.626 25.2019 113.492C25.477 113.35 25.7852 113.285 26.0941 113.304C26.5139 113.278 26.9322 113.375 27.2986 113.581C27.4366 113.68 27.5533 113.806 27.6417 113.952C27.7301 114.097 27.7884 114.259 27.8131 114.427L27.8429 114.57C27.4176 114.472 26.9447 114.382 26.4183 114.29Z" fill="white"/>
<path d="M57.0986 110.936V122.345H61.5033V110.936H61.1315H57.0986Z" fill="white"/>
<path d="M82.7529 110.954V122.345H87.6245V117.988H92.7757V115.084H87.6096V114.006H93.6679V110.954H82.7529Z" fill="white"/>
<path d="M136.431 117.514C136.309 118.029 136.037 118.496 135.649 118.854C135.186 119.18 134.625 119.335 134.06 119.292C133.45 119.333 132.847 119.134 132.38 118.738C131.999 118.381 131.806 117.654 131.806 116.588C131.806 115.733 131.97 115.099 132.294 114.739C132.734 114.217 133.362 113.967 134.215 113.967C134.559 113.962 134.902 114.023 135.223 114.146C135.502 114.253 135.753 114.421 135.958 114.637C136.106 114.813 136.22 115.015 136.294 115.233L136.407 115.51L140.886 114.742L140.699 114.31C140.242 113.173 139.409 112.227 138.34 111.63C137.305 111.058 135.878 110.769 134.102 110.769C131.827 110.769 130.034 111.272 128.77 112.258C127.506 113.244 126.824 114.739 126.824 116.609C126.775 117.867 127.167 119.102 127.931 120.102C128.604 120.962 129.503 121.618 130.527 121.996C131.743 122.38 133.015 122.559 134.289 122.523C135.352 122.558 136.413 122.418 137.43 122.109C138.233 121.839 138.962 121.387 139.56 120.787C140.151 120.17 140.585 119.419 140.824 118.598L140.943 118.217L136.526 117.186L136.431 117.514Z" fill="white"/>
<path d="M147.899 119.179V117.839H154.29V114.936H147.896V113.968H154.808V110.954H143.027V122.345H154.998V119.179H147.899Z" fill="white"/>
<path d="M51.2842 110.936H46.3948L41.1455 122.345H46.1182L46.7487 120.597H50.8233L51.4746 122.345H56.5306L51.2842 110.936ZM47.3614 117.92L48.8038 114.069L50.2493 117.908L47.3614 117.92Z" fill="white"/>
<path d="M123.796 118.703C123.624 118.44 123.424 118.196 123.201 117.976C122.996 117.74 122.761 117.532 122.502 117.356L122.466 117.339C122.591 117.296 122.713 117.247 122.832 117.193C123.373 116.92 123.839 116.518 124.188 116.022C124.547 115.463 124.725 114.807 124.697 114.143C124.67 113.478 124.438 112.839 124.034 112.312C123.589 111.774 122.987 111.39 122.312 111.216C121.38 111.001 120.424 110.908 119.468 110.939H112.628V122.348H117.273V118.035C117.528 118.034 117.779 118.101 117.999 118.229C118.238 118.418 118.434 118.657 118.573 118.929L120.753 122.351H126.003L123.796 118.697V118.703ZM120.179 115.156C120.017 115.338 119.798 115.459 119.558 115.498C119.222 115.573 118.881 115.622 118.537 115.644H116.914V113.473H118.606C119.308 113.473 119.787 113.565 120.042 113.75C120.12 113.804 120.189 113.87 120.245 113.947C120.336 114.072 120.394 114.219 120.414 114.373C120.417 114.431 120.417 114.49 120.414 114.548C120.417 114.772 120.337 114.989 120.188 115.156H120.179Z" fill="white"/>
<path d="M107.956 112.282C106.698 111.281 104.896 110.772 102.603 110.772C100.366 110.772 98.5849 111.29 97.312 112.309C96.0391 113.327 95.358 114.813 95.358 116.663C95.3153 117.851 95.6609 119.021 96.3425 119.995C96.9915 120.876 97.8806 121.551 98.9032 121.94C100.145 122.371 101.455 122.573 102.77 122.535C104.088 122.575 105.4 122.338 106.621 121.838C107.606 121.425 108.45 120.733 109.048 119.846C109.646 118.861 109.94 117.722 109.895 116.57C109.895 114.739 109.244 113.298 107.956 112.282ZM104.685 119.015C104.103 119.468 103.386 119.714 102.649 119.714C101.912 119.714 101.196 119.468 100.613 119.015C100.551 118.955 100.494 118.89 100.441 118.822C100.423 118.8 100.407 118.777 100.393 118.753C100.352 118.697 100.313 118.64 100.277 118.58L100.242 118.509C100.201 118.433 100.164 118.354 100.131 118.274C100.125 118.252 100.117 118.232 100.108 118.211C100.071 118.108 100.039 118.002 100.013 117.896C100.011 117.889 100.011 117.882 100.013 117.875C99.9947 117.803 99.9798 117.729 99.9649 117.654C99.9649 117.631 99.9649 117.607 99.9649 117.583C99.9649 117.514 99.9441 117.446 99.9352 117.371C99.9263 117.297 99.9352 117.276 99.9203 117.228C99.9054 117.181 99.9203 117.121 99.9203 117.065C99.9203 116.952 99.9203 116.835 99.9203 116.713C99.9203 116.713 99.9203 116.689 99.9203 116.675C99.9203 115.605 100.173 114.834 100.667 114.37C101.213 113.884 101.927 113.632 102.656 113.667C103.403 113.627 104.136 113.876 104.703 114.364C104.775 114.429 104.841 114.5 104.899 114.578L104.967 114.67C105 114.718 105.033 114.766 105.063 114.816C105.089 114.858 105.113 114.902 105.134 114.947C105.164 115.007 105.191 115.067 105.214 115.129C105.232 115.174 105.253 115.215 105.268 115.26C105.305 115.365 105.334 115.473 105.357 115.582C105.357 115.629 105.375 115.68 105.387 115.731C105.399 115.781 105.413 115.9 105.422 115.99C105.431 116.079 105.422 116.085 105.437 116.133C105.437 116.273 105.458 116.416 105.458 116.567C105.418 117.735 105.158 118.549 104.676 119.009L104.685 119.015Z" fill="white"/>
</svg>
