<svg width="64" height="64" viewBox="0 0 64 64" fill="none" xmlns="http://www.w3.org/2000/svg">
<path d="M64 0V64H0V0H64ZM18.6611 34.6289L15.4668 42.7051C15.1841 43.4041 14.6781 43.5185 13.8799 43.5186V44.6445H18.5918V43.5186H17.5303C17.2327 43.5185 17.0537 43.4486 17.0537 43.2354C17.0537 43.0915 17.0939 42.9671 17.1436 42.8184C17.2184 42.6187 17.6592 41.4297 17.6592 41.4297H21.2305C21.2305 41.4297 21.7022 42.7196 21.7568 42.8535C21.8164 43.0172 21.8457 43.1714 21.8457 43.2656C21.8455 43.4439 21.7311 43.5186 21.4238 43.5186H20.3135V44.6445H30.3135V43.5186H29.2119C28.7756 43.5185 28.5918 43.3792 28.5918 42.9775V39.9512H29.3857C31.0623 39.9512 31.7968 40.6461 31.7969 42.3672V42.8887C31.797 44.2525 32.2878 44.957 33.751 44.957C35.001 44.957 35.8242 44.2917 35.8242 42.5654V42.293H34.8271V42.5654C34.8271 43.2349 34.6391 43.5184 34.2822 43.5186C33.9202 43.5186 33.7012 43.2901 33.7012 42.2637V41.6777C33.7011 40.1351 32.8085 39.6985 31.752 39.6191V39.5947C32.6547 39.5451 34.5838 39.163 34.584 37.2236C34.584 35.6611 33.5576 34.6289 31.375 34.6289H24.7979V35.7451H25.8486C26.3199 35.7451 26.4736 35.8892 26.4736 36.291V42.9775C26.4736 43.3793 26.2802 43.5186 25.8486 43.5186H25.4424C24.6438 43.5186 24.1273 43.4143 23.8545 42.7051L20.5811 34.6289H18.6611ZM41.1475 34.3262C38.1862 34.3262 36.3253 36.5833 36.3252 39.6338C36.3252 42.7093 38.2158 44.957 41.1475 44.957C43.0322 44.9569 44.054 44.0932 44.2871 43.8799L44.8477 44.6445H45.874V41.1719C45.874 40.5817 46.0926 40.4229 46.6777 40.4229H46.9561V39.3018H42.333V40.4229H43.0176C43.5133 40.423 43.8153 40.6461 43.8154 41.1318V41.7178C43.8153 42.8634 43.1115 43.662 41.5791 43.6621C39.6594 43.6621 38.6963 41.9354 38.6963 39.6338C38.6964 37.367 39.6595 35.6309 41.5195 35.6309C43.4588 35.6311 44.1186 37.4368 44.3418 38.0469H45.582V34.6289H44.5254L44.1533 35.4473C43.935 35.2538 42.9974 34.3263 41.1475 34.3262ZM53.3896 34.3262C50.1059 34.3262 47.9328 36.623 47.9326 39.6338C47.9326 42.6398 50.1058 44.957 53.3896 44.957C56.6635 44.957 58.8408 42.6398 58.8408 39.6338C58.8406 36.623 56.6634 34.3262 53.3896 34.3262ZM5.93262 35.7451H6.93457C7.38593 35.7451 7.63863 35.9485 7.63867 36.3105V42.7793C7.6386 43.2008 7.41065 43.5186 6.875 43.5186H5.93262V44.6445H11.4688V43.5186H10.7148C10.0154 43.5186 9.75684 43.3096 9.75684 42.7441V40.0166H10.377C11.3145 40.0166 11.7217 40.4229 11.7217 41.4844V41.8164H12.7734V37.208H11.7217V37.4072C11.7216 38.1858 11.4387 38.9003 10.4668 38.9004H9.75684V35.7451H11.7266C13.9439 35.7451 14.1774 36.8613 14.3262 38.0469H15.4072V34.6289H5.93262V35.7451ZM53.3896 35.5068C55.7605 35.5069 56.4696 37.4762 56.4697 39.6338C56.4697 41.7916 55.7607 43.7665 53.3896 43.7666C51.0037 43.7666 50.2988 41.7916 50.2988 39.6338C50.2989 37.4761 51.0038 35.5068 53.3896 35.5068ZM19.4697 36.6729L20.8193 40.3184H18.0762L19.4248 36.6729H19.4697ZM30.4521 35.7451C31.851 35.7451 32.4814 36.4101 32.4814 37.2881C32.4813 38.2552 31.7418 38.8359 30.4521 38.8359H28.5918V35.7451H30.4521ZM54.5947 18.7305C52.7049 18.7305 50.7949 19.6886 50.7949 21.7422C50.7952 23.6019 52.2783 24.4503 53.9844 24.8174C54.5498 24.9364 54.8875 25.0012 55.4033 25.1104C56.683 25.3831 57.5359 25.7695 57.5361 26.6572C57.5361 27.3319 56.8219 28.0566 55.4082 28.0566C53.4341 28.0565 52.2636 26.955 52.0205 25.2734H50.8594V29.0391H51.8867L52.2188 28.1406C52.4618 28.3539 53.4245 29.3359 55.2549 29.3359C57.5861 29.3359 59.3466 28.2995 59.3467 26.251C59.3467 24.2668 57.7052 23.4135 55.7012 23.0117C55.344 22.9224 55.0165 22.8675 54.6494 22.7832C53.4045 22.5154 52.6056 22.2081 52.6055 21.3154C52.6055 20.5416 53.4242 20.0108 54.6543 20.0107C56.5045 20.0107 57.2186 21.1863 57.6006 22.4512H58.7266V19.0283H57.9131L57.4121 19.7822C57.3165 19.6865 56.3938 18.7305 54.5947 18.7305ZM4.08203 19.0283V20.1445H4.29102C4.8663 20.1446 5.07907 20.269 5.20312 20.6807L8.04102 29.0391H10.1445L11.9004 23.8398H11.9297L13.5127 29.0391H15.5908L18.3242 21.0625C18.5772 20.3135 18.9194 20.1445 19.6387 20.1445H19.9463C20.6455 20.1446 20.9434 20.3433 20.9434 20.998V26.8662C20.9433 27.7737 20.6653 27.918 20.1445 27.918H19.3066V29.0391H29.2119V25.2734H28.1162C27.9525 27.0096 27.4561 27.918 26.082 27.918H23.0664V24.4004H23.7852C24.6928 24.4004 25.1044 24.8668 25.1045 26.0918V26.3008H26.1611V21.4189H25.1045V21.6123C25.1045 22.8475 24.6929 23.2891 23.7852 23.2891H23.0664V20.1445H25.7197C27.7287 20.1445 27.8578 21.0027 28.0859 22.4512H29.2119V19.0283H15.4814V20.1445H16.2109C16.7414 20.1446 16.8554 20.3626 16.8555 20.6006C16.8555 20.7891 16.8008 20.9386 16.7412 21.1172L14.8174 26.5732H14.7871L13.1309 20.9873C13.0812 20.8435 13.0068 20.6302 13.0068 20.4766C13.0069 20.2784 13.1255 20.1446 13.4326 20.1445H14.2314V19.0283H9.71289V20.1445H10.0693C10.5108 20.1445 10.814 20.2586 10.9678 20.7051L11.2207 21.4189L9.41504 26.6729H9.38574L7.49023 21.0869C7.41092 20.8786 7.35645 20.6898 7.35645 20.541C7.35658 20.3428 7.4904 20.1447 7.82227 20.1445H8.45801V19.0283H4.08203ZM30.2637 20.1445H31.1367C31.7417 20.1445 31.9452 20.3428 31.9453 20.7988V27.248C31.9452 27.7736 31.6578 27.9179 31.2314 27.918H30.2637V29.0391H39.5205V25.2734H38.3643C38.2105 26.9947 37.8976 27.918 36.3301 27.918H34.0537V20.8389C34.0537 20.2834 34.2818 20.1446 34.9463 20.1445H35.7949V19.0283H30.2637V20.1445ZM40.5273 20.1445H41.4053C42.015 20.1446 42.2186 20.3428 42.2188 20.7988V27.248C42.2187 27.7737 41.9255 27.918 41.5039 27.918H40.5273V29.0391H49.793V25.2734H48.6328C48.479 26.9947 48.1561 27.918 46.6084 27.918H44.3271V20.8389C44.3272 20.2834 44.555 20.1445 45.2197 20.1445H46.0625V19.0283H40.5273V20.1445Z" fill="white"/>
</svg>
