<svg width="186" height="39" viewBox="0 0 186 39" fill="none" xmlns="http://www.w3.org/2000/svg">
<path d="M45.22 13.7377H48.9154L51.2044 20.7722H51.249L53.1677 13.7377H56.9567L59.0341 20.7722H59.083L61.1846 13.7377H64.6972L60.701 24.949H57.2819L54.9483 17.4965H54.9037L52.8262 24.949H49.3385L45.2281 13.7377H45.22ZM76.1749 23.0131C75.6177 23.7193 74.918 24.2673 74.0724 24.6532C73.2275 25.0388 72.3489 25.2296 71.438 25.2296C70.577 25.2296 69.7636 25.0915 69.0034 24.8153C68.2389 24.5396 67.5763 24.1417 67.0152 23.6263C66.4544 23.1104 66.0112 22.4934 65.686 21.7708C65.3608 21.0483 65.202 20.2409 65.202 19.3477C65.202 18.4545 65.3646 17.6466 65.686 16.9241C66.0112 16.2016 66.4544 15.5845 67.0152 15.0691C67.5763 14.5537 68.2389 14.16 69.0034 13.88C69.7636 13.6039 70.577 13.4658 71.438 13.4658C72.2394 13.4658 72.9672 13.6039 73.6219 13.88C74.2759 14.1558 74.8289 14.5537 75.2843 15.0691C75.7398 15.5845 76.0893 16.2016 76.3335 16.9241C76.5812 17.6466 76.7033 18.4545 76.7033 19.3477V20.4313H68.6619C68.8001 21.0933 69.1008 21.6208 69.5642 22.0106C70.028 22.4042 70.5966 22.5993 71.2717 22.5993C71.8408 22.5993 72.3251 22.4732 72.7152 22.2177C73.1096 21.9659 73.4507 21.6371 73.7433 21.2391L76.1707 23.0131H76.1749ZM73.2394 18.0772C73.2556 17.4927 73.0605 16.9932 72.6626 16.5793C72.264 16.1652 71.7433 15.958 71.1173 15.958C70.7314 15.958 70.3938 16.0189 70.1012 16.1407C69.8083 16.2625 69.5603 16.4211 69.3531 16.6158C69.1455 16.8066 68.9828 17.03 68.8653 17.2856C68.7512 17.5373 68.6863 17.8053 68.67 18.081H73.2437L73.2394 18.0772ZM85.2907 17.0386C84.7826 16.4094 84.1117 16.0926 83.283 16.0926C82.9896 16.0926 82.7054 16.1617 82.4289 16.2997C82.1524 16.4378 82.0142 16.6771 82.0142 17.0141C82.0142 17.2902 82.1566 17.4931 82.4408 17.6268C82.7258 17.7611 83.0872 17.8747 83.5265 17.972C83.9658 18.0737 84.4373 18.1791 84.937 18.2967C85.4373 18.4107 85.9089 18.5929 86.3475 18.8365C86.7868 19.0843 87.1489 19.4171 87.4331 19.8395C87.718 20.2614 87.8605 20.8257 87.8605 21.5362C87.8605 22.2464 87.7012 22.8553 87.3847 23.3222C87.0675 23.7892 86.6647 24.1665 86.1735 24.4508C85.6808 24.7347 85.1244 24.9337 84.5103 25.0515C83.8921 25.1652 83.2865 25.2261 82.6851 25.2261C81.9005 25.2261 81.1075 25.1125 80.3068 24.893C79.5054 24.6699 78.8268 24.272 78.2738 23.7038L80.3756 21.3737C80.7012 21.7755 81.0591 22.0761 81.4486 22.2871C81.8394 22.4981 82.2991 22.5997 82.8233 22.5997C83.2254 22.5997 83.5875 22.5426 83.9089 22.4252C84.2338 22.3115 84.3924 22.0962 84.3924 21.7918C84.3924 21.4873 84.25 21.2802 83.9658 21.1344C83.6808 20.9882 83.3194 20.8664 82.8801 20.7648C82.4408 20.6632 81.9693 20.5577 81.4696 20.4402C80.9693 20.3266 80.4977 20.152 80.0584 19.9205C79.6198 19.6889 79.2577 19.3644 78.9735 18.9381C78.6886 18.5162 78.5461 17.9519 78.5461 17.2414C78.5461 16.5798 78.6808 16.0115 78.9489 15.5365C79.217 15.0618 79.5707 14.6677 80.01 14.3594C80.4486 14.0506 80.9531 13.8234 81.5265 13.6776C82.0956 13.5313 82.6724 13.4581 83.2584 13.4581C83.998 13.4581 84.7419 13.5678 85.4984 13.7831C86.2542 13.9979 86.8928 14.3838 87.4128 14.9357L85.2865 17.0343L85.2907 17.0386ZM97.3784 16.5064H94.3293V20.2447C94.3293 20.5534 94.3412 20.8334 94.3735 21.0852C94.4064 21.3369 94.4752 21.556 94.5812 21.7426C94.6907 21.9252 94.8577 22.0714 95.0773 22.1687C95.3005 22.2704 95.5973 22.3193 95.9672 22.3193C96.1503 22.3193 96.3945 22.2987 96.6949 22.2623C96.9959 22.2258 97.2233 22.1366 97.3784 21.9985V24.8805C96.9917 25.0186 96.5931 25.112 96.1749 25.1567C95.7601 25.2052 95.3496 25.2257 94.951 25.2257C94.3657 25.2257 93.8289 25.1648 93.337 25.043C92.8451 24.9212 92.4142 24.7223 92.0443 24.4543C91.6745 24.1863 91.3854 23.8334 91.1784 23.4028C90.9707 22.9727 90.8654 22.4492 90.8654 21.8321V16.5021H88.6458V13.7377H90.8654V10.4132H94.3328V13.7377H97.3819V16.5021L97.3784 16.5064ZM103.336 13.7377H106.662V15.26H106.706C106.812 15.0447 106.966 14.8294 107.17 14.6146C107.369 14.3993 107.609 14.2085 107.885 14.0379C108.162 13.8676 108.48 13.7296 108.834 13.624C109.187 13.5186 109.571 13.4615 109.986 13.4615C110.77 13.4615 111.472 13.624 112.078 13.9448C112.684 14.2694 113.141 14.7767 113.452 15.4671C113.848 14.7441 114.337 14.2287 114.908 13.9203C115.474 13.6116 116.18 13.4577 117.006 13.4577C117.764 13.4577 118.4 13.5833 118.916 13.8389C119.432 14.0906 119.836 14.44 120.138 14.8783C120.437 15.3165 120.655 15.8324 120.787 16.4249C120.915 17.0176 120.981 17.6506 120.981 18.3285V24.949H117.515V18.4219C117.515 17.8984 117.403 17.452 117.178 17.0742C116.957 16.6969 116.56 16.5099 115.986 16.5099C115.59 16.5099 115.253 16.5751 114.985 16.705C114.717 16.8349 114.5 17.0176 114.337 17.2449C114.173 17.476 114.061 17.744 113.991 18.0527C113.922 18.361 113.891 18.6818 113.891 19.0227V24.949H110.42V19.0227C110.42 18.8237 110.413 18.5762 110.397 18.2839C110.382 17.9918 110.328 17.7157 110.235 17.452C110.141 17.1921 109.99 16.9687 109.784 16.7821C109.575 16.5953 109.272 16.5061 108.868 16.5061C108.422 16.5061 108.061 16.5871 107.784 16.7496C107.508 16.9121 107.296 17.1269 107.15 17.395C107.003 17.6629 106.906 17.9674 106.86 18.3083C106.816 18.6453 106.792 18.9982 106.792 19.3678V24.949H103.328V13.7377H103.336ZM123.056 19.3434C123.056 18.4503 123.219 17.6424 123.541 16.9198C123.868 16.1973 124.31 15.5802 124.872 15.0649C125.432 14.5494 126.095 14.1558 126.86 13.8753C127.624 13.5996 128.439 13.4615 129.301 13.4615C130.162 13.4615 130.973 13.5996 131.738 13.8753C132.503 14.1515 133.162 14.5494 133.725 15.0649C134.288 15.5802 134.73 16.1973 135.056 16.9198C135.383 17.6424 135.541 18.4503 135.541 19.3434C135.541 20.2362 135.378 21.0441 135.056 21.7666C134.734 22.4892 134.288 23.1104 133.725 23.6216C133.166 24.1374 132.503 24.5311 131.738 24.8111C130.973 25.0911 130.166 25.2253 129.301 25.2253C128.435 25.2253 127.624 25.0872 126.86 24.8111C126.099 24.5349 125.439 24.1374 124.872 23.6216C124.31 23.1062 123.868 22.4892 123.541 21.7666C123.219 21.0441 123.056 20.2362 123.056 19.3434ZM126.522 19.3434C126.522 20.1878 126.766 20.8738 127.251 21.3974C127.733 21.9209 128.416 22.1808 129.297 22.1808C130.174 22.1808 130.857 21.9209 131.343 21.3974C131.823 20.8738 132.068 20.1878 132.068 19.3434C132.068 18.4991 131.823 17.813 131.343 17.2894C130.853 16.7655 130.174 16.5061 129.297 16.5061C128.416 16.5061 127.733 16.7655 127.251 17.2894C126.763 17.813 126.522 18.4948 126.522 19.3434ZM137.617 13.7377H140.943V15.2595H140.99C141.094 15.0447 141.249 14.8294 141.451 14.6142C141.649 14.3993 141.89 14.2085 142.166 14.0379C142.445 13.8672 142.759 13.7296 143.112 13.6237C143.47 13.5181 143.853 13.4615 144.269 13.4615C145.146 13.4615 145.856 13.5953 146.396 13.8672C146.935 14.1352 147.355 14.5087 147.657 14.9877C147.956 15.4628 148.157 16.0271 148.266 16.6724C148.371 17.3178 148.429 18.0159 148.429 18.771V24.949H144.964V19.4652C144.964 19.1402 144.952 18.8074 144.929 18.4623C144.901 18.1175 144.835 17.7967 144.719 17.5043C144.603 17.2123 144.428 16.9726 144.188 16.7899C143.947 16.6034 143.605 16.5142 143.159 16.5142C142.712 16.5142 142.352 16.5953 142.072 16.7577C141.797 16.9198 141.587 17.1351 141.439 17.4031C141.292 17.6707 141.195 17.9751 141.152 18.3165C141.106 18.6531 141.083 19.0064 141.083 19.3756V24.949H137.617V13.7377ZM150.901 13.7377H154.367V15.5357H154.41C154.783 14.8457 155.22 14.326 155.729 13.977C156.237 13.6322 156.874 13.4577 157.646 13.4577C157.844 13.4577 158.046 13.4658 158.248 13.4817C158.446 13.498 158.636 13.5267 158.806 13.5752V16.7376C158.559 16.6604 158.318 16.6034 158.077 16.5626C157.837 16.5262 157.588 16.5061 157.324 16.5061C156.665 16.5061 156.137 16.5995 155.752 16.7821C155.364 16.9649 155.073 17.2247 154.86 17.5532C154.654 17.8864 154.522 18.28 154.456 18.7426C154.394 19.2054 154.363 19.7127 154.363 20.2649V24.949H150.898V13.7377H150.901ZM159.592 19.3434C159.592 18.4503 159.755 17.6424 160.081 16.9198C160.407 16.1973 160.849 15.5802 161.412 15.0649C161.971 14.5494 162.635 14.1558 163.399 13.8753C164.164 13.5996 164.975 13.4615 165.837 13.4615C166.702 13.4615 167.513 13.5996 168.278 13.8753C169.042 14.1515 169.702 14.5494 170.265 15.0649C170.828 15.5802 171.27 16.1973 171.596 16.9198C171.922 17.6424 172.077 18.4503 172.077 19.3434C172.077 20.2362 171.918 21.0441 171.596 21.7666C171.27 22.4892 170.828 23.1104 170.265 23.6216C169.706 24.1374 169.042 24.5311 168.278 24.8111C167.513 25.0911 166.706 25.2253 165.837 25.2253C164.971 25.2253 164.164 25.0872 163.399 24.8111C162.639 24.5349 161.975 24.1374 161.412 23.6216C160.849 23.1062 160.407 22.4892 160.081 21.7666C159.755 21.0441 159.592 20.2362 159.592 19.3434ZM163.062 19.3434C163.062 20.1878 163.306 20.8738 163.791 21.3974C164.272 21.9209 164.956 22.1808 165.832 22.1808C166.714 22.1808 167.397 21.9209 167.878 21.3974C168.363 20.8738 168.608 20.1878 168.608 19.3434C168.608 18.4991 168.363 17.813 167.878 17.2894C167.393 16.7655 166.714 16.5061 165.832 16.5061C164.956 16.5061 164.272 16.7655 163.791 17.2894C163.303 17.813 163.062 18.4948 163.062 19.3434ZM184.731 23.0127C184.176 23.7193 183.478 24.2673 182.632 24.6529C181.786 25.0384 180.909 25.2292 179.997 25.2292C179.135 25.2292 178.32 25.0911 177.564 24.8153C176.799 24.5392 176.135 24.1413 175.573 23.6259C175.013 23.1104 174.571 22.4934 174.245 21.7708C173.919 21.0483 173.76 20.2405 173.76 19.3473C173.76 18.4545 173.923 17.6466 174.245 16.9241C174.571 16.2016 175.013 15.5845 175.573 15.0691C176.135 14.5533 176.799 14.1596 177.564 13.8796C178.32 13.6035 179.135 13.4654 179.997 13.4654C180.796 13.4654 181.526 13.6035 182.182 13.8796C182.834 14.1558 183.389 14.5533 183.843 15.0691C184.297 15.5845 184.646 16.2016 184.891 16.9241C185.139 17.6466 185.263 18.4545 185.263 19.3473V20.4313H177.222C177.357 21.093 177.66 21.6204 178.122 22.0101C178.588 22.4042 179.155 22.5989 179.83 22.5989C180.4 22.5989 180.882 22.4728 181.274 22.2172C181.67 21.9656 182.011 21.6367 182.302 21.2391L184.728 23.0127H184.731ZM181.797 18.0767C181.813 17.4923 181.619 16.9932 181.219 16.579C180.823 16.1652 180.303 15.958 179.675 15.958C179.291 15.958 178.952 16.0189 178.658 16.1407C178.366 16.2625 178.118 16.4207 177.912 16.6154C177.703 16.8062 177.54 17.0296 177.424 17.2852C177.311 17.5369 177.245 17.8049 177.23 18.081H181.802L181.797 18.0767ZM11.8813 5.66555H5.66939V11.8733H11.8813V5.66555ZM11.8813 26.8135H5.66939V33.0212H11.8813V26.8135ZM33.0436 5.66555H26.8317V11.8733H33.0436V5.66555ZM33.0436 26.8135H26.8317V33.0212H33.0436V26.8135ZM4.3925 14.9539L0 19.3434L4.3925 23.733L8.78498 19.3434L4.3925 14.9539ZM19.3565 29.9078L14.964 34.2973L19.3565 38.6868L23.749 34.2973L19.3565 29.9078ZM19.3565 0L14.964 4.38952L19.3565 8.77905L23.749 4.38952L19.3565 0ZM34.3205 14.9539L29.928 19.3434L34.3205 23.733L38.713 19.3434L34.3205 14.9539Z" fill="white"/>
</svg>
