<svg width="175" height="70" viewBox="0 0 175 70" fill="none" xmlns="http://www.w3.org/2000/svg">
<g clip-path="url(#clip0_416_1753)">
<path d="M89.533 0.038887C95.7913 -0.176376 102.091 0.764244 107.993 2.85725C116.873 5.97219 124.81 11.6806 130.617 19.0749C133.172 22.3189 135.311 25.8847 136.988 29.6573C137.285 30.2851 137.515 30.9907 137.355 31.6901C137.16 32.8644 136.13 33.8351 134.945 33.9524C133.715 34.1322 132.444 33.365 132.005 32.2065C128.67 24.3654 122.979 17.5544 115.88 12.8398C111.491 9.90936 106.57 7.77544 101.428 6.58073C94.7966 5.03087 87.8152 5.03087 81.1829 6.57601C71.7131 8.75505 63.0424 14.1828 56.927 21.7247C54.334 24.9024 52.1931 28.4448 50.579 32.2134C50.2297 33.0891 49.4272 33.7756 48.4908 33.9293C47.5878 34.1035 46.6048 33.7919 45.9751 33.1199C45.2328 32.3767 44.9901 31.1888 45.3728 30.2134C49.8148 19.7192 58.0398 10.9033 68.1522 5.65585C74.7387 2.21111 82.1065 0.28965 89.533 0.038887Z" fill="white"/>
<path d="M81.2628 32.3504C81.2254 31.8054 81.7414 31.3976 82.2528 31.3846C82.9173 31.3668 83.5837 31.3724 84.2495 31.3818C84.7122 31.3976 85.2523 31.7057 85.2504 32.2249C85.2742 38.3227 85.236 44.4225 85.2708 50.5239C87.7434 47.7765 90.2372 45.0442 92.7185 42.305C93.2073 41.8234 93.5935 41.0939 94.3537 41.0311C95.3778 40.9888 96.4045 41.014 97.4298 41.0154C97.825 40.9799 98.266 41.3418 98.1272 41.7633C97.9652 42.0885 97.6679 42.3118 97.4251 42.5701C94.742 45.2491 92.0486 47.9187 89.3791 50.6092C91.9578 53.5506 94.5007 56.522 97.0676 59.4743C97.3978 59.8944 97.8114 60.251 98.0882 60.7141C98.2912 61.0761 97.9548 61.5167 97.5665 61.5338C96.7141 61.5816 95.8598 61.5338 95.0052 61.5543C94.5609 61.544 94.0803 61.6089 93.677 61.3801C93.2517 61.1362 92.9934 60.7004 92.6891 60.3336C90.2132 57.2181 87.7536 54.0902 85.2687 50.9801C85.2434 54.0472 85.2612 57.1129 85.2591 60.1779C85.2497 60.5317 85.3221 60.9579 85.0138 61.2161C84.5229 61.6895 83.7923 61.5235 83.1798 61.5543C82.6362 61.5358 82.0004 61.6547 81.5589 61.2537C81.3129 61.0624 81.2485 60.7359 81.2581 60.4456C81.2649 51.0792 81.2553 41.7141 81.2628 32.3504Z" fill="white"/>
<path d="M69.9842 40.9634C71.2257 40.5645 72.625 40.4886 73.8411 41.0146C74.2677 41.2148 74.7633 41.6417 74.5705 42.1677C74.3757 42.8282 74.2096 43.4962 73.9772 44.1451C73.8055 44.611 73.2648 44.7839 72.8096 44.693C71.7855 44.5174 70.78 44.1794 69.73 44.2135C68.9972 44.1963 68.321 44.5891 67.82 45.0981C67.0113 45.8884 66.5929 46.9936 66.405 48.09C66.2559 48.8823 66.2984 49.6918 66.2916 50.4923C66.2916 53.8566 66.2928 57.2228 66.2909 60.587C66.3386 61.1402 65.7659 61.516 65.2661 61.5351C64.5797 61.5446 63.8948 61.5535 63.2091 61.5296C62.7135 61.5037 62.1558 61.1423 62.22 60.5849C62.2172 54.3552 62.2132 48.1276 62.2214 41.8979C62.1791 41.2783 62.8659 40.9415 63.4048 40.9996C64.0808 41.044 65.0036 40.7899 65.4432 41.4696C65.7767 42.2578 65.9353 43.109 66.2485 43.9041C67.1911 42.6117 68.4407 41.4722 69.9842 40.9634Z" fill="white"/>
<path d="M0 41.439C0.190722 41.2204 0.413574 40.984 0.731446 41.0065C1.6625 40.9976 2.59628 40.9771 3.52665 41.0202C3.99903 41.0338 4.32441 41.4486 4.39346 41.8877C5.30878 45.6071 6.20772 49.332 7.11895 53.0527C7.38622 54.2016 7.71162 55.339 7.88594 56.5077C8.06571 57.5576 8.10128 58.6232 8.27216 59.6752C8.50733 58.1738 8.71787 56.6628 9.12324 55.1962C10.3147 50.7555 11.5056 46.3155 12.6984 41.8761C12.7914 41.3699 13.2679 41.01 13.7744 41.01C14.8107 40.984 15.8491 41.0018 16.8855 41.0018C17.4412 40.9757 18.036 41.3003 18.1699 41.8693C19.0599 45.1065 19.9391 48.3496 20.8257 51.5896C21.3636 53.6879 22.0684 55.7509 22.3727 57.9039C22.4567 58.4968 22.5388 59.0911 22.6611 59.68C22.9953 56.2973 23.8663 53.0062 24.5828 49.694C25.1741 47.0587 25.7523 44.4207 26.3505 41.7852C26.4387 41.2559 26.9992 40.9895 27.4929 41.0044C28.3309 40.9997 29.1704 40.9757 30.0071 41.0182C30.5041 41.0326 30.7897 41.5817 30.6147 42.0244C28.9331 48.2247 27.2577 54.4291 25.5754 60.6294C25.4851 61.1267 25.0516 61.5147 24.5437 61.5229C23.2449 61.5652 21.9434 61.5331 20.6446 61.54C20.1791 61.5687 19.6868 61.3193 19.6047 60.8296C18.442 56.5658 17.3024 52.2945 16.1506 48.0273C15.7336 46.5429 15.5647 45.004 15.3897 43.4772C15.1758 44.8367 15.0698 46.2185 14.7075 47.554C13.5283 51.9475 12.3423 56.3431 11.1603 60.7373C11.027 61.4491 10.2129 61.5912 9.60722 61.5448C8.39932 61.5229 7.19141 61.5728 5.98486 61.5229C5.55488 61.5243 5.22335 61.1896 5.1461 60.7838C3.45079 54.6081 1.76094 48.4295 0.0642579 42.2553C0.00546875 41.9854 0.0129883 41.7102 0 41.439Z" fill="white"/>
<path d="M152.329 41.0187C153.211 41.0036 154.096 41.0001 154.978 41.0187C155.515 41.0262 156.019 41.3929 156.188 41.9053C157.711 45.8821 159.223 49.8665 160.744 53.8455C161.062 54.6529 161.284 55.4952 161.427 56.3504C162.055 53.9903 162.893 51.6937 163.628 49.3645C164.446 46.846 165.265 44.3268 166.087 41.8075C166.208 41.3691 166.627 41.0699 167.071 41.033C167.791 40.9797 168.515 41.0262 169.237 41.007C169.659 41.0119 170.161 40.9625 170.482 41.3007C170.691 41.477 170.646 41.7699 170.559 41.9988C168.126 48.9355 165.699 55.8756 163.269 62.8144C162.846 63.9701 162.522 65.1799 161.842 66.2195C160.866 67.8029 159.285 68.943 157.547 69.5598C156.94 69.7476 156.313 70.1643 155.66 69.9307C155.197 69.8125 155.019 69.331 154.772 68.9771C154.594 68.6561 154.266 68.3589 154.334 67.9593C154.366 67.5632 154.684 67.2407 155.059 67.1349C155.792 66.8821 156.537 66.6034 157.13 66.0863C158.573 64.867 159.465 63.0637 159.804 61.2283C159.574 60.4133 159.148 59.664 158.839 58.875C156.518 53.4855 154.198 48.094 151.871 42.7065C151.731 42.354 151.525 42.0179 151.485 41.6354C151.491 41.2154 151.972 41.0309 152.329 41.0187Z" fill="white"/>
<path d="M44.1205 43.6244C42.8545 43.8594 41.6999 44.647 41.0573 45.7686C39.9835 47.5876 39.8598 49.7824 39.9082 51.8453C39.9847 53.7128 40.2848 55.7047 41.4771 57.2143C42.3664 58.3495 43.8279 58.9199 45.2485 58.8981C46.6149 58.9418 48.0464 58.4793 48.9727 57.4411C50.1559 56.148 50.536 54.3535 50.6987 52.6615C50.7705 50.9997 50.8041 49.3076 50.3727 47.6847C50.0295 46.3137 49.3049 44.9427 48.0512 44.2043C46.8843 43.489 45.4426 43.4222 44.1205 43.6244ZM44.6551 40.6667C46.9459 40.5259 49.346 41.0014 51.2367 42.3573C52.9279 43.5595 54.0764 45.4121 54.613 47.3984C55.2508 49.77 55.248 52.3008 54.6697 54.6848C54.1249 56.8823 52.8507 58.9541 50.9285 60.2028C48.8742 61.5648 46.2936 61.9187 43.8827 61.6283C41.8285 61.3756 39.8269 60.4753 38.3968 58.963C36.7159 57.2033 35.8811 54.7791 35.7075 52.3829C35.4963 49.7256 35.9037 46.9128 37.383 44.6435C38.4774 42.9357 40.2173 41.6811 42.1578 41.1085C42.9672 40.8559 43.8116 40.7383 44.6551 40.6667Z" fill="white"/>
<path d="M112.226 43.518C110.97 43.5986 109.758 44.3207 109.198 45.4661C108.103 47.5844 108.08 50.0495 108.135 52.379C108.222 53.9008 108.388 55.4719 109.097 56.8462C109.577 57.7718 110.449 58.5027 111.48 58.7268C113.057 59.1059 114.913 58.7848 116.034 57.5396C117.114 56.3107 117.469 54.6399 117.636 53.0586C117.75 51.256 117.757 49.4163 117.309 47.6519C117.001 46.4722 116.48 45.294 115.545 44.4742C114.648 43.6854 113.399 43.3813 112.226 43.518ZM117.63 32.09C117.601 31.6119 118.09 31.3066 118.515 31.2697C119.195 31.2328 119.878 31.2504 120.559 31.258C121.079 31.2532 121.66 31.6392 121.585 32.2157C121.585 41.6245 121.587 51.0318 121.583 60.4392C121.619 60.9249 121.14 61.302 120.691 61.3314C120.149 61.36 119.606 61.36 119.066 61.3225C118.685 61.2986 118.316 61.0547 118.186 60.6906C117.982 60.0793 117.876 59.444 117.721 58.8224C116.969 59.8415 116 60.7432 114.795 61.1906C113.077 61.8225 111.165 61.8327 109.4 61.4024C107.626 60.9761 106.081 59.7582 105.225 58.155C103.882 55.7075 103.722 52.8284 103.806 50.0982C103.854 47.7654 104.3 45.3043 105.821 43.4531C106.968 41.884 108.848 40.9836 110.746 40.7481C112.513 40.4898 114.43 40.7869 115.892 41.8568C116.584 42.3431 117.138 42.9953 117.632 43.6771C117.618 39.8157 117.622 35.9528 117.63 32.09Z" fill="white"/>
<path d="M136.644 43.6352C136.014 43.7636 135.403 44.0162 134.894 44.4104C133.876 45.2027 133.37 46.4618 133.1 47.6845C132.707 49.6245 132.712 51.6279 132.915 53.5897C133.105 55.031 133.468 56.5693 134.525 57.6349C135.386 58.5386 136.685 58.8699 137.901 58.8105C139.208 58.8576 140.568 58.3712 141.411 57.3453C142.465 56.0713 142.762 54.3766 142.916 52.7802C143.014 50.9031 143.015 48.9809 142.488 47.1585C142.154 46.0232 141.544 44.8941 140.515 44.2472C139.382 43.5041 137.948 43.4357 136.644 43.6352ZM134.894 41.0585C136.708 40.5565 138.649 40.5271 140.481 40.9459C142.183 41.3401 143.778 42.2948 144.824 43.7088C145.93 45.1583 146.488 46.9556 146.72 48.7466C146.922 50.1277 146.864 51.5267 146.866 52.9182C146.866 55.4292 146.866 57.9409 146.859 60.4512C146.887 60.7572 146.693 61.0284 146.444 61.1876C146.022 61.4472 145.499 61.3324 145.028 61.3618C144.501 61.3577 143.807 61.4041 143.52 60.8556C143.24 60.2108 143.181 59.4915 143.002 58.8132C142.294 59.6725 141.561 60.5592 140.537 61.0558C138.977 61.8263 137.153 61.7812 135.484 61.4554C133.442 61.0523 131.56 59.8453 130.405 58.1062C129.029 56.0809 128.53 53.5808 128.549 51.1647C128.532 48.8094 128.993 46.3744 130.304 44.3817C131.352 42.7526 133.033 41.573 134.894 41.0585Z" fill="white"/>
<path d="M171.425 56.4853C170.388 56.8658 169.736 58.0612 170 59.1405C170.27 60.4076 171.745 61.2724 172.976 60.8038C174.111 60.4575 174.826 59.1644 174.474 58.0243C174.165 56.7415 172.642 55.9833 171.425 56.4853ZM171.569 55.9437C172.184 55.8467 172.853 55.8398 173.424 56.1247C174.396 56.566 175.094 57.609 174.989 58.6937C175.07 59.9875 173.981 61.144 172.738 61.3523C171.339 61.6494 169.833 60.6364 169.548 59.2416C169.18 57.8379 170.156 56.2579 171.569 55.9437Z" fill="white"/>
<path d="M171.858 57.5201C171.856 57.8138 171.855 58.1076 171.858 58.4033C172.116 58.3876 172.381 58.4033 172.635 58.333C172.875 58.2339 172.851 57.93 172.786 57.7264C172.538 57.4846 172.171 57.5474 171.858 57.5201ZM171.08 57.0419C171.824 57.0843 172.658 56.8746 173.328 57.2892C173.868 57.6943 173.606 58.5755 172.996 58.7633C173.172 59.2278 173.417 59.6595 173.64 60.1021C173.359 60.1076 173.082 60.1124 172.805 60.1172C172.605 59.7073 172.408 59.2927 172.217 58.8794C172.095 58.876 171.976 58.8747 171.858 58.8726C171.856 59.2859 171.856 59.6991 171.856 60.1124C171.593 60.109 171.335 60.1056 171.077 60.1035C171.079 59.0823 171.075 58.0611 171.08 57.0419Z" fill="white"/>
</g>
<defs>
<clipPath id="clip0_416_1753">
<rect width="175" height="70" fill="white"/>
</clipPath>
</defs>
</svg>
