<svg width="156" height="46" viewBox="0 0 156 46" fill="none" xmlns="http://www.w3.org/2000/svg">
<g clip-path="url(#clip0_3373_1210)">
<path d="M12.0648 1.69367C15.1432 0.451723 18.5508 0.0541336 21.835 0.525145C26.4062 1.1624 30.6933 3.56248 33.6518 7.09991C35.2187 8.95763 36.4246 11.1194 37.1738 13.4316C38.1024 16.2784 38.3235 19.3469 37.8467 22.3018C37.4232 24.9464 36.4232 27.4982 34.9297 29.7223C33.7876 31.429 32.3614 32.9439 30.7356 34.1983C30.5956 34.307 30.4722 34.4345 30.3489 34.5613C28.3931 36.5471 25.8199 37.895 23.0873 38.427C22.7374 38.4984 22.3846 38.5545 22.0319 38.6057C22.1476 39.0989 22.3153 39.5782 22.5073 40.0472C22.3797 40.1732 22.2522 40.3007 22.1247 40.4281C21.7803 40.2356 21.2972 40.3436 21.1178 40.708C20.8856 41.1097 21.1683 41.6721 21.6264 41.7317C21.9972 41.8017 22.3202 41.5558 22.5523 41.296C22.7006 41.9035 22.6528 42.5643 22.3479 43.117C21.7484 44.2385 20.6437 45.008 19.4801 45.4617C19.3131 45.5157 19.1364 45.6307 18.9597 45.5469C17.7351 45.1209 16.5646 44.3576 15.8993 43.2189C15.5528 42.646 15.4772 41.9451 15.6401 41.3009C15.8722 41.5897 16.2458 41.8224 16.6276 41.7172C17.031 41.6202 17.2701 41.1305 17.0913 40.7544C16.9402 40.3824 16.4599 40.2231 16.1099 40.4122C15.972 40.2875 15.8411 40.1552 15.7101 40.0229C16.0081 39.511 16.2867 38.9853 16.4863 38.4263C15.7634 38.285 15.0579 38.0703 14.3511 37.8722C13.4224 38.2088 12.3884 38.267 11.4417 37.9692C9.99192 37.539 8.82417 36.3199 8.43331 34.8626C5.51706 32.8822 3.17463 30.07 1.76017 26.8422C0.511334 24.0155 -0.0188306 20.8791 0.218184 17.7988C0.463515 14.4983 1.60978 11.2718 3.49411 8.55104C5.59814 5.49293 8.61696 3.07346 12.0648 1.69367ZM16.8307 1.00724C13.4591 1.42145 10.2172 2.80747 7.5795 4.94434C4.60642 7.33334 2.40191 10.6644 1.3887 14.3417C0.489157 17.5758 0.503711 21.0564 1.4289 24.2828C2.53705 28.1998 5.00283 31.7109 8.29955 34.0993C8.21708 33.1849 8.43885 32.2561 8.9011 31.4657C8.67725 31.2538 8.46241 31.0328 8.25866 30.8015C8.30787 30.7655 8.35707 30.7294 8.40697 30.6941C8.61765 30.8777 8.84635 31.0398 9.07713 31.1991C9.54908 30.5286 10.2005 29.9897 10.9497 29.6565C9.46453 28.4935 8.22956 27.0112 7.36328 25.335C6.21632 23.1635 5.70348 20.6623 5.90169 18.2144C6.09573 15.6218 7.0923 13.0984 8.71121 11.064C10.4195 8.89945 12.816 7.28485 15.4703 6.53123C17.663 5.90437 20.0172 5.85242 22.2342 6.38577C24.4824 6.92328 26.5802 8.06479 28.2552 9.65722C29.6773 11.0024 30.7993 12.6648 31.5055 14.4913C32.2561 16.4204 32.5346 18.5282 32.3247 20.5861C32.0814 23.0436 31.1181 25.4202 29.5941 27.3631C27.9669 29.4494 25.7056 31.0377 23.1816 31.8398C22.9051 31.9146 22.6611 32.0836 22.4948 32.3163C22.0665 32.9086 21.8995 33.6476 21.8302 34.3638C24.6016 34.9886 27.5608 34.8702 30.2345 33.888C33.1258 31.7345 35.3476 28.6937 36.5223 25.2865C37.5036 22.4514 37.7711 19.3746 37.311 16.4114C36.9069 13.7966 35.9201 11.2753 34.4502 9.07608C32.3884 5.97849 29.3703 3.52507 25.9072 2.15637C23.0437 1.01417 19.8883 0.624196 16.8307 1.00724ZM16.9686 6.73695C14.4952 7.15394 12.1618 8.33978 10.353 10.0742C8.44093 11.8918 7.11517 14.3182 6.63837 16.9136C6.2281 19.0913 6.40274 21.3764 7.14844 23.4641C7.96136 25.7755 9.46176 27.8362 11.4057 29.3289C11.4771 29.3767 11.5519 29.4639 11.6483 29.4203C12.3933 29.2319 13.1854 29.2326 13.9262 29.4411C15.1203 29.7646 16.1654 30.6055 16.7247 31.7103C19.2895 32.2104 22.0083 31.8903 24.384 30.8015C26.6349 29.7798 28.5705 28.0835 29.8852 25.9916C31.4397 23.5444 32.1008 20.5521 31.7349 17.6776C31.4813 15.6003 30.6947 13.5922 29.477 11.8911C28.1374 10.0112 26.2808 8.50255 24.1594 7.59032C21.914 6.61366 19.3803 6.31789 16.9686 6.73695ZM9.53868 31.5004C9.77431 31.6417 10.0113 31.7809 10.2511 31.916C10.8409 31.1104 11.8229 30.6013 12.8264 30.629C13.3108 30.6276 13.7821 30.7648 14.2215 30.9615C14.7981 31.2005 15.3906 31.3999 15.9956 31.5523C15.2866 30.4856 14.0323 29.8027 12.7481 29.8117C11.4847 29.7992 10.2497 30.4607 9.53868 31.5004ZM10.7445 32.1833C11.4514 32.5366 12.1673 32.8725 12.8964 33.1787C13.1071 33.2722 13.3593 33.3533 13.4633 33.5804C13.6421 33.9136 13.4397 34.3749 13.0676 34.4587C12.7931 34.5432 12.5464 34.3604 12.3246 34.2274C11.6552 33.7924 11.0211 33.3055 10.4105 32.7915C10.1243 33.453 10.1638 34.2426 10.4847 34.8847C10.7854 35.488 11.3357 35.9223 11.9213 36.232C13.6081 37.1532 15.4689 37.7371 17.3616 38.0481C18.8564 38.2989 20.3845 38.2767 21.8849 38.0904C23.4616 37.8902 25.0139 37.4524 26.4353 36.7355C27.5019 36.2043 28.4846 35.5144 29.3731 34.7226C26.971 35.3848 24.4145 35.4472 21.9778 34.936C19.4247 34.4165 17.0268 33.3117 14.8188 31.9513C14.3102 31.6701 13.8327 31.2891 13.2422 31.2005C12.3101 31.0224 11.3073 31.4214 10.7445 32.1833ZM9.31137 31.8571C8.91912 32.601 8.75695 33.4675 8.88932 34.3008C9.06742 35.5739 9.92608 36.721 11.0911 37.2613C11.8395 37.6221 12.6968 37.706 13.5111 37.5681C12.6559 37.201 11.7889 36.838 11.019 36.3075C10.5041 35.9376 10.0751 35.4319 9.85332 34.8335C9.55739 34.0577 9.60798 33.169 9.9545 32.4182C9.74104 32.2298 9.52967 32.0393 9.31137 31.8571ZM16.0774 32.0905C16.5563 32.3544 17.0455 32.5976 17.5362 32.8379C17.6471 32.6848 17.7725 32.5435 17.9125 32.4175C17.2936 32.3537 16.6859 32.2166 16.0774 32.0905ZM19.196 32.4722C18.74 32.4687 18.2847 32.6848 18.0241 33.0637C19.0719 33.5451 20.1614 33.9372 21.2771 34.2309C21.3499 33.507 21.544 32.7804 21.9508 32.1688C21.0457 32.362 20.1212 32.4653 19.196 32.4722ZM16.4745 39.7742C16.7954 39.811 17.1218 39.9156 17.3512 40.1531C17.8487 40.6283 17.8342 41.5198 17.3179 41.9748C17.0019 42.263 16.5459 42.3316 16.1363 42.2588C16.268 42.8822 16.6567 43.4163 17.1183 43.8416C17.6755 44.3534 18.345 44.7448 19.0629 44.9845C19.512 44.8972 19.9264 44.6513 20.3215 44.4213C21.108 43.9205 21.8572 43.205 22.0513 42.2574C21.6091 42.3461 21.1157 42.2339 20.8038 41.8959C20.3284 41.4062 20.3644 40.5175 20.8946 40.0811C21.1462 39.8608 21.4864 39.7791 21.8142 39.7784C21.6853 39.4148 21.5571 39.0497 21.4726 38.6729C19.9978 38.8218 18.5037 38.7969 17.0421 38.5351C16.8889 38.9631 16.6976 39.3773 16.4745 39.7742Z" fill="white"/>
<path d="M15.5033 2.12451C15.6897 2.06425 15.8789 2.0123 16.0688 1.95966C15.9253 2.69457 15.7604 3.42603 15.6287 4.16233C15.7236 4.5897 15.8692 5.00391 15.9828 5.42713C15.8179 5.47562 15.6523 5.5248 15.4887 5.57744C15.3612 5.20409 15.2704 4.81897 15.156 4.44078C15.1262 4.30848 15.0188 4.21843 14.9315 4.12354C14.5302 3.71556 14.1422 3.29511 13.7395 2.88852C13.682 2.82479 13.612 2.76522 13.585 2.68072C13.752 2.626 13.9218 2.58167 14.0895 2.52903C14.4741 2.91553 14.8456 3.3152 15.226 3.70586C15.3161 3.17874 15.4208 2.6537 15.5033 2.12451Z" fill="white"/>
<path d="M23.3914 2.4078C24.0269 2.2762 24.7352 2.60798 25.0013 3.20714C25.3374 3.96907 25.0824 4.93048 24.4559 5.46591C24.0484 5.81986 23.4378 5.88844 22.9472 5.67648C22.4232 5.46522 22.0781 4.92425 22.0622 4.36596C22.0109 3.52922 22.5147 2.57612 23.3914 2.4078ZM23.4545 2.88089C22.9707 3.03328 22.7004 3.53477 22.6173 4.00647C22.5369 4.42969 22.6415 4.93741 23.0255 5.18261C23.3907 5.43613 23.9236 5.34262 24.2001 5.00044C24.5467 4.58069 24.7255 3.97876 24.5494 3.45026C24.4081 3.01111 23.8959 2.74028 23.4545 2.88089Z" fill="white"/>
<path d="M18.9511 3.0222C19.2658 2.89267 19.6358 3.20991 19.5499 3.541C19.4979 3.87002 19.0481 4.02379 18.807 3.79175C18.5464 3.58464 18.6323 3.12125 18.9511 3.0222Z" fill="white"/>
<path d="M10.168 4.23436C10.8832 3.86379 11.5977 3.49252 12.3122 3.12056C12.3808 3.25563 12.4494 3.3907 12.5173 3.52577C12.2387 3.66776 11.9629 3.81322 11.6864 3.95868C12.1278 4.79819 12.5582 5.64393 13.0059 6.47998C12.8514 6.56795 12.6947 6.65176 12.5374 6.73349C12.0953 5.88983 11.6552 5.04478 11.2151 4.19973C10.9365 4.34657 10.6579 4.49342 10.3773 4.63611C10.3073 4.50242 10.2373 4.36805 10.168 4.23436Z" fill="white"/>
<path d="M25.6123 6.63791C26.1688 5.6848 26.7322 4.73654 27.2929 3.78621C27.8203 4.09514 28.347 4.40684 28.8744 4.71646C28.7974 4.84668 28.7198 4.9769 28.6429 5.10712C28.268 4.8827 27.8903 4.66381 27.5133 4.44216C27.3587 4.7026 27.2083 4.96651 27.0476 5.22418C27.3989 5.44306 27.7635 5.64047 28.1134 5.86281C28.0365 5.98611 27.9624 6.11079 27.8889 6.23547C27.5334 6.02905 27.1792 5.82056 26.8258 5.61069C26.5715 6.04083 26.3178 6.47167 26.0642 6.90181C25.9145 6.81176 25.7641 6.7231 25.6123 6.63791Z" fill="white"/>
<path d="M8.35254 5.5151C8.496 5.41258 8.63668 5.30661 8.77944 5.2034C9.43712 6.08655 10.1156 6.95307 10.7802 7.83137C10.6402 7.93804 10.5009 8.04471 10.3623 8.15276C9.69077 7.27446 9.0123 6.40171 8.35254 5.5151Z" fill="white"/>
<path d="M93.5275 6.00828C94.5379 5.80117 95.6634 6.0346 96.4333 6.74458C96.2871 6.94268 96.1235 7.12693 95.9731 7.32226C95.531 7.00156 95.0133 6.76813 94.4637 6.73142C93.9883 6.6954 93.4692 6.7709 93.095 7.08745C92.7332 7.38668 92.6085 7.92141 92.7727 8.35641C92.8712 8.60092 93.0714 8.78863 93.2877 8.93132C94.0112 9.39679 94.8685 9.6129 95.5698 10.1165C96.0313 10.4448 96.4 10.9366 96.4846 11.5066C96.5816 12.1598 96.416 12.8677 95.9738 13.3692C95.6536 13.7405 95.2004 13.9767 94.7264 14.0834C93.6328 14.3306 92.4394 14.0328 91.5752 13.3228C91.72 13.1109 91.8663 12.8989 92.0049 12.6821C92.5593 13.0243 93.1712 13.318 93.8317 13.3609C94.2669 13.3761 94.7354 13.3076 95.0888 13.0326C95.4839 12.7257 95.6252 12.1799 95.5455 11.7013C95.4714 11.3023 95.1671 10.9948 94.8407 10.778C94.0583 10.2626 93.0999 10.0451 92.3902 9.41549C91.6701 8.78932 91.6175 7.60972 92.1622 6.85541C92.4831 6.40656 92.9938 6.12257 93.5275 6.00828Z" fill="white"/>
<path d="M123.501 5.9674C124.334 5.86489 125.215 6.03944 125.905 6.52984C126.867 7.1948 127.386 8.34878 127.484 9.4896C127.601 10.7786 127.305 12.182 126.384 13.1379C125.359 14.2274 123.587 14.4698 122.282 13.7626C121.255 13.2217 120.609 12.1349 120.42 11.0121C120.209 9.74796 120.401 8.35986 121.176 7.31048C121.72 6.56378 122.585 6.0713 123.501 5.9674ZM123.248 6.82977C122.775 6.95306 122.35 7.23844 122.05 7.62148C121.625 8.15068 121.422 8.82325 121.354 9.4896C121.281 10.2294 121.347 10.9968 121.638 11.6867C121.844 12.1834 122.178 12.6357 122.625 12.9398C123.493 13.5472 124.787 13.4689 125.556 12.7313C126.052 12.2637 126.318 11.6022 126.438 10.9421C126.569 10.1656 126.56 9.35037 126.308 8.59883C126.123 8.04678 125.789 7.53282 125.311 7.19203C124.725 6.76604 123.943 6.64967 123.248 6.82977Z" fill="white"/>
<path d="M48.0231 6.08516C48.337 6.08446 48.6516 6.08862 48.9663 6.08031C48.985 7.88677 48.9628 9.69324 48.9774 11.4997C48.9794 11.9659 49.0841 12.4653 49.4258 12.8061C49.9019 13.2847 50.633 13.4101 51.2803 13.3166C51.8139 13.2424 52.3268 12.9252 52.5624 12.43C52.7377 12.0545 52.7502 11.6299 52.7634 11.2226C52.7772 9.50899 52.7585 7.79534 52.7738 6.08169C53.0842 6.08723 53.394 6.08516 53.7052 6.08516C53.7052 7.26753 53.7045 8.44922 53.7052 9.63159C53.6927 10.4171 53.7391 11.2074 53.6366 11.9887C53.568 12.5283 53.3538 13.0665 52.9456 13.4392C52.36 13.9961 51.5187 14.1893 50.73 14.1595C49.8831 14.1367 48.9968 13.8028 48.4846 13.1005C48.1035 12.5837 48.0335 11.9188 48.0272 11.2961C48.0182 9.55886 48.0251 7.82236 48.0231 6.08516Z" fill="white"/>
<path d="M56.7564 6.08516C57.0807 6.08516 57.4057 6.08447 57.7308 6.08655C59.0087 8.25459 60.27 10.4337 61.5618 12.5934C61.5674 10.424 61.5473 8.25459 61.5438 6.08516C61.8356 6.08586 62.1287 6.0817 62.4219 6.0907C62.4101 8.73252 62.4267 11.375 62.4129 14.0169C62.0816 14.0099 61.7503 14.0182 61.4197 14.0092C60.1557 11.844 58.8847 9.68286 57.606 7.5266C57.6095 9.68978 57.6282 11.8537 57.6247 14.0169C57.3351 14.012 57.0454 14.0134 56.7564 14.0141C56.7557 11.3709 56.7557 8.72837 56.7564 6.08516Z" fill="white"/>
<path d="M65.7333 14.0189C65.7229 11.3736 65.7229 8.72767 65.734 6.08238C66.0493 6.08931 66.366 6.08585 66.682 6.08654C66.6827 8.72905 66.6827 11.3723 66.682 14.0148C66.366 14.0148 66.0493 14.0113 65.7333 14.0189Z" fill="white"/>
<path d="M68.79 6.08516C69.1213 6.08516 69.4533 6.08516 69.7845 6.08516C70.5579 8.41874 71.3265 10.7537 72.102 13.0866C72.8928 10.7509 73.6883 8.41666 74.4867 6.08377C74.793 6.08585 75.1007 6.08446 75.4077 6.08516C74.4791 8.72767 73.5477 11.3695 72.6211 14.0127C72.2559 14.0148 71.8899 14.0141 71.5247 14.0134C70.6148 11.3702 69.7007 8.72836 68.79 6.08516Z" fill="white"/>
<path d="M77.5671 6.08792C79.0037 6.08169 80.4404 6.09346 81.8777 6.08238C81.8874 6.34767 81.8853 6.61366 81.8805 6.87895C80.7557 6.8741 79.6302 6.87895 78.5055 6.87617C78.5034 7.74893 78.5048 8.62099 78.5048 9.49306C79.5637 9.49652 80.6226 9.48544 81.6823 9.4986C81.6747 9.75004 81.6747 10.0015 81.683 10.2529C80.624 10.2792 79.5644 10.2578 78.5048 10.264C78.502 11.2413 78.5089 12.2187 78.502 13.1953C79.6607 13.2071 80.8195 13.196 81.9789 13.2009C81.9775 13.4724 81.9775 13.7432 81.9782 14.0141C80.5076 14.0134 79.037 14.0175 77.5664 14.012C77.5706 11.3709 77.5692 8.72974 77.5671 6.08792Z" fill="white"/>
<path d="M84.5 14.0085C84.5159 11.366 84.4917 8.72283 84.5125 6.07962C85.3794 6.09624 86.2471 6.06923 87.1141 6.10386C87.6581 6.13226 88.2347 6.25833 88.6408 6.6483C89.2971 7.24191 89.4718 8.24558 89.1876 9.06362C88.9485 9.73619 88.2777 10.1726 87.5909 10.2744C88.0656 10.3402 88.392 10.735 88.5805 11.1465C89.0296 12.094 89.442 13.0575 89.8716 14.0141C89.5431 14.0148 89.2153 14.0099 88.8875 14.0182C88.5078 13.2113 88.1737 12.3829 87.7863 11.5787C87.5971 11.1998 87.3573 10.78 86.9207 10.656C86.4391 10.5286 85.9339 10.5757 85.4418 10.5646C85.4411 11.7144 85.4411 12.8643 85.4411 14.0134C85.1272 14.0127 84.8132 14.0175 84.5 14.0085ZM85.4418 6.84709C85.4411 7.83344 85.4411 8.82049 85.4418 9.80684C86.0441 9.79784 86.6581 9.84771 87.2485 9.6974C87.6242 9.6032 87.9776 9.37531 88.1723 9.03314C88.4558 8.54897 88.4385 7.9041 88.1349 7.43309C87.8785 7.05489 87.4135 6.88311 86.972 6.86025C86.4626 6.83185 85.9512 6.85402 85.4418 6.84709Z" fill="white"/>
<path d="M99.1436 6.08655C99.4617 6.08655 99.7798 6.08655 100.099 6.08655C100.099 8.72906 100.099 11.3716 100.099 14.0148C99.7798 14.0148 99.4617 14.0148 99.1436 14.0141C99.1436 11.3716 99.1436 8.72906 99.1436 6.08655Z" fill="white"/>
<path d="M102.232 6.08723C104.122 6.08585 106.01 6.08654 107.899 6.08654C107.899 6.34975 107.899 6.61366 107.899 6.87687C107.115 6.87617 106.332 6.87825 105.549 6.87617C105.546 9.25547 105.548 11.6355 105.547 14.0148C105.232 14.0155 104.917 14.0099 104.603 14.021C104.578 11.6389 104.606 9.25547 104.589 6.8734C103.804 6.88172 103.018 6.87479 102.232 6.87687C102.232 6.61366 102.232 6.35044 102.232 6.08723Z" fill="white"/>
<path d="M109.01 6.08586C109.375 6.08655 109.74 6.08031 110.106 6.0907C110.742 7.32849 111.402 8.55382 112.043 9.78953C112.707 8.57044 113.313 7.31949 113.952 6.08586C114.297 6.08447 114.642 6.08516 114.988 6.08586C114.165 7.65266 113.342 9.21877 112.519 10.7849C112.462 10.8777 112.466 10.9871 112.467 11.0917C112.47 12.0656 112.467 13.0395 112.469 14.0134C112.153 14.0134 111.837 14.0175 111.522 14.0092C111.523 12.9668 111.539 11.9222 111.514 10.8805C110.699 9.27349 109.836 7.68868 109.01 6.08586Z" fill="white"/>
<path d="M130.121 6.08655C131.527 6.08655 132.931 6.08655 134.337 6.08655C134.336 6.34976 134.336 6.61367 134.337 6.87688C133.247 6.87757 132.158 6.87688 131.068 6.87688C131.068 7.74894 131.07 8.62031 131.068 9.49238C132.092 9.49792 133.117 9.48545 134.142 9.49792C134.135 9.75143 134.135 10.0049 134.141 10.2578C133.117 10.273 132.092 10.2598 131.068 10.2647C131.069 11.515 131.068 12.7645 131.068 14.0148C130.752 14.0148 130.436 14.0148 130.121 14.0148C130.121 11.3716 130.121 8.72906 130.121 6.08655Z" fill="white"/>
<path d="M5.87488 8.11189C5.96289 7.51273 6.50969 7.0438 7.09876 6.96553C7.13341 7.11307 7.16183 7.26199 7.18885 7.41091C6.82016 7.47395 6.43831 7.71846 6.36346 8.10704C6.31287 8.35086 6.56305 8.57667 6.80145 8.51363C7.24568 8.42012 7.63724 8.11812 8.10642 8.13405C8.66846 8.13821 9.12378 8.73667 8.97755 9.27972C8.82301 9.86433 8.26304 10.2723 7.6809 10.3637C7.64556 10.2162 7.60883 10.0687 7.57071 9.92182C7.92485 9.82346 8.33165 9.66276 8.46194 9.28457C8.57976 9.00958 8.34551 8.65771 8.03989 8.69096C7.57764 8.72974 7.18955 9.05668 6.72037 9.06846C6.22901 9.08924 5.79449 8.59745 5.87488 8.11189Z" fill="white"/>
<path d="M29.7414 7.2807C30.0256 7.12554 30.4123 7.36589 30.397 7.69075C30.4116 8.03431 29.9764 8.27051 29.6964 8.07033C29.4025 7.89924 29.4303 7.41715 29.7414 7.2807Z" fill="white"/>
<path d="M32.2564 9.25617C32.5828 9.16821 32.9411 9.16613 33.2571 9.29704C33.9404 9.56718 34.3618 10.4005 34.1123 11.1042C33.8739 11.7823 33.2079 12.254 32.5142 12.3725C31.9819 12.4681 31.4095 12.236 31.1004 11.7913C30.8267 11.4263 30.7289 10.9283 30.8786 10.4933C31.0838 9.87749 31.6451 9.43142 32.2564 9.25617ZM32.4657 9.74312C31.9549 9.89758 31.4455 10.2675 31.3215 10.8126C31.1947 11.3459 31.6631 11.9299 32.2196 11.8834C32.7623 11.8384 33.3001 11.5302 33.5766 11.055C33.8164 10.6484 33.6674 10.0846 33.2751 9.83039C33.0381 9.67316 32.7318 9.669 32.4657 9.74312Z" fill="white"/>
<path d="M14.933 9.45704C14.9711 9.45288 15.048 9.44457 15.0868 9.44041C15.4576 9.9419 15.8249 10.4482 16.1652 10.9712C15.9919 11.0128 15.8166 11.046 15.6426 11.0848C15.8367 11.4311 16.0799 11.747 16.2989 12.0781C16.6281 11.8391 16.9386 11.5731 17.2331 11.2933C17.0994 11.2233 16.9608 11.1631 16.8312 11.0862C16.8457 10.9913 16.94 10.9497 17.0072 10.8964C17.3329 10.672 17.6573 10.4448 17.9795 10.2148C18.0689 10.1497 18.1666 10.0887 18.2824 10.0881C18.0322 10.9262 17.7418 11.7511 17.4757 12.5844C16.6496 12.3032 15.7639 12.281 14.8997 12.2734C14.1187 12.2977 13.3148 12.3191 12.5718 12.5872C12.2925 11.7595 12.0202 10.9296 11.7568 10.0964C11.9724 10.0832 12.12 10.2654 12.2925 10.3637C12.6203 10.6082 13.0022 10.7883 13.2898 11.0834C13.1505 11.1485 13.0064 11.206 12.8802 11.2954C13.1353 11.5849 13.4444 11.8218 13.7292 12.0815C13.9614 11.7553 14.2129 11.4367 14.3917 11.0765C14.2198 11.0446 14.048 11.0162 13.8789 10.9719C14.206 10.451 14.5858 9.96476 14.933 9.45704Z" fill="white"/>
<path d="M22.4006 10.4808C22.6466 10.1324 22.8954 9.78606 23.1393 9.43626C23.3715 9.43072 23.4408 9.68908 23.5697 9.83524C23.8192 10.2245 24.1415 10.5695 24.3431 10.9871C24.1747 11.0169 24.007 11.0446 23.84 11.0786C24.0188 11.4332 24.2752 11.7401 24.4866 12.0753C24.8234 11.8467 25.1256 11.569 25.4256 11.2954C25.2884 11.2206 25.147 11.1534 25.0057 11.0876C25.1456 10.8957 25.3674 10.7932 25.5525 10.6526C25.8193 10.4739 26.0688 10.2688 26.346 10.1061C26.3799 10.1054 26.4465 10.1026 26.4797 10.1012C26.2136 10.9303 25.9364 11.756 25.6682 12.5837C24.8587 12.308 23.9911 12.2838 23.1442 12.2727C22.3431 12.2914 21.5232 12.3198 20.7588 12.5844C20.4885 11.756 20.2134 10.9296 19.9473 10.1005C20.1912 10.0867 20.3596 10.3049 20.5585 10.4143C20.86 10.6436 21.2259 10.7987 21.4747 11.089C21.3326 11.1499 21.1919 11.215 21.0554 11.2884C21.3312 11.5468 21.6015 11.8142 21.8947 12.0525L21.946 12.0483C22.1795 11.7505 22.3722 11.4242 22.5919 11.1167C22.4394 11.0252 22.2578 11.0204 22.0873 10.9899C22.1511 10.7973 22.2869 10.6443 22.4006 10.4808Z" fill="white"/>
<path d="M3.94621 10.6685C4.09937 10.4282 4.33846 10.2141 4.63646 10.2023C5.18187 10.1393 5.77857 10.6436 5.6268 11.2185C5.88529 11.0903 6.17706 11.1492 6.45219 11.1679C6.76821 11.197 7.08492 11.2192 7.40094 11.2517C7.30045 11.4083 7.20967 11.5704 7.12442 11.7359C6.68782 11.7137 6.2526 11.6306 5.81461 11.6479C5.53601 11.6653 5.42998 11.9589 5.31147 12.1654C5.71758 12.3808 6.11884 12.6045 6.52288 12.8248C6.43971 12.9779 6.35517 13.1302 6.26715 13.2805C5.30038 12.7493 4.33015 12.2235 3.35645 11.704C3.54841 11.3563 3.73207 11.0031 3.94621 10.6685ZM4.43133 10.7994C4.23243 10.9767 4.12986 11.2316 3.98987 11.4526C4.30035 11.623 4.61221 11.7906 4.92476 11.9576C5.04673 11.7248 5.20544 11.4935 5.21653 11.2219C5.22415 10.8528 4.73349 10.5653 4.43133 10.7994Z" fill="white"/>
<path d="M35.3147 12.5629C35.384 12.7486 35.4463 12.9363 35.5101 13.1233C35.2287 13.4793 34.8954 13.7931 34.6327 14.1637C35.0742 14.2565 35.5149 14.3542 35.9536 14.4636C36.0049 14.6409 36.0631 14.8169 36.1206 14.9928C35.5142 14.8425 34.9065 14.697 34.2987 14.5537C33.8711 15.0697 33.4331 15.5774 33.0131 16.1004C32.9369 15.9147 32.8738 15.7243 32.8218 15.5317C33.1531 15.1625 33.4726 14.7836 33.7914 14.404C33.3153 14.2828 32.8295 14.1983 32.3561 14.0681C32.2501 13.9116 32.2265 13.7058 32.1572 13.5299C32.8177 13.6774 33.4712 13.8589 34.1344 13.9933C34.5142 13.5057 34.9307 13.0471 35.3147 12.5629Z" fill="white"/>
<path d="M13.6402 12.9086C14.4566 12.7978 15.2855 12.795 16.1046 12.8719C16.4664 12.9169 16.8392 12.955 17.1733 13.1102C17.2772 13.1413 17.3708 13.2889 17.2433 13.3574C17.0243 13.5029 16.754 13.5396 16.5003 13.5888C15.6708 13.7135 14.8246 13.7197 13.9895 13.6456C13.6236 13.6061 13.25 13.5645 12.9084 13.4219C12.8155 13.3907 12.7622 13.3055 12.7012 13.2362C12.9548 13.0014 13.3152 12.9668 13.6402 12.9086Z" fill="white"/>
<path d="M21.0345 13.1247C21.39 12.9474 21.7961 12.9134 22.1849 12.8656C23.0817 12.7915 23.9937 12.7936 24.8815 12.9585C25.1136 13.0187 25.4075 13.0478 25.5308 13.2861C25.2508 13.5154 24.8794 13.5576 24.5349 13.6123C23.6132 13.7252 22.6749 13.7245 21.7552 13.5922C21.487 13.5375 21.1897 13.5091 20.9666 13.3353C20.873 13.2709 20.9596 13.1566 21.0345 13.1247Z" fill="white"/>
<path d="M2.08008 15.4361C2.26165 14.8252 2.44669 14.215 2.62341 13.6033C2.77033 13.64 2.91725 13.6788 3.06348 13.719C2.92973 14.1623 2.79459 14.6049 2.66014 15.0475C2.95676 15.123 3.2506 15.2068 3.54583 15.2886C3.66503 14.8861 3.75651 14.4754 3.90066 14.082C4.03718 14.1249 4.17371 14.1665 4.31093 14.208C4.19796 14.6077 4.08431 15.0067 3.97204 15.4063C4.30608 15.4929 4.63873 15.5885 4.97207 15.6792C5.09197 15.2443 5.22018 14.812 5.33799 14.3763C5.48699 14.4137 5.6353 14.4539 5.7843 14.4934C5.62213 15.1023 5.45026 15.7076 5.28393 16.3151C4.21737 16.0166 3.14734 15.7319 2.08008 15.4361Z" fill="white"/>
<path d="M12.8926 15.0157C14.1407 15.0157 15.3889 15.0164 16.637 15.0157C17.1381 15.0247 17.6765 15.015 18.1208 15.2817C18.6301 15.583 18.8471 16.198 18.8498 16.764C18.8574 19.0511 18.8491 21.3383 18.854 23.6248C18.8554 23.7689 18.8484 23.9129 18.8283 24.0556C18.687 23.8451 18.7334 23.5576 18.5594 23.3602C18.2621 22.9605 17.7153 22.9238 17.2586 22.91C15.804 22.9058 14.3493 22.9065 12.8954 22.9093C12.8898 20.2785 12.8947 17.6471 12.8926 15.0157ZM13.3735 16.2687C13.4082 16.3068 13.4768 16.3837 13.5108 16.4218C13.5329 16.676 13.5267 16.933 13.517 17.1886C13.5322 17.2952 13.4082 17.3306 13.3527 17.397C13.6708 17.3867 14.0243 17.4538 14.3091 17.2751C14.639 17.0798 14.6542 16.5035 14.2863 16.34C13.998 16.223 13.6764 16.2798 13.3735 16.2687ZM15.0555 16.2957C14.6335 16.4689 14.5919 17.1525 15.0077 17.3576C15.3819 17.5716 15.9093 17.2765 15.8809 16.8353C15.9232 16.4079 15.4277 16.1066 15.0555 16.2957ZM15.9856 16.2701C16.0417 16.3366 16.1741 16.3705 16.154 16.4807C16.1553 16.7127 16.1401 16.9447 16.1138 17.1754C16.1179 17.2807 16.016 17.3312 15.9551 17.3998C16.1158 17.4012 16.2787 17.4061 16.4374 17.3721C16.3937 17.3472 16.3057 17.2973 16.2614 17.2724C16.2357 17.0528 16.2531 16.8311 16.2607 16.6109C16.3993 16.8554 16.4686 17.1311 16.5913 17.3832C16.612 17.3804 16.6536 17.3756 16.6744 17.3735C16.8033 17.0992 16.8782 16.8027 17.0202 16.5347C17.0265 16.7813 17.0251 17.0286 17.0216 17.2758C16.98 17.3056 16.8976 17.3638 16.856 17.3929C17.0577 17.3998 17.2586 17.3991 17.4603 17.3984C17.4243 17.3596 17.3515 17.2821 17.3148 17.2433C17.2898 16.9697 17.2822 16.6933 17.2905 16.4183C17.3286 16.3802 17.4049 16.3047 17.4437 16.2666C17.294 16.2673 17.145 16.268 16.996 16.2673C16.908 16.4959 16.8193 16.7245 16.7333 16.9537C16.6259 16.7266 16.5247 16.4966 16.4249 16.2666C16.278 16.2673 16.1318 16.268 15.9856 16.2701ZM17.5303 16.2701C17.75 16.3795 17.6793 16.633 17.6918 16.8304C17.6793 17.0299 17.75 17.2807 17.5338 17.3977C17.7361 17.3984 17.9385 17.3984 18.1409 17.3998C18.1048 17.361 18.0327 17.2841 17.996 17.246C17.9752 16.9711 17.978 16.6933 17.9946 16.4183C18.0314 16.3851 18.1055 16.3179 18.1429 16.2839C17.9392 16.2618 17.7341 16.2632 17.5303 16.2701ZM14.0756 18.355C14.1373 18.4243 14.2634 18.4589 14.2689 18.5649C14.2932 18.8281 14.2766 19.0927 14.2627 19.3559C14.2239 19.3871 14.1449 19.4487 14.1061 19.4799C14.2696 19.4903 14.4339 19.4896 14.5967 19.4667C14.2474 19.3725 14.4262 18.9486 14.3833 18.6903C14.6127 18.9431 14.8095 19.2236 15.0236 19.4896C15.0597 19.4965 15.131 19.5104 15.1664 19.5166C15.2087 19.1647 15.1394 18.8038 15.217 18.4575L15.3715 18.4097C15.217 18.3204 15.0347 18.3592 14.8656 18.3578C15.1761 18.4658 15.052 18.8205 15.0777 19.0691C14.8719 18.8392 14.6861 18.5926 14.4914 18.3543C14.3528 18.355 14.2142 18.3543 14.0756 18.355ZM15.4076 18.4326C15.7 18.7159 15.6758 19.216 15.9377 19.509L16.0147 19.491C16.2205 19.1211 16.2434 18.6314 16.5906 18.355C16.4332 18.355 16.2752 18.355 16.1179 18.3543C16.1553 18.3876 16.2295 18.4541 16.2669 18.4873C16.2115 18.693 16.1359 18.8925 16.0625 19.0927C15.9544 18.8925 15.8823 18.6757 15.8054 18.4631C15.8463 18.4374 15.9294 18.3862 15.9703 18.3599C15.7679 18.355 15.5656 18.355 15.3639 18.3474C15.3743 18.3682 15.3965 18.4111 15.4076 18.4326ZM16.7943 18.3945C16.6273 18.4901 16.5774 18.7533 16.7236 18.8884C16.8407 18.9874 16.9891 19.04 17.1062 19.1391C17.1866 19.2451 17.1249 19.4231 16.9821 19.4252C16.7978 19.4092 16.7368 19.2042 16.5989 19.1107C16.6114 19.2257 16.6321 19.3393 16.6536 19.4529C16.8248 19.5 17.0161 19.5471 17.1845 19.4626C17.3709 19.3857 17.4506 19.1363 17.346 18.9659C17.2351 18.8038 17.0098 18.7803 16.8899 18.6307C16.82 18.5025 16.9884 18.364 17.1062 18.4367C17.1942 18.5088 17.2593 18.6044 17.3356 18.6882C17.3266 18.5808 17.3169 18.4734 17.3065 18.3661C17.1374 18.3391 16.9489 18.2947 16.7943 18.3945ZM13.9342 20.4545C13.9765 20.4815 14.061 20.5355 14.1033 20.5625C14.1144 20.8569 14.113 21.152 14.1054 21.4464C14.0479 21.4838 13.991 21.5212 13.9342 21.5586C14.1428 21.5766 14.3514 21.5745 14.5607 21.5738C14.5129 21.5177 14.447 21.4748 14.4152 21.4076C14.3937 21.1284 14.4089 20.8486 14.4117 20.5694C14.4664 20.5272 14.5212 20.4849 14.5759 20.4413C14.3618 20.4392 14.1476 20.4385 13.9342 20.4545ZM14.6258 20.4489C14.6799 20.4843 14.7333 20.5196 14.788 20.5549C14.7998 20.85 14.8171 21.1478 14.7852 21.4415C14.7443 21.4706 14.6626 21.5281 14.6217 21.5565C14.9176 21.5877 15.2149 21.5662 15.5115 21.578C15.5385 21.4637 15.5614 21.3494 15.5808 21.2337C15.4602 21.393 15.323 21.535 15.1033 21.4748C15.0971 21.1963 15.0839 20.9165 15.1026 20.638C15.0999 20.5383 15.2094 20.4988 15.2655 20.4358C15.052 20.442 14.8386 20.4399 14.6258 20.4489ZM15.6009 20.4468C15.6557 20.487 15.7104 20.5279 15.7652 20.5688C15.7686 20.85 15.7832 21.1319 15.7631 21.4131C15.7229 21.4519 15.6418 21.5309 15.6016 21.5703C15.8982 21.5738 16.1948 21.5738 16.4922 21.5724C16.5129 21.4602 16.5323 21.3473 16.549 21.2351C16.4298 21.3923 16.2946 21.5316 16.0777 21.4817C16.0687 21.2018 16.0562 20.9213 16.0743 20.6422C16.0694 20.541 16.1789 20.4995 16.2357 20.4358C16.0237 20.442 15.8123 20.4413 15.6009 20.4468ZM16.3445 20.4378C16.4145 20.5057 16.5053 20.5618 16.5414 20.6588C16.6689 20.9601 16.7763 21.2704 16.8941 21.5766C16.9267 21.5814 16.9932 21.5925 17.0258 21.5974C17.1575 21.2836 17.2642 20.9587 17.4083 20.6505C17.4492 20.5577 17.5407 20.5043 17.6121 20.4378C17.4478 20.442 17.2836 20.4413 17.1193 20.4406C17.1623 20.4718 17.2469 20.5327 17.2898 20.5639C17.2171 20.7766 17.1457 20.9899 17.0736 21.2025C16.9821 20.992 16.9024 20.7766 16.8193 20.5625C16.8581 20.532 16.9357 20.4704 16.9745 20.4399C16.7638 20.4413 16.5538 20.4434 16.3445 20.4378Z" fill="white"/>
<path d="M19.9734 15.3946C20.3719 15.0586 20.9201 15.0288 21.4177 15.0178C22.7407 15.0136 24.0636 15.0171 25.3866 15.0164C25.3894 17.645 25.3818 20.2737 25.3901 22.9017C24.1115 22.9155 22.8328 22.9037 21.5535 22.9079C21.0621 22.9148 20.5472 22.8719 20.0808 23.0596C19.7877 23.1753 19.5708 23.453 19.5292 23.7654C19.4924 23.8499 19.5285 23.9898 19.4225 24.0293C19.4051 23.9406 19.3968 23.852 19.3975 23.7619C19.4017 21.4533 19.3968 19.1446 19.3996 16.836C19.3968 16.3096 19.5479 15.7374 19.9734 15.3946ZM20.1439 16.2687C20.2028 16.3144 20.2575 16.3643 20.3081 16.419C20.3178 16.6705 20.297 16.9219 20.2707 17.1719C20.2756 17.2765 20.1758 17.3292 20.1155 17.3991C20.2638 17.3984 20.4114 17.3984 20.5597 17.3998L20.5632 17.35C20.5264 17.3299 20.453 17.2883 20.4162 17.2682C20.3934 17.0486 20.4093 16.8277 20.4197 16.6088C20.5542 16.854 20.6248 17.1262 20.7454 17.3777C20.7662 17.3777 20.8085 17.3763 20.8293 17.3756C20.9575 17.1006 21.0358 16.8041 21.1765 16.5347C21.182 16.782 21.182 17.0293 21.1772 17.2765C21.1363 17.3056 21.0552 17.3645 21.0143 17.3936C21.216 17.3991 21.4177 17.3991 21.6193 17.3984C21.5826 17.3597 21.5085 17.2821 21.4717 17.2433C21.4461 16.9676 21.4405 16.6898 21.4454 16.4135C21.4863 16.3775 21.5681 16.3047 21.6089 16.2687C21.4565 16.268 21.3047 16.268 21.1522 16.2673C21.0663 16.4897 20.9818 16.7127 20.8972 16.9357C20.7711 16.7252 20.681 16.4966 20.5874 16.2708C20.4391 16.2673 20.2915 16.268 20.1439 16.2687ZM21.697 16.268C21.7316 16.3082 21.8016 16.3885 21.8363 16.4294C21.8536 16.6995 21.8543 16.9731 21.8356 17.244C21.7981 17.2821 21.7226 17.359 21.6852 17.3977C21.8917 17.3984 22.0982 17.3977 22.3054 17.3991C22.2673 17.361 22.1911 17.2855 22.153 17.2474C22.1322 16.9738 22.1336 16.6975 22.1516 16.4239C22.1897 16.3844 22.2652 16.3068 22.3027 16.2673C22.101 16.2673 21.8986 16.2673 21.697 16.268ZM22.3325 16.2722C22.3997 16.3186 22.4621 16.3712 22.5189 16.4301C22.5494 16.6559 22.5376 16.8852 22.5307 17.1124C22.5487 17.2398 22.4752 17.3299 22.3623 17.3804C22.5314 17.4095 22.7046 17.4081 22.8716 17.368C22.8197 17.3493 22.7157 17.3119 22.663 17.2925C22.6374 17.066 22.6346 16.8374 22.645 16.6095C22.8051 16.784 22.9465 16.9752 23.0913 17.1636C23.1842 17.2779 23.2653 17.4338 23.4358 17.4296C23.4434 17.1124 23.424 16.7944 23.4489 16.4779C23.4399 16.3698 23.5605 16.3345 23.6201 16.268C23.4524 16.2673 23.2854 16.268 23.119 16.2715C23.1835 16.3158 23.2466 16.3622 23.3089 16.4107C23.3408 16.6005 23.329 16.7951 23.3346 16.987C23.1308 16.7508 22.9423 16.5014 22.7407 16.2632C22.6041 16.2666 22.4683 16.2687 22.3325 16.2722ZM23.5376 17.3984C23.695 17.3991 23.8523 17.3971 24.0096 17.3922C23.968 17.3659 23.8848 17.3119 23.8426 17.2848C23.8668 17.2093 23.8911 17.1338 23.9146 17.0583C24.0089 17.0563 24.1031 17.0549 24.1974 17.0528C24.2244 17.1325 24.2501 17.2121 24.2771 17.2925C24.2411 17.3174 24.1683 17.3673 24.1316 17.3922C24.3346 17.4005 24.5384 17.3991 24.7421 17.3971C24.6728 17.3278 24.5806 17.2745 24.5481 17.1775C24.4192 16.872 24.3332 16.5506 24.1995 16.2472L24.117 16.2542C23.8731 16.6067 23.8828 17.1138 23.5376 17.3984ZM20.9229 18.3169C20.9194 18.4457 20.9166 18.5746 20.9159 18.7034C20.9935 18.5642 21.0864 18.4333 21.261 18.427C21.2694 18.7381 21.2694 19.0497 21.259 19.3608C21.2132 19.3892 21.1217 19.4466 21.076 19.4757C21.3054 19.491 21.5355 19.491 21.7649 19.4744C21.7164 19.446 21.6186 19.3905 21.5694 19.3628C21.559 19.0504 21.5584 18.7381 21.5688 18.4264C21.7399 18.4298 21.83 18.569 21.9166 18.6958C21.9173 18.5739 21.9125 18.452 21.9028 18.3301C21.5778 18.3571 21.2451 18.3848 20.9229 18.3169ZM22.0088 18.3592C22.0643 18.4028 22.1204 18.4464 22.1772 18.4894C22.1717 18.772 22.1946 19.0553 22.1661 19.3372C22.1301 19.3739 22.058 19.4466 22.022 19.4834C22.2278 19.4868 22.4336 19.4882 22.6402 19.4778C22.6 19.448 22.5196 19.3871 22.4794 19.3566C22.4752 19.0906 22.4641 18.8239 22.4794 18.5587C22.4676 18.4561 22.5826 18.4194 22.636 18.3536C22.4267 18.3543 22.2174 18.3529 22.0088 18.3592ZM23.0421 18.409C22.7372 18.5829 22.6596 19.0407 22.8827 19.3095C23.0851 19.5596 23.4988 19.5769 23.7345 19.3642C23.9812 19.1363 23.9874 18.6909 23.7331 18.4665C23.5473 18.301 23.2549 18.292 23.0421 18.409ZM20.6401 20.4392C20.7295 20.5113 20.8494 20.5798 20.8113 20.7163C20.7794 21.0044 20.8535 21.3439 20.6429 21.5773C20.7933 21.5738 20.9478 21.5877 21.094 21.5426C20.7683 21.4699 20.9457 21.0585 20.9263 20.8271C21.0829 21.0661 21.1349 21.3549 21.2763 21.6022C21.4655 21.3238 21.5334 20.9864 21.6734 20.6837C21.6346 20.976 21.8092 21.3626 21.5355 21.5738C21.733 21.5738 21.9298 21.5724 22.1266 21.5697C22.0906 21.5385 22.0178 21.4775 21.9818 21.4471C21.9333 21.1575 21.9534 20.8604 21.9416 20.5674C22.0012 20.5251 22.0608 20.4829 22.1211 20.4413C21.9631 20.4413 21.8058 20.442 21.6484 20.4455C21.5646 20.6727 21.4766 20.8985 21.3927 21.125C21.2777 20.9005 21.1841 20.6664 21.0767 20.4385C20.9312 20.4413 20.7856 20.4413 20.6401 20.4392ZM22.1814 20.4406C22.2209 20.4739 22.2999 20.539 22.3401 20.5722C22.3436 20.8528 22.3588 21.134 22.3366 21.4145C22.2923 21.4526 22.2043 21.5288 22.1599 21.5669C22.4704 21.5759 22.7815 21.5752 23.0927 21.5704C23.1114 21.4554 23.1288 21.3404 23.1433 21.2261C23.0698 21.3023 23.0061 21.3868 22.9326 21.4623C22.8391 21.4748 22.7448 21.481 22.6513 21.4803C22.6436 21.3258 22.6409 21.1707 22.6409 21.0155C22.7919 21.0121 22.8952 21.1063 22.9728 21.2233C22.977 21.0709 22.9791 20.9186 22.9763 20.7669C22.8903 20.8708 22.7843 20.9442 22.6443 20.949C22.6409 20.8105 22.6402 20.6727 22.6388 20.5355C22.8314 20.4905 22.9562 20.6124 23.0525 20.7613C23.0511 20.656 23.0497 20.5514 23.0491 20.4475C22.7594 20.4385 22.4704 20.442 22.1814 20.4406ZM23.1371 21.5717C23.2847 21.5731 23.4323 21.5731 23.5799 21.571C23.5328 21.5288 23.4857 21.4879 23.4378 21.4478C23.4614 21.3743 23.4843 21.3023 23.5085 21.2296C23.6042 21.2303 23.7012 21.2309 23.7975 21.2316C23.8543 21.3522 23.862 21.4748 23.7684 21.5794C23.9576 21.5738 24.1475 21.5717 24.3374 21.5641C24.2577 21.4962 24.16 21.4374 24.1302 21.33C24.004 21.0176 23.9077 20.6934 23.7746 20.3838C23.4378 20.6997 23.5016 21.269 23.1371 21.5717Z" fill="white"/>
<path d="M10.1279 15.5359C10.3081 15.2747 10.7509 15.2664 10.9179 15.5449C11.0295 15.7776 11.3143 15.7721 11.5257 15.8517C11.525 15.7894 11.5243 15.6654 11.5236 15.603C11.7052 15.6024 11.8875 15.6024 12.0697 15.6024C12.0718 18.382 12.069 21.1624 12.0711 23.9427C14.0823 23.9406 16.0934 23.9427 18.1046 23.942C18.1968 24.1768 18.316 24.4366 18.5752 24.5239C18.9279 24.6437 19.3271 24.6437 19.6805 24.5266C19.9439 24.4428 20.0686 24.1803 20.1608 23.942C22.1782 23.9386 24.1963 23.9483 26.2137 23.9372C26.2068 21.1589 26.2123 18.3806 26.2109 15.6024C26.3925 15.6024 26.5741 15.6024 26.7556 15.6017C26.7577 18.5635 26.7563 21.5253 26.7563 24.4871C24.6696 24.4885 22.5829 24.4844 20.4962 24.4885C20.1587 25.0849 19.4026 25.2331 18.7741 25.1306C18.3603 25.0842 17.9826 24.8439 17.7671 24.4878C15.6873 24.4871 13.6083 24.4837 11.5285 24.4899C11.5236 24.2918 11.5243 24.0944 11.5243 23.8963C11.3573 23.9642 11.191 24.0348 11.0288 24.1131C10.9512 24.3555 10.726 24.5675 10.455 24.5169C10.1119 24.4809 9.90819 24.0466 10.1057 23.7619C10.2499 23.5167 10.5756 23.4807 10.8133 23.6033C11.0517 23.5043 11.2901 23.4031 11.5257 23.2972C11.5243 23.0803 11.5243 22.8642 11.5243 22.6488C11.3629 22.6973 11.2021 22.7465 11.0427 22.7998C10.9436 23.0201 10.7197 23.2071 10.464 23.1482C10.1064 23.1004 9.92621 22.6225 10.1646 22.351C10.3316 22.1252 10.6601 22.1217 10.8798 22.272C11.0953 22.2104 11.3088 22.1446 11.5236 22.0801C11.525 21.8564 11.5243 21.6327 11.525 21.409C11.3608 21.436 11.1965 21.463 11.033 21.4921C10.911 21.6777 10.7038 21.8398 10.4675 21.7816C10.1092 21.7297 9.93661 21.2489 10.1778 20.9802C10.3635 20.7378 10.7253 20.7613 10.9394 20.9511C11.1348 20.9206 11.3296 20.8867 11.5243 20.8527C11.5243 20.6249 11.5243 20.3963 11.525 20.1684C11.3532 20.1739 11.182 20.1802 11.0108 20.1885C10.8285 20.4399 10.4314 20.5182 10.2117 20.2716C9.94077 20.0132 10.1002 19.5034 10.4695 19.4446C10.6768 19.3857 10.8479 19.5298 11.0087 19.635C11.1806 19.6427 11.3525 19.6274 11.5243 19.6219C11.5243 19.3746 11.5243 19.128 11.5257 18.8814C11.3428 18.871 11.1598 18.8627 10.9768 18.8579C10.8396 18.9874 10.6594 19.1024 10.4612 19.0497C10.1397 18.9957 9.95601 18.5891 10.1334 18.3141C10.2762 18.0468 10.6781 17.9823 10.8902 18.2047C11.051 18.3834 11.3123 18.303 11.5243 18.3328C11.5243 18.1049 11.5243 17.8778 11.525 17.6512C11.324 17.6138 11.1245 17.5757 10.9228 17.5453C10.7731 17.6526 10.5846 17.7413 10.3995 17.67C10.0981 17.5841 9.95532 17.1865 10.1355 16.9302C10.2935 16.6642 10.7176 16.6185 10.9117 16.8678C11.0441 17.0784 11.313 17.0431 11.525 17.0937C11.5243 16.8699 11.5243 16.6462 11.5236 16.4218C11.3074 16.3615 11.0967 16.2819 10.8777 16.2334C10.7093 16.2701 10.5395 16.3802 10.3635 16.3019C10.0544 16.207 9.92413 15.788 10.1279 15.5359Z" fill="white"/>
<path d="M13.8212 16.3518C14.2765 16.3089 14.3499 16.951 14.1143 17.2232C14.0519 17.3035 13.8537 17.3652 13.8309 17.2239C13.8004 16.9343 13.8219 16.642 13.8212 16.3518Z" fill="white"/>
<path d="M15.194 16.358C15.3693 16.2583 15.5093 16.4765 15.5308 16.6268C15.5627 16.8464 15.5994 17.1276 15.4324 17.3021C15.2501 17.4192 15.0893 17.1989 15.0644 17.0369C15.0249 16.8138 14.9972 16.5167 15.194 16.358Z" fill="white"/>
<path d="M23.9375 16.9468C23.9777 16.8395 24.0193 16.7335 24.0622 16.6275C24.0969 16.7376 24.1322 16.8485 24.1676 16.9593C24.0907 16.9551 24.0137 16.951 23.9375 16.9468Z" fill="white"/>
<path d="M33.1719 17.2537C34.2738 17.1678 35.3743 17.066 36.4776 16.9877C36.5136 17.5958 36.5746 18.2026 36.6204 18.8101C36.4693 18.8226 36.3189 18.8343 36.1685 18.8468C36.1332 18.4125 36.0964 17.9782 36.0639 17.5432C35.7617 17.5647 35.4602 17.5958 35.1574 17.6076C35.1726 18.0211 35.2205 18.4326 35.2496 18.8447C35.1013 18.8558 34.9536 18.8683 34.8067 18.8787C34.7762 18.4693 34.7409 18.0606 34.7076 17.652C34.2093 17.697 33.711 17.7351 33.2121 17.7718C33.1989 17.5986 33.1857 17.4261 33.1719 17.2537Z" fill="white"/>
<path d="M1.75151 17.0473C2.84233 17.4829 3.92899 17.9297 5.01843 18.3696C5.01219 18.5517 5.00457 18.7339 4.99625 18.9168C3.8791 19.2534 2.76055 19.5859 1.64132 19.9163C1.64201 19.7348 1.6427 19.5533 1.64062 19.3725C2.5374 19.1142 3.43833 18.871 4.33511 18.6134C3.48615 18.2359 2.60185 17.9394 1.73903 17.5924C1.74319 17.4109 1.74735 17.2287 1.75151 17.0473Z" fill="white"/>
<path d="M23.2378 18.4409C23.3424 18.3813 23.463 18.4547 23.5115 18.5517C23.612 18.7463 23.6099 18.9784 23.576 19.1903C23.5621 19.3067 23.4831 19.43 23.3514 19.4259C23.1574 19.3801 23.0999 19.1592 23.0826 18.9874C23.0708 18.7997 23.0708 18.5642 23.2378 18.4409Z" fill="white"/>
<path d="M34.1254 20.2661C34.9327 20.0562 35.9411 20.3547 36.3223 21.1416C36.6106 21.7553 36.4221 22.5678 35.8586 22.9591C35.1115 23.4592 34.011 23.3006 33.3921 22.6634C33.0054 22.2512 32.9313 21.6077 33.1454 21.0959C33.3166 20.6844 33.6957 20.3741 34.1254 20.2661ZM34.343 20.762C33.8904 20.8209 33.4892 21.2074 33.4961 21.6777C33.4608 22.1182 33.8357 22.4611 34.2224 22.5934C34.6548 22.752 35.1753 22.786 35.5793 22.5345C36.0118 22.2727 36.1358 21.6154 35.8066 21.2247C35.4587 20.8084 34.8593 20.6879 34.343 20.762Z" fill="white"/>
<path d="M23.5312 21.1326C23.5694 21.0183 23.6096 20.9054 23.6498 20.7918C23.6858 20.9026 23.7225 21.0134 23.7606 21.1243C23.7031 21.1264 23.5888 21.1305 23.5312 21.1326Z" fill="white"/>
<path d="M54.3053 21.0418C56.7399 20.7883 59.2951 21.4955 61.1537 23.1129C62.2203 24.0279 63.0471 25.22 63.5315 26.5395C64.4435 29.0338 64.1712 31.9437 62.7768 34.2094C61.799 35.8136 60.2604 37.0562 58.5002 37.7087C55.7149 38.7449 52.4119 38.3778 49.9836 36.6392C48.3259 35.4686 47.1283 33.6712 46.6882 31.6908C46.1096 29.1204 46.6855 26.277 48.3543 24.2156C49.7944 22.4015 52.0065 21.2607 54.3053 21.0418ZM54.5097 21.8765C53.5894 21.9873 52.6981 22.3434 51.9677 22.9155C51.0508 23.6262 50.3959 24.6278 49.9711 25.6965C49.389 27.1678 49.1977 28.772 49.2801 30.3457C49.3495 31.6687 49.6149 32.9986 50.1991 34.1955C50.6911 35.2089 51.4403 36.1177 52.4168 36.696C53.4827 37.3395 54.7738 37.5487 56.0011 37.4026C56.9575 37.291 57.8861 36.9163 58.6339 36.3068C59.5376 35.5802 60.178 34.5709 60.591 33.4973C61.1766 31.9693 61.3478 30.3055 61.2328 28.6812C61.1364 27.3499 60.8343 26.0145 60.2015 24.8314C59.6714 23.8402 58.8785 22.9681 57.8737 22.4459C56.8501 21.9021 55.6532 21.7393 54.5097 21.8765Z" fill="white"/>
<path d="M107.949 21.0488C110.436 20.7724 113.056 21.5032 114.936 23.1794C115.943 24.0653 116.728 25.1992 117.205 26.4529C118.198 29.0747 117.867 32.1743 116.295 34.5031C115.162 36.1959 113.39 37.4351 111.425 37.9595C108.707 38.6978 105.63 38.1735 103.399 36.4231C101.657 35.0808 100.501 33.0208 100.246 30.8389C99.9288 28.3335 100.68 25.6765 102.408 23.8104C103.827 22.2422 105.851 21.2649 107.949 21.0488ZM108.221 21.8758C107.446 21.97 106.69 22.2318 106.036 22.6592C105.081 23.2722 104.365 24.2032 103.885 25.2214C103.266 26.5374 102.998 27.9976 102.972 29.4452C102.953 30.949 103.158 32.4777 103.756 33.8672C104.214 34.9353 104.934 35.9147 105.91 36.5617C106.839 37.1865 107.97 37.4704 109.084 37.4455C110.154 37.433 111.231 37.1165 112.104 36.4862C113.091 35.7831 113.796 34.7441 114.246 33.631C114.867 32.0891 115.054 30.3977 114.945 28.7463C114.855 27.3915 114.552 26.0304 113.906 24.8273C113.383 23.8499 112.605 22.9903 111.619 22.466C110.588 21.9084 109.377 21.7373 108.221 21.8758Z" fill="white"/>
<path d="M1.83594 21.5378C2.92884 21.3833 4.01966 21.2136 5.11187 21.0578C5.13682 21.2309 5.16177 21.4041 5.18672 21.5773C4.09589 21.7414 3.00507 21.9056 1.91286 22.0614C1.88722 21.8869 1.86158 21.7116 1.83594 21.5378Z" fill="white"/>
<path d="M64.853 21.2683C67.3042 21.269 69.7554 21.2677 72.2074 21.269C72.206 21.472 72.206 21.6749 72.2053 21.8779C71.6779 21.9866 71.1505 22.0968 70.6224 22.2007C70.4893 22.2346 70.3313 22.2554 70.2482 22.3773C70.2156 22.5352 70.3293 22.6675 70.4076 22.7915C71.6772 24.6014 72.9392 26.4162 74.2102 28.2255C74.258 28.3529 74.3738 28.2836 74.4167 28.195C75.7203 26.374 77.0273 24.5557 78.3282 22.7333C78.4383 22.6107 78.4973 22.3856 78.2907 22.3267C77.7349 22.1342 77.1514 22.0268 76.5824 21.8772C76.581 21.6742 76.581 21.4713 76.581 21.2683C78.5513 21.2677 80.5216 21.2683 82.4925 21.2683C82.4918 21.472 82.4919 21.6756 82.4905 21.88C81.8293 22.0628 81.146 22.1716 80.5015 22.4099C79.9387 22.6183 79.5867 23.1226 79.2346 23.5763C77.7758 25.4126 76.3163 27.2481 74.8596 29.0857C76.5963 31.3688 78.3289 33.6546 80.0642 35.939C80.3442 36.3456 80.6858 36.7369 81.1633 36.9101C81.7323 37.1179 82.3304 37.2308 82.9111 37.4005C82.9111 37.6014 82.9111 37.8029 82.9146 38.0045C80.4627 38.0128 78.0101 38.0052 75.5588 38.0079C75.5581 37.8064 75.5581 37.6048 75.5567 37.4039C76.1742 37.2592 76.8083 37.1788 77.4168 36.9994C77.6337 36.9288 77.5201 36.6836 77.4217 36.5589C76.2172 34.857 75.0072 33.1593 73.7999 31.4595C73.5948 31.1797 73.4091 30.8853 73.1845 30.6207C71.8865 32.3558 70.6383 34.1304 69.3597 35.8808C69.1698 36.1627 68.937 36.4176 68.7817 36.7203C68.7159 36.9004 68.9467 36.9676 69.0735 37.0112C69.5884 37.1511 70.1103 37.2626 70.6259 37.4012C70.6266 37.6041 70.6266 37.8078 70.6182 38.0107C68.6508 38.0052 66.6839 38.0073 64.7171 38.0093C64.7144 37.8064 64.7144 37.6034 64.7158 37.4005C65.2723 37.264 65.8294 37.1303 66.3825 36.98C66.8246 36.8595 67.2363 36.6164 67.5281 36.259C69.2308 34.1367 70.919 32.0012 72.6252 29.8816C71.0632 27.7877 69.481 25.709 67.9106 23.6206C67.562 23.1697 67.2529 22.6377 66.7006 22.4099C66.106 22.1695 65.4698 22.0524 64.8544 21.8772C64.8523 21.6742 64.8523 21.4713 64.853 21.2683Z" fill="white"/>
<path d="M85.1904 21.2697C89.4103 21.2663 93.6301 21.269 97.8506 21.2683C97.8499 22.6648 97.8499 24.0605 97.8506 25.4562C97.6164 25.4569 97.3835 25.4569 97.1507 25.4562C96.8852 24.6077 96.6177 23.7599 96.3516 22.912C96.2684 22.6537 96.1596 22.3808 95.9309 22.2173C95.7258 22.0711 95.4631 22.0601 95.2206 22.0614C93.5053 22.067 91.7894 22.0559 90.0742 22.067C90.0811 24.4671 90.0749 26.8665 90.077 29.2658C91.2842 29.2665 92.4915 29.2658 93.6994 29.2665C94.0487 29.2596 94.434 29.3095 94.7452 29.1114C95.0154 28.9396 95.1395 28.6265 95.2254 28.3321C95.3557 27.8847 95.4846 27.4365 95.617 26.9891C95.8471 26.9904 96.0779 26.9904 96.3093 26.9856C96.3232 28.8461 96.3107 30.7066 96.3156 32.5671C96.0827 32.5678 95.8505 32.5678 95.6191 32.5698C95.4735 32.0136 95.3391 31.4547 95.197 30.8978C95.1353 30.6546 95.0293 30.4067 94.8207 30.2543C94.601 30.0846 94.3127 30.0576 94.0452 30.0562C92.7222 30.0555 91.3999 30.0562 90.077 30.0562C90.0783 32.1113 90.0742 34.1664 90.079 36.2216C90.0555 36.5388 90.2523 36.8574 90.5718 36.9295C91.2717 37.0999 91.98 37.2377 92.682 37.4005C92.682 37.6 92.6827 37.8001 92.6897 38.001C90.1906 38.017 87.6909 38.0031 85.1918 38.0079C85.1911 37.805 85.1911 37.6027 85.1911 37.4012C85.7178 37.2765 86.2431 37.1477 86.7691 37.0209C87.0124 36.9544 87.282 36.8962 87.4601 36.7023C87.607 36.5374 87.6105 36.3019 87.6132 36.0927C87.6105 31.7532 87.6153 27.413 87.6112 23.0727C87.6389 22.7548 87.4386 22.4521 87.1302 22.3662C86.4926 22.1709 85.8363 22.0414 85.1911 21.8744C85.1911 21.6729 85.1911 21.4713 85.1904 21.2697Z" fill="white"/>
<path d="M119.675 21.2683C121.851 21.2683 124.027 21.2683 126.202 21.2683C127.525 21.269 128.878 21.2483 130.159 21.6299C131.426 21.997 132.492 22.9709 132.988 24.19C133.451 25.2837 133.418 26.5845 132.846 27.6318C132.265 28.7269 131.194 29.4875 130.046 29.9003C129.758 30.0146 129.448 30.0617 129.168 30.1919C129.763 30.5099 130.168 31.0626 130.584 31.5752C131.807 33.1309 132.985 34.7206 134.182 36.2964C134.456 36.66 134.857 36.9267 135.306 37.0195C135.883 37.1421 136.458 37.2737 137.035 37.3998C137.034 37.6007 137.035 37.8022 137.039 38.0038C135.666 38.01 134.292 38.0114 132.919 38.0031C132.469 38.0017 132.157 37.6339 131.915 37.3021C130.614 35.486 129.315 33.6691 128.017 31.8516C127.626 31.3272 127.193 30.7371 126.515 30.5902C125.873 30.4628 125.214 30.5473 124.565 30.5202C124.56 32.4251 124.561 34.3299 124.565 36.2347C124.544 36.5554 124.753 36.8678 125.075 36.9343C125.77 37.1012 126.472 37.2405 127.169 37.4005C127.168 37.6034 127.168 37.8064 127.167 38.0093C124.671 38.0073 122.176 38.0059 119.68 38.01C119.674 37.8064 119.674 37.6034 119.676 37.4005C120.323 37.2342 120.982 37.1109 121.619 36.9101C121.916 36.8256 122.113 36.5374 122.093 36.2306C122.098 31.8439 122.096 27.4559 122.095 23.0693C122.118 22.7555 121.926 22.4521 121.618 22.3669C120.98 22.1723 120.323 22.0414 119.676 21.8758C119.675 21.6729 119.675 21.4706 119.675 21.2683ZM124.563 22.0628C124.566 24.6208 124.555 27.1788 124.568 29.7368C125.296 29.7251 126.025 29.7396 126.753 29.7292C127.476 29.7175 128.217 29.6045 128.861 29.2603C129.361 28.9964 129.78 28.5822 130.041 28.0793C130.406 27.3943 130.516 26.6046 130.52 25.8365C130.524 25.0039 130.297 24.154 129.791 23.4842C129.208 22.7022 128.277 22.2159 127.313 22.1169C126.399 22.0213 125.479 22.0781 124.563 22.0628Z" fill="white"/>
<path d="M138.384 21.2684C140.512 21.2684 142.641 21.2684 144.77 21.2684C146.348 21.2704 147.945 21.2268 149.496 21.569C150.772 21.8308 151.99 22.396 152.981 23.2459C154.67 24.67 155.612 26.8408 155.763 29.02C155.905 31.1326 155.467 33.3692 154.148 35.0704C153.376 36.0671 152.32 36.827 151.154 37.2973C149.917 37.7787 148.581 37.9276 147.263 37.9886C144.305 38.0329 141.346 37.9927 138.388 38.0107C138.382 37.8064 138.381 37.6034 138.385 37.3998C139.013 37.244 139.648 37.1082 140.271 36.9309C140.589 36.8547 140.828 36.5638 140.802 36.2306C140.808 31.8883 140.802 27.546 140.806 23.203C140.804 22.9827 140.802 22.7313 140.641 22.5616C140.471 22.3884 140.226 22.3288 140.001 22.2686C139.461 22.1404 138.924 22.004 138.384 21.8772C138.383 21.6743 138.383 21.4713 138.384 21.2684ZM143.272 22.0621C143.272 26.8547 143.273 31.6472 143.272 36.4398C143.279 36.6441 143.266 36.8755 143.398 37.0472C143.549 37.219 143.799 37.2093 144.009 37.2183C144.841 37.2149 145.673 37.2246 146.505 37.2114C147.567 37.1809 148.652 37.0791 149.642 36.6642C150.664 36.241 151.471 35.4029 151.997 34.4435C152.624 33.2944 152.886 31.9832 152.97 30.6872C153.047 29.3538 152.969 28.0004 152.63 26.7051C152.336 25.5947 151.821 24.5204 151.015 23.6906C150.326 22.9723 149.421 22.466 148.441 22.2817C146.739 21.9465 144.994 22.0989 143.272 22.0621Z" fill="white"/>
<path d="M2.30469 24.0245C3.34908 23.667 4.38861 23.2958 5.43092 22.9328C5.49053 23.0894 5.54805 23.2473 5.60487 23.4059C4.99917 24.1367 4.40663 24.8785 3.79539 25.6044C4.55425 25.2955 5.31796 24.9921 6.08375 24.6977C6.13504 24.8515 6.18979 25.0032 6.24523 25.1556C5.22094 25.5594 4.18625 25.9369 3.16404 26.347C3.09474 26.189 3.03444 26.0276 2.98108 25.8642C3.58263 25.1424 4.17586 24.413 4.77463 23.6885C4.00468 23.9483 3.24096 24.2267 2.47171 24.4885C2.41557 24.3341 2.35944 24.1789 2.30469 24.0245Z" fill="white"/>
<path d="M32.5016 24.0023C33.5065 24.4491 34.5079 24.9048 35.5107 25.3571C35.3014 25.8004 35.1594 26.2846 34.8572 26.6774C34.4677 27.1567 33.6084 26.9856 33.3658 26.4405C33.3104 26.3172 33.3076 26.1807 33.2951 26.0491C32.7317 26.2202 32.1308 26.1128 31.5508 26.1447C31.6235 25.9778 31.697 25.8115 31.7649 25.6432C32.1974 25.61 32.6333 25.6619 33.0643 25.61C33.3526 25.5774 33.4427 25.2629 33.5412 25.0378C33.1212 24.8563 32.7081 24.6617 32.2902 24.4775C32.3609 24.3195 32.4309 24.1609 32.5016 24.0023ZM33.7165 25.9778C33.7387 26.3456 34.2383 26.579 34.5259 26.3435C34.7131 26.1565 34.7872 25.8926 34.905 25.6619C34.5911 25.5019 34.2647 25.3696 33.9452 25.2228C33.8475 25.4652 33.7019 25.7069 33.7165 25.9778Z" fill="white"/>
<path d="M18.4958 26.7397C18.6857 26.4876 18.8458 26.2119 19.053 25.9736C19.2297 25.9189 19.2921 26.1087 19.3808 26.2167C19.6594 26.6316 19.972 27.0237 20.2367 27.4469C20.157 27.609 19.8888 27.5356 19.7384 27.6201C19.9637 27.9498 20.1653 28.2975 20.4259 28.6016C20.7281 28.3432 21.0385 28.0946 21.3324 27.8272C21.2 27.7392 21.0545 27.6734 20.911 27.6069C21.191 27.307 21.5715 27.1241 21.8917 26.8713C22.0462 26.784 22.1765 26.6026 22.3685 26.6178C22.1522 27.4566 21.8293 28.2684 21.584 29.1003C20.7911 28.8482 19.9519 28.8038 19.1265 28.7948C18.2976 28.8038 17.4563 28.8468 16.6614 29.1003C16.4161 28.3238 16.1548 27.5515 15.9032 26.7771C15.8512 26.7023 15.8921 26.5402 16.0023 26.6289C16.4729 26.9378 16.9469 27.2447 17.3981 27.582C17.2546 27.6651 17.1084 27.7427 16.9663 27.8279C17.2491 28.0897 17.5367 28.346 17.8229 28.6037C18.0738 28.2927 18.2852 27.9526 18.5035 27.6201C18.3364 27.5661 18.1625 27.5363 17.9899 27.5093C18.1147 27.226 18.3267 26.996 18.4958 26.7397Z" fill="white"/>
<path d="M5.87602 26.933C6.17402 26.7342 6.54618 26.5769 6.90378 26.7106C7.46929 26.9184 7.85738 27.5335 7.8158 28.1326C7.79154 28.4852 7.50602 28.7366 7.24059 28.9327C6.66191 29.3497 6.08185 29.7639 5.49763 30.1725C5.39922 30.0264 5.29942 29.8816 5.19894 29.7375C5.74296 29.3545 6.28283 28.9659 6.82616 28.5815C7.01605 28.4367 7.25584 28.2989 7.31405 28.0488C7.37642 27.6284 7.02506 27.1553 6.58014 27.1761C6.41034 27.1948 6.26689 27.2966 6.1262 27.3846C5.54545 27.7794 4.964 28.1735 4.38255 28.5663C4.28345 28.4243 4.18435 28.2816 4.08594 28.1396C4.68333 27.7392 5.27448 27.3278 5.87602 26.933Z" fill="white"/>
<path d="M30.2693 27.9816C30.5042 27.6492 30.7655 27.3368 31.0198 27.0195C31.8799 27.7087 32.7434 28.3945 33.6041 29.0837C33.2465 29.509 32.9402 29.989 32.4959 30.3312C32.0677 30.6685 31.4481 30.665 30.9741 30.4267C30.464 30.1691 30.0357 29.6856 29.9588 29.1058C29.8964 28.7055 30.0426 28.3058 30.2693 27.9816ZM30.5063 28.4776C30.3406 28.8218 30.4453 29.2402 30.6878 29.5207C30.9907 29.8802 31.4564 30.1815 31.9464 30.0721C32.3975 29.9717 32.6443 29.5436 32.9305 29.2222C32.3047 28.7179 31.681 28.2102 31.0448 27.7205C30.8313 27.9449 30.6421 28.1984 30.5063 28.4776Z" fill="white"/>
<path d="M18.0966 29.3877C18.9733 29.3143 19.8631 29.3178 20.7315 29.4695C20.9498 29.5187 21.1889 29.5526 21.3677 29.6974C21.4737 29.7791 21.3538 29.8927 21.2706 29.9266C20.9047 30.0929 20.4972 30.1296 20.1022 30.1725C19.2352 30.2425 18.3558 30.2363 17.4971 30.0853C17.276 30.0333 17.0293 29.9987 16.8554 29.8401C16.7874 29.7258 16.9226 29.6517 17.0085 29.6129C17.353 29.4702 17.7286 29.4286 18.0966 29.3877Z" fill="white"/>
<path d="M16.8743 35.1701C17.1487 35.0011 17.541 35.2158 17.5507 35.5358C17.5874 35.8711 17.1889 36.1385 16.8937 35.9729C16.5721 35.8316 16.5603 35.3267 16.8743 35.1701Z" fill="white"/>
<path d="M21.5084 35.9189C21.8112 35.7471 22.2194 36.0297 22.1675 36.3726C22.1453 36.7078 21.708 36.9011 21.446 36.6891C21.1744 36.5083 21.2125 36.0533 21.5084 35.9189Z" fill="white"/>
</g>
<defs>
<clipPath id="clip0_3373_1210">
<rect width="156" height="46" fill="white"/>
</clipPath>
</defs>
</svg>
