<svg width="75" height="16" viewBox="0 0 75 16" fill="none" xmlns="http://www.w3.org/2000/svg">
<g clip-path="url(#clip0_500_2450)">
<path d="M31.1907 3.2V12.8H29.5246V5.26667H29.5024L26.5255 12.8H25.4147L22.3711 5.26667H22.3489V12.8H20.816V3.2H23.2153L25.9701 10.3111H26.0145L28.9247 3.2H31.1907ZM32.5681 3.93334C32.5681 3.66667 32.657 3.44445 32.8569 3.26667C33.0569 3.08889 33.279 3 33.5456 3C33.8344 3 34.0788 3.08889 34.2565 3.26667C34.4342 3.44445 34.5453 3.66667 34.5453 3.93334C34.5453 4.2 34.4564 4.42222 34.2565 4.6C34.0566 4.77778 33.8344 4.86667 33.5456 4.86667C33.2568 4.86667 33.0346 4.77778 32.8569 4.6C32.6792 4.4 32.5681 4.17778 32.5681 3.93334ZM34.3676 5.91111V12.8H32.7458V5.91111H34.3676ZM39.2772 11.6222C39.5216 11.6222 39.7882 11.5778 40.077 11.4444C40.3658 11.3333 40.6324 11.1778 40.8768 11V12.5111C40.6102 12.6667 40.3214 12.7778 39.9881 12.8444C39.6549 12.9111 39.2995 12.9556 38.8996 12.9556C37.8777 12.9556 37.0557 12.6444 36.4336 12C35.7894 11.3556 35.4784 10.5333 35.4784 9.55556C35.4784 8.44445 35.8116 7.53334 36.4559 6.82222C37.1001 6.11111 38.0109 5.75556 39.2106 5.75556C39.5216 5.75556 39.8326 5.8 40.1214 5.86667C40.4325 5.93334 40.6768 6.04445 40.8545 6.13334V7.68889C40.6102 7.51111 40.3436 7.35556 40.0992 7.26667C39.8326 7.17778 39.566 7.11111 39.2995 7.11111C38.6552 7.11111 38.1442 7.31111 37.7444 7.73334C37.3445 8.15556 37.1668 8.71111 37.1668 9.42222C37.1668 10.1111 37.3667 10.6667 37.7444 11.0444C38.122 11.4222 38.633 11.6222 39.2772 11.6222ZM45.4754 5.8C45.6087 5.8 45.7198 5.8 45.8309 5.82222C45.9419 5.84445 46.0308 5.86667 46.0974 5.88889V7.53334C46.0086 7.46667 45.8975 7.4 45.7198 7.35556C45.542 7.31111 45.3643 7.26667 45.12 7.26667C44.7201 7.26667 44.3868 7.44445 44.1202 7.77778C43.8537 8.11111 43.6981 8.62222 43.6981 9.33334V12.8H42.0764V5.91111H43.6981V7H43.7204C43.8759 6.62222 44.098 6.33334 44.3868 6.11111C44.6979 5.91111 45.0533 5.8 45.4754 5.8ZM46.1863 9.46667C46.1863 8.33334 46.5195 7.42222 47.1416 6.75556C47.7858 6.08889 48.6745 5.75556 49.8074 5.75556C50.8738 5.75556 51.718 6.06667 52.3178 6.71111C52.9176 7.35556 53.2287 8.22222 53.2287 9.31111C53.2287 10.4222 52.8954 11.3111 52.2734 11.9778C51.6291 12.6444 50.7627 12.9778 49.6519 12.9778C48.5856 12.9778 47.7414 12.6667 47.1194 12.0444C46.4973 11.4 46.1863 10.5333 46.1863 9.46667ZM47.8747 9.4C47.8747 10.1111 48.0302 10.6667 48.3634 11.0444C48.6967 11.4222 49.1632 11.6222 49.763 11.6222C50.3406 11.6222 50.8072 11.4444 51.1182 11.0444C51.4292 10.6667 51.5847 10.1111 51.5847 9.35556C51.5847 8.62222 51.4292 8.06667 51.1182 7.66667C50.8072 7.28889 50.3406 7.08889 49.7852 7.08889C49.1854 7.08889 48.7411 7.28889 48.4079 7.68889C48.0302 8.11111 47.8747 8.66667 47.8747 9.4ZM55.6502 7.73334C55.6502 7.95556 55.7168 8.15556 55.8723 8.28889C56.0278 8.42222 56.3388 8.57778 56.8498 8.77778C57.4941 9.04445 57.9606 9.33334 58.205 9.64445C58.4715 9.97778 58.6048 10.3556 58.6048 10.8222C58.6048 11.4667 58.3605 11.9778 57.8495 12.3778C57.3608 12.7778 56.6721 12.9556 55.8279 12.9556C55.5391 12.9556 55.2281 12.9111 54.8726 12.8444C54.5172 12.7778 54.2284 12.6889 53.984 12.5778V10.9778C54.2728 11.1778 54.606 11.3556 54.9393 11.4667C55.2725 11.5778 55.5835 11.6444 55.8723 11.6444C56.2278 11.6444 56.5166 11.6 56.6721 11.4889C56.8498 11.3778 56.9387 11.2222 56.9387 10.9778C56.9387 10.7556 56.8498 10.5778 56.6721 10.4C56.4944 10.2444 56.1389 10.0667 55.6502 9.86667C55.0503 9.62222 54.6282 9.33333 54.3839 9.02222C54.1395 8.71111 54.0062 8.31111 54.0062 7.82222C54.0062 7.2 54.2506 6.68889 54.7393 6.28889C55.2281 5.88889 55.8723 5.68889 56.6499 5.68889C56.8942 5.68889 57.1608 5.71111 57.4496 5.77778C57.7384 5.84445 58.005 5.91111 58.205 5.97778V7.55556C57.9828 7.42222 57.7384 7.28889 57.4496 7.17778C57.1608 7.06667 56.872 7.02222 56.6054 7.02222C56.2944 7.02222 56.05 7.08889 55.8945 7.2C55.739 7.35556 55.6502 7.51111 55.6502 7.73334ZM59.2935 9.46667C59.2935 8.33334 59.6268 7.42222 60.2488 6.75556C60.8931 6.08889 61.7817 5.75556 62.9147 5.75556C63.981 5.75556 64.8252 6.06667 65.425 6.71111C66.0249 7.35556 66.3359 8.22222 66.3359 9.31111C66.3359 10.4222 66.0026 11.3111 65.3806 11.9778C64.7364 12.6444 63.8699 12.9778 62.7592 12.9778C61.6928 12.9778 60.8486 12.6667 60.2266 12.0444C59.6268 11.4 59.2935 10.5333 59.2935 9.46667ZM60.9819 9.4C60.9819 10.1111 61.1374 10.6667 61.4707 11.0444C61.8039 11.4222 62.2704 11.6222 62.8702 11.6222C63.4479 11.6222 63.9144 11.4444 64.2254 11.0444C64.5364 10.6667 64.6919 10.1111 64.6919 9.35556C64.6919 8.62222 64.5364 8.06667 64.2254 7.66667C63.9144 7.28889 63.4479 7.08889 62.8925 7.08889C62.2926 7.08889 61.8483 7.28889 61.5151 7.68889C61.1596 8.11111 60.9819 8.66667 60.9819 9.4ZM71.7343 7.24445H69.3128V12.8H67.6688V7.24445H66.5136V5.91111H67.6688V4.95556C67.6688 4.24445 67.9132 3.64445 68.3797 3.17778C68.8462 2.71111 69.4461 2.48889 70.1792 2.48889C70.3791 2.48889 70.5569 2.51111 70.7124 2.51111C70.8679 2.51111 71.0012 2.55556 71.1122 2.6V4C71.0678 3.97778 70.9567 3.93334 70.8234 3.88889C70.6901 3.84445 70.5346 3.82223 70.3569 3.82223C70.0237 3.82223 69.7571 3.93334 69.5794 4.13334C69.4016 4.33334 69.3128 4.66667 69.3128 5.06667V5.88889H71.7343V4.33334L73.356 3.84445V5.88889H75V7.22222H73.356V10.4444C73.356 10.8667 73.4449 11.1556 73.5782 11.3333C73.7337 11.5111 73.9781 11.6 74.3113 11.6C74.4002 11.6 74.5112 11.5778 74.6445 11.5333C74.7778 11.4889 74.8889 11.4444 74.9778 11.3778V12.7111C74.8667 12.7778 74.7112 12.8222 74.4668 12.8667C74.2224 12.9111 74.0003 12.9333 73.7559 12.9333C73.0672 12.9333 72.5563 12.7556 72.223 12.4C71.8898 12.0444 71.7121 11.4889 71.7121 10.7556L71.7343 7.24445Z" fill="white"/>
<path d="M7.59775 0H0V7.6H7.59775V0Z" fill="white"/>
<path d="M15.9952 0H8.39746V7.6H15.9952V0Z" fill="white"/>
<path d="M7.59775 8.40002H0V16H7.59775V8.40002Z" fill="white"/>
<path d="M15.9952 8.40002H8.39746V16H15.9952V8.40002Z" fill="white"/>
</g>
<defs>
<clipPath id="clip0_500_2450">
<rect width="75" height="16" fill="white"/>
</clipPath>
</defs>
</svg>
