<svg width="43" height="30" viewBox="0 0 43 30" fill="none" xmlns="http://www.w3.org/2000/svg">
<g clip-path="url(#clip0_527_431)">
<mask id="mask0_527_431" style="mask-type:luminance" maskUnits="userSpaceOnUse" x="0" y="0" width="43" height="30">
<path d="M0.00939941 0.0786133H42.8519V29.9215H0.00939941V0.0786133Z" fill="white"/>
</mask>
<g mask="url(#mask0_527_431)">
<path fill-rule="evenodd" clip-rule="evenodd" d="M17.7985 3.34552C19.1814 1.90992 21.1062 1.02091 23.2326 1.02091C26.0677 1.02091 28.5249 2.59159 29.848 4.93191C31.0224 4.40836 32.2945 4.13806 33.5809 4.13871C38.6842 4.13871 42.8267 8.30102 42.8267 13.4371C42.8267 18.5733 38.6842 22.7356 33.5809 22.7356C32.9572 22.7356 32.3492 22.6731 31.7538 22.5549C30.5961 24.6125 28.3831 26.0104 25.863 26.0104C24.8369 26.0125 23.824 25.7804 22.9018 25.3319C21.7284 28.0806 18.9956 30.0125 15.8139 30.0125C12.4904 30.0125 9.67103 27.9235 8.58421 24.9864C8.1005 25.0882 7.60745 25.1393 7.11308 25.139C3.1596 25.139 -0.0378418 21.9034 -0.0378418 17.9296C-0.0378418 15.2594 1.40179 12.9348 3.53762 11.6783C3.0845 10.6374 2.85127 9.5146 2.85245 8.37987C2.85245 3.79348 6.58542 0.0866699 11.1847 0.0866699C13.8781 0.0866699 16.288 1.36677 17.8001 3.35369" fill="white"/>
</g>
<path fill-rule="evenodd" clip-rule="evenodd" d="M6.20579 15.597C6.17885 15.667 6.21539 15.6816 6.22406 15.6941C6.30454 15.7522 6.38629 15.7943 6.4682 15.8415C6.90607 16.0724 7.31875 16.14 7.75032 16.14C8.62922 16.14 9.17578 15.6735 9.17578 14.9227V14.9079C9.17578 14.2137 8.55834 13.9608 7.98186 13.7802L7.90641 13.7558C7.47011 13.6148 7.09366 13.492 7.09366 13.2061V13.1915C7.09366 12.9465 7.31418 12.7658 7.6544 12.7658C8.03242 12.7658 8.4829 12.8913 8.77114 13.0501C8.77114 13.0501 8.85651 13.1051 8.88754 13.023C8.90439 12.9785 9.05135 12.5863 9.0671 12.5423C9.08379 12.4963 9.0545 12.4616 9.02441 12.4437C8.69364 12.2426 8.23687 12.106 7.76434 12.106L7.67661 12.1063C6.87173 12.1063 6.30943 12.5916 6.30943 13.2859V13.3008C6.30943 14.0327 6.93001 14.2715 7.50965 14.4364L7.60289 14.4653C8.02502 14.5947 8.39044 14.7072 8.39044 15.0025V15.0173C8.39044 15.289 8.1526 15.4916 7.77143 15.4916C7.62321 15.4916 7.15084 15.4891 6.63894 15.1665C6.57704 15.1305 6.54175 15.1046 6.49403 15.0755C6.46883 15.0603 6.40582 15.0328 6.37842 15.1151L6.20516 15.5957M19.0736 15.5957C19.0467 15.6658 19.0833 15.6804 19.0922 15.6928C19.1724 15.7509 19.2545 15.793 19.3364 15.8403C19.7743 16.0712 20.1869 16.1387 20.6185 16.1387C21.4974 16.1387 22.044 15.6722 22.044 14.9214V14.9067C22.044 14.2124 21.4281 13.9596 20.85 13.7789L20.7746 13.7546C20.3383 13.6135 19.9618 13.4907 19.9618 13.2048V13.1902C19.9618 12.9452 20.1824 12.7646 20.5226 12.7646C20.9006 12.7646 21.3495 12.8901 21.6393 13.0489C21.6393 13.0489 21.7247 13.1038 21.7559 13.0217C21.7726 12.9772 21.9197 12.5851 21.9339 12.5411C21.9507 12.4951 21.9213 12.4603 21.8913 12.4424C21.5606 12.2414 21.1038 12.1047 20.6313 12.1047L20.5434 12.1051C19.7385 12.1051 19.1762 12.5904 19.1762 13.2846V13.2996C19.1762 14.0315 19.7968 14.2702 20.3764 14.4352L20.4695 14.4641C20.8932 14.5935 21.257 14.7059 21.257 15.0012V15.016C21.257 15.2877 21.0192 15.4903 20.638 15.4903C20.4895 15.4903 20.0159 15.4878 19.5055 15.1652C19.4436 15.1292 19.4074 15.1044 19.3605 15.0743C19.3446 15.0642 19.2704 15.0353 19.245 15.1138L19.0718 15.5945M27.8608 14.1243C27.8608 14.5484 27.7814 14.883 27.6261 15.1201C27.4711 15.3542 27.237 15.4688 26.911 15.4688C26.5849 15.4688 26.3518 15.3551 26.199 15.1217C26.0452 14.8861 25.9675 14.55 25.9675 14.1259C25.9675 13.7018 26.0456 13.3688 26.199 13.1348C26.3515 12.9023 26.5834 12.7908 26.911 12.7908C27.2386 12.7908 27.4717 12.9034 27.6261 13.1348C27.7823 13.3688 27.8608 13.7018 27.8608 14.1259M28.5948 13.339C28.5225 13.0955 28.4105 12.8819 28.2608 12.7029C28.111 12.5238 27.9222 12.3793 27.697 12.2756C27.4733 12.1712 27.2087 12.1186 26.9094 12.1186C26.6101 12.1186 26.3471 12.1715 26.1219 12.2756C25.8982 12.3799 25.7076 12.5238 25.558 12.7029C25.4087 12.8819 25.2965 13.0955 25.2241 13.339C25.1524 13.5809 25.116 13.8447 25.116 14.1259C25.116 14.407 25.1524 14.6709 25.2241 14.9128C25.296 15.1563 25.4084 15.3699 25.558 15.5489C25.7078 15.728 25.8982 15.8709 26.1219 15.973C26.3471 16.0748 26.6117 16.1266 26.9094 16.1266C27.2071 16.1266 27.4717 16.0748 27.6954 15.973C27.919 15.8712 28.1096 15.728 28.2593 15.5489C28.4087 15.3699 28.5207 15.1563 28.5932 14.9128C28.6647 14.6709 28.7011 14.407 28.7011 14.1259C28.7011 13.8463 28.6647 13.5809 28.5932 13.339M34.6258 15.3494C34.6017 15.2783 34.5321 15.3052 34.5321 15.3052C34.4254 15.3458 34.3116 15.3835 34.1903 15.4024C34.068 15.4215 33.932 15.4311 33.7886 15.4311C33.4342 15.4311 33.1507 15.3257 32.9491 15.117C32.7459 14.9081 32.6325 14.572 32.6341 14.1165C32.6352 13.7018 32.7357 13.3908 32.916 13.1521C33.094 12.9165 33.3681 12.794 33.7303 12.794C34.0328 12.794 34.2643 12.829 34.5069 12.9047C34.5069 12.9047 34.5644 12.9297 34.5919 12.8541C34.6563 12.6766 34.7039 12.5494 34.7731 12.3546C34.7926 12.2989 34.7447 12.2753 34.7272 12.2686C34.6321 12.2315 34.4075 12.1707 34.2374 12.1451C34.0783 12.1209 33.894 12.1083 33.6861 12.1083C33.3774 12.1083 33.1033 12.161 32.8686 12.2653C32.6339 12.3694 32.4355 12.5134 32.278 12.6925C32.1204 12.8715 32.0007 13.0852 31.9204 13.3286C31.8409 13.5705 31.8007 13.8359 31.8007 14.1171C31.8007 14.7234 31.9645 15.215 32.289 15.5747C32.6134 15.9359 33.1017 16.1181 33.7381 16.1181C34.1145 16.1181 34.5004 16.0423 34.7776 15.9328C34.7776 15.9328 34.8305 15.9074 34.8076 15.8458L34.6264 15.3494M35.9101 13.7159C35.9452 13.4803 36.01 13.284 36.1117 13.1316C36.264 12.8992 36.496 12.772 36.8221 12.772C37.1481 12.772 37.3639 12.8998 37.5183 13.1316C37.6207 13.2848 37.6654 13.4882 37.6821 13.7159L35.9022 13.7156L35.9101 13.7159ZM38.383 13.1976C38.3205 12.9636 38.1656 12.7264 38.0648 12.618C37.9042 12.4468 37.7482 12.3259 37.5923 12.2599C37.3672 12.1645 37.125 12.1155 36.8804 12.1159C36.5701 12.1159 36.2881 12.1682 36.0597 12.2745C35.8314 12.3816 35.6392 12.5274 35.488 12.7096C35.3369 12.8918 35.2234 13.107 35.1509 13.3536C35.0785 13.597 35.0419 13.8641 35.0419 14.1436C35.0419 14.4295 35.0799 14.6949 35.1545 14.9353C35.23 15.1771 35.3514 15.3892 35.5152 15.5651C35.679 15.7426 35.8885 15.8808 36.1406 15.9782C36.391 16.0748 36.695 16.1249 37.0431 16.1238C37.7613 16.1214 38.1393 15.962 38.2937 15.8756C38.3213 15.8602 38.3473 15.8337 38.3148 15.7572L38.1526 15.3033C38.1277 15.2356 38.059 15.2601 38.059 15.2601C37.881 15.3264 37.629 15.4454 37.0384 15.4438C36.6525 15.4432 36.3674 15.3297 36.1878 15.1517C36.0051 14.9695 35.9137 14.7041 35.8996 14.3271L38.3882 14.329C38.3882 14.329 38.4537 14.3283 38.4605 14.2646C38.4632 14.2382 38.5457 13.7557 38.3863 13.1981L38.383 13.1976ZM16.0167 13.7159C16.0518 13.4803 16.1167 13.284 16.2183 13.1316C16.3708 12.8992 16.6026 12.772 16.9287 12.772C17.2547 12.772 17.4705 12.8998 17.6249 13.1316C17.7271 13.2848 17.7718 13.4882 17.7887 13.7159L16.0088 13.7156L16.0167 13.7159ZM18.4896 13.1976C18.4272 12.9636 18.2722 12.7264 18.1714 12.618C18.0108 12.4468 17.8548 12.3259 17.6989 12.2599C17.4738 12.1645 17.2316 12.1155 16.987 12.1159C16.6767 12.1159 16.3947 12.1682 16.1663 12.2745C15.938 12.3816 15.7458 12.5274 15.5946 12.7096C15.4439 12.8918 15.33 13.107 15.2575 13.3536C15.1852 13.597 15.1488 13.8641 15.1488 14.1436C15.1488 14.4295 15.1865 14.6949 15.2616 14.9353C15.3369 15.1771 15.4585 15.3892 15.6207 15.5651C15.7845 15.7426 15.994 15.8808 16.246 15.9782C16.4965 16.0748 16.7989 16.1249 17.1486 16.1238C17.8668 16.1214 18.2448 15.962 18.3992 15.8756C18.4266 15.8602 18.4527 15.8337 18.4201 15.7572L18.2579 15.3033C18.2329 15.2356 18.1642 15.2601 18.1642 15.2601C17.9862 15.3264 17.7342 15.4454 17.1435 15.4438C16.7592 15.4432 16.4725 15.3297 16.293 15.1517C16.1103 14.9695 16.0189 14.7041 16.0047 14.3271L18.4934 14.329C18.4934 14.329 18.5589 14.3283 18.5657 14.2646C18.5684 14.2382 18.6509 13.7557 18.4913 13.1981L18.4896 13.1976ZM10.6457 15.3337C10.5482 15.2562 10.5346 15.2371 10.5023 15.1867C10.453 15.1109 10.4278 15.003 10.4278 14.8647C10.4278 14.648 10.5003 14.4909 10.6499 14.3857C10.6483 14.386 10.8641 14.2003 11.3713 14.2066C11.597 14.2107 11.8223 14.2298 12.0454 14.264V15.3901H12.0458C12.0458 15.3901 11.7307 15.4578 11.3748 15.4792C10.8692 15.5095 10.6455 15.3341 10.6471 15.3345L10.6457 15.3337ZM11.6348 13.5903C11.534 13.5829 11.4033 13.5793 11.2473 13.5793C11.0347 13.5793 10.8284 13.6057 10.6362 13.6575C10.4425 13.7097 10.2676 13.7904 10.118 13.8978C9.96795 14.0046 9.84454 14.1443 9.7573 14.3062C9.66925 14.4696 9.62436 14.6612 9.62436 14.8779C9.62436 15.0978 9.66264 15.2879 9.73824 15.4434C9.81233 15.5976 9.92386 15.731 10.0627 15.8313C10.2008 15.9315 10.3714 16.0057 10.5683 16.0497C10.7636 16.0941 10.9841 16.1166 11.2267 16.1166C11.4819 16.1166 11.7355 16.0952 11.9812 16.0539C12.1904 16.0179 12.3989 15.9775 12.6065 15.9326C12.6893 15.9136 12.7813 15.8887 12.7813 15.8887C12.8427 15.8731 12.838 15.8076 12.838 15.8076L12.8366 13.5458C12.8366 13.0495 12.7037 12.6804 12.4413 12.4526C12.1798 12.2249 11.797 12.1102 11.3009 12.1102C11.115 12.1102 10.8142 12.1354 10.6346 12.1713C10.6346 12.1713 10.0928 12.2763 9.86913 12.4509C9.86913 12.4509 9.81999 12.4811 9.84677 12.5494L10.0232 13.0206C10.0451 13.0817 10.1048 13.0608 10.1048 13.0608C10.1048 13.0608 10.1235 13.0534 10.1456 13.0404C10.6228 12.7812 11.2276 12.7891 11.2276 12.7891C11.4954 12.7891 11.7033 12.8433 11.8419 12.9493C11.9775 13.0531 12.0467 13.21 12.0467 13.5399V13.6446C11.8341 13.6138 11.6372 13.5961 11.6372 13.5961L11.6348 13.5903ZM31.6385 12.3133C31.642 12.305 31.6439 12.2961 31.644 12.2871C31.644 12.2781 31.6423 12.2691 31.6388 12.2608C31.6353 12.2525 31.6302 12.245 31.6237 12.2386C31.6172 12.2323 31.6096 12.2274 31.6011 12.2241C31.5588 12.2081 31.3475 12.1636 31.1853 12.1536C30.8734 12.1341 30.7002 12.1866 30.5443 12.2563C30.3902 12.3256 30.2198 12.4369 30.1253 12.5657L30.125 12.2642C30.125 12.2227 30.0955 12.1892 30.0536 12.1892H29.4173C29.376 12.1892 29.3461 12.2227 29.3461 12.2642V15.9553C29.3461 15.9752 29.3541 15.9943 29.3682 16.0084C29.3824 16.0225 29.4015 16.0305 29.4215 16.0305H30.0736C30.0936 16.0305 30.1127 16.0225 30.1269 16.0084C30.141 15.9943 30.1489 15.9752 30.1489 15.9553V14.1019C30.1489 13.8537 30.1763 13.6071 30.231 13.4516C30.2848 13.2978 30.3581 13.1752 30.4483 13.0872C30.5344 13.0022 30.6398 12.9392 30.7555 12.9034C30.864 12.8724 30.9764 12.8566 31.0894 12.8566C31.2193 12.8566 31.3619 12.8899 31.3619 12.8899C31.4098 12.8953 31.4364 12.866 31.4526 12.823C31.4953 12.7098 31.6164 12.3707 31.64 12.3031" fill="black"/>
<path fill-rule="evenodd" clip-rule="evenodd" d="M25.5481 10.6097C25.4675 10.5854 25.3855 10.566 25.3025 10.5516C25.1909 10.533 25.0779 10.5243 24.9648 10.5255C24.5154 10.5255 24.1612 10.6521 23.9125 10.9022C23.6655 11.1503 23.4975 11.5284 23.4132 12.0258L23.3828 12.1937H22.8187C22.8187 12.1937 22.7499 12.1909 22.7354 12.2658L22.6428 12.781C22.6364 12.8303 22.6576 12.8611 22.7238 12.8608H23.2728L22.7157 15.9618C22.6721 16.2115 22.6222 16.417 22.5669 16.5726C22.5124 16.7262 22.4592 16.8414 22.3936 16.9249C22.3302 17.0058 22.27 17.0653 22.1662 17.1001C22.0805 17.1288 21.9819 17.142 21.8739 17.142C21.8137 17.142 21.7337 17.1319 21.6746 17.1202C21.6155 17.1085 21.5848 17.0953 21.5406 17.0768C21.5406 17.0768 21.4761 17.0523 21.4508 17.1167C21.4301 17.1693 21.2838 17.5706 21.2665 17.6203C21.2489 17.6693 21.2736 17.7079 21.3048 17.7191C21.3779 17.7451 21.4322 17.7618 21.5317 17.7852C21.67 17.8177 21.7866 17.8197 21.8957 17.8197C22.1244 17.8197 22.3328 17.7877 22.5056 17.7255C22.6795 17.6628 22.8309 17.5537 22.9648 17.4059C23.1095 17.2464 23.2006 17.0795 23.2877 16.8517C23.3738 16.626 23.4472 16.3458 23.506 16.0193L24.0657 12.8608H24.8842C24.8842 12.8608 24.9532 12.8633 24.9675 12.7887L25.0601 12.2735C25.0666 12.2242 25.0455 12.1934 24.979 12.1937H24.1847C24.1886 12.1758 24.2247 11.8972 24.3159 11.6349C24.3548 11.5229 24.428 11.4326 24.4901 11.3705C24.548 11.3114 24.6194 11.2672 24.6981 11.2414C24.7845 11.2148 24.8745 11.2019 24.9648 11.2031C25.0396 11.2031 25.113 11.212 25.1689 11.2237C25.246 11.24 25.2759 11.2486 25.2961 11.2546C25.377 11.2793 25.3879 11.2554 25.4038 11.2163L25.5937 10.6961C25.6133 10.6402 25.5657 10.6166 25.5481 10.6097ZM14.4478 15.9684C14.4478 16.0099 14.4182 16.0436 14.3766 16.0436H13.7177C13.676 16.0436 13.6464 16.0099 13.6464 15.9684V10.6802C13.6464 10.6389 13.676 10.6055 13.7177 10.6055H14.3766C14.4182 10.6055 14.4478 10.6389 14.4478 10.6802V15.9684Z" fill="black"/>
</g>
<defs>
<clipPath id="clip0_527_431">
<rect width="43" height="30" fill="white"/>
</clipPath>
</defs>
</svg>
