<svg width="50" height="20" viewBox="0 0 50 20" fill="none" xmlns="http://www.w3.org/2000/svg">
<path d="M25.5808 0.00862122C27.3689 -0.0528822 29.1687 0.215866 30.8552 0.813868C33.3924 1.70385 35.6599 3.33483 37.3191 5.44749C38.049 6.37435 38.6603 7.39313 39.1394 8.47102C39.2244 8.65039 39.2898 8.85199 39.2443 9.05184C39.1886 9.38734 38.8943 9.66468 38.5558 9.6982C38.2043 9.74956 37.841 9.53038 37.7156 9.19938C36.7629 6.95906 35.1369 5.01307 33.1086 3.66603C31.8547 2.82876 30.4484 2.21906 28.9793 1.87772C27.0847 1.4349 25.09 1.4349 23.1951 1.87637C20.4894 2.49895 18.0121 4.04974 16.2648 6.20457C15.524 7.11249 14.9123 8.12458 14.4511 9.20133C14.3513 9.45154 14.122 9.64769 13.8545 9.69161C13.5965 9.74137 13.3156 9.65234 13.1357 9.46033C12.9236 9.24799 12.8543 8.9086 12.9636 8.62991C14.2328 5.63155 16.5828 3.11274 19.472 1.61347C21.3539 0.629256 23.459 0.0802679 25.5808 0.00862122Z" fill="white"/>
<path d="M23.2179 9.24054C23.2072 9.0848 23.3547 8.96829 23.5008 8.96459C23.6906 8.9595 23.881 8.96109 24.0713 8.96379C24.2035 8.96829 24.3578 9.05632 24.3572 9.20466C24.364 10.9469 24.3531 12.6897 24.3631 14.4329C25.0695 13.648 25.782 12.8673 26.491 12.0847C26.6306 11.9471 26.741 11.7387 26.9582 11.7207C27.2508 11.7086 27.5441 11.7158 27.8371 11.7162C27.95 11.7061 28.076 11.8095 28.0363 11.9299C27.99 12.0228 27.9051 12.0867 27.8357 12.1604C27.0691 12.9259 26.2996 13.6886 25.5369 14.4573C26.2736 15.2977 27.0002 16.1467 27.7336 16.9902C27.8279 17.1102 27.9461 17.2121 28.0252 17.3444C28.0832 17.4479 27.9871 17.5738 27.8761 17.5786C27.6326 17.5923 27.3885 17.5786 27.1443 17.5845C27.0174 17.5816 26.8801 17.6001 26.7648 17.5347C26.6433 17.465 26.5695 17.3405 26.4826 17.2357C25.7752 16.3456 25.0724 15.4519 24.3625 14.5633C24.3552 15.4396 24.3603 16.3155 24.3597 17.1912C24.357 17.2923 24.3777 17.4141 24.2896 17.4879C24.1494 17.6231 23.9406 17.5757 23.7656 17.5845C23.6103 17.5792 23.4287 17.6132 23.3025 17.4986C23.2322 17.444 23.2138 17.3507 23.2166 17.2677C23.2185 14.5916 23.2158 11.9159 23.2179 9.24054Z" fill="white"/>
<path d="M19.9956 11.7016C20.3503 11.5876 20.7501 11.5659 21.0975 11.7162C21.2194 11.7734 21.361 11.8954 21.3059 12.0457C21.2503 12.2344 21.2028 12.4252 21.1364 12.6106C21.0874 12.7437 20.9329 12.7931 20.8028 12.7672C20.5102 12.717 20.2229 12.6204 19.9229 12.6302C19.7136 12.6253 19.5204 12.7375 19.3772 12.8829C19.1462 13.1087 19.0266 13.4245 18.9729 13.7377C18.9303 13.9641 18.9425 14.1954 18.9405 14.4241C18.9405 15.3853 18.9409 16.3471 18.9403 17.3083C18.954 17.4664 18.7903 17.5737 18.6475 17.5792C18.4514 17.5819 18.2557 17.5845 18.0598 17.5776C17.9182 17.5702 17.7589 17.467 17.7772 17.3077C17.7764 15.5278 17.7753 13.7485 17.7776 11.9686C17.7655 11.7915 17.9618 11.6953 18.1157 11.7119C18.3089 11.7246 18.5725 11.652 18.6981 11.8462C18.7934 12.0714 18.8387 12.3146 18.9282 12.5418C19.1975 12.1725 19.5546 11.8469 19.9956 11.7016Z" fill="white"/>
<path d="M0 11.8374C0.054492 11.775 0.118164 11.7074 0.208984 11.7138C0.475 11.7113 0.741795 11.7055 1.00761 11.7177C1.14258 11.7216 1.23554 11.8402 1.25527 11.9656C1.51679 13.0283 1.77363 14.0926 2.03398 15.1556C2.11035 15.4839 2.20332 15.8088 2.25312 16.1428C2.30449 16.4427 2.31465 16.7472 2.36347 17.0477C2.43066 16.6188 2.49082 16.1871 2.60664 15.768C2.94707 14.4993 3.2873 13.2307 3.62812 11.9623C3.65469 11.8177 3.79082 11.7148 3.93554 11.7148C4.23164 11.7074 4.52832 11.7125 4.82441 11.7125C4.9832 11.7051 5.15315 11.7978 5.1914 11.9604C5.4457 12.8853 5.6969 13.8119 5.9502 14.7376C6.1039 15.3371 6.30525 15.9265 6.3922 16.5417C6.4162 16.7111 6.43965 16.8809 6.4746 17.0491C6.5701 16.0827 6.81895 15.1423 7.02365 14.196C7.1926 13.4431 7.3578 12.6893 7.5287 11.9363C7.5539 11.7851 7.71405 11.709 7.8551 11.7132C8.09455 11.7119 8.3344 11.7051 8.57345 11.7172C8.71545 11.7213 8.79705 11.8782 8.74705 12.0047C8.2666 13.7762 7.7879 15.5489 7.30725 17.3204C7.28145 17.4625 7.1576 17.5733 7.0125 17.5757C6.6414 17.5878 6.26955 17.5786 5.89845 17.5806C5.76545 17.5888 5.6248 17.5175 5.60135 17.3776C5.26915 16.1594 4.94355 14.939 4.61445 13.7198C4.49531 13.2957 4.44707 12.856 4.39707 12.4198C4.33594 12.8082 4.30566 13.203 4.20215 13.5845C3.86523 14.8399 3.52636 16.0957 3.18867 17.3512C3.15058 17.5546 2.91797 17.5952 2.74492 17.5819C2.3998 17.5757 2.05469 17.5899 1.70996 17.5757C1.58711 17.5761 1.49238 17.4804 1.47031 17.3645C0.98594 15.6 0.503125 13.8347 0.0183594 12.0706C0.0015625 11.9935 0.00371094 11.9149 0 11.8374Z" fill="white"/>
<path d="M43.5227 11.7172C43.7746 11.7129 44.0276 11.7119 44.2795 11.7172C44.4328 11.7194 44.577 11.8241 44.6252 11.9705C45.0604 13.1068 45.4924 14.2452 45.927 15.382C46.0178 15.6127 46.0813 15.8533 46.1219 16.0977C46.3016 15.4234 46.5408 14.7672 46.7508 14.1017C46.9846 13.3822 47.2186 12.6624 47.4533 11.9426C47.4881 11.8173 47.6076 11.7319 47.7346 11.7213C47.9403 11.7061 48.1473 11.7194 48.3533 11.7139C48.4739 11.7153 48.6174 11.7012 48.7092 11.7978C48.7688 11.8482 48.7561 11.9319 48.7313 11.9973C48.036 13.9792 47.3426 15.9621 46.6483 17.9446C46.5276 18.2748 46.4348 18.6204 46.2405 18.9175C45.9617 19.3699 45.51 19.6956 45.0135 19.8718C44.8401 19.9255 44.661 20.0445 44.4744 19.9778C44.342 19.944 44.2912 19.8064 44.2205 19.7053C44.1698 19.6136 44.076 19.5287 44.0955 19.4145C44.1047 19.3013 44.1955 19.2092 44.3026 19.179C44.5119 19.1068 44.7248 19.0271 44.8944 18.8794C45.3065 18.531 45.5614 18.0158 45.6584 17.4914C45.5926 17.2585 45.4709 17.0444 45.3826 16.819C44.7196 15.2792 44.0565 13.7387 43.3918 12.1994C43.3518 12.0987 43.2928 12.0027 43.2815 11.8934C43.283 11.7734 43.4207 11.7207 43.5227 11.7172Z" fill="white"/>
<path d="M12.6058 12.462C12.2441 12.5291 11.9142 12.7541 11.7306 13.0746C11.4238 13.5943 11.3885 14.2214 11.4023 14.8108C11.4242 15.3444 11.5099 15.9135 11.8506 16.3448C12.1047 16.6692 12.5222 16.8321 12.9281 16.8259C13.3185 16.8384 13.7275 16.7062 13.9922 16.4096C14.3302 16.0401 14.4388 15.5274 14.4853 15.044C14.5058 14.5692 14.5154 14.0858 14.3922 13.622C14.2941 13.2303 14.0871 12.8386 13.7289 12.6276C13.3955 12.4233 12.9836 12.4042 12.6058 12.462ZM12.7586 11.6169C13.4131 11.5767 14.0988 11.7125 14.639 12.0999C15.1222 12.4434 15.4504 12.9727 15.6037 13.5403C15.7859 14.2179 15.7851 14.941 15.6199 15.6221C15.4642 16.2499 15.1002 16.8419 14.551 17.1986C13.964 17.5878 13.2267 17.6889 12.5379 17.606C11.951 17.5337 11.3791 17.2765 10.9705 16.8444C10.4902 16.3417 10.2517 15.649 10.2021 14.9644C10.1418 14.2052 10.2582 13.4015 10.6808 12.7532C10.9935 12.2652 11.4906 11.9067 12.0451 11.7432C12.2763 11.671 12.5176 11.6374 12.7586 11.6169Z" fill="white"/>
<path d="M32.0646 12.4311C31.7058 12.4542 31.3595 12.6605 31.1994 12.9877C30.8865 13.593 30.8801 14.2973 30.8957 14.9628C30.9207 15.3976 30.9679 15.8465 31.1707 16.2392C31.3078 16.5036 31.5568 16.7125 31.8513 16.7765C32.3019 16.8848 32.8322 16.7931 33.1525 16.4373C33.4611 16.0862 33.5627 15.6088 33.6101 15.157C33.6427 14.642 33.6447 14.1164 33.5168 13.6122C33.4289 13.2752 33.2801 12.9386 33.0129 12.7043C32.7566 12.4789 32.3996 12.3921 32.0646 12.4311ZM33.6086 9.16598C33.6004 9.02938 33.74 8.94215 33.8615 8.93161C34.0558 8.92106 34.2508 8.92611 34.4455 8.92826C34.5939 8.92691 34.7599 9.03718 34.7385 9.2019C34.7385 11.8901 34.739 14.5779 34.7381 17.2658C34.7482 17.4045 34.6115 17.5123 34.4832 17.5207C34.3283 17.5289 34.173 17.5289 34.0187 17.5181C33.9099 17.5113 33.8045 17.4416 33.7674 17.3376C33.7092 17.1629 33.6789 16.9814 33.6345 16.8038C33.4197 17.095 33.1427 17.3526 32.7986 17.4805C32.3078 17.661 31.7615 17.6639 31.257 17.541C30.7502 17.4192 30.3088 17.0712 30.0642 16.6131C29.6804 15.9139 29.6349 15.0912 29.659 14.3112C29.6726 13.6447 29.8 12.9415 30.2345 12.4126C30.5623 11.9643 31.0994 11.707 31.6418 11.6397C32.1467 11.5659 32.6941 11.6508 33.1121 11.9565C33.3097 12.0954 33.4679 12.2818 33.6092 12.4766C33.6052 11.3733 33.6062 10.2697 33.6086 9.16598Z" fill="white"/>
<path d="M39.0412 12.4647C38.8611 12.5014 38.6867 12.5736 38.5412 12.6862C38.2502 12.9126 38.1057 13.2723 38.0285 13.6216C37.9162 14.1759 37.9177 14.7483 37.9758 15.3088C38.0301 15.7206 38.1336 16.1602 38.4358 16.4646C38.6819 16.7228 39.053 16.8175 39.4002 16.8005C39.7737 16.814 40.1623 16.675 40.4031 16.3819C40.7043 16.0179 40.7893 15.5337 40.8332 15.0776C40.8612 14.5413 40.8615 13.9921 40.7108 13.4714C40.6155 13.147 40.4412 12.8244 40.1473 12.6396C39.8235 12.4272 39.4138 12.4077 39.0412 12.4647ZM38.5412 11.7285C39.0594 11.5851 39.6141 11.5767 40.1375 11.6963C40.6239 11.809 41.0793 12.0817 41.3781 12.4857C41.6941 12.8999 41.8537 13.4134 41.9201 13.9251C41.9777 14.3197 41.9612 14.7194 41.9617 15.117C41.9617 15.8344 41.9617 16.5521 41.9598 17.2693C41.9676 17.3567 41.9123 17.4342 41.841 17.4797C41.7205 17.5538 41.5711 17.5211 41.4367 17.5294C41.286 17.5283 41.0877 17.5415 41.0056 17.3848C40.9256 17.2006 40.909 16.9951 40.8576 16.8013C40.6554 17.0468 40.4461 17.3001 40.1535 17.442C39.7078 17.6622 39.1867 17.6493 38.7098 17.5562C38.1262 17.441 37.5887 17.0962 37.2586 16.5993C36.8655 16.0206 36.7228 15.3063 36.7283 14.616C36.7234 13.9431 36.8553 13.2473 37.2297 12.678C37.5291 12.2126 38.0095 11.8755 38.5412 11.7285Z" fill="white"/>
<path d="M48.9787 16.1364C48.6824 16.2451 48.4959 16.5866 48.5715 16.895C48.6487 17.257 49.0701 17.5041 49.4217 17.3702C49.7459 17.2713 49.9504 16.9018 49.8498 16.5761C49.7615 16.2096 49.3264 15.9929 48.9787 16.1364ZM49.0198 15.9816C49.1955 15.9539 49.3865 15.9519 49.5496 16.0333C49.8274 16.1594 50.027 16.4574 49.9969 16.7673C50.02 17.137 49.7088 17.4674 49.3537 17.5269C48.9539 17.6118 48.5237 17.3224 48.4422 16.9239C48.3371 16.5228 48.616 16.0714 49.0198 15.9816Z" fill="white"/>
<path d="M49.1024 16.432C49.1018 16.5159 49.1014 16.5999 49.1024 16.6844C49.1761 16.6799 49.2518 16.6844 49.3245 16.6643C49.3928 16.636 49.386 16.5491 49.3675 16.491C49.2968 16.4219 49.1917 16.4398 49.1024 16.432ZM48.8802 16.2954C49.0927 16.3075 49.3309 16.2476 49.5223 16.3661C49.6766 16.4818 49.6018 16.7336 49.4276 16.7872C49.4778 16.9199 49.5477 17.0433 49.6116 17.1697C49.5311 17.1713 49.452 17.1727 49.3729 17.174C49.3157 17.0569 49.2596 16.9385 49.205 16.8204C49.1702 16.8194 49.136 16.819 49.1024 16.8184C49.1018 16.9365 49.1018 17.0546 49.1018 17.1727C49.0266 17.1717 48.953 17.1707 48.8792 17.1701C48.8798 16.8784 48.8788 16.5866 48.8802 16.2954Z" fill="white"/>
</svg>
